# vtk DataFile Version 3.0
Generated by FvKompasPlugin. Date/time (GMT): Sat Jun 20 13:19:01 2026
ASCII
DATASET UNSTRUCTURED_GRID
POINTS 45 double
-35 1.651059733376314e-12 -1.85
-35.00148828125 -0.521203125 -1.77506201171875
-35.002859375 -1.000181457519531 -1.556319091796875
-35.00399609375 -1.398130981445312 -1.211492309570313
-35.00480859375 -1.682812377929688 -0.7685177612304688
-35.00523046875 -1.831162231445312 -0.2632824401855469
-35.00523046875 -1.831162231445312 0.2632824401855469
-35.00480859375 -1.682812377929688 0.7685177612304688
-35.00399609375 -1.398130981445312 1.211492309570313
-35.002859375 -1.000181457519531 1.556319091796875
-35.00148828125 -0.521203125 1.77506201171875
-35 2.556909350914793e-12 1.85
-34.99851171875 0.521203125 1.77506201171875
-34.997140625 1.000181457519531 1.556319091796875
-34.99600390625 1.398130981445312 1.211492309570313
-34.99519140625 1.682812377929688 0.7685177612304688
-34.99476953125 1.831162231445312 0.2632824401855469
-34.99476953125 1.831162231445312 -0.2632824401855469
-34.99519140625 1.682812377929688 -0.7685177612304688
-34.99600390625 1.398130981445312 -1.211492309570313
-34.997140625 1.000181457519531 -1.556319091796875
-34.99851171875 0.521203125 -1.77506201171875
20.689912109375 -0.03252767562866211 -1.85
20.69079296875 -0.553732177734375 -1.77506201171875
20.6916015625 -1.032711791992188 -1.556319091796875
20.6922734375 -1.430662353515625 -1.211492309570313
20.69275390625 -1.715344482421875 -0.7685177612304688
20.693005859375 -1.863694702148438 -0.2632824401855469
20.693005859375 -1.863694702148438 0.2632824401855469
20.69275390625 -1.715344482421875 0.7685177612304688
20.6922734375 -1.430662353515625 1.211492309570313
20.6916015625 -1.032711791992188 1.556319091796875
20.69079296875 -0.553732177734375 1.77506201171875
20.689912109375 -0.03252767562866211 1.85
20.689033203125 0.4886768188476562 1.77506201171875
20.68822265625 0.9676564331054688 1.556319091796875
20.68755078125 1.365607055664062 1.211492309570313
20.6870703125 1.6502890625 0.7685177612304688
20.6868203125 1.798639404296875 0.2632824401855469
20.6868203125 1.798639404296875 -0.2632824401855469
20.6870703125 1.6502890625 -0.7685177612304688
20.68755078125 1.365607055664062 -1.211492309570313
20.68822265625 0.9676564331054688 -1.556319091796875
20.689033203125 0.4886768188476562 -1.77506201171875
-7.15506201171875 -0.04791041564941406 -1.85

CELLS 86 344
3 21 0 20
3 0 1 20
3 20 1 19
3 1 2 19
3 19 2 18
3 2 3 18
3 18 3 17
3 3 4 17
3 17 4 16
3 4 5 16
3 16 5 15
3 5 6 15
3 15 6 14
3 6 7 14
3 14 7 13
3 7 8 13
3 13 8 12
3 8 9 12
3 12 9 11
3 9 10 11
3 44 22 23
3 23 24 2
3 24 25 3
3 25 26 4
3 26 27 5
3 27 28 6
3 28 29 7
3 29 30 8
3 30 31 9
3 31 32 10
3 32 33 11
3 33 34 12
3 34 35 13
3 35 36 14
3 36 37 15
3 37 38 16
3 38 39 17
3 39 40 18
3 40 41 19
3 41 42 20
3 42 43 21
3 43 22 44
3 44 0 21
3 21 20 42
3 20 19 41
3 19 18 40
3 18 17 39
3 17 16 38
3 16 15 37
3 15 14 36
3 14 13 35
3 13 12 34
3 12 11 33
3 11 10 32
3 10 9 31
3 9 8 30
3 8 7 29
3 7 6 28
3 6 5 27
3 5 4 26
3 4 3 25
3 3 2 24
3 2 1 23
3 1 0 44
3 44 23 1
3 21 43 44
3 23 22 24
3 22 43 24
3 24 43 25
3 43 42 25
3 25 42 26
3 42 41 26
3 26 41 27
3 41 40 27
3 27 40 28
3 40 39 28
3 28 39 29
3 39 38 29
3 29 38 30
3 38 37 30
3 30 37 31
3 37 36 31
3 31 36 32
3 36 35 32
3 32 35 33
3 35 34 33

CELL_TYPES 86
5 5 5 5 5 5 5 5 5 5 5 5 5 5 5 5 5 5 5 5
5 5 5 5 5 5 5 5 5 5 5 5 5 5 5 5 5 5 5 5
5 5 5 5 5 5 5 5 5 5 5 5 5 5 5 5 5 5 5 5
5 5 5 5 5 5 5 5 5 5 5 5 5 5 5 5 5 5 5 5
5 5 5 5 5 5

CELL_DATA 86
FIELD FieldData 1
PATCH_IDS 1 86 int
1 1 1 1 1 1 1 1 1 1 1 1 1 1 1 1 1 1 1 1
2 2 2 2 2 2 2 2 2 2 2 2 2 2 2 2 2 2 2 2
2 2 2 2 2 2 2 2 2 2 2 2 2 2 2 2 2 2 2 2
2 2 2 2 2 2 3 3 3 3 3 3 3 3 3 3 3 3 3 3
3 3 3 3 3 3 

