# vtk DataFile Version 3.0
Generated by FvKompasPlugin. Date/time (GMT): Sat Jun 20 16:52:21 2026
ASCII
DATASET UNSTRUCTURED_GRID
POINTS 1087 double
29.52205168970053 -0.008412394136225437 -2.599999999999991
30.20825383596272 -0.007253418324137336 -2.483830810546866
30.88587201009332 -0.006108940595633726 -2.325073242187491
31.55226363773647 -0.004983424183271602 -2.124345703124991
32.20483301946945 -0.003881253149185952 -1.882430664062491
32.84103523704709 -0.002806725787554299 -1.600270507812491
33.45839568462397 -0.001764021636920717 -1.278964843749991
34.0545042093877 -0.0007572113764985673 -0.9197658691406156
34.62704050214776 0.0002097860578080741 -0.5240731201171781
34.62727931093852 -0.1411832465246544 -0.5046390991210844
34.62750040838834 -0.27208981335119 -0.4477782592773344
34.62768739671007 -0.3828011727763216 -0.3577077636718656
34.62782640780742 -0.4651063532350828 -0.2411077270507719
34.62790713189771 -0.5129011764222126 -0.1066258316039946
34.62792358192394 -0.5226408475890042 0.03576401519776323
34.62787453806369 -0.4936031387616731 0.1755014038086031
34.62776363756902 -0.4279415808041611 0.3022226562500094
34.62759910540154 -0.3305259787823293 0.4065294494629
34.6273931441922 -0.2085812216832297 0.4806857910156344
34.6271610291421 -0.07115139450757312 0.5191918945312595
34.62691997515343 0.07157096662318915 0.5191918945312595
34.62668786010333 0.2090007937988457 0.4806857910156345
34.62648189889401 0.3309455508979453 0.4065294494629001
34.62631736672651 0.4283611529197772 0.3022226562500094
34.62620646623185 0.4940227108772892 0.1755014038086032
34.6261574223716 0.5230604197046204 0.03576401519776332
34.62617387239781 0.5133207485378286 -0.1066258316039945
34.62625459648812 0.4655259253506989 -0.2411077270507719
34.62639360758546 0.3832207448919378 -0.3577077636718656
34.6265805959072 0.2725093854668063 -0.4477782592773343
34.62680169335701 0.1416028186402707 -0.5046390991210843
29.52149014023496 0.324067752981505 -2.578654052734366
29.52093781144333 0.6510885573000197 -2.514966552734366
29.52040377241093 0.9672804280893541 -2.409983642578116
29.51989679224134 1.267451386670901 -2.265428710937491
29.51942519527149 1.546672790172097 -2.083675537109366
29.51899672535834 1.800359684195011 -1.867708251953116
29.51861841794846 2.024346547337225 -1.621073486328116
29.51829648482741 2.214955528399187 -1.347820678710928
29.51803621165174 2.369057115242991 -1.052436645507803
29.51784187300575 2.484120427689399 -0.7397717285156157
29.51771665921003 2.558256552416963 -0.4149597167968656
29.51766262663384 2.590247961865383 -0.08333409881590863
29.51768066223333 2.579569510299303 0.2496598663330171
29.5177704699441 2.526396490437452 0.5785544433593843
29.51793057521701 2.431601947909595 0.8979491577148531
29.51815834893432 2.296742521120482 1.202599609375009
29.51845005153061 2.12403231824023 1.487503295898447
29.5188008925768 1.916307638934331 1.747982299804697
29.51920511180614 1.676979000799262 1.979759521484384
29.5196560716859 1.409976329870352 2.179029052734384
29.52014636751369 1.119683775167877 2.342519042968759
29.52066794885335 0.8108678093855499 2.467544921875009
29.5212122511249 0.488599317624696 2.552053710937509
29.52177033691026 0.1581699335731503 2.594657958984384
29.52233304249079 -0.1749947218456018 2.594657958984384
29.52289112827616 -0.5054241058971475 2.552053710937509
29.5234354305477 -0.8276925976580012 2.467544921875009
29.52395701188737 -1.136508563440328 2.342519042968759
29.52444730771516 -1.426801118142804 2.179029052734384
29.52489826759492 -1.693803789071714 1.979759521484384
29.52530248682427 -1.933132427206782 1.747982299804696
29.52565332787044 -2.140857106512681 1.487503295898446
29.52594503046673 -2.313567309392933 1.202599609375009
29.52617280418404 -2.448426736182046 0.8979491577148526
29.52633290945696 -2.543221278709903 0.5785544433593839
29.52642271716773 -2.596394298571754 0.2496598663330167
29.52644075276721 -2.607072750137833 -0.08333409881590911
29.52638672019103 -2.575081340689414 -0.4149597167968662
29.52626150639531 -2.50094521596185 -0.7397717285156161
29.52606716774932 -2.385881903515442 -1.052436645507804
29.52580689457365 -2.231780316671637 -1.347820678710929
29.52548496145259 -2.041171335609676 -1.621073486328116
29.52510665404272 -1.817184472467462 -1.867708251953116
29.52467818412956 -1.563497578444547 -2.083675537109366
29.52420658715972 -1.284276174943352 -2.265428710937492
29.52369960699013 -0.9841052163618046 -2.409983642578116
29.52316556795772 -0.6679133455724702 -2.514966552734367
29.5226132391661 -0.3408925412539556 -2.578654052734366
34.05469890905547 -0.1160342762646109 -0.9125132446288969
34.05489053818911 -0.2294933505816812 -0.8908696899413969
34.05507607466652 -0.3393451073510377 -0.8551766357421782
34.05525259254527 -0.443857165315568 -0.8059969482421782
34.055417307949 -0.541381257172894 -0.7441062011718657
34.0555676232013 -0.6303793602143707 -0.6704804687499907
34.0557011678284 -0.7094479730238596 -0.5862808227538969
34.05581583567029 -0.7773400881026374 -0.4928351745605375
34.0559098183838 -0.8329850282668856 -0.391617248535147
34.05598163389448 -0.8755052923267876 -0.2842232666015532
34.05603014938495 -0.9042301659069598 -0.1723469390869048
34.05605460005654 -0.9187068298290442 -0.05775257492064505
34.05605460005654 -0.9187068298290442 0.05775257492066355
34.05603014938495 -0.9042301659069598 0.1723469390869233
34.05598163389448 -0.8755052923267876 0.2842232666015718
34.0559098183838 -0.8329850282668856 0.3916172485351655
34.05581583567029 -0.7773400881026374 0.4928351745605562
34.0557011678284 -0.7094479730238596 0.5862808227539156
34.0555676232013 -0.6303793602143709 0.6704804687500093
34.055417307949 -0.5413812571728941 0.7441062011718843
34.05525259254527 -0.4438571653155681 0.8059969482421968
34.05507607466652 -0.3393451073510378 0.8551766357421968
34.05489053818911 -0.2294933505816813 0.8908696899414156
34.05469890905547 -0.1160342762646111 0.9125132446289156
34.0545042093877 -0.0007572113764976223 0.9197658691406343
34.05430950971994 0.1145198535116135 0.9125132446289156
34.0541178805863 0.2279789278286837 0.8908696899414157
34.05393234410888 0.3378306845980402 0.8551766357421969
34.05375582623012 0.4423427425625706 0.8059969482421969
34.0535911108264 0.5398668344198966 0.7441062011718844
34.0534407955741 0.6288649374613734 0.6704804687500094
34.05330725094699 0.7079335502708624 0.5862808227539157
34.05319258310512 0.7758256653496403 0.4928351745605563
34.05309860039161 0.8314706055138884 0.3916172485351657
34.05302678488093 0.8739908695737905 0.2842232666015719
34.05297826939046 0.9027157431539625 0.1723469390869235
34.05295381871886 0.917192407076047 0.05775257492066372
34.05295381871886 0.917192407076047 -0.05775257492064487
34.05297826939046 0.9027157431539625 -0.1723469390869047
34.05302678488093 0.8739908695737905 -0.2842232666015531
34.05309860039161 0.8314706055138884 -0.3916172485351468
34.05319258310512 0.7758256653496403 -0.4928351745605374
34.05330725094699 0.7079335502708624 -0.5862808227538968
34.0534407955741 0.6288649374613736 -0.6704804687499906
34.0535911108264 0.5398668344198968 -0.7441062011718655
34.05375582623012 0.4423427425625707 -0.805996948242178
34.05393234410888 0.3378306845980403 -0.8551766357421781
34.0541178805863 0.2279789278286838 -0.8908696899413968
34.05430950971994 0.1145198535116137 -0.9125132446288969
33.45866642094924 -0.1620605917101809 -1.268879882812491
33.45893288763839 -0.3198292112875228 -1.238783813476553
33.45919088224188 -0.4725817094793756 -1.189151489257803
33.45943633621955 -0.6179091999510532 -1.120765502929678
33.45966537841609 -0.7535196632666108 -1.034704345703116
33.45987439678407 -0.8772744916365245 -0.9323252563476471
33.46006009492686 -0.9872219666531461 -0.8152429199218658
33.46021954436355 -1.081628204070784 -0.6853036499023346
33.46035023060853 -1.159004436481634 -0.5445567626953033
33.46045009234441 -1.218130206642073 -0.3952218933105377
33.46051755482199 -1.258073142835078 -0.2396541137695221
33.46055155418874 -1.278203363146557 -0.08030686950682675
33.46055155418874 -1.278203363146557 0.08030686950684514
33.46051755482199 -1.258073142835078 0.2396541137695404
33.46045009234441 -1.218130206642073 0.3952218933105561
33.46035023060853 -1.159004436481634 0.5445567626953217
33.46021954436355 -1.081628204070784 0.6853036499023529
33.46006009492686 -0.9872219666531463 0.8152429199218842
33.45987439678407 -0.8772744916365247 0.9323252563476655
33.45966537841609 -0.753519663266611 1.034704345703134
33.45943633621955 -0.6179091999510534 1.120765502929697
33.45919088224188 -0.4725817094793758 1.189151489257822
33.45893288763839 -0.319829211287523 1.238783813476572
33.45866642094924 -0.1620605917101812 1.268879882812509
33.45839568462397 -0.001764021636919395 1.278964843750009
33.45812494829869 0.1585325484363391 1.268879882812509
33.45785848160956 0.3163011680136809 1.238783813476572
33.45760048700605 0.4690536662055338 1.189151489257822
33.45735503302839 0.6143811566772116 1.120765502929697
33.45712599083185 0.749991619992769 1.034704345703134
33.45691697246388 0.8737464483626829 0.9323252563476657
33.45673127432108 0.9836939233793044 0.8152429199218845
33.45657182488439 1.078100160796942 0.6853036499023532
33.45644113863941 1.155476393207792 0.5445567626953219
33.45634127690353 1.214602163368231 0.3952218933105563
33.45627381442594 1.254545099561236 0.2396541137695407
33.4562398150592 1.274675319872715 0.08030686950684536
33.4562398150592 1.274675319872715 -0.08030686950682651
33.45627381442594 1.254545099561236 -0.2396541137695218
33.45634127690353 1.214602163368231 -0.3952218933105374
33.45644113863941 1.155476393207792 -0.5445567626953031
33.45657182488439 1.078100160796942 -0.6853036499023343
33.45673127432108 0.9836939233793044 -0.8152429199218656
33.45691697246388 0.8737464483626831 -0.9323252563476468
33.45712599083185 0.7499916199927692 -1.034704345703116
33.45735503302839 0.6143811566772118 -1.120765502929678
33.45760048700605 0.4690536662055341 -1.189151489257803
33.45785848160956 0.3163011680136811 -1.238783813476553
33.45812494829869 0.1585325484363393 -1.268879882812491
32.84137398862548 -0.2033735173536104 -1.587651855468741
32.84170739790127 -0.4007772580112394 -1.549994995117178
32.84203020679358 -0.5919047625035468 -1.487893920898428
32.84233732432466 -0.7737417834208034 -1.402327758789053
32.84262390733672 -0.9434208016596242 -1.294645996093741
32.84288543600272 -1.098265734611155 -1.166546997070304
32.84311778593538 -1.235834630191972 -1.020050781249991
32.84331729271933 -1.353957874797402 -0.8574678344726471
32.84348081015499 -1.450772678115613 -0.6813620605468658
32.84360575943077 -1.524752186855623 -0.494510772705069
32.84369017015158 -1.574729776704838 -0.2998607788085846
32.84373271085231 -1.599917118709538 -0.1004818115234284
32.84373271085231 -1.599917118709538 0.1004818115234466
32.84369017015158 -1.574729776704838 0.2998607788086029
32.84360575943077 -1.524752186855623 0.4945107727050873
32.84348081015499 -1.450772678115613 0.6813620605468842
32.84331729271933 -1.353957874797402 0.8574678344726655
32.84311778593538 -1.235834630191972 1.020050781250009
32.84288543600272 -1.098265734611155 1.166546997070322
32.84262390733672 -0.9434208016596244 1.294645996093759
32.84233732432466 -0.7737417834208036 1.402327758789072
32.84203020679358 -0.5919047625035471 1.487893920898447
32.84170739790127 -0.4007772580112397 1.549994995117197
32.84137398862548 -0.2033735173536106 1.587651855468759
32.84103523704709 -0.002806725787552665 1.600270507812509
32.84069648546872 0.1977600657785012 1.587651855468759
32.84036307619292 0.3951638064361303 1.549994995117197
32.84004026730061 0.586291310928438 1.487893920898447
32.83973314976953 0.7681283318456945 1.402327758789072
32.83944656675747 0.9378073500845152 1.294645996093759
32.83918503809148 1.092652283036045 1.166546997070322
32.83895268815882 1.230221178616863 1.020050781250009
32.83875318137486 1.348344423222293 0.8574678344726657
32.83858966393921 1.445159226540503 0.6813620605468844
32.83846471466342 1.519138735280513 0.4945107727050876
32.83838030394261 1.569116325129729 0.2998607788086032
32.83833776324187 1.594303667134429 0.1004818115234469
32.83833776324187 1.594303667134429 -0.1004818115234281
32.83838030394261 1.569116325129729 -0.2998607788085843
32.83846471466342 1.519138735280513 -0.4945107727050687
32.83858966393921 1.445159226540503 -0.6813620605468655
32.83875318137486 1.348344423222293 -0.8574678344726469
32.83895268815882 1.230221178616863 -1.020050781249991
32.83918503809148 1.092652283036045 -1.166546997070303
32.83944656675747 0.9378073500845154 -1.294645996093741
32.83973314976953 0.7681283318456947 -1.402327758789053
32.84004026730061 0.5862913109284382 -1.487893920898428
32.84036307619292 0.3951638064361305 -1.549994995117178
32.84069648546872 0.1977600657785015 -1.587651855468741
32.2052314998225 -0.2398120384646345 -1.867587158203116
32.20562369586865 -0.4720220344093521 -1.823290649414053
32.20600342252175 -0.6968491978667083 -1.750239746093741
32.20636469117848 -0.9107478185619582 -1.649586547851553
32.20670180450639 -1.110344640808367 -1.522918334960929
32.20700944592301 -1.292491841947273 -1.372232910156241
32.20728276386897 -1.454316928517151 -1.199906494140616
32.20751744788587 -1.593267780134681 -1.008656799316397
32.20770979675648 -1.707152993675487 -0.8014999999999909
32.20785677726401 -1.794176673263575 -0.5817030639648346
32.20795607119951 -1.852966262262888 -0.3527323303222565
32.20800611267925 -1.882594637972353 -0.1181987991332917
32.20800611267925 -1.882594637972353 0.1181987991333099
32.20795607119951 -1.852966262262888 0.3527323303222747
32.20785677726401 -1.794176673263575 0.5817030639648528
32.20770979675648 -1.707152993675487 0.8015000000000091
32.20751744788587 -1.593267780134681 1.008656799316415
32.20728276386897 -1.454316928517151 1.199906494140634
32.20700944592301 -1.292491841947273 1.372232910156259
32.20670180450639 -1.110344640808367 1.522918334960947
32.20636469117848 -0.9107478185619584 1.649586547851572
32.20600342252175 -0.6968491978667085 1.750239746093759
32.20562369586865 -0.4720220344093525 1.823290649414072
32.2052314998225 -0.2398120384646348 1.867587158203134
32.20483301946945 -0.003881253149184012 1.882430664062509
32.2044345391164 0.232049532166262 1.867587158203134
32.20404234307024 0.4642595281109796 1.823290649414072
32.20366261641715 0.689086691568336 1.750239746093759
32.20330134776042 0.9029853122635859 1.649586547851572
32.2029642344325 1.102582134509995 1.522918334960947
32.20265659301588 1.2847293356489 1.372232910156259
32.20238327506993 1.446554422218778 1.199906494140634
32.20214859105303 1.585505273836309 1.008656799316416
32.20195624218241 1.699390487377115 0.8015000000000094
32.20180926167489 1.786414166965202 0.5817030639648532
32.20170996773938 1.845203755964515 0.3527323303222751
32.20165992625965 1.874832131673981 0.1181987991333102
32.20165992625965 1.874832131673981 -0.1181987991332914
32.20170996773938 1.845203755964515 -0.3527323303222562
32.20180926167489 1.786414166965202 -0.5817030639648343
32.20195624218241 1.699390487377115 -0.8014999999999906
32.20214859105303 1.585505273836309 -1.008656799316397
32.20238327506993 1.446554422218778 -1.199906494140616
32.20265659301588 1.284729335648901 -1.372232910156241
32.2029642344325 1.102582134509995 -1.522918334960928
32.20330134776042 0.9029853122635861 -1.649586547851553
32.20366261641715 0.6890866915683362 -1.750239746093741
32.20404234307024 0.46425952811098 -1.823290649414053
32.2044345391164 0.2320495321662623 -1.867587158203116
31.55271332764225 -0.2712341735772343 -2.107594726562491
31.55315592571313 -0.533286015385927 -2.057605468749991
31.55358445180842 -0.7870061735215529 -1.975166748046866
31.55399214783573 -1.028393341435361 -1.861578369140616
31.55437258439392 -1.253640822896729 -1.718631835937491
31.554719761334 -1.459196071703161 -1.548581420898429
31.55502820393879 -1.64181763739985 -1.354109008789053
31.55529304776313 -1.798625397141622 -1.138281372070303
31.55551011574256 -1.927146209924697 -0.9045024414062409
31.55567598499334 -2.025353467311522 -0.6564589233398347
31.55578803938659 -2.091698221316068 -0.3980627136230379
31.55584451181376 -2.125134208782195 -0.1333887786865144
31.55584451181376 -2.125134208782195 0.1333887786865325
31.55578803938659 -2.091698221316068 0.3980627136230559
31.55567598499334 -2.025353467311522 0.6564589233398529
31.55551011574256 -1.927146209924697 0.9045024414062591
31.55529304776313 -1.798625397141622 1.138281372070322
31.55502820393879 -1.64181763739985 1.354109008789072
31.554719761334 -1.459196071703161 1.548581420898447
31.55437258439392 -1.253640822896729 1.718631835937509
31.55399214783573 -1.028393341435361 1.861578369140634
31.55358445180842 -0.7870061735215533 1.975166748046884
31.55315592571313 -0.5332860153859273 2.057605468750009
31.55271332764225 -0.2712341735772347 2.107594726562509
31.55226363773647 -0.004983424183269414 2.124345703125009
31.55181394783069 0.2612673252106905 2.107594726562509
31.55137134975982 0.5233191670193833 2.057605468750009
31.55094282366452 0.7770393251550093 1.975166748046884
31.55053512763722 1.018426493068817 1.861578369140634
31.55015469107902 1.243673974530185 1.718631835937509
31.54980751413894 1.449229223336617 1.548581420898447
31.54949907153415 1.631850789033306 1.354109008789072
31.54923422770981 1.788658548775079 1.138281372070322
31.54901715973039 1.917179361558153 0.9045024414062595
31.54885129047961 2.015386618944978 0.6564589233398532
31.54873923608635 2.081731372949525 0.3980627136230563
31.54868276365918 2.115167360415651 0.1333887786865328
31.54868276365918 2.115167360415651 -0.133388778686514
31.54873923608635 2.081731372949525 -0.3980627136230375
31.54885129047961 2.015386618944978 -0.6564589233398344
31.54901715973039 1.917179361558153 -0.9045024414062406
31.54923422770981 1.788658548775079 -1.138281372070303
31.54949907153415 1.631850789033306 -1.354109008789053
31.54980751413894 1.449229223336618 -1.548581420898428
31.55015469107902 1.243673974530185 -1.718631835937491
31.55053512763722 1.018426493068818 -1.861578369140616
31.55094282366452 0.7770393251550097 -1.975166748046866
31.55137134975982 0.5233191670193837 -2.057605468749991
31.55181394783069 0.2612673252106908 -2.107594726562491
30.88636419080598 -0.2975174910208054 -2.306739257812491
30.88684860951849 -0.5843303448758703 -2.252026855468741
30.8873176266459 -0.8620242847353915 -2.161798339843741
30.88776384547502 -1.126219891796955 -2.037477294921866
30.88818022911605 -1.372750790167171 -1.881023803710928
30.88856021065048 -1.597728862833112 -1.694905517578116
30.88889779766081 -1.797606141222472 -1.482057495117178
30.88918766614232 -1.969230408151607 -1.245836547851553
30.88942524503396 -2.109895246582271 -0.9899680786132723
30.88960678693576 -2.217381909679089 -0.7184871826171786
30.88972942934213 -2.289995575640653 -0.435675292968741
30.88979123793823 -2.326590982428589 -0.1459925537109286
30.88979123793823 -2.326590982428589 0.1459925537109465
30.88972942934213 -2.289995575640653 0.435675292968759
30.88960678693576 -2.217381909679089 0.7184871826171965
30.88942524503396 -2.109895246582271 0.9899680786132903
30.88918766614232 -1.969230408151607 1.245836547851572
30.88889779766081 -1.797606141222473 1.482057495117197
30.88856021065048 -1.597728862833113 1.694905517578134
30.88818022911605 -1.372750790167172 1.881023803710947
30.88776384547502 -1.126219891796955 2.037477294921884
30.8873176266459 -0.8620242847353919 2.161798339843759
30.88684860951849 -0.5843303448758708 2.252026855468759
30.88636419080598 -0.2975174910208058 2.306739257812509
30.88587201009332 -0.006108940595631339 2.325073242187509
30.88537982938065 0.2852996098295372 2.306739257812509
30.88489541066815 0.5721124636846022 2.252026855468759
30.88442639354074 0.8498064035441233 2.161798339843759
30.88398017471162 1.114002010605686 2.037477294921884
30.88356379107059 1.360532908975903 1.881023803710947
30.88318380953615 1.585510981641844 1.694905517578134
30.88284622252582 1.785388260031204 1.482057495117197
30.88255635404433 1.957012526960338 1.245836547851572
30.88231877515268 2.097677365391003 0.9899680786132907
30.88213723325088 2.205164028487821 0.7184871826171969
30.88201459084451 2.277777694449385 0.4356752929687594
30.88195278224841 2.314373101237321 0.1459925537109469
30.88195278224841 2.314373101237321 -0.1459925537109281
30.88201459084451 2.277777694449385 -0.4356752929687406
30.88213723325088 2.205164028487821 -0.718487182617178
30.88231877515268 2.097677365391003 -0.9899680786132719
30.88255635404433 1.957012526960339 -1.245836547851553
30.88284622252582 1.785388260031205 -1.482057495117178
30.88318380953615 1.585510981641844 -1.694905517578116
30.88356379107059 1.360532908975904 -1.881023803710928
30.88398017471162 1.114002010605687 -2.037477294921866
30.88442639354074 0.8498064035441238 -2.161798339843741
30.88489541066815 0.5721124636846027 -2.252026855468741
30.88537982938065 0.2852996098295377 -2.306739257812491
30.20877962307644 -0.3185595233770163 -2.464245117187491
30.20929711822237 -0.6249561505690571 -2.405796874999991
30.20979816019795 -0.9216112450246959 -2.309407470703116
30.21027484716618 -1.203846316102463 -2.176597656249991
30.21071966185426 -1.467210564486521 -2.009461425781241
30.21112558860819 -1.707550187507736 -1.810634765624991
30.21148622637561 -1.921075273579512 -1.583253417968741
30.21179588725651 -2.104418151723948 -1.330903198242179
30.21204968825015 -2.254687712783414 -1.057563720703116
30.21224362609589 -2.369513720880791 -0.7675459594726473
30.21237464242381 -2.447085387583204 -0.4654234924316317
30.2124406713807 -2.486179570103983 -0.1559610290527255
30.2124406713807 -2.486179570103983 0.1559610290527433
30.21237464242381 -2.447085387583204 0.4654234924316495
30.21224362609589 -2.369513720880791 0.7675459594726652
30.21204968825015 -2.254687712783414 1.057563720703134
30.21179588725651 -2.104418151723948 1.330903198242196
30.21148622637561 -1.921075273579513 1.583253417968759
30.21112558860819 -1.707550187507736 1.810634765625009
30.21071966185426 -1.467210564486522 2.009461425781259
30.21027484716618 -1.203846316102464 2.176597656250009
30.20979816019795 -0.9216112450246964 2.309407470703134
30.20929711822237 -0.6249561505690575 2.405796875000009
30.20877962307644 -0.3185595233770168 2.464245117187509
30.20825383596272 -0.007253418324134785 2.483830810546884
30.207728048849 0.3040526867287409 2.464245117187509
30.20721055370306 0.6104493139207817 2.405796875000009
30.20670951172749 0.9071044083764206 2.309407470703134
30.20623282475924 1.189339479454188 2.176597656250009
30.20578801007117 1.452703727838246 2.00946142578126
30.20538208331725 1.693043350859461 1.810634765625009
30.20502144554982 1.906568436931237 1.583253417968759
30.20471178466892 2.089911315075673 1.330903198242197
30.20445798367528 2.240180876135138 1.057563720703134
30.20426404582954 2.355006884232516 0.7675459594726656
30.20413302950163 2.432578550934929 0.46542349243165
30.20406700054474 2.471672733455708 0.1559610290527437
30.20406700054474 2.471672733455708 -0.155961029052725
30.20413302950163 2.432578550934929 -0.4654234924316313
30.20426404582954 2.355006884232516 -0.7675459594726469
30.20445798367528 2.240180876135138 -1.057563720703116
30.20471178466892 2.089911315075673 -1.330903198242178
30.20502144554982 1.906568436931238 -1.583253417968741
30.20538208331725 1.693043350859461 -1.810634765624991
30.20578801007117 1.452703727838247 -2.009461425781241
30.20623282475924 1.189339479454188 -2.176597656249991
30.20670951172749 0.907104408376421 -2.309407470703116
30.20721055370306 0.6104493139207822 -2.405796874999991
30.207728048849 0.3040526867287413 -2.464245117187491
25.90149240061982 -0.01452741529308298 -2.599999999999991
25.90205395008539 -0.3470075624108132 -2.578654052734366
25.90260627887702 -0.6740283667293276 -2.514966552734367
25.90314031790942 -0.9902202375186621 -2.409983642578116
25.90364729807902 -1.290391196100209 -2.265428710937492
25.90411889504886 -1.569612599601405 -2.083675537109366
25.90454736496201 -1.823299493624319 -1.867708251953116
25.9049256723719 -2.047286356766534 -1.621073486328116
25.90524760549294 -2.237895337828495 -1.347820678710929
25.90550787866861 -2.391996924672299 -1.052436645507804
25.90570221731461 -2.507060237118707 -0.7397717285156162
25.90582743111032 -2.581196361846271 -0.4149597167968663
25.90588146368651 -2.613187771294691 -0.08333409881590931
25.90586342808702 -2.602509319728611 0.2496598663330165
25.90577362037626 -2.54933629986676 0.5785544433593838
25.90561351510334 -2.454541757338903 0.8979491577148525
25.90538574138602 -2.31968233054979 1.202599609375009
25.90509403878974 -2.146972127669539 1.487503295898446
25.90474319774356 -1.93924744836364 1.747982299804696
25.90433897851421 -1.699918810228571 1.979759521484384
25.90388801863445 -1.432916139299661 2.179029052734384
25.90339772280667 -1.142623584597185 2.342519042968759
25.902876141467 -0.8338076188148588 2.467544921875009
25.90233183919545 -0.5115391270540051 2.552053710937509
25.90177375341009 -0.1811097430024594 2.594657958984384
25.90121104782956 0.1520549124162928 2.594657958984384
25.90065296204419 0.4824842964678384 2.552053710937509
25.90010865977265 0.8047527882286923 2.467544921875009
25.89958707843298 1.113568754011019 2.342519042968759
25.89909678260519 1.403861308713495 2.179029052734384
25.89864582272543 1.670863979642405 1.979759521484384
25.89824160349609 1.910192617777473 1.747982299804697
25.8978907624499 2.117917297083373 1.487503295898447
25.89759905985362 2.290627499963625 1.202599609375009
25.89737128613631 2.425486926752738 0.897949157714853
25.89721118086339 2.520281469280594 0.5785544433593842
25.89712137315262 2.573454489142445 0.249659866333017
25.89710333755314 2.584132940708525 -0.08333409881590884
25.89715737012932 2.552141531260106 -0.4149597167968658
25.89728258392504 2.478005406532542 -0.7397717285156158
25.89747692257103 2.362942094086134 -1.052436645507803
25.8977371957467 2.208840507242329 -1.347820678710928
25.89805912886775 2.018231526180368 -1.621073486328116
25.89843743627763 1.794244663038154 -1.867708251953116
25.89886590619079 1.540557769015239 -2.083675537109366
25.89933750316063 1.261336365514044 -2.265428710937492
25.89984448333022 0.9611654069324966 -2.409983642578116
25.90037852236263 0.6449735361431622 -2.514966552734367
25.90093085115425 0.3179527318246474 -2.578654052734366
22.28079053361748 -0.02064267725997503 -2.599999999999991
22.28135208308305 -0.3531228243777052 -2.578654052734366
22.28190441187467 -0.6801436286962197 -2.514966552734367
22.28243845090708 -0.9963354994855541 -2.409983642578116
22.28294543107668 -1.296506458067102 -2.265428710937492
22.28341702804651 -1.575727861568297 -2.083675537109367
22.28384549795967 -1.829414755591211 -1.867708251953116
22.28422380536955 -2.053401618733425 -1.621073486328116
22.2845457384906 -2.244010599795387 -1.347820678710929
22.28480601166627 -2.398112186639192 -1.052436645507804
22.28500035031226 -2.5131754990856 -0.7397717285156165
22.28512556410798 -2.587311623813164 -0.4149597167968665
22.28517959668416 -2.619303033261583 -0.0833340988159095
22.28516156108467 -2.608624581695504 0.2496598663330163
22.28507175337392 -2.555451561833652 0.5785544433593836
22.28491164810099 -2.460657019305796 0.8979491577148523
22.28468387438368 -2.325797592516683 1.202599609375009
22.2843921717874 -2.153087389636431 1.487503295898446
22.28404133074121 -1.945362710330532 1.747982299804696
22.28363711151187 -1.706034072195463 1.979759521484384
22.2831861516321 -1.439031401266553 2.179029052734383
22.28269585580432 -1.148738846564078 2.342519042968758
22.28217427446465 -0.8399228807817508 2.467544921875009
22.28162997219311 -0.517654389020897 2.552053710937509
22.28107188640774 -0.1872250049693514 2.594657958984384
22.28050918082721 0.1459396504494007 2.594657958984384
22.27995109504184 0.4763690345009464 2.552053710937509
22.2794067927703 0.7986375262618003 2.467544921875009
22.27888521143064 1.107453492044127 2.342519042968759
22.27839491560285 1.397746046746603 2.179029052734384
22.27794395572309 1.664748717675513 1.979759521484384
22.27753973649375 1.904077355810581 1.747982299804696
22.27718889544756 2.11180203511648 1.487503295898446
22.27689719285128 2.284512237996732 1.202599609375009
22.27666941913396 2.419371664785845 0.8979491577148527
22.27650931386104 2.514166207313702 0.578554443359384
22.27641950615028 2.567339227175553 0.2496598663330168
22.27640147055079 2.578017678741633 -0.08333409881590902
22.27645550312698 2.546026269293213 -0.4149597167968661
22.27658071692269 2.471890144565649 -0.739771728515616
22.27677505556869 2.356826832119241 -1.052436645507804
22.27703532874436 2.202725245275437 -1.347820678710929
22.27735726186541 2.012116264213475 -1.621073486328116
22.27773556927529 1.788129401071262 -1.867708251953116
22.27816403918844 1.534442507048347 -2.083675537109366
22.27863563615828 1.255221103547152 -2.265428710937492
22.27914261632787 0.9550501449656046 -2.409983642578116
22.27967665536028 0.6388582741762702 -2.514966552734367
22.2802289841519 0.3118374698577553 -2.578654052734366
20.68989827147495 -0.02332964882003827 -1.849999999999991
20.69022488034134 -0.2167070280330116 -1.839865478515616
20.69054791081805 -0.4079657274065538 -1.809573120117179
20.69086382373978 -0.5950102909450621 -1.759454589843741
20.69116915777155 -0.7757913441301758 -1.690059082031241
20.69146056780838 -0.9483283294840523 -1.602146972656241
20.6917348609525 -1.110730807808515 -1.496681396484366
20.69198903202664 -1.26121948476639 -1.374817871093741
20.69222029625241 -1.398145558998446 -1.237891601562491
20.69242611997014 -1.520008910574007 -1.087402709960929
20.69260424805982 -1.625474336319363 -0.9249999999999915
20.69275272888808 -1.713386320304515 -0.752462768554679
20.69286993575015 -1.782781729137566 -0.5716814575195227
20.69295458439456 -1.832900187926484 -0.3846366271972572
20.69300574724911 -1.863192503118653 -0.1933776550292884
20.69302286414182 -1.873327010148067 6.904679182208446e-15
20.69300574724911 -1.863192503118653 0.1933776550293053
20.69295458439456 -1.832900187926484 0.3846366271972741
20.69286993575015 -1.782781729137566 0.5716814575195398
20.69275272888808 -1.713386320304515 0.7524627685546961
20.69260424805982 -1.625474336319363 0.9250000000000086
20.69242611997014 -1.520008910574007 1.087402709960946
20.69222029625241 -1.398145558998446 1.237891601562509
20.69198903202664 -1.261219484766391 1.374817871093759
20.6917348609525 -1.110730807808515 1.496681396484384
20.69146056780838 -0.9483283294840525 1.602146972656259
20.69116915777155 -0.7757913441301761 1.690059082031259
20.69086382373978 -0.5950102909450623 1.759454589843759
20.69054791081805 -0.4079657274065542 1.809573120117196
20.69022488034134 -0.216707028033012 1.839865478515634
20.68989827147495 -0.02332964882003697 1.850000000000009
20.68957166260854 0.170047730392935 1.839865478515634
20.68924863213183 0.3613064297664771 1.809573120117196
20.6889327192101 0.5483509933049854 1.759454589843759
20.68862738517833 0.7291320464900992 1.690059082031259
20.68833597514151 0.9016690318439757 1.602146972656259
20.68806168199738 1.064071510168438 1.496681396484384
20.68780751092325 1.214560187126314 1.374817871093759
20.68757624669748 1.35148626135837 1.237891601562509
20.68737042297975 1.473349612933931 1.087402709960946
20.68719229489007 1.578815038679287 0.9250000000000088
20.68704381406181 1.666727022664439 0.7524627685546963
20.68692660719974 1.736122431497489 0.5716814575195401
20.68684195855532 1.786240890286407 0.3846366271972744
20.68679079570078 1.816533205478576 0.1933776550293057
20.68677367880807 1.82666771250799 7.879457786438049e-15
20.68679079570078 1.816533205478576 -0.1933776550292881
20.68684195855532 1.786240890286407 -0.3846366271972568
20.68692660719974 1.736122431497489 -0.5716814575195224
20.68704381406181 1.666727022664439 -0.7524627685546788
20.68719229489007 1.578815038679287 -0.9249999999999913
20.68737042297975 1.473349612933931 -1.087402709960929
20.68757624669748 1.35148626135837 -1.237891601562491
20.68780751092325 1.214560187126314 -1.374817871093741
20.68806168199738 1.064071510168438 -1.496681396484366
20.68833597514151 0.901669031843976 -1.602146972656241
20.68862738517833 0.7291320464900994 -1.690059082031241
20.6889327192101 0.5483509933049857 -1.759454589843741
20.68924863213183 0.3613064297664774 -1.809573120117179
20.68957166260854 0.1700477303929353 -1.839865478515616
21.59685010287938 -0.02179783309918674 -2.329537109374991
21.745491492433 -0.02154678204068108 -2.444661621093741
21.91305277687596 -0.02126377582047383 -2.529929443359366
22.09361404277691 -0.020958813003148 -2.582326171874991
21.59634696814502 0.2760963342961799 -2.310411621093742
21.59585209486486 0.5690990902111901 -2.253349365234366
21.59537360883124 0.8523993453165485 -2.159287109374991
21.59491936678081 1.121345311813558 -2.029769287109366
21.59449682743327 1.371520858305685 -1.866922851562491
21.59411292861231 1.598818263601035 -1.673421508789054
21.59377397426281 1.799505111148198 -1.452442749023429
21.59348552981805 1.970286239631472 -1.207614746093741
21.59325233168978 2.108357331761626 -0.9429578857421786
21.5930782087163 2.211451422998619 -0.6628176269531162
21.59296602010443 2.277875644663256 -0.3717938842773348
21.59291760821589 2.306539177998888 -0.07466534423827237
21.59293376764131 2.296971564692157 0.2236892089843839
21.59301423324223 2.249329786941034 0.5183707885742276
21.59315768386226 2.164396070192321 0.8045407714843839
21.59336176376896 2.043565187847262 1.077500122070321
21.59362312182682 1.888821267935249 1.332767089843759
21.59393746716388 1.702704834176455 1.566149902343759
21.59429963782738 1.488272156625749 1.773816650390634
21.59470368696402 1.249044226354852 1.952357421875009
21.59514298033983 0.9889490162768779 2.098840576171884
21.59561030447786 0.7122574553587464 2.210860595703134
21.59609798618695 0.4235126584584521 2.286578613281259
21.59659801755415 0.1274559213036665 2.324750976562509
21.59710218820461 -0.1710515875020405 2.324750976562509
21.59760221957181 -0.4671083246568262 2.286578613281259
21.5980899012809 -0.7558531215571203 2.210860595703133
21.59855722541893 -1.032544682475252 2.098840576171883
21.59899651879474 -1.292639892553226 1.952357421875009
21.59940056793139 -1.531867822824123 1.773816650390634
21.59976273859488 -1.746300500374829 1.566149902343759
21.60007708393194 -1.932416934133623 1.332767089843759
21.60033844198979 -2.087160854045636 1.077500122070321
21.6005425218965 -2.207991736390694 0.8045407714843835
21.60068597251653 -2.292925453139407 0.5183707885742272
21.60076643811745 -2.34056723089053 0.2236892089843835
21.60078259754287 -2.350134844197262 -0.0746653442382728
21.60073418565432 -2.32147131086163 -0.3717938842773353
21.60062199704246 -2.255047089196992 -0.6628176269531165
21.60044787406898 -2.15195299796 -0.942957885742179
21.60021467594071 -2.013881905829846 -1.207614746093742
21.59992623149595 -1.843100777346571 -1.452442749023429
21.59958727714645 -1.642413929799409 -1.673421508789054
21.59920337832549 -1.415116524504058 -1.866922851562491
21.59878083897795 -1.164940978011931 -2.029769287109366
21.59832659692752 -0.8959950115149214 -2.159287109374992
21.59784811089391 -0.6126947564095631 -2.253349365234366
21.59735323761374 -0.319692000494553 -2.310411621093742
22.09417177505293 -0.3511788925436569 -2.561125244140616
22.09472034933161 -0.6759767386070205 -2.497870849609366
22.09525075817336 -0.9900192594346532 -2.393601318359367
22.09575429205859 -1.288149754617943 -2.250029052734367
22.09622268324484 -1.565473089537312 -2.069511474609367
22.09664824055239 -1.817435498715191 -1.855012329101554
22.09702397636676 -2.039899781021267 -1.610054077148429
22.09734372137402 -2.229213231704495 -1.338658691406242
22.09760222476087 -2.38226696848036 -1.045282592773429
22.09779524266279 -2.496548299620242 -0.734743041992179
22.09791960537647 -2.570180518816532 -0.4121389770507728
22.09797327096476 -2.601954643418617 -0.08276762390135872
22.09795535783202 -2.591348701514741 0.247962768554696
22.09786616039326 -2.538537009262524 0.5746216430664148
22.09770714371365 -2.444386997065367 0.8918452148437586
22.09748091794303 -2.310444072875286 1.194424682617196
22.09719119831842 -2.13890794058607 1.477391845703134
22.09684274228121 -1.932595368641066 1.736100219726571
22.09644127071909 -1.694893559240321 1.966301757812509
22.09599337621912 -1.429705827128993 2.164216796875008
22.09550641317747 -1.141386536213591 2.326595458984383
22.09498837749754 -0.8346698716362266 2.450771484375009
22.0944477752062 -0.5145920505789198 2.534705810546884
22.09389348305511 -0.1864087875912845 2.577020507812509
22.0933346024987 0.1444911615849873 2.577020507812509
22.0927803103476 0.4726744245726225 2.534705810546884
22.09223970805627 0.7927522456299296 2.450771484375009
22.09172167237633 1.099468910207294 2.326595458984384
22.09123470933469 1.387788201122695 2.164216796875009
22.09078681483471 1.652975933234023 1.966301757812509
22.0903853432726 1.890677742634769 1.736100219726571
22.09003688723539 2.096990314579772 1.477391845703134
22.08974716761078 2.268526446868989 1.194424682617196
22.08952094184016 2.402469371059071 0.891845214843759
22.08936192516055 2.496619383256228 0.5746216430664153
22.08927272772179 2.549431075508444 0.2479627685546964
22.08925481458905 2.56003701741232 -0.08276762390135825
22.08930848017734 2.528262892810235 -0.4121389770507723
22.08943284289102 2.454630673613945 -0.7347430419921785
22.08962586079294 2.340349342474063 -1.045282592773429
22.08988436417979 2.187295605698198 -1.338658691406241
22.09020410918706 1.997982155014971 -1.610054077148429
22.09057984500142 1.775517872708895 -1.855012329101554
22.09100540230896 1.523555463531016 -2.069511474609366
22.09147379349522 1.246232128611646 -2.250029052734366
22.09197732738046 0.948101633428357 -2.393601318359366
22.0925077362222 0.6340591126007243 -2.497870849609366
22.09305631050087 0.3092612665373605 -2.561125244140616
21.9135991924205 -0.3447834864998252 -2.509158691406241
21.9141366358326 -0.6629910099317898 -2.447187744140616
21.91465628234198 -0.9706614085003956 -2.345033935546867
21.91514959932546 -1.262742717975769 -2.204374755859367
21.9156084865561 -1.534438985725775 -2.027519897460929
21.91602540913328 -1.781288975437743 -1.817373046874991
21.91639352108339 -1.999239348166433 -1.577385131835929
21.91670677803332 -2.184711373664667 -1.311496582031242
21.91696003679204 -2.334659890260167 -1.024073242187492
21.91714913823213 -2.446622377051193 -0.7198347167968665
21.91727097738859 -2.518760457753589 -0.4037764587402259
21.91732355355888 -2.549889563744422 -0.08108822631835091
21.91730600411527 -2.539498953564665 0.2429314727783288
21.91721861687523 -2.487759037127513 0.5629622192382898
21.91706282639032 -2.395519178455882 0.8737492065429773
21.91684119126716 -2.264294267967193 1.170189208984383
21.91655735004641 -2.096238599463752 1.447414672851571
21.91621596429902 -1.894112178774556 1.700873779296884
21.91582263883731 -1.661233482611738 1.926404541015634
21.91538383244206 -1.401426602200641 2.120303710937508
21.91490675003406 -1.118957400597442 2.279387695312508
21.91439922556781 -0.8184641768505447 2.401043945312509
21.91386959240034 -0.5048809144010699 2.483275390625009
21.91332654713964 -0.1833566690152126 2.524731445312509
21.91277900661228 0.1408291173742637 2.524731445312509
21.91223596135159 0.462353362760121 2.483275390625009
21.91170632818411 0.7759366252095959 2.401043945312509
21.91119880371786 1.076429848956493 2.279387695312509
21.91072172130986 1.358899050559692 2.120303710937509
21.91028291491461 1.618705930970789 1.926404541015634
21.90988958945291 1.851584627133607 1.700873779296884
21.90954820370551 2.053711047822803 1.447414672851571
21.90926436248476 2.221766716326245 1.170189208984384
21.9090427273616 2.352991626814934 0.8737492065429777
21.90888693687669 2.445231485486564 0.5629622192382903
21.90879954963665 2.496971401923717 0.2429314727783292
21.90878200019304 2.507362012103473 -0.08108822631835046
21.90883457636333 2.476232906112641 -0.4037764587402254
21.9089564155198 2.404094825410244 -0.7198347167968661
21.90914551695989 2.292132338619219 -1.024073242187491
21.9093987757186 2.142183822023719 -1.311496582031241
21.90971203266853 1.956711796525485 -1.577385131835929
21.91008014461864 1.738761423796795 -1.817373046874991
21.91049706719583 1.491911434084827 -2.027519897460929
21.91095595442646 1.220215166334821 -2.204374755859366
21.91144927140994 0.9281338568594477 -2.345033935546867
21.91196891791932 0.6204634582908419 -2.447187744140616
21.91250636133143 0.3022559348588772 -2.509158691406241
21.74601949183428 -0.3341627301960193 -2.424591064453117
21.74653882155889 -0.6416455679969888 -2.364708740234367
21.74704095408641 -0.9389463524496414 -2.265997802734367
21.74751764455959 -1.221183498719761 -2.130079345703117
21.74796106551836 -1.483722552968303 -1.959185180664054
21.74836393637645 -1.722252852398301 -1.756121093749991
21.74871964166163 -1.932857532479235 -1.524221679687491
21.7490223406997 -2.112078468260656 -1.267294433593742
21.74926706348491 -2.256973036986534 -0.9895583496093665
21.74944979170601 -2.365162091659648 -0.6955736694335852
21.74956752430916 -2.434868779345593 -0.3901677551269447
21.74961832904125 -2.464949058707378 -0.07835526275633921
21.74960137090174 -2.454908545684525 0.2347438201904382
21.74951692863647 -2.404912279104135 0.5439884033203211
21.74936638896488 -2.315781302717021 0.8443007202148523
21.74915222348859 -2.188978993342201 1.130749633789071
21.74887794910622 -2.026587623400331 1.398631713867196
21.74854806904785 -1.831273448854128 1.643548217773446
21.74816800009608 -1.60624361844951 1.861477783203134
21.74774398310683 -1.355193195275542 2.048841796875008
21.74728298012912 -1.082244243765378 2.202563964843758
21.7467925610099 -0.7918786911201456 2.320120117187508
21.74628077835012 -0.488864291770011 2.399580078125009
21.74575603568292 -0.1781765787794486 2.439638916015634
21.74522694918308 0.1350830146980853 2.439638916015634
21.74470220651588 0.4457707276886476 2.399580078125009
21.7441904238561 0.7487851270387824 2.320120117187509
21.74370000473688 1.039150679684015 2.202563964843759
21.74323900175917 1.312099631194179 2.048841796875009
21.74281498476993 1.563150054368147 1.861477783203134
21.74243491581814 1.788179884772765 1.643548217773446
21.74210503575978 1.983494059318968 1.398631713867196
21.7418307613774 2.145885429260838 1.130749633789071
21.74161659590112 2.272687738635657 0.8443007202148526
21.74146605622953 2.361818715022772 0.5439884033203215
21.74138161396426 2.411814981603162 0.2347438201904386
21.74136465582475 2.421855494626015 -0.07835526275633875
21.74141546055684 2.39177521526423 -0.3901677551269442
21.74153319315999 2.322068527578284 -0.6955736694335849
21.74171592138109 2.213879472905171 -0.9895583496093662
21.7419606441663 2.068984904179293 -1.267294433593741
21.74226334320437 1.889763968397873 -1.524221679687491
21.74261904848954 1.679159288316939 -1.756121093749991
21.74302191934764 1.440628988886941 -1.959185180664054
21.7434653403064 1.178089934638399 -2.130079345703116
21.74394203077959 0.8958527883682791 -2.265997802734367
21.74444416330711 0.5985520039156266 -2.364708740234367
21.74496349303172 0.2910691661146568 -2.424591064453117
21.37383772565193 -0.02217449463021037 -2.120462890624991
21.48534635566842 -0.02198615974123879 -2.225002197265616
21.37346336784618 0.1994739013884014 -2.108846679687491
21.37309311154251 0.4186938951089516 -2.074125488281241
21.37273101345191 0.6330836039709445 -2.016679931640617
21.3723810407032 0.8402941848890143 -1.937139160156241
21.3720470275983 1.038055438464453 -1.836374633789054
21.37173263401677 1.224200436635631 -1.715490478515616
21.37144130397505 1.396690058775812 -1.575810913085929
21.37117622985549 1.553634170862166 -1.418866577148429
21.37094031539828 1.693313537065608 -1.246376708984366
21.37073614580633 1.814197519920865 -1.060231445312491
21.37056595764408 1.914961902566684 -0.8624699096679599
21.37043161574607 1.994502560601327 -0.6552590332031162
21.37033459198119 2.051948035306828 -0.4408690185546786
21.37027594896495 2.086669177189924 -0.2216487121581943
21.37025632954467 2.098285371559116 -1.521380380945e-15
21.37027594896495 2.086669177189924 0.221648712158212
21.37033459198119 2.051948035306828 0.4408690185546964
21.37043161574607 1.994502560601327 0.6552590332031338
21.37056595764408 1.914961902566684 0.8624699096679777
21.37073614580633 1.814197519920865 1.060231445312509
21.37094031539828 1.693313537065607 1.246376708984384
21.37117622985549 1.553634170862165 1.418866577148446
21.37144130397505 1.396690058775811 1.575810913085946
21.37173263401677 1.22420043663563 1.715490478515634
21.3720470275983 1.038055438464452 1.836374633789071
21.3723810407032 0.8402941848890139 1.937139160156259
21.37273101345191 0.6330836039709441 2.016679931640634
21.37309311154251 0.4186938951089512 2.074125488281259
21.37346336784618 0.199473901388401 2.108846679687509
21.37383772565193 -0.02217449463021169 2.120462890625009
21.37421208345768 -0.2438228906488222 2.108846679687509
21.37458233976135 -0.4630428843693725 2.074125488281259
21.37494443785196 -0.6774325932313652 2.016679931640634
21.37529441060066 -0.8846431741494351 1.937139160156259
21.37562842370556 -1.082404427724874 1.836374633789071
21.3759428172871 -1.268549425896051 1.715490478515634
21.37623414732882 -1.441039048036233 1.575810913085946
21.37649922144837 -1.597983160122586 1.418866577148446
21.37673513590559 -1.737662526326029 1.246376708984384
21.37693930549754 -1.858546509181286 1.060231445312508
21.37710949365979 -1.959310891827105 0.8624699096679773
21.37724383555779 -2.038851549861748 0.6552590332031335
21.37734085932267 -2.096297024567249 0.440869018554696
21.37739950233891 -2.131018166450345 0.2216487121582116
21.3774191217592 -2.142634360819537 6.778079016606331e-15
21.37739950233891 -2.131018166450345 -0.2216487121581946
21.37734085932267 -2.096297024567249 -0.440869018554679
21.37724383555779 -2.038851549861748 -0.6552590332031165
21.37710949365979 -1.959310891827105 -0.8624699096679602
21.37693930549754 -1.858546509181286 -1.060231445312492
21.37673513590559 -1.737662526326028 -1.246376708984366
21.37649922144837 -1.597983160122586 -1.418866577148429
21.37623414732882 -1.441039048036232 -1.575810913085929
21.3759428172871 -1.268549425896051 -1.715490478515616
21.37562842370556 -1.082404427724873 -1.836374633789054
21.37529441060066 -0.8846431741494346 -1.937139160156241
21.37494443785196 -0.6774325932313647 -2.016679931640617
21.37458233976135 -0.4630428843693721 -2.074125488281241
21.37421208345768 -0.2438228906488218 -2.108846679687491
34.77272388810792 0.0004558411327894305 -0.4403947448730375
34.88719247484009 0.0006491753040523634 -0.317419799804678
34.96023143316381 0.0007725360170701734 -0.16612142944335
34.98532514737236 0.0008149185831428128 4.240613530044203e-15
34.96030713111134 -0.04404642700416202 -0.1599611968994047
34.96037721489146 -0.0855413743807328 -0.1419373779296781
34.96043648669662 -0.1206348072977675 -0.1133867111205961
34.96048055062906 -0.1467240187436594 -0.07642666625975626
34.96050613865388 -0.1618740825841723 -0.03379840469359414
34.96051135302612 -0.1649613889717282 0.01133652782441123
34.96049580704262 -0.1557569801030094 0.05563068008423789
34.96046065364842 -0.1349434874506601 0.09579896545411094
34.96040850000388 -0.1040645489496908 0.1288622741699313
34.96034321413304 -0.06541033009582005 0.1523684539795016
34.96026963797924 -0.02184763092302344 0.1645741729736422
34.96019322834837 0.02339270295716371 0.1645741729736422
34.96011965219458 0.06695540212996033 0.1523684539795016
34.96005436632374 0.1056096209838311 0.1288622741699313
34.96000221267919 0.1364885594848004 0.09579896545411096
34.95996705928498 0.1573020521371497 0.05563068008423792
34.95995151330149 0.1665064610058685 0.01133652782441126
34.95995672767373 0.1634191546183126 -0.03379840469359412
34.95998231569855 0.1482690907777997 -0.07642666625975623
34.960026379631 0.1221798793319078 -0.1133867111205961
34.96008565143616 0.08708644641487311 -0.1419373779296781
34.96015573521627 0.04559149903830235 -0.1599611968994047
34.88733711618636 -0.08498954227016461 -0.305649017333975
34.88747103014659 -0.1642768284738118 -0.2712096557617094
34.88758428493044 -0.2313323053415992 -0.2166558837890531
34.88766848097363 -0.2811827896592166 -0.1460337524413969
34.88771737381219 -0.310131082110177 -0.06458097076415081
34.88772733727581 -0.3160302131004772 0.02166149330140096
34.88769763244059 -0.2984426832541275 0.1062974243164156
34.88763046236783 -0.2586728730348943 0.1830497589111422
34.88753080881511 -0.1996703631966947 0.2462261352539156
34.8874060625295 -0.1258110401373133 0.2911410522461031
34.88726547544593 -0.04257275554069909 0.3144633483886813
34.88711947423426 0.04387110614880366 0.3144633483886813
34.88697888715068 0.1271093907454179 0.2911410522461032
34.88685414086508 0.2009687138047993 0.2462261352539157
34.88675448731237 0.2599712236429988 0.1830497589111422
34.8866873172396 0.2997410338622322 0.1062974243164157
34.88665761240437 0.3173285637085819 0.02166149330140102
34.88666757586801 0.3114294327182816 -0.06458097076415074
34.88671646870656 0.2824811402673212 -0.1460337524413969
34.88680066474976 0.2326306559497039 -0.2166558837890531
34.88691391953361 0.1655751790819165 -0.2712096557617093
34.88704783349383 0.08628789287826928 -0.3056490173339749
34.7729245664698 -0.1183610670340415 -0.4240637207031157
34.77311036143659 -0.2283658692394045 -0.3762817993163969
34.77326749346327 -0.3214000230427717 -0.3005928039550688
34.77338430875131 -0.390563590165485 -0.2026102294921782
34.77345214362884 -0.4307270155459568 -0.0896009597778227
34.77346596716598 -0.4389116047022638 0.03005360031128864
34.77342475411611 -0.4145103333537268 0.1474792175293062
34.77333156099356 -0.3593328913019777 0.2539669799804781
34.77319329959268 -0.2774715883839373 0.3416191711425875
34.77302022405523 -0.1749976592262682 0.4039350280761813
34.77282517063975 -0.05951114868352137 0.436292877197275
34.77262260557609 0.06042283094910001 0.4362928771972751
34.77242755216061 0.1759093414918468 0.4039350280761813
34.77225447662315 0.2783832706495159 0.3416191711425876
34.77211621522228 0.3602445735675565 0.2539669799804782
34.77202302209972 0.4154220156193055 0.1474792175293063
34.77198180904985 0.4398232869678425 0.03005360031128872
34.77199563258701 0.4316386978115356 -0.08960095977782262
34.77206346746453 0.3914752724310637 -0.2026102294921781
34.77218028275258 0.3223117053083504 -0.3005928039550687
34.77233741477926 0.2292775515049833 -0.3762817993163968
34.77252320974604 0.1192727492996203 -0.4240637207031156
20.87707476231552 -0.02301351307686476 -1.867673828124991
21.05763602821646 -0.02270855025953893 -1.920070678710929
21.22519731265942 -0.02242554403933167 -2.005338256835929
21.22555134577869 -0.2320401742628541 -1.994352905273429
21.22590150006269 -0.4393582379377762 -1.961516845703116
21.22624393904472 -0.6421082539289371 -1.907190063476554
21.22657491109825 -0.8380689729631235 -1.831967651367179
21.22689078974372 -1.025093242341124 -1.736673950195304
21.22718811436776 -1.201132114790064 -1.622352783203116
21.22746362743738 -1.36425688212338 -1.490256835937491
21.22771431027095 -1.512680254409835 -1.341833251953116
21.22793741623211 -1.644776013265799 -1.178708251953116
21.22813050114025 -1.759097017200657 -1.00266912841796
21.22829144924829 -1.854390582454252 -0.8156445922851477
21.22841849757114 -1.929612887273211 -0.6196835937499915
21.22851025382268 -1.983939592012985 -0.4169332885742102
21.22856571290968 -2.016775604748925 -0.2096149291992103
21.22858426682803 -2.027760940642917 6.823242739091686e-15
21.22856571290968 -2.016775604748925 0.2096149291992272
21.22851025382268 -1.983939592012985 0.4169332885742273
21.22841849757114 -1.929612887273211 0.6196835937500086
21.22829144924829 -1.854390582454252 0.8156445922851648
21.22813050114025 -1.759097017200657 1.002669128417977
21.22793741623211 -1.644776013265799 1.178708251953134
21.22771431027095 -1.512680254409836 1.341833251953134
21.22746362743738 -1.36425688212338 1.490256835937509
21.22718811436776 -1.201132114790064 1.622352783203134
21.22689078974372 -1.025093242341125 1.736673950195321
21.22657491109825 -0.8380689729631238 1.831967651367196
21.22624393904472 -0.6421082539289376 1.907190063476571
21.22590150006269 -0.4393582379377766 1.961516845703134
21.22555134577869 -0.2320401742628544 1.994352905273446
21.22519731265942 -0.02242554403933051 2.005338256835946
21.22484327954015 0.1871890861841901 1.994352905273446
21.22449312525615 0.3945071498591122 1.961516845703134
21.22415068627411 0.5972571658502732 1.907190063476571
21.22381971422059 0.7932178848844597 1.831967651367196
21.22350383557512 0.9802421542624604 1.736673950195321
21.22320651095107 1.1562810267114 1.622352783203134
21.22293099788146 1.319405794044716 1.490256835937509
21.22268031504789 1.467829166331171 1.341833251953134
21.22245720908673 1.599924925187135 1.178708251953134
21.22226412417859 1.714245929121993 1.002669128417978
21.22210317607054 1.809539494375588 0.8156445922851652
21.2219761277477 1.884761799194547 0.6196835937500089
21.22188437149616 1.939088503934321 0.4169332885742276
21.22182891240916 1.971924516670261 0.2096149291992276
21.22181035849082 1.982909852564253 7.879870201787679e-15
21.22182891240916 1.971924516670261 -0.2096149291992099
21.22188437149616 1.939088503934321 -0.4169332885742099
21.2219761277477 1.884761799194547 -0.6196835937499912
21.22210317607054 1.809539494375588 -0.8156445922851474
21.22226412417859 1.714245929121993 -1.00266912841796
21.22245720908673 1.599924925187135 -1.178708251953116
21.22268031504789 1.467829166331172 -1.341833251953116
21.22293099788146 1.319405794044716 -1.490256835937491
21.22320651095107 1.1562810267114 -1.622352783203116
21.22350383557512 0.9802421542624609 -1.736673950195304
21.22381971422059 0.7932178848844599 -1.831967651367179
21.22415068627411 0.5972571658502737 -1.907190063476554
21.22449312525615 0.3945071498591126 -1.961516845703116
21.22484327954015 0.1871890861841904 -1.994352905273429
21.05797500774483 -0.2234103056223525 -1.909552246093741
21.05831027332478 -0.421913120029743 -1.878112548828116
21.05863815175282 -0.6160421766373875 -1.826095703124991
21.05895505064526 -0.8036705100952113 -1.754071777343741
21.05925749815229 -0.982742520307796 -1.662829956054679
21.0595421804557 -1.151296173940799 -1.553369750976554
21.05980597857071 -1.307484793940658 -1.426890624999991
21.06004600226149 -1.44959714007235 -1.284778076171866
21.06025962158557 -1.576076085650575 -1.128589233398429
21.06044449647967 -1.685536134604606 -0.9600353393554603
21.06059860108817 -1.776777825754622 -0.7809630737304603
21.06072024726673 -1.848801648807485 -0.5933344726562415
21.06080810210707 -1.900818420318506 -0.3992051391601477
21.06086120278141 -1.932258072741403 -0.2007020416259681
21.06087896808812 -1.942776490356053 6.860212526109185e-15
21.06086120278141 -1.932258072741403 0.200702041625985
21.06080810210707 -1.900818420318506 0.3992051391601648
21.06072024726673 -1.848801648807485 0.5933344726562585
21.06059860108817 -1.776777825754622 0.7809630737304772
21.06044449647967 -1.685536134604606 0.9600353393554772
21.06025962158557 -1.576076085650575 1.128589233398446
21.06004600226149 -1.449597140072351 1.284778076171884
21.05980597857071 -1.307484793940658 1.426890625000009
21.0595421804557 -1.1512961739408 1.553369750976571
21.05925749815229 -0.9827425203077962 1.662829956054696
21.05895505064526 -0.8036705100952115 1.754071777343759
21.05863815175282 -0.6160421766373877 1.826095703125009
21.05831027332478 -0.4219131200297433 1.878112548828134
21.05797500774483 -0.2234103056223528 1.909552246093759
21.05763602821646 -0.02270855025953781 1.920070678710946
21.05729704868808 0.177993205103274 1.909552246093759
21.05696178310814 0.3764960195106646 1.878112548828134
21.0566339046801 0.5706250761183091 1.826095703125009
21.05631700578765 0.758253409576133 1.754071777343759
21.05601455828062 0.9373254197887178 1.662829956054696
21.05572987597722 1.105879073421721 1.553369750976571
21.05546607786221 1.262067693421579 1.426890625000009
21.05522605417142 1.404180039553272 1.284778076171884
21.05501243484735 1.530658985131497 1.128589233398446
21.05482755995324 1.640119034085527 0.9600353393554777
21.05467345534475 1.731360725235543 0.7809630737304777
21.05455180916619 1.803384548288407 0.5933344726562588
21.05446395432585 1.855401319799428 0.3992051391601651
21.0544108536515 1.886840972222324 0.2007020416259854
21.05439308834479 1.897359389836975 7.871911865078496e-15
21.0544108536515 1.886840972222324 -0.2007020416259677
21.05446395432585 1.855401319799428 -0.3992051391601474
21.05455180916619 1.803384548288407 -0.5933344726562412
21.05467345534475 1.731360725235543 -0.7809630737304599
21.05482755995324 1.640119034085527 -0.9600353393554599
21.05501243484735 1.530658985131497 -1.128589233398429
21.05522605417142 1.404180039553273 -1.284778076171866
21.05546607786221 1.26206769342158 -1.426890624999991
21.05572987597722 1.105879073421721 -1.553369750976554
21.05601455828062 0.937325419788718 -1.662829956054679
21.05631700578765 0.7582534095761332 -1.754071777343741
21.0566339046801 0.5706250761183094 -1.826095703124991
21.05696178310814 0.376496019510665 -1.878112548828116
21.05729704868808 0.1779932051032743 -1.909552246093741
20.87740449142949 -0.2182383170229998 -1.857442504882804
20.87773060792905 -0.4113241774867307 -1.826860717773429
20.87804953886233 -0.6001556342285264 -1.776263427734366
20.87835778993243 -0.782663796766651 -1.706204956054679
20.87865198392294 -0.9568490951992075 -1.617453002929679
20.87892889752557 -1.120803084982607 -1.510979858398429
20.879185496905 -1.27272950403044 -1.387952148437491
20.87941897048037 -1.410963681865482 -1.249717773437491
20.87962676046976 -1.533991216350869 -1.097791137695304
20.87980659031118 -1.640464209018496 -0.9338369140624915
20.8799564896095 -1.729216035555771 -0.7596513671874915
20.880074816197 -1.799274407310418 -0.5771429443359289
20.88016027345182 -1.849871625182101 -0.3883112182617103
20.88021192514249 -1.880453368672393 -0.1952250823974525
20.88022920553037 -1.89068467732155 6.887681659224956e-15
20.88021192514249 -1.880453368672393 0.1952250823974694
20.88016027345182 -1.849871625182101 0.3883112182617272
20.880074816197 -1.799274407310418 0.577142944335946
20.8799564896095 -1.729216035555771 0.7596513671875086
20.87980659031118 -1.640464209018496 0.9338369140625086
20.87962676046976 -1.533991216350869 1.097791137695321
20.87941897048037 -1.410963681865483 1.249717773437509
20.879185496905 -1.27272950403044 1.387952148437509
20.87892889752557 -1.120803084982607 1.510979858398446
20.87865198392294 -0.9568490951992077 1.617453002929696
20.87835778993243 -0.7826637967666512 1.706204956054696
20.87804953886233 -0.6001556342285266 1.776263427734384
20.87773060792905 -0.4113241774867311 1.826860717773446
20.87740449142949 -0.2182383170230002 1.857442504882821
20.87707476231552 -0.02301351307686367 1.867673828125009
20.87674503320154 0.1722112908692697 1.857442504882821
20.87641891670198 0.3652971513330006 1.826860717773446
20.8760999857687 0.5541286080747962 1.776263427734384
20.8757917346986 0.736636770612921 1.706204956054696
20.87549754070809 0.9108220690454775 1.617453002929696
20.87522062710546 1.074776058828877 1.510979858398446
20.87496402772603 1.22670247787671 1.387952148437509
20.87473055415066 1.364936655711753 1.249717773437509
20.87452276416127 1.487964190197139 1.097791137695321
20.87434293431986 1.594437182864766 0.9338369140625088
20.87419303502153 1.683189009402041 0.7596513671875089
20.87407470843403 1.753247381156688 0.5771429443359464
20.87398925117921 1.803844599028372 0.3883112182617275
20.87393759948854 1.834426342518663 0.1952250823974697
20.87392031910066 1.84465765116782 7.871772706566567e-15
20.87393759948854 1.834426342518663 -0.1952250823974521
20.87398925117921 1.803844599028372 -0.3883112182617099
20.87407470843403 1.753247381156688 -0.5771429443359286
20.87419303502153 1.683189009402041 -0.7596513671874912
20.87434293431986 1.594437182864766 -0.9338369140624913
20.87452276416127 1.487964190197139 -1.097791137695304
20.87473055415066 1.364936655711753 -1.249717773437491
20.87496402772603 1.22670247787671 -1.387952148437491
20.87522062710546 1.074776058828877 -1.510979858398429
20.87549754070809 0.9108220690454777 -1.617453002929679
20.8757917346986 0.7366367706129212 -1.706204956054679
20.8760999857687 0.5541286080747965 -1.776263427734366
20.87641891670198 0.3652971513330009 -1.826860717773429
20.87674503320154 0.1722112908692701 -1.857442504882804

CELLS 2170 8680
3 79 80 129
3 79 129 128
3 80 81 129
3 129 81 130
3 81 82 130
3 130 82 131
3 82 83 132
3 82 132 131
3 83 84 133
3 83 133 132
3 84 85 134
3 84 134 133
3 85 86 135
3 85 135 134
3 86 87 135
3 135 87 136
3 87 88 136
3 136 88 137
3 88 89 138
3 88 138 137
3 89 90 138
3 138 90 139
3 90 91 140
3 90 140 139
3 91 92 141
3 91 141 140
3 92 93 141
3 141 93 142
3 93 94 143
3 93 143 142
3 94 95 144
3 94 144 143
3 95 96 144
3 144 96 145
3 96 97 146
3 96 146 145
3 97 98 146
3 146 98 147
3 98 99 148
3 98 148 147
3 99 100 149
3 99 149 148
3 100 101 150
3 100 150 149
3 101 102 150
3 150 102 151
3 102 103 152
3 102 152 151
3 103 104 152
3 152 104 153
3 104 105 154
3 104 154 153
3 105 106 154
3 154 106 155
3 106 107 155
3 155 107 156
3 107 108 157
3 107 157 156
3 108 109 158
3 108 158 157
3 109 110 159
3 109 159 158
3 110 111 160
3 110 160 159
3 111 112 160
3 160 112 161
3 112 113 161
3 161 113 162
3 113 114 163
3 113 163 162
3 114 115 163
3 163 115 164
3 115 116 165
3 115 165 164
3 116 117 166
3 116 166 165
3 117 118 166
3 166 118 167
3 118 119 168
3 118 168 167
3 119 120 169
3 119 169 168
3 120 121 169
3 169 121 170
3 121 122 171
3 121 171 170
3 122 123 171
3 171 123 172
3 123 124 173
3 123 173 172
3 124 125 174
3 124 174 173
3 125 126 175
3 125 175 174
3 126 127 175
3 175 127 176
3 128 129 178
3 128 178 177
3 129 130 178
3 178 130 179
3 130 131 180
3 130 180 179
3 131 132 181
3 131 181 180
3 132 133 181
3 181 133 182
3 133 134 182
3 182 134 183
3 134 135 184
3 134 184 183
3 135 136 184
3 184 136 185
3 136 137 186
3 136 186 185
3 137 138 187
3 137 187 186
3 138 139 188
3 138 188 187
3 139 140 189
3 139 189 188
3 140 141 189
3 189 141 190
3 141 142 191
3 141 191 190
3 142 143 191
3 191 143 192
3 143 144 193
3 143 193 192
3 144 145 194
3 144 194 193
3 145 146 195
3 145 195 194
3 146 147 196
3 146 196 195
3 147 148 196
3 196 148 197
3 148 149 197
3 197 149 198
3 149 150 199
3 149 199 198
3 150 151 199
3 199 151 200
3 151 152 201
3 151 201 200
3 152 153 201
3 201 153 202
3 153 154 203
3 153 203 202
3 154 155 203
3 203 155 204
3 155 156 205
3 155 205 204
3 156 157 206
3 156 206 205
3 157 158 206
3 206 158 207
3 158 159 207
3 207 159 208
3 159 160 209
3 159 209 208
3 160 161 209
3 209 161 210
3 161 162 211
3 161 211 210
3 162 163 212
3 162 212 211
3 163 164 213
3 163 213 212
3 164 165 214
3 164 214 213
3 165 166 214
3 214 166 215
3 166 167 216
3 166 216 215
3 167 168 216
3 216 168 217
3 168 169 218
3 168 218 217
3 169 170 219
3 169 219 218
3 170 171 220
3 170 220 219
3 171 172 221
3 171 221 220
3 172 173 221
3 221 173 222
3 173 174 222
3 222 174 223
3 174 175 224
3 174 224 223
3 175 176 224
3 224 176 225
3 177 178 227
3 177 227 226
3 178 179 227
3 227 179 228
3 179 180 229
3 179 229 228
3 180 181 230
3 180 230 229
3 181 182 230
3 230 182 231
3 182 183 232
3 182 232 231
3 183 184 233
3 183 233 232
3 184 185 234
3 184 234 233
3 185 186 234
3 234 186 235
3 186 187 235
3 235 187 236
3 187 188 237
3 187 237 236
3 188 189 238
3 188 238 237
3 189 190 238
3 238 190 239
3 190 191 240
3 190 240 239
3 191 192 241
3 191 241 240
3 192 193 241
3 241 193 242
3 193 194 242
3 242 194 243
3 194 195 243
3 243 195 244
3 195 196 245
3 195 245 244
3 196 197 245
3 245 197 246
3 197 198 247
3 197 247 246
3 198 199 248
3 198 248 247
3 199 200 248
3 248 200 249
3 200 201 249
3 249 201 250
3 201 202 251
3 201 251 250
3 202 203 252
3 202 252 251
3 203 204 252
3 252 204 253
3 204 205 254
3 204 254 253
3 205 206 255
3 205 255 254
3 206 207 255
3 255 207 256
3 207 208 257
3 207 257 256
3 208 209 258
3 208 258 257
3 209 210 259
3 209 259 258
3 210 211 259
3 259 211 260
3 211 212 260
3 260 212 261
3 212 213 262
3 212 262 261
3 213 214 263
3 213 263 262
3 214 215 263
3 263 215 264
3 215 216 265
3 215 265 264
3 216 217 266
3 216 266 265
3 217 218 266
3 266 218 267
3 218 219 267
3 267 219 268
3 219 220 268
3 268 220 269
3 220 221 270
3 220 270 269
3 221 222 270
3 270 222 271
3 222 223 272
3 222 272 271
3 223 224 273
3 223 273 272
3 224 225 273
3 273 225 274
3 226 227 276
3 226 276 275
3 227 228 276
3 276 228 277
3 228 229 278
3 228 278 277
3 229 230 278
3 278 230 279
3 230 231 280
3 230 280 279
3 231 232 280
3 280 232 281
3 232 233 281
3 281 233 282
3 233 234 283
3 233 283 282
3 234 235 283
3 283 235 284
3 235 236 285
3 235 285 284
3 236 237 286
3 236 286 285
3 237 238 287
3 237 287 286
3 238 239 287
3 287 239 288
3 239 240 288
3 288 240 289
3 240 241 290
3 240 290 289
3 241 242 291
3 241 291 290
3 242 243 292
3 242 292 291
3 243 244 293
3 243 293 292
3 244 245 294
3 244 294 293
3 245 246 295
3 245 295 294
3 246 247 296
3 246 296 295
3 247 248 297
3 247 297 296
3 248 249 297
3 297 249 298
3 249 250 299
3 249 299 298
3 250 251 299
3 299 251 300
3 251 252 301
3 251 301 300
3 252 253 301
3 301 253 302
3 253 254 303
3 253 303 302
3 254 255 303
3 303 255 304
3 255 256 305
3 255 305 304
3 256 257 305
3 305 257 306
3 257 258 306
3 306 258 307
3 258 259 308
3 258 308 307
3 259 260 308
3 308 260 309
3 260 261 310
3 260 310 309
3 261 262 311
3 261 311 310
3 262 263 312
3 262 312 311
3 263 264 312
3 312 264 313
3 264 265 313
3 313 265 314
3 265 266 315
3 265 315 314
3 266 267 316
3 266 316 315
3 267 268 317
3 267 317 316
3 268 269 318
3 268 318 317
3 269 270 319
3 269 319 318
3 270 271 320
3 270 320 319
3 271 272 321
3 271 321 320
3 272 273 322
3 272 322 321
3 273 274 322
3 322 274 323
3 275 276 324
3 324 276 325
3 276 277 326
3 276 326 325
3 277 278 326
3 326 278 327
3 278 279 328
3 278 328 327
3 279 280 329
3 279 329 328
3 280 281 329
3 329 281 330
3 281 282 331
3 281 331 330
3 282 283 331
3 331 283 332
3 283 284 333
3 283 333 332
3 284 285 334
3 284 334 333
3 285 286 335
3 285 335 334
3 286 287 336
3 286 336 335
3 287 288 337
3 287 337 336
3 288 289 337
3 337 289 338
3 289 290 338
3 338 290 339
3 290 291 340
3 290 340 339
3 291 292 340
3 340 292 341
3 292 293 342
3 292 342 341
3 293 294 342
3 342 294 343
3 294 295 343
3 343 295 344
3 295 296 345
3 295 345 344
3 296 297 345
3 345 297 346
3 297 298 347
3 297 347 346
3 298 299 348
3 298 348 347
3 299 300 348
3 348 300 349
3 300 301 349
3 349 301 350
3 301 302 351
3 301 351 350
3 302 303 351
3 351 303 352
3 303 304 353
3 303 353 352
3 304 305 354
3 304 354 353
3 305 306 354
3 354 306 355
3 306 307 356
3 306 356 355
3 307 308 356
3 356 308 357
3 308 309 358
3 308 358 357
3 309 310 359
3 309 359 358
3 310 311 360
3 310 360 359
3 311 312 361
3 311 361 360
3 312 313 362
3 312 362 361
3 313 314 362
3 362 314 363
3 314 315 363
3 363 315 364
3 315 316 365
3 315 365 364
3 316 317 365
3 365 317 366
3 317 318 367
3 317 367 366
3 318 319 367
3 367 319 368
3 319 320 368
3 368 320 369
3 320 321 370
3 320 370 369
3 321 322 370
3 370 322 371
3 322 323 372
3 322 372 371
3 324 325 373
3 373 325 374
3 325 326 375
3 325 375 374
3 326 327 375
3 375 327 376
3 327 328 376
3 376 328 377
3 328 329 378
3 328 378 377
3 329 330 379
3 329 379 378
3 330 331 380
3 330 380 379
3 331 332 380
3 380 332 381
3 332 333 381
3 381 333 382
3 333 334 383
3 333 383 382
3 334 335 383
3 383 335 384
3 335 336 385
3 335 385 384
3 336 337 386
3 336 386 385
3 337 338 387
3 337 387 386
3 338 339 388
3 338 388 387
3 339 340 389
3 339 389 388
3 340 341 389
3 389 341 390
3 341 342 391
3 341 391 390
3 342 343 391
3 391 343 392
3 343 344 393
3 343 393 392
3 344 345 394
3 344 394 393
3 345 346 394
3 394 346 395
3 346 347 396
3 346 396 395
3 347 348 396
3 396 348 397
3 348 349 398
3 348 398 397
3 349 350 398
3 398 350 399
3 350 351 400
3 350 400 399
3 351 352 400
3 400 352 401
3 352 353 401
3 401 353 402
3 353 354 403
3 353 403 402
3 354 355 404
3 354 404 403
3 355 356 405
3 355 405 404
3 356 357 405
3 405 357 406
3 357 358 406
3 406 358 407
3 358 359 408
3 358 408 407
3 359 360 408
3 408 360 409
3 360 361 410
3 360 410 409
3 361 362 411
3 361 411 410
3 362 363 412
3 362 412 411
3 363 364 413
3 363 413 412
3 364 365 414
3 364 414 413
3 365 366 414
3 414 366 415
3 366 367 416
3 366 416 415
3 367 368 416
3 416 368 417
3 368 369 418
3 368 418 417
3 369 370 419
3 369 419 418
3 370 371 419
3 419 371 420
3 371 372 421
3 371 421 420
3 78 0 373
3 0 1 373
3 1 2 324
3 2 3 275
3 3 4 226
3 4 5 177
3 5 6 128
3 6 7 79
3 7 8 79
3 8 9 79
3 9 10 81
3 10 11 83
3 11 12 86
3 12 13 88
3 13 14 90
3 14 15 92
3 15 16 94
3 16 17 96
3 17 18 99
3 18 19 101
3 19 20 103
3 20 21 105
3 21 22 107
3 22 23 110
3 23 24 112
3 24 25 114
3 25 26 116
3 26 27 118
3 27 28 120
3 28 29 123
3 29 30 125
3 30 8 127
3 8 7 127
3 7 6 127
3 6 5 176
3 5 4 225
3 4 3 274
3 3 2 323
3 2 1 372
3 1 0 421
3 0 31 421
3 31 32 420
3 32 33 419
3 33 34 418
3 34 35 417
3 35 36 416
3 36 37 415
3 37 38 414
3 38 39 413
3 39 40 412
3 40 41 411
3 41 42 410
3 42 43 409
3 43 44 408
3 44 45 407
3 45 46 406
3 46 47 405
3 47 48 404
3 48 49 403
3 49 50 402
3 50 51 401
3 51 52 400
3 52 53 399
3 53 54 398
3 54 55 397
3 55 56 396
3 56 57 395
3 57 58 394
3 58 59 393
3 59 60 392
3 60 61 391
3 61 62 390
3 62 63 389
3 63 64 388
3 64 65 387
3 65 66 386
3 66 67 385
3 67 68 384
3 68 69 383
3 69 70 382
3 70 71 381
3 71 72 380
3 72 73 379
3 73 74 378
3 74 75 377
3 75 76 376
3 76 77 375
3 77 78 374
3 81 80 9
3 83 82 10
3 85 84 11
3 79 128 6
3 128 177 5
3 177 226 4
3 226 275 3
3 275 324 2
3 324 373 1
3 373 374 78
3 374 375 77
3 375 376 76
3 376 377 75
3 377 378 74
3 378 379 73
3 379 380 72
3 87 86 12
3 89 88 13
3 92 91 14
3 94 93 15
3 380 381 71
3 381 382 70
3 382 383 69
3 383 384 68
3 384 385 67
3 385 386 66
3 386 387 65
3 387 388 64
3 96 95 16
3 98 97 17
3 100 99 18
3 102 101 19
3 388 389 63
3 389 390 62
3 390 391 61
3 391 392 60
3 392 393 59
3 393 394 58
3 394 395 57
3 395 396 56
3 105 104 20
3 107 106 21
3 109 108 22
3 396 397 55
3 397 398 54
3 398 399 53
3 399 400 52
3 400 401 51
3 401 402 50
3 402 403 49
3 403 404 48
3 111 110 23
3 113 112 24
3 115 114 25
3 118 117 26
3 404 405 47
3 405 406 46
3 406 407 45
3 407 408 44
3 408 409 43
3 409 410 42
3 410 411 41
3 411 412 40
3 120 119 27
3 122 121 28
3 124 123 29
3 126 125 30
3 412 413 39
3 413 414 38
3 414 415 37
3 415 416 36
3 416 417 35
3 417 418 34
3 418 419 33
3 419 420 32
3 176 127 6
3 225 176 5
3 274 225 4
3 323 274 3
3 372 323 2
3 421 372 1
3 420 421 31
3 79 9 80
3 81 10 82
3 83 11 84
3 11 86 85
3 12 88 87
3 13 90 89
3 90 14 91
3 92 15 93
3 94 16 95
3 96 17 97
3 17 99 98
3 18 101 100
3 19 103 102
3 103 20 104
3 105 21 106
3 107 22 108
3 22 110 109
3 23 112 111
3 24 114 113
3 25 116 115
3 116 26 117
3 118 27 119
3 120 28 121
3 28 123 122
3 29 125 124
3 30 127 126
3 0 78 423
3 0 423 422
3 78 77 424
3 78 424 423
3 77 76 425
3 77 425 424
3 76 75 426
3 76 426 425
3 75 74 427
3 75 427 426
3 74 73 428
3 74 428 427
3 73 72 429
3 73 429 428
3 72 71 430
3 72 430 429
3 71 70 431
3 71 431 430
3 70 69 432
3 70 432 431
3 69 68 433
3 69 433 432
3 68 67 434
3 68 434 433
3 67 66 435
3 67 435 434
3 66 65 436
3 66 436 435
3 65 64 437
3 65 437 436
3 64 63 438
3 64 438 437
3 63 62 439
3 63 439 438
3 62 61 440
3 62 440 439
3 61 60 441
3 61 441 440
3 60 59 442
3 60 442 441
3 59 58 443
3 59 443 442
3 58 57 444
3 58 444 443
3 57 56 445
3 57 445 444
3 56 55 446
3 56 446 445
3 55 54 447
3 55 447 446
3 54 53 448
3 54 448 447
3 53 52 449
3 53 449 448
3 52 51 450
3 52 450 449
3 51 50 451
3 51 451 450
3 50 49 452
3 50 452 451
3 49 48 453
3 49 453 452
3 48 47 454
3 48 454 453
3 47 46 455
3 47 455 454
3 46 45 456
3 46 456 455
3 45 44 457
3 45 457 456
3 44 43 458
3 44 458 457
3 43 42 459
3 43 459 458
3 42 41 460
3 42 460 459
3 41 40 461
3 41 461 460
3 40 39 462
3 40 462 461
3 39 38 463
3 39 463 462
3 38 37 464
3 38 464 463
3 37 36 465
3 37 465 464
3 36 35 466
3 36 466 465
3 35 34 467
3 35 467 466
3 34 33 468
3 34 468 467
3 33 32 469
3 33 469 468
3 32 31 470
3 32 470 469
3 31 0 422
3 31 422 470
3 422 423 472
3 422 472 471
3 423 424 473
3 423 473 472
3 424 425 474
3 424 474 473
3 425 426 475
3 425 475 474
3 426 427 476
3 426 476 475
3 427 428 477
3 427 477 476
3 428 429 478
3 428 478 477
3 429 430 479
3 429 479 478
3 430 431 480
3 430 480 479
3 431 432 481
3 431 481 480
3 432 433 482
3 432 482 481
3 433 434 483
3 433 483 482
3 434 435 484
3 434 484 483
3 435 436 485
3 435 485 484
3 436 437 486
3 436 486 485
3 437 438 487
3 437 487 486
3 438 439 488
3 438 488 487
3 439 440 489
3 439 489 488
3 440 441 490
3 440 490 489
3 441 442 491
3 441 491 490
3 442 443 492
3 442 492 491
3 443 444 493
3 443 493 492
3 444 445 494
3 444 494 493
3 445 446 495
3 445 495 494
3 446 447 496
3 446 496 495
3 447 448 497
3 447 497 496
3 448 449 498
3 448 498 497
3 449 450 499
3 449 499 498
3 450 451 500
3 450 500 499
3 451 452 501
3 451 501 500
3 452 453 502
3 452 502 501
3 453 454 503
3 453 503 502
3 454 455 504
3 454 504 503
3 455 456 505
3 455 505 504
3 456 457 506
3 456 506 505
3 457 458 507
3 457 507 506
3 458 459 508
3 458 508 507
3 459 460 509
3 459 509 508
3 460 461 510
3 460 510 509
3 461 462 511
3 461 511 510
3 462 463 512
3 462 512 511
3 463 464 513
3 463 513 512
3 464 465 514
3 464 514 513
3 465 466 515
3 465 515 514
3 466 467 516
3 466 516 515
3 467 468 517
3 467 517 516
3 468 469 518
3 468 518 517
3 469 470 519
3 469 519 518
3 470 422 471
3 470 471 519
3 579 520 578
3 520 521 578
3 578 521 577
3 521 522 577
3 577 522 576
3 522 523 576
3 576 523 575
3 523 524 575
3 575 524 574
3 524 525 574
3 574 525 573
3 525 526 573
3 573 526 572
3 526 527 572
3 572 527 571
3 527 528 571
3 571 528 570
3 528 529 570
3 570 529 569
3 529 530 569
3 569 530 568
3 530 531 568
3 568 531 567
3 531 532 567
3 567 532 566
3 532 533 566
3 566 533 565
3 533 534 565
3 565 534 564
3 534 535 564
3 564 535 563
3 535 536 563
3 563 536 562
3 536 537 562
3 562 537 561
3 537 538 561
3 561 538 560
3 538 539 560
3 560 539 559
3 539 540 559
3 559 540 558
3 540 541 558
3 558 541 557
3 541 542 557
3 557 542 556
3 542 543 556
3 556 543 555
3 543 544 555
3 555 544 554
3 544 545 554
3 554 545 553
3 545 546 553
3 553 546 552
3 546 547 552
3 552 547 551
3 547 548 551
3 551 548 550
3 548 549 550
3 632 633 681
3 632 681 680
3 633 634 682
3 633 682 681
3 634 635 683
3 634 683 682
3 635 636 684
3 635 684 683
3 636 637 684
3 684 637 685
3 637 638 685
3 685 638 686
3 638 639 687
3 638 687 686
3 639 640 687
3 687 640 688
3 640 641 688
3 688 641 689
3 641 642 689
3 689 642 690
3 642 643 691
3 642 691 690
3 643 644 691
3 691 644 692
3 644 645 693
3 644 693 692
3 645 646 694
3 645 694 693
3 646 647 694
3 694 647 695
3 647 648 696
3 647 696 695
3 648 649 697
3 648 697 696
3 649 650 697
3 697 650 698
3 650 651 698
3 698 651 699
3 651 652 699
3 699 652 700
3 652 653 700
3 700 653 701
3 653 654 701
3 701 654 702
3 654 655 702
3 702 655 703
3 655 656 704
3 655 704 703
3 656 657 705
3 656 705 704
3 657 658 706
3 657 706 705
3 658 659 707
3 658 707 706
3 659 660 708
3 659 708 707
3 660 661 709
3 660 709 708
3 661 662 710
3 661 710 709
3 662 663 710
3 710 663 711
3 663 664 711
3 711 664 712
3 664 665 713
3 664 713 712
3 665 666 713
3 713 666 714
3 666 667 714
3 714 667 715
3 667 668 716
3 667 716 715
3 668 669 716
3 716 669 717
3 669 670 718
3 669 718 717
3 670 671 719
3 670 719 718
3 671 672 720
3 671 720 719
3 672 673 720
3 720 673 721
3 673 674 722
3 673 722 721
3 674 675 723
3 674 723 722
3 675 676 723
3 723 676 724
3 676 677 724
3 724 677 725
3 677 678 725
3 725 678 726
3 678 679 726
3 726 679 727
3 680 681 728
3 728 681 729
3 681 682 729
3 729 682 730
3 682 683 730
3 730 683 731
3 683 684 731
3 731 684 732
3 684 685 732
3 732 685 733
3 685 686 734
3 685 734 733
3 686 687 734
3 734 687 735
3 687 688 736
3 687 736 735
3 688 689 737
3 688 737 736
3 689 690 737
3 737 690 738
3 690 691 738
3 738 691 739
3 691 692 740
3 691 740 739
3 692 693 740
3 740 693 741
3 693 694 741
3 741 694 742
3 694 695 742
3 742 695 743
3 695 696 743
3 743 696 744
3 696 697 745
3 696 745 744
3 697 698 746
3 697 746 745
3 698 699 747
3 698 747 746
3 699 700 748
3 699 748 747
3 700 701 749
3 700 749 748
3 701 702 750
3 701 750 749
3 702 703 751
3 702 751 750
3 703 704 752
3 703 752 751
3 704 705 752
3 752 705 753
3 705 706 753
3 753 706 754
3 706 707 754
3 754 707 755
3 707 708 755
3 755 708 756
3 708 709 756
3 756 709 757
3 709 710 758
3 709 758 757
3 710 711 758
3 758 711 759
3 711 712 760
3 711 760 759
3 712 713 761
3 712 761 760
3 713 714 762
3 713 762 761
3 714 715 763
3 714 763 762
3 715 716 763
3 763 716 764
3 716 717 765
3 716 765 764
3 717 718 766
3 717 766 765
3 718 719 766
3 766 719 767
3 719 720 767
3 767 720 768
3 720 721 769
3 720 769 768
3 721 722 769
3 769 722 770
3 722 723 771
3 722 771 770
3 723 724 772
3 723 772 771
3 724 725 773
3 724 773 772
3 725 726 774
3 725 774 773
3 726 727 775
3 726 775 774
3 631 580 581
3 581 582 680
3 582 583 632
3 583 471 472
3 472 473 632
3 473 474 633
3 474 475 634
3 475 476 635
3 476 477 636
3 477 478 637
3 478 479 638
3 479 480 639
3 480 481 640
3 481 482 641
3 482 483 642
3 483 484 643
3 484 485 644
3 485 486 645
3 486 487 646
3 487 488 647
3 488 489 649
3 489 490 650
3 490 491 651
3 491 492 652
3 492 493 653
3 493 494 654
3 494 495 655
3 495 496 656
3 496 497 657
3 497 498 658
3 498 499 659
3 499 500 660
3 500 501 661
3 501 502 662
3 502 503 663
3 503 504 664
3 504 505 665
3 505 506 666
3 506 507 667
3 507 508 668
3 508 509 669
3 509 510 670
3 510 511 671
3 511 512 672
3 512 513 673
3 513 514 673
3 514 515 674
3 515 516 675
3 516 517 676
3 517 518 677
3 518 519 678
3 519 471 583
3 583 582 679
3 582 581 727
3 581 580 584
3 584 585 774
3 585 586 773
3 586 587 772
3 587 588 771
3 588 589 770
3 589 590 769
3 590 591 769
3 591 592 768
3 592 593 767
3 593 594 766
3 594 595 765
3 595 596 764
3 596 597 763
3 597 598 762
3 598 599 761
3 599 600 760
3 600 601 759
3 601 602 758
3 602 603 757
3 603 604 756
3 604 605 755
3 605 606 754
3 606 607 753
3 607 608 752
3 608 609 751
3 609 610 750
3 610 611 749
3 611 612 748
3 612 613 747
3 613 614 746
3 614 615 745
3 615 616 743
3 616 617 742
3 617 618 741
3 618 619 740
3 619 620 739
3 620 621 738
3 621 622 737
3 622 623 736
3 623 624 735
3 624 625 734
3 625 626 733
3 626 627 732
3 627 628 731
3 628 629 730
3 629 630 729
3 630 631 728
3 633 632 473
3 634 633 474
3 635 634 475
3 636 635 476
3 637 636 477
3 638 637 478
3 639 638 479
3 632 680 582
3 680 728 581
3 728 729 630
3 729 730 629
3 730 731 628
3 731 732 627
3 732 733 626
3 733 734 625
3 734 735 624
3 640 639 480
3 641 640 481
3 642 641 482
3 643 642 483
3 644 643 484
3 645 644 485
3 646 645 486
3 647 646 487
3 735 736 623
3 736 737 622
3 737 738 621
3 738 739 620
3 739 740 619
3 740 741 618
3 741 742 617
3 742 743 616
3 648 647 488
3 649 648 488
3 650 649 489
3 651 650 490
3 652 651 491
3 653 652 492
3 654 653 493
3 655 654 494
3 743 744 615
3 744 745 615
3 745 746 614
3 746 747 613
3 747 748 612
3 748 749 611
3 749 750 610
3 750 751 609
3 656 655 495
3 657 656 496
3 658 657 497
3 659 658 498
3 660 659 499
3 661 660 500
3 662 661 501
3 663 662 502
3 751 752 608
3 752 753 607
3 753 754 606
3 754 755 605
3 755 756 604
3 756 757 603
3 757 758 602
3 758 759 601
3 664 663 503
3 665 664 504
3 666 665 505
3 667 666 506
3 668 667 507
3 669 668 508
3 670 669 509
3 671 670 510
3 759 760 600
3 760 761 599
3 761 762 598
3 762 763 597
3 763 764 596
3 764 765 595
3 765 766 594
3 766 767 593
3 672 671 511
3 673 672 512
3 674 673 514
3 675 674 515
3 676 675 516
3 677 676 517
3 678 677 518
3 679 678 519
3 767 768 592
3 768 769 591
3 769 770 589
3 770 771 588
3 771 772 587
3 772 773 586
3 773 774 585
3 774 775 584
3 727 679 582
3 775 727 581
3 631 581 728
3 632 583 472
3 519 583 679
3 581 584 775
3 836 776 777
3 777 580 631
3 631 630 835
3 630 629 834
3 629 628 833
3 628 627 831
3 627 626 830
3 626 625 829
3 625 624 828
3 624 623 827
3 623 622 825
3 622 621 824
3 621 620 823
3 620 619 822
3 619 618 820
3 618 617 819
3 617 616 818
3 616 615 817
3 615 614 816
3 614 613 814
3 613 612 813
3 612 611 812
3 611 610 811
3 610 609 809
3 609 608 808
3 608 607 807
3 607 606 806
3 606 605 805
3 605 604 803
3 604 603 802
3 603 602 801
3 602 601 800
3 601 600 798
3 600 599 797
3 599 598 796
3 598 597 795
3 597 596 794
3 596 595 792
3 595 594 791
3 594 593 790
3 593 592 789
3 592 591 787
3 591 590 786
3 590 589 785
3 589 588 784
3 588 587 783
3 587 586 781
3 586 585 780
3 585 584 779
3 584 580 777
3 777 776 778
3 778 779 584
3 779 780 585
3 780 781 586
3 781 782 587
3 782 783 587
3 783 784 588
3 784 785 589
3 785 786 590
3 786 787 591
3 787 788 592
3 788 789 592
3 789 790 593
3 790 791 594
3 791 792 595
3 792 793 596
3 793 794 596
3 794 795 597
3 795 796 598
3 796 797 599
3 797 798 600
3 798 799 601
3 799 800 601
3 800 801 602
3 801 802 603
3 802 803 604
3 803 804 605
3 804 805 605
3 805 806 606
3 806 807 607
3 807 808 608
3 808 809 609
3 809 810 610
3 810 811 610
3 811 812 611
3 812 813 612
3 813 814 613
3 814 815 614
3 815 816 614
3 816 817 615
3 817 818 616
3 818 819 617
3 819 820 618
3 820 821 619
3 821 822 619
3 822 823 620
3 823 824 621
3 824 825 622
3 825 826 623
3 826 827 623
3 827 828 624
3 828 829 625
3 829 830 626
3 830 831 627
3 831 832 628
3 832 833 628
3 833 834 629
3 834 835 630
3 835 836 631
3 836 777 631
3 584 777 778
3 841 842 863
3 863 842 864
3 842 843 865
3 842 865 864
3 843 844 865
3 865 844 866
3 844 845 866
3 866 845 867
3 845 846 868
3 845 868 867
3 846 847 869
3 846 869 868
3 847 848 870
3 847 870 869
3 848 849 870
3 870 849 871
3 849 850 872
3 849 872 871
3 850 851 873
3 850 873 872
3 851 852 874
3 851 874 873
3 852 853 875
3 852 875 874
3 853 854 876
3 853 876 875
3 854 855 877
3 854 877 876
3 855 856 877
3 877 856 878
3 856 857 879
3 856 879 878
3 857 858 879
3 879 858 880
3 858 859 881
3 858 881 880
3 859 860 882
3 859 882 881
3 860 861 882
3 882 861 883
3 861 862 884
3 861 884 883
3 863 864 886
3 863 886 885
3 864 865 886
3 886 865 887
3 865 866 887
3 887 866 888
3 866 867 889
3 866 889 888
3 867 868 890
3 867 890 889
3 868 869 890
3 890 869 891
3 869 870 892
3 869 892 891
3 870 871 892
3 892 871 893
3 871 872 894
3 871 894 893
3 872 873 895
3 872 895 894
3 873 874 896
3 873 896 895
3 874 875 896
3 896 875 897
3 875 876 897
3 897 876 898
3 876 877 899
3 876 899 898
3 877 878 899
3 899 878 900
3 878 879 901
3 878 901 900
3 879 880 901
3 901 880 902
3 880 881 902
3 902 881 903
3 881 882 904
3 881 904 903
3 882 883 905
3 882 905 904
3 883 884 905
3 905 884 906
3 9 8 837
3 837 838 863
3 838 839 841
3 839 840 841
3 839 838 862
3 838 837 884
3 837 8 30
3 30 29 905
3 29 28 904
3 28 27 903
3 27 26 902
3 26 25 901
3 25 24 900
3 24 23 899
3 23 22 898
3 22 21 897
3 21 20 896
3 20 19 895
3 19 18 894
3 18 17 893
3 17 16 892
3 16 15 891
3 15 14 890
3 14 13 889
3 13 12 888
3 12 11 887
3 11 10 886
3 10 9 885
3 842 841 840
3 843 842 840
3 844 843 840
3 845 844 840
3 846 845 840
3 847 846 840
3 848 847 840
3 841 863 838
3 863 885 837
3 885 886 10
3 886 887 11
3 887 888 12
3 888 889 13
3 889 890 14
3 890 891 15
3 891 892 16
3 849 848 840
3 850 849 840
3 851 850 840
3 852 851 840
3 853 852 840
3 854 853 840
3 855 854 840
3 856 855 840
3 892 893 17
3 893 894 18
3 894 895 19
3 895 896 20
3 896 897 21
3 897 898 22
3 898 899 23
3 899 900 24
3 857 856 840
3 858 857 840
3 859 858 840
3 860 859 840
3 861 860 840
3 862 861 840
3 884 862 838
3 906 884 837
3 900 901 25
3 901 902 26
3 902 903 27
3 903 904 28
3 904 905 29
3 905 906 30
3 9 837 885
3 862 840 839
3 837 30 906
3 910 911 970
3 910 970 969
3 911 912 970
3 970 912 971
3 912 913 971
3 971 913 972
3 913 914 973
3 913 973 972
3 914 915 973
3 973 915 974
3 915 916 974
3 974 916 975
3 916 917 976
3 916 976 975
3 917 918 977
3 917 977 976
3 918 919 978
3 918 978 977
3 919 920 978
3 978 920 979
3 920 921 980
3 920 980 979
3 921 922 981
3 921 981 980
3 922 923 981
3 981 923 982
3 923 924 983
3 923 983 982
3 924 925 983
3 983 925 984
3 925 926 985
3 925 985 984
3 926 927 985
3 985 927 986
3 927 928 986
3 986 928 987
3 928 929 988
3 928 988 987
3 929 930 988
3 988 930 989
3 930 931 989
3 989 931 990
3 931 932 991
3 931 991 990
3 932 933 992
3 932 992 991
3 933 934 993
3 933 993 992
3 934 935 993
3 993 935 994
3 935 936 995
3 935 995 994
3 936 937 996
3 936 996 995
3 937 938 996
3 996 938 997
3 938 939 998
3 938 998 997
3 939 940 998
3 998 940 999
3 940 941 1000
3 940 1000 999
3 941 942 1000
3 1000 942 1001
3 942 943 1001
3 1001 943 1002
3 943 944 1003
3 943 1003 1002
3 944 945 1003
3 1003 945 1004
3 945 946 1004
3 1004 946 1005
3 946 947 1006
3 946 1006 1005
3 947 948 1007
3 947 1007 1006
3 948 949 1008
3 948 1008 1007
3 949 950 1008
3 1008 950 1009
3 950 951 1010
3 950 1010 1009
3 951 952 1011
3 951 1011 1010
3 952 953 1011
3 1011 953 1012
3 953 954 1013
3 953 1013 1012
3 954 955 1013
3 1013 955 1014
3 955 956 1015
3 955 1015 1014
3 956 957 1015
3 1015 957 1016
3 957 958 1016
3 1016 958 1017
3 958 959 1018
3 958 1018 1017
3 959 960 1018
3 1018 960 1019
3 960 961 1019
3 1019 961 1020
3 961 962 1021
3 961 1021 1020
3 962 963 1022
3 962 1022 1021
3 963 964 1023
3 963 1023 1022
3 964 965 1023
3 1023 965 1024
3 965 966 1025
3 965 1025 1024
3 966 967 1026
3 966 1026 1025
3 967 968 1026
3 1026 968 1027
3 969 970 1029
3 969 1029 1028
3 970 971 1030
3 970 1030 1029
3 971 972 1031
3 971 1031 1030
3 972 973 1032
3 972 1032 1031
3 973 974 1033
3 973 1033 1032
3 974 975 1034
3 974 1034 1033
3 975 976 1035
3 975 1035 1034
3 976 977 1035
3 1035 977 1036
3 977 978 1036
3 1036 978 1037
3 978 979 1037
3 1037 979 1038
3 979 980 1038
3 1038 980 1039
3 980 981 1039
3 1039 981 1040
3 981 982 1040
3 1040 982 1041
3 982 983 1042
3 982 1042 1041
3 983 984 1042
3 1042 984 1043
3 984 985 1044
3 984 1044 1043
3 985 986 1045
3 985 1045 1044
3 986 987 1046
3 986 1046 1045
3 987 988 1047
3 987 1047 1046
3 988 989 1048
3 988 1048 1047
3 989 990 1049
3 989 1049 1048
3 990 991 1050
3 990 1050 1049
3 991 992 1050
3 1050 992 1051
3 992 993 1051
3 1051 993 1052
3 993 994 1052
3 1052 994 1053
3 994 995 1053
3 1053 995 1054
3 995 996 1054
3 1054 996 1055
3 996 997 1055
3 1055 997 1056
3 997 998 1057
3 997 1057 1056
3 998 999 1057
3 1057 999 1058
3 999 1000 1059
3 999 1059 1058
3 1000 1001 1060
3 1000 1060 1059
3 1001 1002 1061
3 1001 1061 1060
3 1002 1003 1062
3 1002 1062 1061
3 1003 1004 1063
3 1003 1063 1062
3 1004 1005 1064
3 1004 1064 1063
3 1005 1006 1065
3 1005 1065 1064
3 1006 1007 1065
3 1065 1007 1066
3 1007 1008 1066
3 1066 1008 1067
3 1008 1009 1067
3 1067 1009 1068
3 1009 1010 1068
3 1068 1010 1069
3 1010 1011 1069
3 1069 1011 1070
3 1011 1012 1070
3 1070 1012 1071
3 1012 1013 1072
3 1012 1072 1071
3 1013 1014 1072
3 1072 1014 1073
3 1014 1015 1074
3 1014 1074 1073
3 1015 1016 1075
3 1015 1075 1074
3 1016 1017 1076
3 1016 1076 1075
3 1017 1018 1077
3 1017 1077 1076
3 1018 1019 1078
3 1018 1078 1077
3 1019 1020 1079
3 1019 1079 1078
3 1020 1021 1080
3 1020 1080 1079
3 1021 1022 1080
3 1080 1022 1081
3 1022 1023 1081
3 1081 1023 1082
3 1023 1024 1082
3 1082 1024 1083
3 1024 1025 1083
3 1083 1025 1084
3 1025 1026 1084
3 1084 1026 1085
3 1026 1027 1085
3 1085 1027 1086
3 521 520 907
3 907 908 969
3 908 909 910
3 909 776 836
3 836 835 910
3 835 834 911
3 834 833 912
3 833 832 913
3 832 831 914
3 831 830 915
3 830 829 916
3 829 828 917
3 828 827 918
3 827 826 919
3 826 825 920
3 825 824 921
3 824 823 922
3 823 822 923
3 822 821 924
3 821 820 925
3 820 819 926
3 819 818 927
3 818 817 928
3 817 816 929
3 816 815 930
3 815 814 931
3 814 813 932
3 813 812 933
3 812 811 934
3 811 810 935
3 810 809 936
3 809 808 937
3 808 807 938
3 807 806 939
3 806 805 940
3 805 804 941
3 804 803 942
3 803 802 943
3 802 801 944
3 801 800 945
3 800 799 946
3 799 798 947
3 798 797 948
3 797 796 950
3 796 795 951
3 795 794 952
3 794 793 953
3 793 792 954
3 792 791 955
3 791 790 956
3 790 789 957
3 789 788 958
3 788 787 959
3 787 786 960
3 786 785 961
3 785 784 962
3 784 783 963
3 783 782 964
3 782 781 965
3 781 780 966
3 780 779 967
3 779 778 968
3 778 776 909
3 909 908 968
3 908 907 1027
3 907 520 579
3 579 578 1085
3 578 577 1084
3 577 576 1083
3 576 575 1082
3 575 574 1081
3 574 573 1080
3 573 572 1079
3 572 571 1078
3 571 570 1077
3 570 569 1076
3 569 568 1075
3 568 567 1074
3 567 566 1073
3 566 565 1072
3 565 564 1071
3 564 563 1070
3 563 562 1069
3 562 561 1068
3 561 560 1067
3 560 559 1066
3 559 558 1065
3 558 557 1064
3 557 556 1063
3 556 555 1062
3 555 554 1061
3 554 553 1060
3 553 552 1059
3 552 551 1058
3 551 550 1057
3 550 549 1056
3 549 548 1055
3 548 547 1054
3 547 546 1053
3 546 545 1052
3 545 544 1051
3 544 543 1050
3 543 542 1049
3 542 541 1048
3 541 540 1047
3 540 539 1046
3 539 538 1045
3 538 537 1044
3 537 536 1043
3 536 535 1042
3 535 534 1041
3 534 533 1040
3 533 532 1039
3 532 531 1038
3 531 530 1037
3 530 529 1036
3 529 528 1035
3 528 527 1034
3 527 526 1033
3 526 525 1032
3 525 524 1031
3 524 523 1030
3 523 522 1029
3 522 521 1028
3 911 910 835
3 912 911 834
3 913 912 833
3 914 913 832
3 915 914 831
3 916 915 830
3 917 916 829
3 910 969 908
3 969 1028 907
3 1028 1029 522
3 1029 1030 523
3 1030 1031 524
3 1031 1032 525
3 1032 1033 526
3 1033 1034 527
3 1034 1035 528
3 918 917 828
3 919 918 827
3 920 919 826
3 921 920 825
3 922 921 824
3 923 922 823
3 924 923 822
3 925 924 821
3 1035 1036 529
3 1036 1037 530
3 1037 1038 531
3 1038 1039 532
3 1039 1040 533
3 1040 1041 534
3 1041 1042 535
3 1042 1043 536
3 926 925 820
3 927 926 819
3 928 927 818
3 929 928 817
3 930 929 816
3 931 930 815
3 932 931 814
3 933 932 813
3 1043 1044 537
3 1044 1045 538
3 1045 1046 539
3 1046 1047 540
3 1047 1048 541
3 1048 1049 542
3 1049 1050 543
3 1050 1051 544
3 934 933 812
3 935 934 811
3 936 935 810
3 937 936 809
3 938 937 808
3 939 938 807
3 940 939 806
3 941 940 805
3 1051 1052 545
3 1052 1053 546
3 1053 1054 547
3 1054 1055 548
3 1055 1056 549
3 1056 1057 550
3 1057 1058 551
3 1058 1059 552
3 942 941 804
3 943 942 803
3 944 943 802
3 945 944 801
3 946 945 800
3 947 946 799
3 948 947 798
3 949 948 797
3 1059 1060 553
3 1060 1061 554
3 1061 1062 555
3 1062 1063 556
3 1063 1064 557
3 1064 1065 558
3 1065 1066 559
3 1066 1067 560
3 950 949 797
3 951 950 796
3 952 951 795
3 953 952 794
3 954 953 793
3 955 954 792
3 956 955 791
3 957 956 790
3 1067 1068 561
3 1068 1069 562
3 1069 1070 563
3 1070 1071 564
3 1071 1072 565
3 1072 1073 566
3 1073 1074 567
3 1074 1075 568
3 958 957 789
3 959 958 788
3 960 959 787
3 961 960 786
3 962 961 785
3 963 962 784
3 964 963 783
3 965 964 782
3 1075 1076 569
3 1076 1077 570
3 1077 1078 571
3 1078 1079 572
3 1079 1080 573
3 1080 1081 574
3 1081 1082 575
3 1082 1083 576
3 966 965 781
3 967 966 780
3 968 967 779
3 1027 968 908
3 1086 1027 907
3 1083 1084 577
3 1084 1085 578
3 1085 1086 579
3 521 907 1028
3 910 909 836
3 968 778 909
3 907 579 1086

CELL_TYPES 2170
5 5 5 5 5 5 5 5 5 5 5 5 5 5 5 5 5 5 5 5
5 5 5 5 5 5 5 5 5 5 5 5 5 5 5 5 5 5 5 5
5 5 5 5 5 5 5 5 5 5 5 5 5 5 5 5 5 5 5 5
5 5 5 5 5 5 5 5 5 5 5 5 5 5 5 5 5 5 5 5
5 5 5 5 5 5 5 5 5 5 5 5 5 5 5 5 5 5 5 5
5 5 5 5 5 5 5 5 5 5 5 5 5 5 5 5 5 5 5 5
5 5 5 5 5 5 5 5 5 5 5 5 5 5 5 5 5 5 5 5
5 5 5 5 5 5 5 5 5 5 5 5 5 5 5 5 5 5 5 5
5 5 5 5 5 5 5 5 5 5 5 5 5 5 5 5 5 5 5 5
5 5 5 5 5 5 5 5 5 5 5 5 5 5 5 5 5 5 5 5
5 5 5 5 5 5 5 5 5 5 5 5 5 5 5 5 5 5 5 5
5 5 5 5 5 5 5 5 5 5 5 5 5 5 5 5 5 5 5 5
5 5 5 5 5 5 5 5 5 5 5 5 5 5 5 5 5 5 5 5
5 5 5 5 5 5 5 5 5 5 5 5 5 5 5 5 5 5 5 5
5 5 5 5 5 5 5 5 5 5 5 5 5 5 5 5 5 5 5 5
5 5 5 5 5 5 5 5 5 5 5 5 5 5 5 5 5 5 5 5
5 5 5 5 5 5 5 5 5 5 5 5 5 5 5 5 5 5 5 5
5 5 5 5 5 5 5 5 5 5 5 5 5 5 5 5 5 5 5 5
5 5 5 5 5 5 5 5 5 5 5 5 5 5 5 5 5 5 5 5
5 5 5 5 5 5 5 5 5 5 5 5 5 5 5 5 5 5 5 5
5 5 5 5 5 5 5 5 5 5 5 5 5 5 5 5 5 5 5 5
5 5 5 5 5 5 5 5 5 5 5 5 5 5 5 5 5 5 5 5
5 5 5 5 5 5 5 5 5 5 5 5 5 5 5 5 5 5 5 5
5 5 5 5 5 5 5 5 5 5 5 5 5 5 5 5 5 5 5 5
5 5 5 5 5 5 5 5 5 5 5 5 5 5 5 5 5 5 5 5
5 5 5 5 5 5 5 5 5 5 5 5 5 5 5 5 5 5 5 5
5 5 5 5 5 5 5 5 5 5 5 5 5 5 5 5 5 5 5 5
5 5 5 5 5 5 5 5 5 5 5 5 5 5 5 5 5 5 5 5
5 5 5 5 5 5 5 5 5 5 5 5 5 5 5 5 5 5 5 5
5 5 5 5 5 5 5 5 5 5 5 5 5 5 5 5 5 5 5 5
5 5 5 5 5 5 5 5 5 5 5 5 5 5 5 5 5 5 5 5
5 5 5 5 5 5 5 5 5 5 5 5 5 5 5 5 5 5 5 5
5 5 5 5 5 5 5 5 5 5 5 5 5 5 5 5 5 5 5 5
5 5 5 5 5 5 5 5 5 5 5 5 5 5 5 5 5 5 5 5
5 5 5 5 5 5 5 5 5 5 5 5 5 5 5 5 5 5 5 5
5 5 5 5 5 5 5 5 5 5 5 5 5 5 5 5 5 5 5 5
5 5 5 5 5 5 5 5 5 5 5 5 5 5 5 5 5 5 5 5
5 5 5 5 5 5 5 5 5 5 5 5 5 5 5 5 5 5 5 5
5 5 5 5 5 5 5 5 5 5 5 5 5 5 5 5 5 5 5 5
5 5 5 5 5 5 5 5 5 5 5 5 5 5 5 5 5 5 5 5
5 5 5 5 5 5 5 5 5 5 5 5 5 5 5 5 5 5 5 5
5 5 5 5 5 5 5 5 5 5 5 5 5 5 5 5 5 5 5 5
5 5 5 5 5 5 5 5 5 5 5 5 5 5 5 5 5 5 5 5
5 5 5 5 5 5 5 5 5 5 5 5 5 5 5 5 5 5 5 5
5 5 5 5 5 5 5 5 5 5 5 5 5 5 5 5 5 5 5 5
5 5 5 5 5 5 5 5 5 5 5 5 5 5 5 5 5 5 5 5
5 5 5 5 5 5 5 5 5 5 5 5 5 5 5 5 5 5 5 5
5 5 5 5 5 5 5 5 5 5 5 5 5 5 5 5 5 5 5 5
5 5 5 5 5 5 5 5 5 5 5 5 5 5 5 5 5 5 5 5
5 5 5 5 5 5 5 5 5 5 5 5 5 5 5 5 5 5 5 5
5 5 5 5 5 5 5 5 5 5 5 5 5 5 5 5 5 5 5 5
5 5 5 5 5 5 5 5 5 5 5 5 5 5 5 5 5 5 5 5
5 5 5 5 5 5 5 5 5 5 5 5 5 5 5 5 5 5 5 5
5 5 5 5 5 5 5 5 5 5 5 5 5 5 5 5 5 5 5 5
5 5 5 5 5 5 5 5 5 5 5 5 5 5 5 5 5 5 5 5
5 5 5 5 5 5 5 5 5 5 5 5 5 5 5 5 5 5 5 5
5 5 5 5 5 5 5 5 5 5 5 5 5 5 5 5 5 5 5 5
5 5 5 5 5 5 5 5 5 5 5 5 5 5 5 5 5 5 5 5
5 5 5 5 5 5 5 5 5 5 5 5 5 5 5 5 5 5 5 5
5 5 5 5 5 5 5 5 5 5 5 5 5 5 5 5 5 5 5 5
5 5 5 5 5 5 5 5 5 5 5 5 5 5 5 5 5 5 5 5
5 5 5 5 5 5 5 5 5 5 5 5 5 5 5 5 5 5 5 5
5 5 5 5 5 5 5 5 5 5 5 5 5 5 5 5 5 5 5 5
5 5 5 5 5 5 5 5 5 5 5 5 5 5 5 5 5 5 5 5
5 5 5 5 5 5 5 5 5 5 5 5 5 5 5 5 5 5 5 5
5 5 5 5 5 5 5 5 5 5 5 5 5 5 5 5 5 5 5 5
5 5 5 5 5 5 5 5 5 5 5 5 5 5 5 5 5 5 5 5
5 5 5 5 5 5 5 5 5 5 5 5 5 5 5 5 5 5 5 5
5 5 5 5 5 5 5 5 5 5 5 5 5 5 5 5 5 5 5 5
5 5 5 5 5 5 5 5 5 5 5 5 5 5 5 5 5 5 5 5
5 5 5 5 5 5 5 5 5 5 5 5 5 5 5 5 5 5 5 5
5 5 5 5 5 5 5 5 5 5 5 5 5 5 5 5 5 5 5 5
5 5 5 5 5 5 5 5 5 5 5 5 5 5 5 5 5 5 5 5
5 5 5 5 5 5 5 5 5 5 5 5 5 5 5 5 5 5 5 5
5 5 5 5 5 5 5 5 5 5 5 5 5 5 5 5 5 5 5 5
5 5 5 5 5 5 5 5 5 5 5 5 5 5 5 5 5 5 5 5
5 5 5 5 5 5 5 5 5 5 5 5 5 5 5 5 5 5 5 5
5 5 5 5 5 5 5 5 5 5 5 5 5 5 5 5 5 5 5 5
5 5 5 5 5 5 5 5 5 5 5 5 5 5 5 5 5 5 5 5
5 5 5 5 5 5 5 5 5 5 5 5 5 5 5 5 5 5 5 5
5 5 5 5 5 5 5 5 5 5 5 5 5 5 5 5 5 5 5 5
5 5 5 5 5 5 5 5 5 5 5 5 5 5 5 5 5 5 5 5
5 5 5 5 5 5 5 5 5 5 5 5 5 5 5 5 5 5 5 5
5 5 5 5 5 5 5 5 5 5 5 5 5 5 5 5 5 5 5 5
5 5 5 5 5 5 5 5 5 5 5 5 5 5 5 5 5 5 5 5
5 5 5 5 5 5 5 5 5 5 5 5 5 5 5 5 5 5 5 5
5 5 5 5 5 5 5 5 5 5 5 5 5 5 5 5 5 5 5 5
5 5 5 5 5 5 5 5 5 5 5 5 5 5 5 5 5 5 5 5
5 5 5 5 5 5 5 5 5 5 5 5 5 5 5 5 5 5 5 5
5 5 5 5 5 5 5 5 5 5 5 5 5 5 5 5 5 5 5 5
5 5 5 5 5 5 5 5 5 5 5 5 5 5 5 5 5 5 5 5
5 5 5 5 5 5 5 5 5 5 5 5 5 5 5 5 5 5 5 5
5 5 5 5 5 5 5 5 5 5 5 5 5 5 5 5 5 5 5 5
5 5 5 5 5 5 5 5 5 5 5 5 5 5 5 5 5 5 5 5
5 5 5 5 5 5 5 5 5 5 5 5 5 5 5 5 5 5 5 5
5 5 5 5 5 5 5 5 5 5 5 5 5 5 5 5 5 5 5 5
5 5 5 5 5 5 5 5 5 5 5 5 5 5 5 5 5 5 5 5
5 5 5 5 5 5 5 5 5 5 5 5 5 5 5 5 5 5 5 5
5 5 5 5 5 5 5 5 5 5 5 5 5 5 5 5 5 5 5 5
5 5 5 5 5 5 5 5 5 5 5 5 5 5 5 5 5 5 5 5
5 5 5 5 5 5 5 5 5 5 5 5 5 5 5 5 5 5 5 5
5 5 5 5 5 5 5 5 5 5 5 5 5 5 5 5 5 5 5 5
5 5 5 5 5 5 5 5 5 5 5 5 5 5 5 5 5 5 5 5
5 5 5 5 5 5 5 5 5 5 5 5 5 5 5 5 5 5 5 5
5 5 5 5 5 5 5 5 5 5 5 5 5 5 5 5 5 5 5 5
5 5 5 5 5 5 5 5 5 5 5 5 5 5 5 5 5 5 5 5
5 5 5 5 5 5 5 5 5 5 5 5 5 5 5 5 5 5 5 5
5 5 5 5 5 5 5 5 5 5 5 5 5 5 5 5 5 5 5 5
5 5 5 5 5 5 5 5 5 5

CELL_DATA 2170
FIELD FieldData 1
PATCH_IDS 1 2170 int
1 1 1 1 1 1 1 1 1 1 1 1 1 1 1 1 1 1 1 1
1 1 1 1 1 1 1 1 1 1 1 1 1 1 1 1 1 1 1 1
1 1 1 1 1 1 1 1 1 1 1 1 1 1 1 1 1 1 1 1
1 1 1 1 1 1 1 1 1 1 1 1 1 1 1 1 1 1 1 1
1 1 1 1 1 1 1 1 1 1 1 1 1 1 1 1 1 1 1 1
1 1 1 1 1 1 1 1 1 1 1 1 1 1 1 1 1 1 1 1
1 1 1 1 1 1 1 1 1 1 1 1 1 1 1 1 1 1 1 1
1 1 1 1 1 1 1 1 1 1 1 1 1 1 1 1 1 1 1 1
1 1 1 1 1 1 1 1 1 1 1 1 1 1 1 1 1 1 1 1
1 1 1 1 1 1 1 1 1 1 1 1 1 1 1 1 1 1 1 1
1 1 1 1 1 1 1 1 1 1 1 1 1 1 1 1 1 1 1 1
1 1 1 1 1 1 1 1 1 1 1 1 1 1 1 1 1 1 1 1
1 1 1 1 1 1 1 1 1 1 1 1 1 1 1 1 1 1 1 1
1 1 1 1 1 1 1 1 1 1 1 1 1 1 1 1 1 1 1 1
1 1 1 1 1 1 1 1 1 1 1 1 1 1 1 1 1 1 1 1
1 1 1 1 1 1 1 1 1 1 1 1 1 1 1 1 1 1 1 1
1 1 1 1 1 1 1 1 1 1 1 1 1 1 1 1 1 1 1 1
1 1 1 1 1 1 1 1 1 1 1 1 1 1 1 1 1 1 1 1
1 1 1 1 1 1 1 1 1 1 1 1 1 1 1 1 1 1 1 1
1 1 1 1 1 1 1 1 1 1 1 1 1 1 1 1 1 1 1 1
1 1 1 1 1 1 1 1 1 1 1 1 1 1 1 1 1 1 1 1
1 1 1 1 1 1 1 1 1 1 1 1 1 1 1 1 1 1 1 1
1 1 1 1 1 1 1 1 1 1 1 1 1 1 1 1 1 1 1 1
1 1 1 1 1 1 1 1 1 1 1 1 1 1 1 1 1 1 1 1
1 1 1 1 1 1 1 1 1 1 1 1 1 1 1 1 1 1 1 1
1 1 1 1 1 1 1 1 1 1 1 1 1 1 1 1 1 1 1 1
1 1 1 1 1 1 1 1 1 1 1 1 1 1 1 1 1 1 1 1
1 1 1 1 1 1 1 1 1 1 1 1 1 1 1 1 1 1 1 1
1 1 1 1 1 1 1 1 1 1 1 1 1 1 1 1 1 1 1 1
1 1 1 1 1 1 1 1 1 1 1 1 1 1 1 1 1 1 1 1
1 1 1 1 1 1 1 1 1 1 1 1 1 1 1 1 1 1 1 1
1 1 1 1 1 1 1 1 1 1 1 1 1 1 1 1 1 1 1 1
1 1 1 1 1 1 1 1 1 1 1 1 1 1 1 1 1 1 1 1
1 1 1 1 1 1 1 1 1 1 1 1 1 1 1 1 1 1 1 1
1 1 1 1 1 1 1 1 1 1 1 1 1 1 1 1 1 1 1 1
1 1 1 1 1 1 1 1 1 1 1 1 1 1 1 1 1 1 1 1
1 1 1 1 1 1 1 1 1 1 1 1 1 1 1 1 1 1 1 1
1 1 1 1 1 1 1 1 1 1 1 1 1 1 1 1 1 1 1 1
1 1 1 1 1 1 1 1 1 1 1 1 2 2 2 2 2 2 2 2
2 2 2 2 2 2 2 2 2 2 2 2 2 2 2 2 2 2 2 2
2 2 2 2 2 2 2 2 2 2 2 2 2 2 2 2 2 2 2 2
2 2 2 2 2 2 2 2 2 2 2 2 2 2 2 2 2 2 2 2
2 2 2 2 2 2 2 2 2 2 2 2 2 2 2 2 2 2 2 2
2 2 2 2 2 2 2 2 2 2 2 2 2 2 2 2 2 2 2 2
2 2 2 2 2 2 2 2 2 2 2 2 2 2 2 2 2 2 2 2
2 2 2 2 2 2 2 2 2 2 2 2 2 2 2 2 2 2 2 2
2 2 2 2 2 2 2 2 2 2 2 2 2 2 2 2 2 2 2 2
2 2 2 2 2 2 2 2 2 2 2 2 2 2 2 2 2 2 2 2
2 2 2 2 2 2 2 2 3 3 3 3 3 3 3 3 3 3 3 3
3 3 3 3 3 3 3 3 3 3 3 3 3 3 3 3 3 3 3 3
3 3 3 3 3 3 3 3 3 3 3 3 3 3 3 3 3 3 3 3
3 3 3 3 3 3 4 4 4 4 4 4 4 4 4 4 4 4 4 4
4 4 4 4 4 4 4 4 4 4 4 4 4 4 4 4 4 4 4 4
4 4 4 4 4 4 4 4 4 4 4 4 4 4 4 4 4 4 4 4
4 4 4 4 4 4 4 4 4 4 4 4 4 4 4 4 4 4 4 4
4 4 4 4 4 4 4 4 4 4 4 4 4 4 4 4 4 4 4 4
4 4 4 4 4 4 4 4 4 4 4 4 4 4 4 4 4 4 4 4
4 4 4 4 4 4 4 4 4 4 4 4 4 4 4 4 4 4 4 4
4 4 4 4 4 4 4 4 4 4 4 4 4 4 4 4 4 4 4 4
4 4 4 4 4 4 4 4 4 4 4 4 4 4 4 4 4 4 4 4
4 4 4 4 4 4 4 4 4 4 4 4 4 4 4 4 4 4 4 4
4 4 4 4 4 4 4 4 4 4 4 4 4 4 4 4 4 4 4 4
4 4 4 4 4 4 4 4 4 4 4 4 4 4 4 4 4 4 4 4
4 4 4 4 4 4 4 4 4 4 4 4 4 4 4 4 4 4 4 4
4 4 4 4 4 4 4 4 4 4 4 4 4 4 4 4 4 4 4 4
4 4 4 4 4 4 4 4 4 4 4 4 4 4 4 4 4 4 4 4
4 4 4 4 4 4 4 4 4 4 4 4 4 4 4 4 4 4 4 4
4 4 4 4 4 4 4 4 4 4 4 4 4 4 4 4 4 4 4 4
4 4 4 4 4 4 4 4 4 4 4 4 4 4 4 4 4 4 4 4
4 4 4 4 4 4 4 4 4 4 4 4 4 4 4 4 4 4 4 4
4 4 4 4 4 4 4 4 4 4 4 4 4 4 4 4 4 4 5 5
5 5 5 5 5 5 5 5 5 5 5 5 5 5 5 5 5 5 5 5
5 5 5 5 5 5 5 5 5 5 5 5 5 5 5 5 5 5 5 5
5 5 5 5 5 5 5 5 5 5 5 5 5 5 5 5 5 5 5 5
5 5 5 5 5 5 5 5 5 5 5 5 5 5 5 5 5 5 5 5
5 5 5 5 5 5 5 5 5 5 5 5 5 5 5 5 5 5 5 5
5 5 5 5 5 5 5 5 5 6 6 6 6 6 6 6 6 6 6 6
6 6 6 6 6 6 6 6 6 6 6 6 6 6 6 6 6 6 6 6
6 6 6 6 6 6 6 6 6 6 6 6 6 6 6 6 6 6 6 6
6 6 6 6 6 6 6 6 6 6 6 6 6 6 6 6 6 6 6 6
6 6 6 6 6 6 6 6 6 6 6 6 6 6 6 6 6 6 6 6
6 6 6 6 6 6 6 6 6 6 6 6 6 6 6 6 6 6 6 6
6 6 6 6 6 6 6 6 6 6 6 6 6 6 6 6 6 6 6 6
6 6 6 6 6 6 6 6 6 6 6 6 6 6 6 6 6 6 6 6
6 6 6 6 6 6 6 6 6 6 7 7 7 7 7 7 7 7 7 7
7 7 7 7 7 7 7 7 7 7 7 7 7 7 7 7 7 7 7 7
7 7 7 7 7 7 7 7 7 7 7 7 7 7 7 7 7 7 7 7
7 7 7 7 7 7 7 7 7 7 7 7 7 7 7 7 7 7 7 7
7 7 7 7 7 7 7 7 7 7 7 7 7 7 7 7 7 7 7 7
7 7 7 7 7 7 7 7 7 7 7 7 7 7 7 7 7 7 7 7
7 7 7 7 7 7 7 7 7 7 7 7 7 7 7 7 7 7 7 7
7 7 7 7 7 7 7 7 7 7 7 7 7 7 7 7 7 7 7 7
7 7 7 7 7 7 7 7 7 7 7 7 7 7 7 7 7 7 7 7
7 7 7 7 7 7 7 7 7 7 7 7 7 7 7 7 7 7 7 7
7 7 7 7 7 7 7 7 7 7 7 7 7 7 7 7 7 7 7 7
7 7 7 7 7 7 7 7 7 7 7 7 7 7 7 7 7 7 7 7
7 7 7 7 7 7 7 7 7 7 7 7 7 7 7 7 7 7 7 7
7 7 7 7 7 7 7 7 7 7 7 7 7 7 7 7 7 7 7 7
7 7 7 7 7 7 7 7 7 7 7 7 7 7 7 7 7 7 7 7
7 7 7 7 7 7 7 7 7 7 7 7 7 7 7 7 7 7 7 7
7 7 7 7 7 7 7 7 7 7 7 7 7 7 7 7 7 7 7 7
7 7 7 7 7 7 7 7 7 7 7 7 7 7 7 7 7 7 7 7
7 7 7 7 7 7 7 7 7 7 7 7 7 7 7 7 7 7 7 7
7 7 7 7 7 7 7 7 7 7 7 7 7 7 7 7 7 7 7 7
7 7 7 7 7 7 7 7 7 7 7 7 7 7 7 7 7 7 7 7
7 7 7 7 7 7 7 7 7 7 7 7 7 7 7 7 7 7 7 7
7 7 7 7 7 7 7 7 7 7 7 7 7 7 7 7 7 7 7 7
7 7 7 7 7 7 7 7 7 7 7 7 7 7 7 7 7 7 7 7
7 7 7 7 7 7 7 7 7 7 

