# vtk DataFile Version 3.0
Generated by FvKompasPlugin. Date/time (GMT): Sun Jun 21 00:43:13 2026
ASCII
DATASET UNSTRUCTURED_GRID
POINTS 8 double
-41.2 -29.25000000000306 -29.25000000000309
-41.2 -29.25000000000306 29.25000000000351
-41.2 29.25000000000349 -29.25000000000309
-41.2 29.25000000000349 29.25000000000351
80.60000000000001 -29.25000000000306 -29.25000000000309
80.60000000000001 -29.25000000000306 29.25000000000351
80.60000000000001 29.25000000000349 -29.25000000000309
80.60000000000001 29.25000000000349 29.25000000000351

CELLS 12 48
3 0 1 3
3 0 2 3
3 0 1 5
3 0 4 5
3 0 2 6
3 0 4 6
3 7 6 4
3 7 5 4
3 7 6 2
3 7 3 2
3 7 3 1
3 7 5 1

CELL_TYPES 12
5 5 5 5 5 5 5 5 5 5 5 5

CELL_DATA 12
FIELD FieldData 1
PATCH_IDS 1 12 int
1 1 2 2 3 3 4 4 5 5 6 6 

