# vtk DataFile Version 3.0
Generated by FvKompasPlugin. Date/time (GMT): Sat Jun 20 12:30:31 2026
ASCII
DATASET UNSTRUCTURED_GRID
POINTS 8 double
-105.056792617764 -40.04465766587813 -39.00000000000006
-105.056792617764 -40.04465766587813 39.00000000000006
-105.056792617764 40.76135314906024 -39.00000000000006
-105.056792617764 40.76135314906024 39.00000000000006
105.0638721253014 -40.04465766587813 -39.00000000000006
105.0638721253014 -40.04465766587813 39.00000000000006
105.0638721253014 40.76135314906024 -39.00000000000006
105.0638721253014 40.76135314906024 39.00000000000006

CELLS 12 48
3 0 1 3
3 0 2 3
3 0 1 5
3 0 4 5
3 0 2 6
3 0 4 6
3 7 6 4
3 7 5 4
3 7 6 2
3 7 3 2
3 7 3 1
3 7 5 1

CELL_TYPES 12
5 5 5 5 5 5 5 5 5 5 5 5

CELL_DATA 12
FIELD FieldData 1
PATCH_IDS 1 12 int
1 1 2 2 3 3 4 4 5 5 6 6 

