# vtk DataFile Version 3.0
Generated by FvKompasPlugin. Date/time (GMT): Sat Jun 20 12:30:31 2026
ASCII
DATASET UNSTRUCTURED_GRID
POINTS 1087 double
29.52673487222553 0.3804427356747193 -2.599999999999998
30.21287896124537 0.3894437280029962 -2.483830810546873
30.89043980439448 0.3983321233833859 -2.325073242187498
31.55677505089625 0.4070732588646963 -2.124345703124998
32.20928922094132 0.4156330863596142 -1.882430664062498
32.84543761160145 0.4239782238833621 -1.600270507812498
33.46274582639923 0.4320762117469816 -1.278964843749998
34.05880391643716 0.4398954356993481 -0.9197658691406229
34.63129176883825 0.4474054599784389 -0.5240731201171852
34.63314643747851 0.3060243901821656 -0.5046390991210915
34.6348635539436 0.1751288989174248 -0.4477782592773416
34.6363157675548 0.06442690640590501 -0.3577077636718728
34.63739537405548 -0.01787131048995548 -0.241107727050779
34.63802230423806 -0.06566208991877358 -0.1066258316040017
34.63815006062286 -0.07540093704493467 0.03576401519775614
34.63776916966266 -0.04636568499992006 0.175501403808596
34.636907879469 0.01929031755529002 0.3022226562500022
34.63563006783401 0.1166976775725676 0.4065294494628929
34.63403050445592 0.238632117338278 0.4806857910156273
34.63222782163597 0.3760503170411483 0.5191918945312523
34.63035571604054 0.5187606029157296 0.5191918945312523
34.62855303322058 0.6561788026186 0.4806857910156273
34.6269534698425 0.7781132423843103 0.4065294494628929
34.62567565820751 0.8755206024015879 0.3022226562500022
34.62481436801385 0.941176604956798 0.175501403808596
34.62443347705364 0.9702118570018126 0.03576401519775613
34.62456123343845 0.9604730098756514 -0.1066258316040017
34.62518816362103 0.9126822304468334 -0.241107727050779
34.62626777012171 0.8303840135509729 -0.3577077636718728
34.62771998373291 0.7196820210394532 -0.4477782592773416
34.629437100198 0.5887865297747124 -0.5046390991210915
29.52237369196718 0.7128947527719001 -2.578654052734373
29.51808412253507 1.039887888966392 -2.514966552734373
29.51393659746721 1.356053007831138 -2.409983642578123
29.50999922054399 1.656198569963283 -2.265428710937498
29.50633664133975 1.935396349486065 -2.083675537109373
29.50300900122768 2.189061779919036 -1.867708251953123
29.50007093983023 2.413029692290452 -1.621073486328123
29.4975706999438 2.603622546571309 -1.347820678710936
29.49554933173837 2.757711095401138 -1.052436645507811
29.49404003305979 2.872764672729911 -0.7397717285156231
29.49306758100093 2.946894525050746 -0.4149597167968731
29.49264794601059 2.97888322781423 -0.08333409881591605
29.49278801648567 2.968205679715815 0.2496598663330097
29.49348549309144 2.915037158643304 0.5785544433593769
29.49472892398816 2.820250636361024 0.8979491577148457
29.49649789057116 2.685402619571816 1.202599609375002
29.49876335012941 2.512707029117594 1.487503295898439
29.50148809859459 2.304999924694129 1.747982299804689
29.50462739981585 2.065691535345544 1.979759521484377
29.50812970450222 1.798711454609417 2.179029052734377
29.51193750526773 1.508443460578007 2.342519042968752
29.51598827974286 1.199653622669897 2.467544921875002
29.5202155125456 0.8774123969559765 2.552053710937502
29.52454979270937 0.5470109694168548 2.594657958984377
29.52891995174168 0.2138745019325841 2.594657958984377
29.53325423190546 -0.1165269256065377 2.552053710937502
29.53748146470819 -0.4387681513204582 2.467544921875002
29.54153223918332 -0.747557989228568 2.342519042968752
29.54534003994883 -1.037825983259978 2.179029052734377
29.54884234463521 -1.304806063996105 1.979759521484377
29.55198164585647 -1.54411445334469 1.747982299804689
29.55470639432164 -1.751821557768154 1.487503295898439
29.55697185387989 -1.924517148222376 1.202599609375002
29.5587408204629 -2.059365165011585 0.8979491577148457
29.55998425135961 -2.154151687293865 0.5785544433593769
29.56068172796538 -2.207320208366376 0.2496598663330098
29.56082179844045 -2.217997756464791 -0.083334098815916
29.56040216345012 -2.186009053701307 -0.414959716796873
29.55942971139127 -2.111879201380471 -0.7397717285156231
29.55792041271268 -1.996825624051699 -1.052436645507811
29.55589904450725 -1.84273707522187 -1.347820678710936
29.55339880462082 -1.652144220941013 -1.621073486328123
29.55046074322337 -1.428176308569598 -1.867708251953123
29.54713310311131 -1.174510878136626 -2.083675537109373
29.54347052390707 -0.8953130986138444 -2.265428710937498
29.53953314698384 -0.5951675364816986 -2.409983642578123
29.53538562191598 -0.2790024176169528 -2.514966552734373
29.53109605248387 0.0479907185775388 -2.578654052734373
34.06031601893108 0.3246281240137422 -0.9125132446289042
34.06180427463395 0.211178649085146 -0.8908696899414041
34.06324521273843 0.1013361865013285 -0.8551766357421854
34.0646161094007 -0.00316702905151584 -0.8059969482421854
34.06589534410932 -0.1006828697253297 -0.7441062011718729
34.06706274244387 -0.1896734429383667 -0.6704804687499979
34.06809989451514 -0.2687353660199953 -0.5862808227539041
34.06899044318261 -0.3366217369765785 -0.4928351745605447
34.06972034425077 -0.3922619692106724 -0.3916172485351541
34.07027808743576 -0.4347786357748679 -0.2842232666015603
34.07065487490011 -0.4635010790406556 -0.1723469390869118
34.07084476696269 -0.4779765181411764 -0.0577525749206521
34.07084476696269 -0.4779765181411764 0.0577525749206565
34.07065487490011 -0.4635010790406556 0.1723469390869163
34.07027808743576 -0.4347786357748679 0.2842232666015647
34.06972034425077 -0.3922619692106724 0.3916172485351585
34.06899044318261 -0.3366217369765785 0.4928351745605491
34.06809989451514 -0.2687353660199953 0.5862808227539085
34.06706274244387 -0.1896734429383667 0.6704804687500022
34.06589534410932 -0.1006828697253297 0.7441062011718772
34.0646161094007 -0.00316702905151584 0.8059969482421897
34.06324521273843 0.1013361865013285 0.8551766357421897
34.06180427463395 0.2111786490851461 0.8908696899414085
34.06031601893108 0.3246281240137422 0.9125132446289085
34.05880391643716 0.4398954356993492 0.9197658691406272
34.05729181394327 0.555162747384954 0.9125132446289085
34.05580355824039 0.6686122223135501 0.8908696899414085
34.0543626201359 0.7784546848973677 0.8551766357421897
34.05299172347364 0.8829579004502119 0.8059969482421897
34.05171248876501 0.9804737411240259 0.7441062011718772
34.05054509043047 1.069464314337063 0.6704804687500022
34.04950793835921 1.148526237418691 0.5862808227539085
34.04861738969172 1.216412608375274 0.4928351745605491
34.04788748862357 1.272052840609369 0.3916172485351585
34.04732974543858 1.314569507173564 0.2842232666015647
34.04695295797423 1.343291950439352 0.1723469390869163
34.04676306591165 1.357767389539873 0.05775257492065649
34.04676306591165 1.357767389539873 -0.05775257492065211
34.04695295797423 1.343291950439352 -0.1723469390869119
34.04732974543858 1.314569507173564 -0.2842232666015603
34.04788748862357 1.272052840609369 -0.3916172485351541
34.04861738969172 1.216412608375274 -0.4928351745605447
34.04950793835921 1.148526237418691 -0.5862808227539041
34.05054509043047 1.069464314337063 -0.6704804687499979
34.05171248876501 0.9804737411240259 -0.7441062011718729
34.05299172347364 0.8829579004502119 -0.8059969482421854
34.0543626201359 0.7784546848973677 -0.8551766357421854
34.05580355824039 0.6686122223135501 -0.8908696899414041
34.05729181394327 0.555162747384954 -0.9125132446289042
33.46484845491087 0.2717932038242717 -1.268879882812498
33.46691792400565 0.1140379325161402 -1.238783813476561
33.46892159606036 -0.03870164180356454 -1.189151489257811
33.47082787343642 -0.1840168366078804 -1.120765502929685
33.47260669145177 -0.3196158263808733 -1.034704345703123
33.4742299977425 -0.4433601842733905 -0.9323252563476541
33.47567219139422 -0.5532983570060761 -0.8152429199218728
33.47691052884823 -0.6476966070313189 -0.6853036499023416
33.47792548177153 -0.7250662929008894 -0.5445567626953104
33.47870104128634 -0.7841870606299227 -0.3952218933105447
33.47922497736582 -0.8241266173862133 -0.2396541137695291
33.47948902777658 -0.844255134547847 -0.08030686950683376
33.47948902777658 -0.844255134547847 0.08030686950683812
33.47922497736582 -0.8241266173862133 0.2396541137695334
33.47870104128634 -0.7841870606299227 0.395221893310549
33.47792548177153 -0.7250662929008894 0.5445567626953147
33.47691052884823 -0.6476966070313189 0.6853036499023459
33.47567219139422 -0.5532983570060761 0.8152429199218771
33.4742299977425 -0.4433601842733905 0.9323252563476584
33.47260669145177 -0.3196158263808733 1.034704345703127
33.47082787343642 -0.1840168366078804 1.120765502929689
33.46892159606036 -0.03870164180356454 1.189151489257815
33.46691792400565 0.1140379325161402 1.238783813476565
33.46484845491087 0.2717932038242717 1.268879882812502
33.46274582639923 0.4320762117469832 1.278964843750002
33.46064319788759 0.5923592196696914 1.268879882812502
33.45857372879282 0.7501144909778228 1.238783813476565
33.45657005673811 0.9028540652975277 1.189151489257815
33.45466377936205 1.048169260101844 1.120765502929689
33.4528849613467 1.183768249874836 1.034704345703127
33.45126165505597 1.307512607767354 0.9323252563476584
33.44981946140425 1.417450780500039 0.8152429199218771
33.44858112395023 1.511849030525282 0.6853036499023459
33.44756617102693 1.589218716394853 0.5445567626953147
33.44679061151213 1.648339484123886 0.395221893310549
33.44626667543265 1.688279040880177 0.2396541137695334
33.44600262502188 1.70840755804181 0.08030686950683809
33.44600262502188 1.70840755804181 -0.0803068695068338
33.44626667543265 1.688279040880177 -0.2396541137695291
33.44679061151213 1.648339484123886 -0.3952218933105447
33.44756617102693 1.589218716394853 -0.5445567626953104
33.44858112395023 1.511849030525282 -0.6853036499023416
33.44981946140425 1.417450780500039 -0.8152429199218728
33.45126165505597 1.307512607767354 -0.9323252563476541
33.4528849613467 1.183768249874836 -1.034704345703123
33.45466377936205 1.048169260101844 -1.120765502929685
33.45657005673811 0.9028540652975277 -1.189151489257811
33.45857372879282 0.7501144909778228 -1.238783813476561
33.46064319788759 0.5923592196696914 -1.268879882812498
32.84806846923142 0.2234284015950727 -1.587651855468748
32.8506578367595 0.02604136260017275 -1.549994995117185
32.85316487817729 -0.1650699712405167 -1.487893920898435
32.85555005525549 -0.3468916075425429 -1.402327758789061
32.85777575441681 -0.5165562698136127 -1.294645996093748
32.85980687317848 -0.6713881018591681 -1.16654699707031
32.86161138017468 -0.8089453582010917 -1.020050781249998
32.86316081633467 -0.927058608798377 -0.8574678344726541
32.8644307472241 -1.02386522094358 -0.6813620605468729
32.86540114493306 -1.097838470527609 -0.494510772705076
32.86605670671653 -1.14781183194201 -0.2998607788085916
32.8663870919731 -1.172997042930905 -0.1004818115234354
32.8663870919731 -1.172997042930905 0.1004818115234396
32.86605670671653 -1.14781183194201 0.2998607788085959
32.86540114493306 -1.097838470527609 0.4945107727050803
32.8644307472241 -1.02386522094358 0.6813620605468772
32.86316081633467 -0.927058608798377 0.8574678344726584
32.86161138017468 -0.8089453582010917 1.020050781250002
32.85980687317848 -0.6713881018591681 1.166546997070315
32.85777575441681 -0.5165562698136127 1.294645996093752
32.85555005525549 -0.3468916075425429 1.402327758789065
32.85316487817729 -0.1650699712405167 1.48789392089844
32.8506578367595 0.02604136260017277 1.54999499511719
32.84806846923142 0.2234284015950727 1.587651855468752
32.84543761160145 0.4239782238833641 1.600270507812502
32.84280675397148 0.6245280461716514 1.587651855468752
32.8402173864434 0.8219150851665513 1.54999499511719
32.83771034502561 1.013026419007241 1.48789392089844
32.83532516794741 1.194848055309267 1.402327758789065
32.83309946878608 1.364512717580337 1.294645996093752
32.83106835002441 1.519344549625892 1.166546997070315
32.82926384302822 1.656901805967816 1.020050781250002
32.82771440686822 1.775015056565101 0.8574678344726584
32.8264444759788 1.871821668710304 0.6813620605468772
32.82547407826983 1.945794918294334 0.4945107727050803
32.82481851648637 1.995768279708735 0.2998607788085959
32.82448813122981 2.020953490697629 0.1004818115234396
32.82448813122981 2.020953490697629 -0.1004818115234354
32.82481851648637 1.995768279708735 -0.2998607788085916
32.82547407826983 1.945794918294334 -0.494510772705076
32.8264444759788 1.871821668710304 -0.6813620605468729
32.82771440686822 1.775015056565101 -0.8574678344726541
32.82926384302822 1.656901805967816 -1.020050781249998
32.83106835002441 1.519344549625892 -1.16654699707031
32.83309946878608 1.364512717580337 -1.294645996093748
32.83532516794741 1.194848055309267 -1.402327758789061
32.83771034502561 1.013026419007241 -1.487893920898435
32.8402173864434 0.8219150851665513 -1.549994995117185
32.84280675397148 0.6245280461716514 -1.587651855468748
32.21238395213707 0.1797222623498158 -1.867587158203123
32.21542987731149 -0.05246808709265386 -1.82329064941406
32.21837896102465 -0.2772762286842446 -1.750239746093748
32.22118469378778 -0.4911567521407634 -1.649586547851561
32.22380282821883 -0.6907366871752287 -1.522918334960935
32.2261920739666 -0.8728684774556047 -1.372232910156248
32.2283147522046 -1.034679872552322 -1.199906494140623
32.23013738647678 -1.173618968008334 -1.008656799316404
32.23163123189678 -1.287494546106467 -0.8014999999999979
32.23277273149222 -1.374510862915405 -0.5817030639648416
32.23354388128014 -1.433295477926463 -0.3527323303222635
32.23393252008565 -1.462921346879285 -0.1181987991332987
32.23393252008565 -1.462921346879285 0.1181987991333029
32.23354388128014 -1.433295477926463 0.3527323303222678
32.23277273149222 -1.374510862915405 0.5817030639648459
32.23163123189678 -1.287494546106467 0.8015000000000022
32.23013738647678 -1.173618968008334 1.008656799316408
32.2283147522046 -1.034679872552322 1.199906494140627
32.2261920739666 -0.8728684774556047 1.372232910156252
32.22380282821883 -0.6907366871752287 1.52291833496094
32.22118469378778 -0.4911567521407634 1.649586547851565
32.21837896102465 -0.2772762286842446 1.750239746093752
32.21542987731149 -0.0524680870926538 1.823290649414065
32.21238395213707 0.1797222623498158 1.867587158203127
32.20928922094132 0.4156330863596165 1.882430664062502
32.20619448974557 0.6515439103694124 1.867587158203127
32.20314856457114 0.883734259811882 1.823290649414065
32.20019948085799 1.108542401403473 1.750239746093752
32.19739374809485 1.322422924859992 1.649586547851565
32.1947756136638 1.522002859894457 1.52291833496094
32.19238636791603 1.704134650174833 1.372232910156252
32.19026368967803 1.86594604527155 1.199906494140627
32.18844105540585 2.004885140727561 1.008656799316408
32.18694720998586 2.118760718825695 0.8015000000000021
32.18580571039041 2.205777035634633 0.5817030639648458
32.18503456060249 2.264561650645691 0.3527323303222678
32.18464592179699 2.294187519598514 0.1181987991333029
32.18464592179699 2.294187519598514 -0.1181987991332987
32.18503456060249 2.264561650645691 -0.3527323303222635
32.18580571039041 2.205777035634633 -0.5817030639648417
32.18694720998586 2.118760718825695 -0.801499999999998
32.18844105540585 2.004885140727561 -1.008656799316404
32.19026368967803 1.86594604527155 -1.199906494140623
32.19238636791603 1.704134650174833 -1.372232910156248
32.1947756136638 1.522002859894457 -1.522918334960935
32.19739374809485 1.322422924859992 -1.649586547851561
32.20019948085799 1.108542401403473 -1.750239746093748
32.20314856457114 0.883734259811882 -1.82329064941406
32.20619448974557 0.6515439103694124 -1.867587158203123
31.56026749254153 0.1408450360459795 -2.107594726562498
31.56370485663399 -0.1211846344428343 -2.057605468749998
31.56703293307524 -0.3748833261741528 -1.975166748046873
31.57019923626793 -0.6162500711362368 -1.861578369140623
31.57315383334058 -0.8414784951701544 -1.718631835937498
31.57585012513685 -1.047016352642328 -1.548581420898435
31.57824559317898 -1.229622467346106 -1.35410900878906
31.58030245856498 -1.386416960113769 -1.13828137207031
31.58198828082041 -1.514926899185628 -0.904502441406248
31.5832764766897 -1.613125847588617 -0.6564589233398417
31.58414672844433 -1.679464988387954 -0.3980627136230448
31.58458531213037 -1.712898146948287 -0.1333887786865213
31.58458531213037 -1.712898146948287 0.1333887786865255
31.58414672844433 -1.679464988387954 0.398062713623049
31.5832764766897 -1.613125847588617 0.6564589233398458
31.58198828082041 -1.514926899185628 0.904502441406252
31.58030245856498 -1.386416960113769 1.138281372070315
31.57824559317898 -1.229622467346106 1.354109008789065
31.57585012513685 -1.047016352642328 1.54858142089844
31.57315383334058 -0.8414784951701544 1.718631835937502
31.57019923626793 -0.6162500711362368 1.861578369140627
31.56703293307524 -0.3748833261741528 1.975166748046877
31.56370485663399 -0.1211846344428343 2.057605468750002
31.56026749254153 0.1408450360459795 2.107594726562502
31.55677505089625 0.4070732588646989 2.124345703125002
31.55328260925096 0.6733014816834129 2.107594726562502
31.5498452451585 0.9353311521722267 2.057605468750002
31.54651716871725 1.189029843903545 1.975166748046877
31.54335086552457 1.430396588865629 1.861578369140627
31.54039626845191 1.655625012899547 1.718631835937502
31.53769997665565 1.86116287037172 1.54858142089844
31.53530450861352 2.043768985075499 1.354109008789065
31.53324764322751 2.200563477843161 1.138281372070315
31.53156182097209 2.32907341691502 0.904502441406252
31.53027362510279 2.427272365318009 0.6564589233398458
31.52940337334816 2.493611506117347 0.3980627136230489
31.52896478966213 2.527044664677679 0.1333887786865255
31.52896478966213 2.527044664677679 -0.1333887786865214
31.52940337334816 2.493611506117347 -0.3980627136230449
31.53027362510279 2.427272365318009 -0.6564589233398417
31.53156182097209 2.32907341691502 -0.904502441406248
31.53324764322751 2.200563477843161 -1.13828137207031
31.53530450861352 2.043768985075499 -1.35410900878906
31.53769997665565 1.86116287037172 -1.548581420898435
31.54039626845191 1.655625012899547 -1.718631835937498
31.54335086552457 1.430396588865629 -1.861578369140623
31.54651716871725 1.189029843903545 -1.975166748046873
31.5498452451585 0.9353311521722267 -2.057605468749998
31.55328260925096 0.6733014816834129 -2.107594726562498
30.894262243804 0.1069482280499028 -2.306739257812498
30.89802440093402 -0.1798403595398144 -2.252026855468748
30.90166694422232 -0.4575108046544539 -2.161798339843748
30.90513242832971 -0.7216840590194119 -2.037477294921873
30.90836620242528 -0.9681940992442702 -1.881023803710935
30.91131726563185 -1.193153137276528 -1.694905517578123
30.91393907883832 -1.393013504725499 -1.482057495117185
30.91619029405003 -1.564623251105971 -1.245836547851561
30.918035410884 -1.70527618836049 -0.9899680786132792
30.91944532578327 -1.812753757374344 -0.7184871826171855
30.92039780757571 -1.885361279739265 -0.435675292968748
30.92087783372769 -1.921953590313626 -0.1459925537109354
30.92087783372769 -1.921953590313626 0.1459925537109396
30.92039780757571 -1.885361279739265 0.4356752929687521
30.91944532578327 -1.812753757374344 0.7184871826171896
30.918035410884 -1.70527618836049 0.9899680786132833
30.91619029405003 -1.564623251105971 1.245836547851565
30.91393907883832 -1.393013504725499 1.48205749511719
30.91131726563185 -1.193153137276528 1.694905517578127
30.90836620242528 -0.9681940992442702 1.88102380371094
30.90513242832971 -0.7216840590194119 2.037477294921877
30.90166694422232 -0.4575108046544539 2.161798339843752
30.89802440093402 -0.1798403595398144 2.252026855468752
30.894262243804 0.1069482280499028 2.306739257812502
30.89043980439448 0.3983321233833887 2.325073242187502
30.88661736498495 0.6897160187168687 2.306739257812502
30.88285520785493 0.976504606306586 2.252026855468752
30.87921266456662 1.254175051421225 2.161798339843752
30.87574718045924 1.518348305786183 2.037477294921877
30.87251340636366 1.764858346011042 1.881023803710939
30.8695623431571 1.989817384043299 1.694905517578127
30.86694052995063 2.189677751492271 1.482057495117189
30.86468931473891 2.361287497872743 1.245836547851564
30.86284419790494 2.501940435127262 0.9899680786132833
30.86143428300568 2.609418004141115 0.7184871826171896
30.86048180121324 2.682025526506036 0.435675292968752
30.86000177506126 2.718617837080398 0.1459925537109395
30.86000177506126 2.718617837080398 -0.1459925537109355
30.86048180121324 2.682025526506036 -0.435675292968748
30.86143428300568 2.609418004141115 -0.7184871826171855
30.86284419790494 2.501940435127262 -0.9899680786132792
30.86468931473891 2.361287497872743 -1.245836547851561
30.86694052995063 2.189677751492271 -1.482057495117186
30.8695623431571 1.989817384043299 -1.694905517578123
30.87251340636366 1.764858346011042 -1.881023803710936
30.87574718045924 1.518348305786183 -2.037477294921873
30.87921266456662 1.254175051421225 -2.161798339843748
30.88285520785493 0.976504606306586 -2.252026855468748
30.88661736498495 0.6897160187168687 -2.306739257812498
30.21696239916318 0.0781639615065943 -2.464245117187498
30.22098143889627 -0.2282067425032837 -2.405796874999998
30.22487269782614 -0.5248367379748915 -2.309407470703123
30.22857480765395 -0.8070479300980261 -2.176597656249998
30.23202938673413 -1.070389896123925 -2.009461425781248
30.23518194916019 -1.310709184822645 -1.810634765624998
30.2379827822268 -1.524216205259191 -1.583253417968748
30.24038771180712 -1.70754357138291 -1.330903198242186
30.24235881489042 -1.857800418643139 -1.057563720703123
30.24386500082062 -1.9726167117004 -0.7675459594726542
30.24488251727795 -2.050181815326498 -0.4654234924316386
30.24539532015808 -2.08927269022074 -0.1559610290527323
30.24539532015808 -2.08927269022074 0.1559610290527364
30.24488251727795 -2.050181815326498 0.4654234924316427
30.24386500082062 -1.9726167117004 0.7675459594726584
30.24235881489042 -1.857800418643139 1.057563720703127
30.24038771180712 -1.70754357138291 1.330903198242189
30.2379827822268 -1.524216205259191 1.583253417968752
30.23518194916019 -1.310709184822645 1.810634765625002
30.23202938673413 -1.070389896123925 2.009461425781252
30.22857480765395 -0.8070479300980261 2.176597656250002
30.22487269782614 -0.5248367379748915 2.309407470703127
30.22098143889627 -0.2282067425032837 2.405796875000002
30.21696239916318 0.07816396150659435 2.464245117187502
30.21287896124537 0.3894437280029992 2.483830810546877
30.20879552332757 0.7007234944993977 2.464245117187502
30.20477648359446 1.007094198509276 2.405796875000002
30.20088522466459 1.303724193980883 2.309407470703127
30.19718311483679 1.585935386104018 2.176597656250002
30.19372853575661 1.849277352129916 2.009461425781252
30.19057597333054 2.089596640828636 1.810634765625002
30.18777514026393 2.303103661265183 1.583253417968752
30.18537021068362 2.486431027388902 1.330903198242189
30.18339910760031 2.636687874649132 1.057563720703127
30.18189292167012 2.751504167706392 0.7675459594726582
30.18087540521278 2.82906927133249 0.4654234924316426
30.18036260233266 2.868160146226733 0.1559610290527363
30.18036260233266 2.868160146226733 -0.1559610290527324
30.18087540521278 2.82906927133249 -0.4654234924316387
30.18189292167012 2.751504167706392 -0.7675459594726544
30.18339910760031 2.636687874649132 -1.057563720703123
30.18537021068362 2.486431027388902 -1.330903198242186
30.18777514026393 2.303103661265183 -1.583253417968748
30.19057597333054 2.089596640828636 -1.810634765624998
30.19372853575661 1.849277352129916 -2.009461425781248
30.19718311483679 1.585935386104018 -2.176597656249998
30.20088522466459 1.303724193980883 -2.309407470703123
30.20477648359446 1.007094198509276 -2.405796874999998
30.20879552332757 0.7007234944993977 -2.464245117187498
25.90648190641881 0.332951443840965 -2.599999999999998
25.91084308667715 0.0004994267437845395 -2.578654052734373
25.91513265610926 -0.326493709450707 -2.514966552734373
25.91928018117712 -0.6426588283154527 -2.409983642578123
25.92321755810035 -0.9428043904475987 -2.265428710937498
25.92688013730459 -1.22200216997038 -2.083675537109373
25.93020777741665 -1.475667600403352 -1.867708251953123
25.93314583881411 -1.699635512774768 -1.621073486328124
25.93564607870054 -1.890228367055624 -1.347820678710936
25.93766744690597 -2.044316915885454 -1.052436645507811
25.93917674558455 -2.159370493214226 -0.7397717285156232
25.9401491976434 -2.233500345535061 -0.4149597167968732
25.94056883263374 -2.265489048298546 -0.08333409881591619
25.94042876215867 -2.25481150020013 0.2496598663330096
25.9397312855529 -2.201642979127619 0.5785544433593768
25.93848785465618 -2.106856456845339 0.8979491577148456
25.93671888807318 -1.972008440056131 1.202599609375002
25.93445342851493 -1.799312849601909 1.487503295898439
25.93172868004975 -1.591605745178445 1.747982299804689
25.92858937882849 -1.352297355829859 1.979759521484377
25.92508707414211 -1.085317275093732 2.179029052734377
25.92127927337661 -0.7950492810623222 2.342519042968752
25.91722849890147 -0.4862594431542124 2.467544921875002
25.91300126609874 -0.164018217440292 2.552053710937502
25.90866698593496 0.1663832100988299 2.594657958984377
25.90429682690266 0.4995196775831005 2.594657958984377
25.89996254673888 0.8299211051222224 2.552053710937502
25.89573531393614 1.152162330836143 2.467544921875002
25.89168453946102 1.460952168744253 2.342519042968752
25.88787673869551 1.751220162775663 2.179029052734377
25.88437443400913 2.01820024351179 1.979759521484377
25.88123513278787 2.257508632860375 1.747982299804689
25.8785103843227 2.465215737283839 1.487503295898439
25.87624492476445 2.637911327738061 1.202599609375002
25.87447595818144 2.77275934452727 0.8979491577148455
25.87323252728472 2.867545866809549 0.5785544433593767
25.87253505067896 2.920714387882061 0.2496598663330095
25.87239498020388 2.931391935980476 -0.08333409881591623
25.87281461519421 2.899403233216991 -0.4149597167968733
25.87378706725307 2.825273380896156 -0.7397717285156233
25.87529636593165 2.710219803567384 -1.052436645507811
25.87731773413709 2.556131254737555 -1.347820678710936
25.87981797402352 2.365538400456698 -1.621073486328124
25.88275603542096 2.141570488085282 -1.867708251953123
25.88608367553303 1.887905057652311 -2.083675537109373
25.88974625473727 1.608707278129529 -2.265428710937498
25.8936836316605 1.308561715997383 -2.409983642578123
25.89783115672835 0.9923965971326374 -2.514966552734373
25.90212072616047 0.6654034609381457 -2.578654052734373
22.2860863747535 0.2854582817962447 -2.599999999999998
22.29044755501184 -0.04699373530093576 -2.578654052734373
22.29473712444396 -0.3739868714954274 -2.514966552734373
22.29888464951181 -0.6901519903601731 -2.409983642578123
22.30282202643504 -0.990297552492319 -2.265428710937498
22.30648460563928 -1.269495332015101 -2.083675537109373
22.30981224575134 -1.523160762448072 -1.867708251953123
22.31275030714879 -1.747128674819488 -1.621073486328124
22.31525054703522 -1.937721529100344 -1.347820678710936
22.31727191524066 -2.091810077930174 -1.052436645507811
22.31878121391924 -2.206863655258946 -0.7397717285156235
22.31975366597809 -2.280993507579781 -0.4149597167968734
22.32017330096843 -2.312982210343266 -0.08333409881591639
22.32003323049335 -2.30230466224485 0.2496598663330094
22.31933575388758 -2.249136141172339 0.5785544433593766
22.31809232299087 -2.154349618890059 0.8979491577148454
22.31632335640786 -2.019501602100851 1.202599609375002
22.31405789684961 -1.846806011646629 1.487503295898439
22.31133314838444 -1.639098907223165 1.747982299804689
22.30819384716318 -1.39979051787458 1.979759521484376
22.3046915424768 -1.132810437138452 2.179029052734377
22.30088374171129 -0.8425424431070425 2.342519042968752
22.29683296723616 -0.5337526051989326 2.467544921875002
22.29260573443343 -0.2115113794850123 2.552053710937502
22.28827145426965 0.1188900480541096 2.594657958984377
22.28390129523735 0.4520265155383802 2.594657958984377
22.27956701507357 0.7824279430775021 2.552053710937502
22.27533978227084 1.104669168791423 2.467544921875002
22.2712890077957 1.413459006699533 2.342519042968752
22.2674812070302 1.703727000730942 2.179029052734377
22.26397890234382 1.970707081467069 1.979759521484376
22.26083960112256 2.210015470815655 1.747982299804689
22.25811485265738 2.417722575239119 1.487503295898439
22.25584939309913 2.590418165693341 1.202599609375001
22.25408042651613 2.725266182482549 0.8979491577148454
22.25283699561941 2.820052704764829 0.5785544433593766
22.25213951901364 2.873221225837341 0.2496598663330094
22.25199944853857 2.883898773935756 -0.08333409881591644
22.25241908352891 2.851910071172271 -0.4149597167968735
22.25339153558776 2.777780218851436 -0.7397717285156235
22.25490083426634 2.662726641522664 -1.052436645507811
22.25692220247177 2.508638092692835 -1.347820678710936
22.25942244235821 2.318045238411978 -1.621073486328124
22.26236050375566 2.094077326040562 -1.867708251953124
22.26568814386772 1.84041189560759 -2.083675537109373
22.26935072307196 1.561214116084809 -2.265428710937498
22.27328809999518 1.261068553952663 -2.409983642578123
22.27743562506304 0.9449034350879171 -2.514966552734373
22.28172519449516 0.6179102988934254 -2.578654052734373
20.69532871262367 0.2645903653598711 -1.849999999999999
20.69786526590645 0.07122934715280518 -1.839865478515624
20.70037402822257 -0.1200131704691638 -1.809573120117186
20.70282751323515 -0.3070419087998764 -1.759454589843749
20.70519883906338 -0.4878076667116178 -1.690059082031249
20.70746202650745 -0.6603300542948133 -1.602146972656249
20.70959227845937 -0.8227187922949522 -1.496681396484374
20.71156625571108 -0.9731947369149365 -1.374817871093749
20.71336233074584 -1.110109226295038 -1.237891601562499
20.71496082631833 -1.231962267424656 -1.087402709960936
20.71634422841522 -1.337418770097103 -0.9249999999999985
20.71749738000142 -1.425323316146675 -0.7524627685546861
20.71840764754565 -1.494712853668931 -0.5716814575195298
20.71906505712316 -1.544827072104589 -0.3846366271972641
20.71946240489908 -1.575116824366441 -0.1933776550292954
20.71959534039123 -1.585250473949498 -5.485372244371185e-17
20.71946240489908 -1.575116824366441 0.1933776550292984
20.71906505712316 -1.544827072104589 0.3846366271972672
20.71840764754565 -1.494712853668931 0.5716814575195327
20.71749738000142 -1.425323316146675 0.752462768554689
20.71634422841522 -1.337418770097103 0.9250000000000015
20.71496082631833 -1.231962267424656 1.087402709960939
20.71336233074584 -1.110109226295038 1.237891601562501
20.71156625571108 -0.9731947369149365 1.374817871093751
20.70959227845937 -0.8227187922949522 1.496681396484376
20.70746202650745 -0.6603300542948133 1.602146972656251
20.70519883906338 -0.4878076667116178 1.690059082031251
20.70282751323515 -0.3070419087998764 1.759454589843751
20.70037402822257 -0.1200131704691638 1.809573120117189
20.69786526590645 0.07122934715280521 1.839865478515626
20.69532871262367 0.2645903653598728 1.850000000000001
20.69279215934088 0.4579513835669373 1.839865478515626
20.69028339702477 0.6491939011889063 1.809573120117189
20.68782991201218 0.8362226395196189 1.759454589843751
20.68545858618396 1.01698839743136 1.690059082031251
20.68319539873989 1.189510785014556 1.602146972656251
20.68106514678796 1.351899523014695 1.496681396484376
20.67909116953626 1.502375467634679 1.374817871093751
20.67729509450149 1.639289957014781 1.237891601562501
20.67569659892901 1.761142998144398 1.087402709960939
20.67431319683211 1.866599500816846 0.9250000000000015
20.67316004524592 1.954504046866417 0.752462768554689
20.67224977770168 2.023893584388674 0.5716814575195327
20.67159236812417 2.074007802824332 0.3846366271972671
20.67119502034825 2.104297555086184 0.1933776550292984
20.67106208485611 2.11443120466924 5.476879866093716e-16
20.67119502034825 2.104297555086184 -0.1933776550292954
20.67159236812417 2.074007802824332 -0.3846366271972642
20.67224977770168 2.023893584388674 -0.5716814575195298
20.67316004524592 1.954504046866417 -0.7524627685546861
20.67431319683211 1.866599500816846 -0.9249999999999985
20.67569659892901 1.761142998144398 -1.087402709960936
20.67729509450149 1.639289957014781 -1.237891601562499
20.67909116953626 1.502375467634679 -1.374817871093749
20.68106514678796 1.351899523014695 -1.496681396484374
20.68319539873989 1.189510785014556 -1.602146972656249
20.68545858618396 1.01698839743136 -1.690059082031249
20.68782991201218 0.8362226395196189 -1.759454589843749
20.69028339702477 0.6491939011889063 -1.809573120117186
20.69279215934088 0.4579513835669373 -1.839865478515624
21.60220380990164 0.2764869566501417 -2.329537109374998
21.75083262341011 0.278436702820894 -2.444661621093748
21.91837973105961 0.2806346234249065 -2.529929443359373
22.09892572028264 0.2830030662780965 -2.582326171874998
21.59829629790978 0.5743559202277072 -2.310411621093748
21.59445294712383 0.8673338861706953 -2.253349365234373
21.59073686515485 1.150610172199803 -2.159287109374998
21.58720907003741 1.419533384088366 -2.029769287109374
21.58392748867401 1.669687764073785 -1.866922851562499
21.58094600251509 1.896965938504565 -1.673421508789061
21.57831357009704 2.09763580661643 -1.452442749023436
21.57607341442911 2.268402485886134 -1.207614746093749
21.57426232006313 2.406461896288244 -0.9429578857421861
21.57291002303321 2.509547265082918 -0.6628176269531235
21.57203872889216 2.575965866818858 -0.3717938842773422
21.57166274603483 2.604626975029895 -0.07466534423827975
21.57178824551693 2.595060171206561 0.2236892089843765
21.57241316818495 2.547422424265093 0.5183707885742203
21.57352725349791 2.462495893470845 0.8045407714843765
21.57511220605297 2.341675234218001 1.077500122070314
21.577141999815 2.186944406665591 1.332767089843751
21.57958331044271 2.000843719588671 1.566149902343751
21.58239604849094 1.78642918446144 1.773816650390626
21.58553402871558 1.547221494456475 1.952357421875001
21.58894572744501 1.287148290154387 2.098840576171877
21.59257512241366 1.010480139173246 2.210860595703127
21.5963626210624 0.7217597719934654 2.286578613281252
21.60024603127086 0.4257280831977238 2.324750976562502
21.60416158853242 0.12724583010256 2.324750976562502
21.60804499874089 -0.1687858586931817 2.286578613281252
21.61183249738962 -0.4575062258729622 2.210860595703127
21.61546189235828 -0.7341743768541037 2.098840576171877
21.61887359108771 -0.9942475811561909 1.952357421875001
21.62201157131235 -1.233455271161156 1.773816650390626
21.62482430936057 -1.447869806288387 1.566149902343751
21.62726561998829 -1.633970493365307 1.332767089843751
21.62929541375032 -1.788701320917716 1.077500122070314
21.63088036630538 -1.90952198017056 0.8045407714843766
21.63199445161833 -1.994448510964809 0.5183707885742204
21.63261937428635 -2.042086257906277 0.2236892089843766
21.63274487376846 -2.051653061729611 -0.0746653442382797
21.63236889091113 -2.022991953518574 -0.3717938842773422
21.63149759677007 -1.956573351782634 -0.6628176269531234
21.63014529974016 -1.85348798298796 -0.942957885742186
21.62833420537417 -1.715428572585851 -1.207614746093749
21.62609404970625 -1.544661893316147 -1.452442749023436
21.6234616172882 -1.343992025204281 -1.673421508789061
21.62048013112928 -1.116713850773502 -1.866922851562499
21.61719854976588 -0.8665594707880819 -2.029769287109374
21.61367075464844 -0.5976362588995199 -2.159287109374998
21.60995467267946 -0.3143599728704114 -2.253349365234373
21.60611132189351 -0.02138200692742343 -2.310411621093748
22.10325725497512 -0.04718907445853517 -2.561125244140623
22.1075176656086 -0.371959440474854 -2.497870849609373
22.11163699740627 -0.6859753912271275 -2.393601318359373
22.11554760933686 -0.9840806625977213 -2.250029052734373
22.11918529135762 -1.261380534127839 -2.069511474609373
22.12249031120399 -1.513321625618604 -1.855012329101561
22.12540840073382 -1.735767085974295 -1.610054077148436
22.12789164699955 -1.925064519486862 -1.338658691406249
22.12989927043535 -2.078105306903801 -1.045282592773436
22.13139831177537 -2.19237696908684 -0.7347430419921859
22.13236415404752 -2.266002958510144 -0.4121389770507797
22.13278093888758 -2.297774394811031 -0.08276762390136561
22.13264181953006 -2.287169350240021 0.2479627685546891
22.13194908250003 -2.234362126206438 0.5746216430664078
22.13071410598166 -2.140220079723326 0.8918452148437516
22.12895716126845 -2.006288487990965 1.194424682617189
22.12670710212893 -1.834766868793637 1.477391845703126
22.12400087643812 -1.628471752257441 1.736100219726564
22.12088291451613 -1.390790054002703 1.966301757812501
22.11740441659057 -1.125624758528325 2.164216796875002
22.11362249935269 -0.8373298613328152 2.326595458984377
22.10959926165246 -0.5306391470148937 2.450771484375002
22.10540076412884 -0.2105884066592824 2.534705810546877
22.10109594659291 0.1175670898526341 2.577020507812502
22.09675549397237 0.4484390427035587 2.577020507812502
22.09245067643645 0.7765945392154752 2.534705810546877
22.08825217891282 1.096645279571087 2.450771484375002
22.0842289412126 1.403335993889008 2.326595458984377
22.08044702397471 1.691630891084517 2.164216796875002
22.07696852604915 1.956796186558896 1.966301757812501
22.07385056412716 2.194477884813634 1.736100219726564
22.07114433843635 2.40077300134983 1.477391845703126
22.06889427929683 2.572294620547158 1.194424682617189
22.06713733458363 2.706226212279519 0.8918452148437516
22.06590235806525 2.800368258762631 0.5746216430664078
22.06520962103522 2.853175482796214 0.247962768554689
22.06507050167771 2.863780527367223 -0.08276762390136568
22.06548728651777 2.832009091066337 -0.4121389770507797
22.06645312878992 2.758383101643033 -0.7347430419921859
22.06795217012994 2.644111439459994 -1.045282592773436
22.06995979356574 2.491070652043055 -1.338658691406249
22.07244303983146 2.301773218530488 -1.610054077148436
22.07536112936129 2.079327758174796 -1.855012329101561
22.07866614920767 1.827386666684032 -2.069511474609373
22.08230383122842 1.550086795153914 -2.250029052734373
22.08621444315902 1.251981523783321 -2.393601318359373
22.09033377495668 0.9379655730310468 -2.497870849609373
22.09459418559016 0.6131952070147278 -2.561125244140623
21.92262337624454 -0.04285771534611129 -2.509158691406248
21.9267973408595 -0.3610383163159356 -2.447187744140623
21.93083308879797 -0.6686826839328912 -2.345033935546873
21.93466435286519 -0.9607392813967086 -2.204374755859373
21.9382282239999 -1.232412561844581 -2.027519897460936
21.94146618365324 -1.479241666413952 -1.817373046874999
21.94432506371295 -1.697173599098878 -1.577385131835936
21.94675792156353 -1.88262993243644 -1.311496582031249
21.94872481346975 -2.032565762395189 -1.024073242187499
21.95019343826224 -2.144518776418949 -0.7198347167968734
21.95113968174823 -2.216650753762363 -0.4037764587402328
21.95154800580513 -2.247777226024839 -0.08108822631835781
21.95141171097856 -2.237387494959461 0.2429314727783219
21.95073303255493 -2.185651956061615 0.5629622192382828
21.94952311173963 -2.093419901492402 0.8737492065429704
21.94780181952418 -1.962206093499488 1.170189208984376
21.94559741402769 -1.794164643617668 1.447414672851564
21.94294609856347 -1.592055324161183 1.700873779296876
21.93989140197151 -1.359196331077077 1.926404541015626
21.93648348529543 -1.099411432047269 2.120303710937502
21.93277830435064 -0.8169661292076941 2.279387695312502
21.92883670023824 -0.5164983291759643 2.401043945312502
21.92472339258545 -0.2029415979455507 2.483275390625002
21.92050592214785 0.1185554443615414 2.524731445312502
21.91625353997138 0.4427138024882714 2.524731445312502
21.91203606953378 0.7642108447953634 2.483275390625002
21.90792276188099 1.077767576025777 2.401043945312502
21.90398115776859 1.378235376057507 2.279387695312502
21.9002759768238 1.660680678897082 2.120303710937502
21.89686806014771 1.92046557792689 1.926404541015626
21.89381336355575 2.153324571010996 1.700873779296876
21.89116204809153 2.355433890467482 1.447414672851564
21.88895764259505 2.523475340349302 1.170189208984376
21.8872363503796 2.654689148342215 0.8737492065429703
21.88602642956429 2.746921202911429 0.5629622192382827
21.88534775114067 2.798656741809275 0.2429314727783219
21.8852114563141 2.809046472874652 -0.08108822631835785
21.88561978037099 2.777920000612176 -0.4037764587402328
21.88656602385699 2.705788023268762 -0.7198347167968735
21.88803464864948 2.593835009245003 -1.024073242187499
21.8900015405557 2.443899179286253 -1.311496582031249
21.89243439840628 2.258442845948691 -1.577385131835936
21.89529327846599 2.040510913263764 -1.817373046874999
21.89853123811932 1.793681808694394 -2.027519897460936
21.90209510925403 1.522008528246522 -2.204374755859373
21.90592637332125 1.229951930782704 -2.345033935546873
21.90996212125972 0.9223075631657485 -2.447187744140623
21.91413608587468 0.6041269621959241 -2.509158691406248
21.75493324269026 -0.03415279595657306 -2.424591064453123
21.75896653037261 -0.3416096186747747 -2.364708740234373
21.7628662588923 -0.6388852495137496 -2.265997802734373
21.76656839594065 -0.9210985166536619 -2.130079345703123
21.77001215085461 -1.183615358360929 -1.959185180664061
21.77314098017543 -1.42212547654918 -1.756121093749999
21.77590350594139 -1.632712338080557 -1.524221679687499
21.77825436753053 -1.811918110584861 -1.267294433593749
21.78015496622235 -1.956800420271421 -0.9895583496093734
21.78157409447256 -2.064980321434595 -0.6955736694335922
21.78248844509724 -2.134681111473496 -0.3901677551269516
21.78288301157484 -2.164758845844598 -0.07835526275634611
21.78275130901287 -2.154719182315587 0.2347438201904312
21.78209550224458 -2.104727145750188 0.5439884033203141
21.78092636099511 -2.015603710433478 0.8443007202148454
21.77926308054618 -1.888812129373113 1.130749633789064
21.77713297430418 -1.726434498815725 1.398631713867189
21.77457101585466 -1.53113684914113 1.643548217773439
21.7716192737359 -1.306126057749243 1.861477783203126
21.76832621651463 -1.055096875102338 2.048841796875002
21.76474591378323 -0.7821710168796432 2.202563964843752
21.76093715549533 -0.4918300310815851 2.320120117187502
21.75696248083311 -0.1888412687547566 2.399580078125002
21.75288715443498 0.1218201579993892 2.439638916015627
21.74877809238524 0.4350532476423986 2.439638916015627
21.74470276598711 0.7457146743965444 2.399580078125002
21.74072809132489 1.048703436723373 2.320120117187502
21.73691933303699 1.339044422521431 2.202563964843752
21.73333903030559 1.611970280744126 2.048841796875002
21.73004597308432 1.86299946339103 1.861477783203126
21.72709423096556 2.088010254782918 1.643548217773439
21.72453227251604 2.283307904457514 1.398631713867189
21.72240216627404 2.445685535014901 1.130749633789064
21.72073888582511 2.572477116075266 0.8443007202148453
21.71956974457564 2.661600551391976 0.543988403320314
21.71891393780735 2.711592587957375 0.2347438201904312
21.71878223524538 2.721632251486386 -0.07835526275634615
21.71917680172298 2.691554517115284 -0.3901677551269516
21.72009115234766 2.621853727076383 -0.6955736694335923
21.72151028059787 2.513673825913209 -0.9895583496093735
21.72341087928969 2.368791516226649 -1.267294433593749
21.72576174087883 2.189585743722344 -1.524221679687499
21.7285242666448 1.978998882190968 -1.756121093749999
21.73165309596561 1.740488764002716 -1.959185180664061
21.73509685087958 1.477971922295449 -2.130079345703123
21.73879898792792 1.195758655155537 -2.265997802734373
21.74269871644761 0.8984830243165624 -2.364708740234373
21.74673200412996 0.5910262015983608 -2.424591064453123
21.37921030099704 0.2735616776963099 -2.120462890624998
21.49070949664555 0.2750243491973865 -2.225002197265623
21.37630291354131 0.4951913207939161 -2.108846679687498
21.3734273797173 0.7143927670523647 -2.074125488281248
21.37061520529429 0.928764337126318 -2.016679931640624
21.36789720031669 1.135957386658078 -1.937139160156249
21.36530314325062 1.333701908322829 -1.836374633789061
21.36286145794023 1.519831157395394 -1.715490478515624
21.36059889176488 1.692306185772136 -1.575810913085936
21.35854023782951 1.849237019348069 -1.418866577148436
21.35670804754788 1.988904567752837 -1.246376708984374
21.35512239846733 2.109778323023226 -1.060231445312499
21.35380066049245 2.210534180335491 -0.8624699096679673
21.35275731654977 2.290068108704124 -0.6552590332031235
21.35200379766334 2.347508723142333 -0.440869018554686
21.35154835645929 2.382226927387068 -0.2216487121582016
21.35139598550421 2.393842138949349 -8.880359982575494e-15
21.35154835645929 2.382226927387068 0.2216487121582046
21.35200379766334 2.347508723142333 0.440869018554689
21.35275731654977 2.290068108704124 0.6552590332031265
21.35380066049245 2.210534180335491 0.8624699096679702
21.35512239846733 2.109778323023226 1.060231445312501
21.35670804754788 1.988904567752837 1.246376708984376
21.35854023782951 1.849237019348069 1.418866577148439
21.36059889176488 1.692306185772136 1.575810913085939
21.36286145794023 1.519831157395394 1.715490478515626
21.36530314325062 1.333701908322829 1.836374633789064
21.36789720031669 1.135957386658078 1.937139160156251
21.37061520529429 0.928764337126318 2.016679931640626
21.3734273797173 0.7143927670523647 2.074125488281252
21.37630291354131 0.4951913207939161 2.108846679687502
21.37921030099704 0.2735616776963091 2.120462890625002
21.38211768845277 0.05193203459870403 2.108846679687502
21.38499322227678 -0.1672694116597445 2.074125488281252
21.38780539669978 -0.3816409817336978 2.016679931640626
21.39052340167738 -0.5888340312654581 1.937139160156251
21.39311745874345 -0.7865785529302092 1.836374633789064
21.39555914405384 -0.972707802002774 1.715490478515626
21.3978217102292 -1.145182830379516 1.575810913085939
21.39988036416456 -1.302113663955449 1.418866577148439
21.40171255444619 -1.441781212360217 1.246376708984376
21.40329820352674 -1.562654967630606 1.060231445312501
21.40461994150162 -1.663410824942871 0.8624699096679703
21.40566328544429 -1.742944753311503 0.6552590332031266
21.40641680433073 -1.800385367749713 0.440869018554689
21.40687224553478 -1.835103571994448 0.2216487121582047
21.40702461648986 -1.846718783556728 -1.542440862440112e-16
21.40687224553478 -1.835103571994448 -0.2216487121582016
21.40641680433073 -1.800385367749713 -0.440869018554686
21.40566328544429 -1.742944753311503 -0.6552590332031234
21.40461994150162 -1.663410824942871 -0.8624699096679672
21.40329820352674 -1.562654967630606 -1.060231445312499
21.40171255444619 -1.441781212360217 -1.246376708984374
21.39988036416456 -1.302113663955449 -1.418866577148436
21.3978217102292 -1.145182830379516 -1.575810913085936
21.39555914405384 -0.972707802002774 -1.715490478515624
21.39311745874345 -0.7865785529302092 -1.836374633789061
21.39052340167738 -0.5888340312654581 -1.937139160156249
21.38780539669978 -0.3816409817336978 -2.016679931640624
21.38499322227678 -0.1672694116597445 -2.074125488281248
21.38211768845277 0.05193203459870398 -2.108846679687498
34.77696282901994 0.4493164056764778 -0.4403947448730446
34.8914217309522 0.4508179032695955 -0.3174197998046852
34.96445450969673 0.4517759636707734 -0.1661214294433571
34.989546100811 0.4521051208007963 -2.905037822196218e-15
34.96504240517988 0.406960792630391 -0.1599611968994118
34.96558669916822 0.3654693560009507 -0.1419373779296852
34.9660470237565 0.3303788922205627 -0.1133867111206032
34.96638923893807 0.3042918880945979 -0.07642666625976338
34.96658796406469 0.2891431060497376 -0.03379840469360127
34.966628460617 0.2860560608687316 0.0113365278244041
34.9665077253292 0.2952596909835522 0.05563068008423076
34.9662347123567 0.3160714226766951 0.0957989654541038
34.96582966977549 0.3469477486151336 0.1288622741699241
34.9653226379493 0.3855986970663048 0.1523684539794944
34.96475122102327 0.4291577105464862 0.1645741729736351
34.96415779837019 0.4743942167950607 0.1645741729736351
34.96358638144415 0.5179532302752421 0.1523684539794944
34.96307934961796 0.5566041787264132 0.1288622741699241
34.96267430703675 0.5874805046648518 0.0957989654541038
34.96240129406425 0.6082922363579947 0.05563068008423076
34.96228055877646 0.6174958664728153 0.0113365278244041
34.96232105532876 0.6144088212918092 -0.03379840469360127
34.96251978045537 0.5992600392469489 -0.0764266662597634
34.96286199563694 0.5731730351209842 -0.1133867111206032
34.96332232022524 0.5380825713405961 -0.1419373779296852
34.96386661421358 0.4965911347111558 -0.1599611968994118
34.89254506384192 0.365186431297578 -0.3056490173339821
34.8935850842772 0.2859058533230073 -0.2712096557617165
34.89446465866521 0.2188560497922855 -0.2166558837890603
34.89511855319083 0.1690097831555145 -0.146033752441404
34.89549827126616 0.1400639399216534 -0.06458097076415793
34.89557565084458 0.134165308036871 0.02166149330139384
34.89534495319655 0.1517513498618146 0.1062974243164085
34.89482328803034 0.1915177952919367 0.1830497589111351
34.89404934533533 0.2505153131273697 0.2462261352539085
34.89308052411573 0.3243683871992749 0.291141052246096
34.89198867798095 0.4075996292862039 0.3144633483886742
34.89085478392344 0.4940361772529872 0.3144633483886742
34.88976293778867 0.5772674193399163 0.291141052246096
34.88879411656908 0.6511204934118214 0.2462261352539085
34.88802017387407 0.7101180112472545 0.1830497589111351
34.88749850870786 0.7498844566773766 0.1062974243164085
34.88726781105982 0.7674704985023201 0.02166149330139384
34.88734519063824 0.7615718666175377 -0.06458097076415793
34.88772490871357 0.7326260233836767 -0.146033752441404
34.88837880323918 0.6827797567469055 -0.2166558837890603
34.8892583776272 0.6157299532161838 -0.2712096557617165
34.89029839806248 0.5364493752416131 -0.3056490173339821
34.7785213640445 0.3305095502063187 -0.4240637207031228
34.77996430966353 0.2205140551351513 -0.376281799316404
34.78118464933926 0.127487772636826 -0.3005928039550759
34.78209187578916 0.05833005720956362 -0.2026102294921853
34.78261870405063 0.01817002992065034 -0.08960095977782981
34.78272606224618 0.009986133234745523 0.03005360031128153
34.78240598796864 0.0343853400742571 0.1474792175292991
34.78168221912689 0.08955811374928584 0.253966979980471
34.78060843501888 0.1714124906594029 0.3416191711425803
34.77926427272615 0.27387774984457 0.4039350280761741
34.77774942290954 0.3893544894643219 0.4362928771972678
34.77617623513033 0.5092783218886335 0.4362928771972678
34.77466138531373 0.6247550615083856 0.4039350280761741
34.773317223021 0.7272203206935526 0.3416191711425803
34.77224343891297 0.8090746976036698 0.253966979980471
34.77151967007124 0.8642474712786984 0.1474792175292991
34.7711995957937 0.88864667811821 0.03005360031128152
34.77130695398925 0.8804627814323052 -0.08960095977782982
34.77183378225071 0.840302754143392 -0.2026102294921853
34.77274100870061 0.7711450387161296 -0.3005928039550759
34.77396134837633 0.6781187562178042 -0.376281799316404
34.77540429399537 0.5681232611466369 -0.4240637207031228
20.88248936709452 0.2670455808780198 -1.867673828124999
21.06303535631755 0.2694140237312098 -1.920070678710936
21.23058246396705 0.2716119443352223 -2.005338256835936
21.23333200313538 0.06201504889648881 -1.994352905273436
21.23605141797664 -0.1452854742983714 -1.961516845703124
21.23871091321202 -0.3480183362965324 -1.907190063476561
21.24128135245982 -0.5439624757571679 -1.831967651367186
21.24373457127156 -0.7309709216443935 -1.736673950195311
21.24604369337067 -0.9069949000398309 -1.622352783203124
21.24818341967045 -1.070105865938394 -1.490256835937499
21.25013030608368 -1.218516680625399 -1.341833251953124
21.25186302131714 -1.350601263306053 -1.178708251953124
21.25336258304976 -1.464912594927488 -1.002669128417967
21.25461255968486 -1.560198097714881 -0.8156445922851546
21.25559925929266 -1.635414038229088 -0.6196835937499984
21.25631186891542 -1.689736146570148 -0.4169332885742172
21.25674258266404 -1.722569381162126 -0.2096149291992172
21.25688667857607 -1.733553787624009 -1.206624276072984e-16
21.25674258266404 -1.722569381162126 0.2096149291992203
21.25631186891542 -1.689736146570148 0.4169332885742203
21.25559925929266 -1.635414038229088 0.6196835937500016
21.25461255968486 -1.560198097714881 0.8156445922851578
21.25336258304976 -1.464912594927488 1.00266912841797
21.25186302131714 -1.350601263306053 1.178708251953126
21.25013030608368 -1.218516680625399 1.341833251953126
21.24818341967045 -1.070105865938394 1.490256835937501
21.24604369337067 -0.9069949000398309 1.622352783203126
21.24373457127156 -0.7309709216443935 1.736673950195314
21.24128135245982 -0.5439624757571679 1.831967651367189
21.23871091321202 -0.3480183362965324 1.907190063476564
21.23605141797664 -0.1452854742983714 1.961516845703126
21.23333200313538 0.06201504889648884 1.994352905273439
21.23058246396705 0.271611944335224 2.005338256835939
21.22783292479873 0.4812088397739557 1.994352905273439
21.22511350995747 0.6885093629688159 1.961516845703126
21.22245401472208 0.8912422249669769 1.907190063476564
21.21988357547429 1.087186364427612 1.831967651367189
21.21743035666255 1.274194810314838 1.736673950195314
21.21512123456343 1.450218788710276 1.622352783203126
21.21298150826366 1.613329754608838 1.490256835937501
21.21103462185043 1.761740569295844 1.341833251953126
21.20930190661697 1.893825151976498 1.178708251953126
21.20780234488435 2.008136483597933 1.00266912841797
21.20655236824925 2.103421986385326 0.8156445922851577
21.20556566864144 2.178637926899532 0.6196835937500015
21.20485305901869 2.232960035240593 0.4169332885742202
21.20442234527007 2.265793269832571 0.2096149291992203
21.20427824935803 2.276777676294454 5.324726640058267e-16
21.20442234527007 2.265793269832571 -0.2096149291992173
21.20485305901869 2.232960035240593 -0.4169332885742173
21.20556566864144 2.178637926899532 -0.6196835937499985
21.20655236824925 2.103421986385326 -0.8156445922851547
21.20780234488435 2.008136483597933 -1.002669128417967
21.20930190661697 1.893825151976498 -1.178708251953124
21.21103462185043 1.761740569295844 -1.341833251953124
21.21298150826366 1.613329754608838 -1.490256835937499
21.21512123456343 1.450218788710276 -1.622352783203124
21.21743035666255 1.274194810314838 -1.736673950195311
21.21988357547429 1.087186364427612 -1.831967651367186
21.22245401472208 0.8912422249669769 -1.907190063476561
21.22511350995747 0.6885093629688159 -1.961516845703124
21.22783292479873 0.4812088397739557 -1.994352905273436
21.06566798428313 0.06872924906499325 -1.909552246093749
21.06827176848777 -0.1297567706907563 -1.878112548828124
21.07081818160923 -0.3238694026956117 -1.826095703124999
21.07327932399886 -0.5114818615548418 -1.754071777343749
21.07562823211422 -0.6905387210903987 -1.662829956054686
21.07783916973882 -0.8590781139689434 -1.553369750976561
21.07988791379776 -1.015253519378011 -1.426890624999999
21.08175201775641 -1.157353841864828 -1.284778076171874
21.0834110566053 -1.283822086487315 -1.128589233398436
21.0848468566334 -1.393272874396879 -0.9600353393554673
21.08604368437073 -1.484506845896055 -0.7809630737304672
21.08698842912602 -1.556524575256889 -0.5933344726562485
21.08767073908944 -1.608536945804832 -0.3992051391601547
21.08808313661953 -1.63997393822509 -0.200702041625975
21.0882211079109 -1.650491465912007 -9.227094830343985e-17
21.08808313661953 -1.63997393822509 0.2007020416259781
21.08767073908944 -1.608536945804832 0.3992051391601578
21.08698842912602 -1.556524575256889 0.5933344726562515
21.08604368437073 -1.484506845896055 0.7809630737304702
21.0848468566334 -1.393272874396879 0.9600353393554703
21.0834110566053 -1.283822086487315 1.128589233398439
21.08175201775641 -1.157353841864828 1.284778076171876
21.07988791379776 -1.015253519378011 1.426890625000001
21.07783916973882 -0.8590781139689434 1.553369750976564
21.07562823211422 -0.6905387210903987 1.662829956054689
21.07327932399886 -0.5114818615548418 1.754071777343751
21.07081818160923 -0.3238694026956117 1.826095703125001
21.06827176848777 -0.1297567706907562 1.878112548828127
21.06566798428313 0.06872924906499328 1.909552246093751
21.06303535631755 0.2694140237312113 1.920070678710939
21.06040272835197 0.4700987983974262 1.909552246093751
21.05779894414734 0.6685848181531757 1.878112548828127
21.05525253102587 0.8626974501580311 1.826095703125001
21.05279138863624 1.050309909017261 1.754071777343751
21.05044248052088 1.229366768552818 1.662829956054689
21.04823154289627 1.397906161431363 1.553369750976564
21.04618279883734 1.55408156684043 1.426890625000001
21.04431869487869 1.696181889327248 1.284778076171876
21.0426596560298 1.822650133949734 1.128589233398439
21.0412238560017 1.932100921859299 0.9600353393554703
21.04002702826437 2.023334893358474 0.7809630737304702
21.03908228350908 2.095352622719309 0.5933344726562515
21.03839997354566 2.147364993267252 0.3992051391601578
21.03798757601557 2.178801985687509 0.2007020416259781
21.03784960472421 2.189319513374427 5.330926350102852e-16
21.03798757601557 2.178801985687509 -0.200702041625975
21.03839997354566 2.147364993267252 -0.3992051391601548
21.03908228350908 2.095352622719309 -0.5933344726562485
21.04002702826437 2.023334893358474 -0.7809630737304672
21.0412238560017 1.932100921859299 -0.9600353393554673
21.0426596560298 1.822650133949734 -1.128589233398436
21.04431869487869 1.696181889327248 -1.284778076171874
21.04618279883734 1.55408156684043 -1.426890624999999
21.04823154289627 1.397906161431363 -1.553369750976561
21.05044248052088 1.229366768552818 -1.662829956054686
21.05279138863624 1.050309909017261 -1.754071777343749
21.05525253102587 0.8626974501580311 -1.826095703124999
21.05779894414734 0.6685848181531757 -1.878112548828124
21.06040272835197 0.4700987983974262 -1.909552246093749
20.88505015325962 0.0718372942421495 -1.857442504882811
20.88758288265751 -0.1212322298800892 -1.826860717773436
20.89005980655337 -0.3100477102310999 -1.776263427734374
20.89245378707325 -0.492540431370972 -1.706204956054686
20.8947385956292 -0.6667109925746539 -1.617453002929686
20.89688919893505 -0.8306511107655935 -1.510979858398436
20.8988820352148 -0.9825646758330405 -1.387952148437499
20.90069526879469 -1.120787158141909 -1.249717773437499
20.90230903508805 -1.243804283683773 -1.097791137695311
20.90370565355594 -1.350268268031663 -0.9338369140624986
20.9048698214533 -1.43901258557712 -0.7596513671874985
20.90578878515829 -1.509065029929923 -0.577142944335936
20.90645247467365 -1.55965796694216 -0.3883112182617172
20.90685361891378 -1.590237123014585 -0.1952250823974594
20.90698782416389 -1.600467566027328 -7.007317761446259e-17
20.90685361891378 -1.590237123014585 0.1952250823974624
20.90645247467365 -1.55965796694216 0.3883112182617203
20.90578878515829 -1.509065029929923 0.577142944335939
20.9048698214533 -1.43901258557712 0.7596513671875015
20.90370565355594 -1.350268268031663 0.9338369140625015
20.90230903508805 -1.243804283683773 1.097791137695314
20.90069526879469 -1.120787158141909 1.249717773437501
20.8988820352148 -0.9825646758330405 1.387952148437501
20.89688919893505 -0.8306511107655935 1.510979858398439
20.8947385956292 -0.6667109925746539 1.617453002929689
20.89245378707325 -0.492540431370972 1.706204956054689
20.89005980655337 -0.3100477102310999 1.776263427734377
20.88758288265751 -0.1212322298800891 1.826860717773439
20.88505015325962 0.07183729424214953 1.857442504882814
20.88248936709452 0.2670455808780213 1.867673828125001
20.87992858092942 0.46225386751389 1.857442504882814
20.87739585153153 0.6553233916361286 1.826860717773439
20.87491892763567 0.8441388719871394 1.776263427734377
20.87252494711579 1.026631593127012 1.706204956054689
20.87024013855984 1.200802154330694 1.617453002929689
20.86808953525399 1.364742272521633 1.510979858398439
20.86609669897425 1.51665583758908 1.387952148437501
20.86428346539435 1.654878319897948 1.249717773437501
20.86266969910099 1.777895445439813 1.097791137695314
20.8612730806331 1.884359429787702 0.9338369140625015
20.86010891273574 1.973103747333159 0.7596513671875015
20.85918994903076 2.043156191685962 0.577142944335939
20.85852625951539 2.0937491286982 0.3883112182617202
20.85812511527526 2.124328284770625 0.1952250823974624
20.85799091002515 2.134558727783367 5.382248389251505e-16
20.85812511527526 2.124328284770625 -0.1952250823974595
20.85852625951539 2.0937491286982 -0.3883112182617173
20.85918994903076 2.043156191685962 -0.577142944335936
20.86010891273574 1.973103747333159 -0.7596513671874985
20.8612730806331 1.884359429787702 -0.9338369140624986
20.86266969910099 1.777895445439813 -1.097791137695311
20.86428346539435 1.654878319897948 -1.249717773437499
20.86609669897425 1.51665583758908 -1.387952148437499
20.86808953525399 1.364742272521633 -1.510979858398436
20.87024013855984 1.200802154330694 -1.617453002929686
20.87252494711579 1.026631593127012 -1.706204956054686
20.87491892763567 0.8441388719871394 -1.776263427734374
20.87739585153153 0.6553233916361286 -1.826860717773436
20.87992858092942 0.46225386751389 -1.857442504882811

CELLS 2170 8680
3 79 80 129
3 79 129 128
3 80 81 129
3 129 81 130
3 81 82 130
3 130 82 131
3 82 83 132
3 82 132 131
3 83 84 133
3 83 133 132
3 84 85 134
3 84 134 133
3 85 86 135
3 85 135 134
3 86 87 135
3 135 87 136
3 87 88 136
3 136 88 137
3 88 89 138
3 88 138 137
3 89 90 138
3 138 90 139
3 90 91 140
3 90 140 139
3 91 92 141
3 91 141 140
3 92 93 141
3 141 93 142
3 93 94 143
3 93 143 142
3 94 95 144
3 94 144 143
3 95 96 144
3 144 96 145
3 96 97 146
3 96 146 145
3 97 98 146
3 146 98 147
3 98 99 148
3 98 148 147
3 99 100 149
3 99 149 148
3 100 101 150
3 100 150 149
3 101 102 150
3 150 102 151
3 102 103 152
3 102 152 151
3 103 104 152
3 152 104 153
3 104 105 154
3 104 154 153
3 105 106 154
3 154 106 155
3 106 107 155
3 155 107 156
3 107 108 157
3 107 157 156
3 108 109 158
3 108 158 157
3 109 110 159
3 109 159 158
3 110 111 160
3 110 160 159
3 111 112 160
3 160 112 161
3 112 113 161
3 161 113 162
3 113 114 163
3 113 163 162
3 114 115 163
3 163 115 164
3 115 116 165
3 115 165 164
3 116 117 166
3 116 166 165
3 117 118 166
3 166 118 167
3 118 119 168
3 118 168 167
3 119 120 169
3 119 169 168
3 120 121 169
3 169 121 170
3 121 122 171
3 121 171 170
3 122 123 171
3 171 123 172
3 123 124 173
3 123 173 172
3 124 125 174
3 124 174 173
3 125 126 175
3 125 175 174
3 126 127 175
3 175 127 176
3 128 129 178
3 128 178 177
3 129 130 178
3 178 130 179
3 130 131 180
3 130 180 179
3 131 132 181
3 131 181 180
3 132 133 181
3 181 133 182
3 133 134 182
3 182 134 183
3 134 135 184
3 134 184 183
3 135 136 184
3 184 136 185
3 136 137 186
3 136 186 185
3 137 138 187
3 137 187 186
3 138 139 188
3 138 188 187
3 139 140 189
3 139 189 188
3 140 141 189
3 189 141 190
3 141 142 191
3 141 191 190
3 142 143 191
3 191 143 192
3 143 144 193
3 143 193 192
3 144 145 194
3 144 194 193
3 145 146 195
3 145 195 194
3 146 147 196
3 146 196 195
3 147 148 196
3 196 148 197
3 148 149 197
3 197 149 198
3 149 150 199
3 149 199 198
3 150 151 199
3 199 151 200
3 151 152 201
3 151 201 200
3 152 153 201
3 201 153 202
3 153 154 203
3 153 203 202
3 154 155 203
3 203 155 204
3 155 156 205
3 155 205 204
3 156 157 206
3 156 206 205
3 157 158 206
3 206 158 207
3 158 159 207
3 207 159 208
3 159 160 209
3 159 209 208
3 160 161 209
3 209 161 210
3 161 162 211
3 161 211 210
3 162 163 212
3 162 212 211
3 163 164 213
3 163 213 212
3 164 165 214
3 164 214 213
3 165 166 214
3 214 166 215
3 166 167 216
3 166 216 215
3 167 168 216
3 216 168 217
3 168 169 218
3 168 218 217
3 169 170 219
3 169 219 218
3 170 171 220
3 170 220 219
3 171 172 221
3 171 221 220
3 172 173 221
3 221 173 222
3 173 174 222
3 222 174 223
3 174 175 224
3 174 224 223
3 175 176 224
3 224 176 225
3 177 178 227
3 177 227 226
3 178 179 227
3 227 179 228
3 179 180 229
3 179 229 228
3 180 181 230
3 180 230 229
3 181 182 230
3 230 182 231
3 182 183 232
3 182 232 231
3 183 184 233
3 183 233 232
3 184 185 234
3 184 234 233
3 185 186 234
3 234 186 235
3 186 187 235
3 235 187 236
3 187 188 237
3 187 237 236
3 188 189 238
3 188 238 237
3 189 190 238
3 238 190 239
3 190 191 240
3 190 240 239
3 191 192 241
3 191 241 240
3 192 193 241
3 241 193 242
3 193 194 242
3 242 194 243
3 194 195 243
3 243 195 244
3 195 196 245
3 195 245 244
3 196 197 245
3 245 197 246
3 197 198 247
3 197 247 246
3 198 199 248
3 198 248 247
3 199 200 248
3 248 200 249
3 200 201 249
3 249 201 250
3 201 202 251
3 201 251 250
3 202 203 252
3 202 252 251
3 203 204 252
3 252 204 253
3 204 205 254
3 204 254 253
3 205 206 255
3 205 255 254
3 206 207 255
3 255 207 256
3 207 208 257
3 207 257 256
3 208 209 258
3 208 258 257
3 209 210 259
3 209 259 258
3 210 211 259
3 259 211 260
3 211 212 260
3 260 212 261
3 212 213 262
3 212 262 261
3 213 214 263
3 213 263 262
3 214 215 263
3 263 215 264
3 215 216 265
3 215 265 264
3 216 217 266
3 216 266 265
3 217 218 266
3 266 218 267
3 218 219 267
3 267 219 268
3 219 220 268
3 268 220 269
3 220 221 270
3 220 270 269
3 221 222 270
3 270 222 271
3 222 223 272
3 222 272 271
3 223 224 273
3 223 273 272
3 224 225 273
3 273 225 274
3 226 227 276
3 226 276 275
3 227 228 276
3 276 228 277
3 228 229 278
3 228 278 277
3 229 230 278
3 278 230 279
3 230 231 280
3 230 280 279
3 231 232 280
3 280 232 281
3 232 233 281
3 281 233 282
3 233 234 283
3 233 283 282
3 234 235 283
3 283 235 284
3 235 236 285
3 235 285 284
3 236 237 286
3 236 286 285
3 237 238 287
3 237 287 286
3 238 239 287
3 287 239 288
3 239 240 288
3 288 240 289
3 240 241 290
3 240 290 289
3 241 242 291
3 241 291 290
3 242 243 292
3 242 292 291
3 243 244 293
3 243 293 292
3 244 245 294
3 244 294 293
3 245 246 295
3 245 295 294
3 246 247 296
3 246 296 295
3 247 248 297
3 247 297 296
3 248 249 297
3 297 249 298
3 249 250 299
3 249 299 298
3 250 251 299
3 299 251 300
3 251 252 301
3 251 301 300
3 252 253 301
3 301 253 302
3 253 254 303
3 253 303 302
3 254 255 303
3 303 255 304
3 255 256 305
3 255 305 304
3 256 257 305
3 305 257 306
3 257 258 306
3 306 258 307
3 258 259 308
3 258 308 307
3 259 260 308
3 308 260 309
3 260 261 310
3 260 310 309
3 261 262 311
3 261 311 310
3 262 263 312
3 262 312 311
3 263 264 312
3 312 264 313
3 264 265 313
3 313 265 314
3 265 266 315
3 265 315 314
3 266 267 316
3 266 316 315
3 267 268 317
3 267 317 316
3 268 269 318
3 268 318 317
3 269 270 319
3 269 319 318
3 270 271 320
3 270 320 319
3 271 272 321
3 271 321 320
3 272 273 322
3 272 322 321
3 273 274 322
3 322 274 323
3 275 276 324
3 324 276 325
3 276 277 326
3 276 326 325
3 277 278 326
3 326 278 327
3 278 279 328
3 278 328 327
3 279 280 329
3 279 329 328
3 280 281 329
3 329 281 330
3 281 282 331
3 281 331 330
3 282 283 331
3 331 283 332
3 283 284 333
3 283 333 332
3 284 285 334
3 284 334 333
3 285 286 335
3 285 335 334
3 286 287 336
3 286 336 335
3 287 288 337
3 287 337 336
3 288 289 337
3 337 289 338
3 289 290 338
3 338 290 339
3 290 291 340
3 290 340 339
3 291 292 340
3 340 292 341
3 292 293 342
3 292 342 341
3 293 294 342
3 342 294 343
3 294 295 343
3 343 295 344
3 295 296 345
3 295 345 344
3 296 297 345
3 345 297 346
3 297 298 347
3 297 347 346
3 298 299 348
3 298 348 347
3 299 300 348
3 348 300 349
3 300 301 349
3 349 301 350
3 301 302 351
3 301 351 350
3 302 303 351
3 351 303 352
3 303 304 353
3 303 353 352
3 304 305 354
3 304 354 353
3 305 306 354
3 354 306 355
3 306 307 356
3 306 356 355
3 307 308 356
3 356 308 357
3 308 309 358
3 308 358 357
3 309 310 359
3 309 359 358
3 310 311 360
3 310 360 359
3 311 312 361
3 311 361 360
3 312 313 362
3 312 362 361
3 313 314 362
3 362 314 363
3 314 315 363
3 363 315 364
3 315 316 365
3 315 365 364
3 316 317 365
3 365 317 366
3 317 318 367
3 317 367 366
3 318 319 367
3 367 319 368
3 319 320 368
3 368 320 369
3 320 321 370
3 320 370 369
3 321 322 370
3 370 322 371
3 322 323 372
3 322 372 371
3 324 325 373
3 373 325 374
3 325 326 375
3 325 375 374
3 326 327 375
3 375 327 376
3 327 328 376
3 376 328 377
3 328 329 378
3 328 378 377
3 329 330 379
3 329 379 378
3 330 331 380
3 330 380 379
3 331 332 380
3 380 332 381
3 332 333 381
3 381 333 382
3 333 334 383
3 333 383 382
3 334 335 383
3 383 335 384
3 335 336 385
3 335 385 384
3 336 337 386
3 336 386 385
3 337 338 387
3 337 387 386
3 338 339 388
3 338 388 387
3 339 340 389
3 339 389 388
3 340 341 389
3 389 341 390
3 341 342 391
3 341 391 390
3 342 343 391
3 391 343 392
3 343 344 393
3 343 393 392
3 344 345 394
3 344 394 393
3 345 346 394
3 394 346 395
3 346 347 396
3 346 396 395
3 347 348 396
3 396 348 397
3 348 349 398
3 348 398 397
3 349 350 398
3 398 350 399
3 350 351 400
3 350 400 399
3 351 352 400
3 400 352 401
3 352 353 401
3 401 353 402
3 353 354 403
3 353 403 402
3 354 355 404
3 354 404 403
3 355 356 405
3 355 405 404
3 356 357 405
3 405 357 406
3 357 358 406
3 406 358 407
3 358 359 408
3 358 408 407
3 359 360 408
3 408 360 409
3 360 361 410
3 360 410 409
3 361 362 411
3 361 411 410
3 362 363 412
3 362 412 411
3 363 364 413
3 363 413 412
3 364 365 414
3 364 414 413
3 365 366 414
3 414 366 415
3 366 367 416
3 366 416 415
3 367 368 416
3 416 368 417
3 368 369 418
3 368 418 417
3 369 370 419
3 369 419 418
3 370 371 419
3 419 371 420
3 371 372 421
3 371 421 420
3 78 0 373
3 0 1 373
3 1 2 324
3 2 3 275
3 3 4 226
3 4 5 177
3 5 6 128
3 6 7 79
3 7 8 79
3 8 9 79
3 9 10 81
3 10 11 83
3 11 12 86
3 12 13 88
3 13 14 90
3 14 15 92
3 15 16 94
3 16 17 96
3 17 18 99
3 18 19 101
3 19 20 103
3 20 21 105
3 21 22 107
3 22 23 110
3 23 24 112
3 24 25 114
3 25 26 116
3 26 27 118
3 27 28 120
3 28 29 123
3 29 30 125
3 30 8 127
3 8 7 127
3 7 6 127
3 6 5 176
3 5 4 225
3 4 3 274
3 3 2 323
3 2 1 372
3 1 0 421
3 0 31 421
3 31 32 420
3 32 33 419
3 33 34 418
3 34 35 417
3 35 36 416
3 36 37 415
3 37 38 414
3 38 39 413
3 39 40 412
3 40 41 411
3 41 42 410
3 42 43 409
3 43 44 408
3 44 45 407
3 45 46 406
3 46 47 405
3 47 48 404
3 48 49 403
3 49 50 402
3 50 51 401
3 51 52 400
3 52 53 399
3 53 54 398
3 54 55 397
3 55 56 396
3 56 57 395
3 57 58 394
3 58 59 393
3 59 60 392
3 60 61 391
3 61 62 390
3 62 63 389
3 63 64 388
3 64 65 387
3 65 66 386
3 66 67 385
3 67 68 384
3 68 69 383
3 69 70 382
3 70 71 381
3 71 72 380
3 72 73 379
3 73 74 378
3 74 75 377
3 75 76 376
3 76 77 375
3 77 78 374
3 81 80 9
3 83 82 10
3 85 84 11
3 79 128 6
3 128 177 5
3 177 226 4
3 226 275 3
3 275 324 2
3 324 373 1
3 373 374 78
3 374 375 77
3 375 376 76
3 376 377 75
3 377 378 74
3 378 379 73
3 379 380 72
3 87 86 12
3 89 88 13
3 92 91 14
3 94 93 15
3 380 381 71
3 381 382 70
3 382 383 69
3 383 384 68
3 384 385 67
3 385 386 66
3 386 387 65
3 387 388 64
3 96 95 16
3 98 97 17
3 100 99 18
3 102 101 19
3 388 389 63
3 389 390 62
3 390 391 61
3 391 392 60
3 392 393 59
3 393 394 58
3 394 395 57
3 395 396 56
3 105 104 20
3 107 106 21
3 109 108 22
3 396 397 55
3 397 398 54
3 398 399 53
3 399 400 52
3 400 401 51
3 401 402 50
3 402 403 49
3 403 404 48
3 111 110 23
3 113 112 24
3 115 114 25
3 118 117 26
3 404 405 47
3 405 406 46
3 406 407 45
3 407 408 44
3 408 409 43
3 409 410 42
3 410 411 41
3 411 412 40
3 120 119 27
3 122 121 28
3 124 123 29
3 126 125 30
3 412 413 39
3 413 414 38
3 414 415 37
3 415 416 36
3 416 417 35
3 417 418 34
3 418 419 33
3 419 420 32
3 176 127 6
3 225 176 5
3 274 225 4
3 323 274 3
3 372 323 2
3 421 372 1
3 420 421 31
3 79 9 80
3 81 10 82
3 83 11 84
3 11 86 85
3 12 88 87
3 13 90 89
3 90 14 91
3 92 15 93
3 94 16 95
3 96 17 97
3 17 99 98
3 18 101 100
3 19 103 102
3 103 20 104
3 105 21 106
3 107 22 108
3 22 110 109
3 23 112 111
3 24 114 113
3 25 116 115
3 116 26 117
3 118 27 119
3 120 28 121
3 28 123 122
3 29 125 124
3 30 127 126
3 0 78 423
3 0 423 422
3 78 77 424
3 78 424 423
3 77 76 425
3 77 425 424
3 76 75 426
3 76 426 425
3 75 74 427
3 75 427 426
3 74 73 428
3 74 428 427
3 73 72 429
3 73 429 428
3 72 71 430
3 72 430 429
3 71 70 431
3 71 431 430
3 70 69 432
3 70 432 431
3 69 68 433
3 69 433 432
3 68 67 434
3 68 434 433
3 67 66 435
3 67 435 434
3 66 65 436
3 66 436 435
3 65 64 437
3 65 437 436
3 64 63 438
3 64 438 437
3 63 62 439
3 63 439 438
3 62 61 440
3 62 440 439
3 61 60 441
3 61 441 440
3 60 59 442
3 60 442 441
3 59 58 443
3 59 443 442
3 58 57 444
3 58 444 443
3 57 56 445
3 57 445 444
3 56 55 446
3 56 446 445
3 55 54 447
3 55 447 446
3 54 53 448
3 54 448 447
3 53 52 449
3 53 449 448
3 52 51 450
3 52 450 449
3 51 50 451
3 51 451 450
3 50 49 452
3 50 452 451
3 49 48 453
3 49 453 452
3 48 47 454
3 48 454 453
3 47 46 455
3 47 455 454
3 46 45 456
3 46 456 455
3 45 44 457
3 45 457 456
3 44 43 458
3 44 458 457
3 43 42 459
3 43 459 458
3 42 41 460
3 42 460 459
3 41 40 461
3 41 461 460
3 40 39 462
3 40 462 461
3 39 38 463
3 39 463 462
3 38 37 464
3 38 464 463
3 37 36 465
3 37 465 464
3 36 35 466
3 36 466 465
3 35 34 467
3 35 467 466
3 34 33 468
3 34 468 467
3 33 32 469
3 33 469 468
3 32 31 470
3 32 470 469
3 31 0 422
3 31 422 470
3 422 423 472
3 422 472 471
3 423 424 473
3 423 473 472
3 424 425 474
3 424 474 473
3 425 426 475
3 425 475 474
3 426 427 476
3 426 476 475
3 427 428 477
3 427 477 476
3 428 429 478
3 428 478 477
3 429 430 479
3 429 479 478
3 430 431 480
3 430 480 479
3 431 432 481
3 431 481 480
3 432 433 482
3 432 482 481
3 433 434 483
3 433 483 482
3 434 435 484
3 434 484 483
3 435 436 485
3 435 485 484
3 436 437 486
3 436 486 485
3 437 438 487
3 437 487 486
3 438 439 488
3 438 488 487
3 439 440 489
3 439 489 488
3 440 441 490
3 440 490 489
3 441 442 491
3 441 491 490
3 442 443 492
3 442 492 491
3 443 444 493
3 443 493 492
3 444 445 494
3 444 494 493
3 445 446 495
3 445 495 494
3 446 447 496
3 446 496 495
3 447 448 497
3 447 497 496
3 448 449 498
3 448 498 497
3 449 450 499
3 449 499 498
3 450 451 500
3 450 500 499
3 451 452 501
3 451 501 500
3 452 453 502
3 452 502 501
3 453 454 503
3 453 503 502
3 454 455 504
3 454 504 503
3 455 456 505
3 455 505 504
3 456 457 506
3 456 506 505
3 457 458 507
3 457 507 506
3 458 459 508
3 458 508 507
3 459 460 509
3 459 509 508
3 460 461 510
3 460 510 509
3 461 462 511
3 461 511 510
3 462 463 512
3 462 512 511
3 463 464 513
3 463 513 512
3 464 465 514
3 464 514 513
3 465 466 515
3 465 515 514
3 466 467 516
3 466 516 515
3 467 468 517
3 467 517 516
3 468 469 518
3 468 518 517
3 469 470 519
3 469 519 518
3 470 422 471
3 470 471 519
3 579 520 578
3 520 521 578
3 578 521 577
3 521 522 577
3 577 522 576
3 522 523 576
3 576 523 575
3 523 524 575
3 575 524 574
3 524 525 574
3 574 525 573
3 525 526 573
3 573 526 572
3 526 527 572
3 572 527 571
3 527 528 571
3 571 528 570
3 528 529 570
3 570 529 569
3 529 530 569
3 569 530 568
3 530 531 568
3 568 531 567
3 531 532 567
3 567 532 566
3 532 533 566
3 566 533 565
3 533 534 565
3 565 534 564
3 534 535 564
3 564 535 563
3 535 536 563
3 563 536 562
3 536 537 562
3 562 537 561
3 537 538 561
3 561 538 560
3 538 539 560
3 560 539 559
3 539 540 559
3 559 540 558
3 540 541 558
3 558 541 557
3 541 542 557
3 557 542 556
3 542 543 556
3 556 543 555
3 543 544 555
3 555 544 554
3 544 545 554
3 554 545 553
3 545 546 553
3 553 546 552
3 546 547 552
3 552 547 551
3 547 548 551
3 551 548 550
3 548 549 550
3 632 633 681
3 632 681 680
3 633 634 682
3 633 682 681
3 634 635 683
3 634 683 682
3 635 636 684
3 635 684 683
3 636 637 684
3 684 637 685
3 637 638 685
3 685 638 686
3 638 639 687
3 638 687 686
3 639 640 687
3 687 640 688
3 640 641 688
3 688 641 689
3 641 642 689
3 689 642 690
3 642 643 691
3 642 691 690
3 643 644 691
3 691 644 692
3 644 645 693
3 644 693 692
3 645 646 694
3 645 694 693
3 646 647 694
3 694 647 695
3 647 648 696
3 647 696 695
3 648 649 697
3 648 697 696
3 649 650 697
3 697 650 698
3 650 651 698
3 698 651 699
3 651 652 699
3 699 652 700
3 652 653 700
3 700 653 701
3 653 654 701
3 701 654 702
3 654 655 702
3 702 655 703
3 655 656 704
3 655 704 703
3 656 657 705
3 656 705 704
3 657 658 706
3 657 706 705
3 658 659 707
3 658 707 706
3 659 660 708
3 659 708 707
3 660 661 709
3 660 709 708
3 661 662 710
3 661 710 709
3 662 663 710
3 710 663 711
3 663 664 711
3 711 664 712
3 664 665 713
3 664 713 712
3 665 666 713
3 713 666 714
3 666 667 714
3 714 667 715
3 667 668 716
3 667 716 715
3 668 669 716
3 716 669 717
3 669 670 718
3 669 718 717
3 670 671 719
3 670 719 718
3 671 672 720
3 671 720 719
3 672 673 720
3 720 673 721
3 673 674 722
3 673 722 721
3 674 675 723
3 674 723 722
3 675 676 723
3 723 676 724
3 676 677 724
3 724 677 725
3 677 678 725
3 725 678 726
3 678 679 726
3 726 679 727
3 680 681 728
3 728 681 729
3 681 682 729
3 729 682 730
3 682 683 730
3 730 683 731
3 683 684 731
3 731 684 732
3 684 685 732
3 732 685 733
3 685 686 734
3 685 734 733
3 686 687 734
3 734 687 735
3 687 688 736
3 687 736 735
3 688 689 737
3 688 737 736
3 689 690 737
3 737 690 738
3 690 691 738
3 738 691 739
3 691 692 740
3 691 740 739
3 692 693 740
3 740 693 741
3 693 694 741
3 741 694 742
3 694 695 742
3 742 695 743
3 695 696 743
3 743 696 744
3 696 697 745
3 696 745 744
3 697 698 746
3 697 746 745
3 698 699 747
3 698 747 746
3 699 700 748
3 699 748 747
3 700 701 749
3 700 749 748
3 701 702 750
3 701 750 749
3 702 703 751
3 702 751 750
3 703 704 752
3 703 752 751
3 704 705 752
3 752 705 753
3 705 706 753
3 753 706 754
3 706 707 754
3 754 707 755
3 707 708 755
3 755 708 756
3 708 709 756
3 756 709 757
3 709 710 758
3 709 758 757
3 710 711 758
3 758 711 759
3 711 712 760
3 711 760 759
3 712 713 761
3 712 761 760
3 713 714 762
3 713 762 761
3 714 715 763
3 714 763 762
3 715 716 763
3 763 716 764
3 716 717 765
3 716 765 764
3 717 718 766
3 717 766 765
3 718 719 766
3 766 719 767
3 719 720 767
3 767 720 768
3 720 721 769
3 720 769 768
3 721 722 769
3 769 722 770
3 722 723 771
3 722 771 770
3 723 724 772
3 723 772 771
3 724 725 773
3 724 773 772
3 725 726 774
3 725 774 773
3 726 727 775
3 726 775 774
3 631 580 581
3 581 582 680
3 582 583 632
3 583 471 472
3 472 473 632
3 473 474 633
3 474 475 634
3 475 476 635
3 476 477 636
3 477 478 637
3 478 479 638
3 479 480 639
3 480 481 640
3 481 482 641
3 482 483 642
3 483 484 643
3 484 485 644
3 485 486 645
3 486 487 646
3 487 488 647
3 488 489 649
3 489 490 650
3 490 491 651
3 491 492 652
3 492 493 653
3 493 494 654
3 494 495 655
3 495 496 656
3 496 497 657
3 497 498 658
3 498 499 659
3 499 500 660
3 500 501 661
3 501 502 662
3 502 503 663
3 503 504 664
3 504 505 665
3 505 506 666
3 506 507 667
3 507 508 668
3 508 509 669
3 509 510 670
3 510 511 671
3 511 512 672
3 512 513 673
3 513 514 673
3 514 515 674
3 515 516 675
3 516 517 676
3 517 518 677
3 518 519 678
3 519 471 583
3 583 582 679
3 582 581 727
3 581 580 584
3 584 585 774
3 585 586 773
3 586 587 772
3 587 588 771
3 588 589 770
3 589 590 769
3 590 591 769
3 591 592 768
3 592 593 767
3 593 594 766
3 594 595 765
3 595 596 764
3 596 597 763
3 597 598 762
3 598 599 761
3 599 600 760
3 600 601 759
3 601 602 758
3 602 603 757
3 603 604 756
3 604 605 755
3 605 606 754
3 606 607 753
3 607 608 752
3 608 609 751
3 609 610 750
3 610 611 749
3 611 612 748
3 612 613 747
3 613 614 746
3 614 615 745
3 615 616 743
3 616 617 742
3 617 618 741
3 618 619 740
3 619 620 739
3 620 621 738
3 621 622 737
3 622 623 736
3 623 624 735
3 624 625 734
3 625 626 733
3 626 627 732
3 627 628 731
3 628 629 730
3 629 630 729
3 630 631 728
3 633 632 473
3 634 633 474
3 635 634 475
3 636 635 476
3 637 636 477
3 638 637 478
3 639 638 479
3 632 680 582
3 680 728 581
3 728 729 630
3 729 730 629
3 730 731 628
3 731 732 627
3 732 733 626
3 733 734 625
3 734 735 624
3 640 639 480
3 641 640 481
3 642 641 482
3 643 642 483
3 644 643 484
3 645 644 485
3 646 645 486
3 647 646 487
3 735 736 623
3 736 737 622
3 737 738 621
3 738 739 620
3 739 740 619
3 740 741 618
3 741 742 617
3 742 743 616
3 648 647 488
3 649 648 488
3 650 649 489
3 651 650 490
3 652 651 491
3 653 652 492
3 654 653 493
3 655 654 494
3 743 744 615
3 744 745 615
3 745 746 614
3 746 747 613
3 747 748 612
3 748 749 611
3 749 750 610
3 750 751 609
3 656 655 495
3 657 656 496
3 658 657 497
3 659 658 498
3 660 659 499
3 661 660 500
3 662 661 501
3 663 662 502
3 751 752 608
3 752 753 607
3 753 754 606
3 754 755 605
3 755 756 604
3 756 757 603
3 757 758 602
3 758 759 601
3 664 663 503
3 665 664 504
3 666 665 505
3 667 666 506
3 668 667 507
3 669 668 508
3 670 669 509
3 671 670 510
3 759 760 600
3 760 761 599
3 761 762 598
3 762 763 597
3 763 764 596
3 764 765 595
3 765 766 594
3 766 767 593
3 672 671 511
3 673 672 512
3 674 673 514
3 675 674 515
3 676 675 516
3 677 676 517
3 678 677 518
3 679 678 519
3 767 768 592
3 768 769 591
3 769 770 589
3 770 771 588
3 771 772 587
3 772 773 586
3 773 774 585
3 774 775 584
3 727 679 582
3 775 727 581
3 631 581 728
3 632 583 472
3 519 583 679
3 581 584 775
3 836 776 777
3 777 580 631
3 631 630 835
3 630 629 834
3 629 628 833
3 628 627 831
3 627 626 830
3 626 625 829
3 625 624 828
3 624 623 827
3 623 622 825
3 622 621 824
3 621 620 823
3 620 619 822
3 619 618 820
3 618 617 819
3 617 616 818
3 616 615 817
3 615 614 816
3 614 613 814
3 613 612 813
3 612 611 812
3 611 610 811
3 610 609 809
3 609 608 808
3 608 607 807
3 607 606 806
3 606 605 805
3 605 604 803
3 604 603 802
3 603 602 801
3 602 601 800
3 601 600 798
3 600 599 797
3 599 598 796
3 598 597 795
3 597 596 794
3 596 595 792
3 595 594 791
3 594 593 790
3 593 592 789
3 592 591 787
3 591 590 786
3 590 589 785
3 589 588 784
3 588 587 783
3 587 586 781
3 586 585 780
3 585 584 779
3 584 580 777
3 777 776 778
3 778 779 584
3 779 780 585
3 780 781 586
3 781 782 587
3 782 783 587
3 783 784 588
3 784 785 589
3 785 786 590
3 786 787 591
3 787 788 592
3 788 789 592
3 789 790 593
3 790 791 594
3 791 792 595
3 792 793 596
3 793 794 596
3 794 795 597
3 795 796 598
3 796 797 599
3 797 798 600
3 798 799 601
3 799 800 601
3 800 801 602
3 801 802 603
3 802 803 604
3 803 804 605
3 804 805 605
3 805 806 606
3 806 807 607
3 807 808 608
3 808 809 609
3 809 810 610
3 810 811 610
3 811 812 611
3 812 813 612
3 813 814 613
3 814 815 614
3 815 816 614
3 816 817 615
3 817 818 616
3 818 819 617
3 819 820 618
3 820 821 619
3 821 822 619
3 822 823 620
3 823 824 621
3 824 825 622
3 825 826 623
3 826 827 623
3 827 828 624
3 828 829 625
3 829 830 626
3 830 831 627
3 831 832 628
3 832 833 628
3 833 834 629
3 834 835 630
3 835 836 631
3 836 777 631
3 584 777 778
3 841 842 863
3 863 842 864
3 842 843 865
3 842 865 864
3 843 844 865
3 865 844 866
3 844 845 866
3 866 845 867
3 845 846 868
3 845 868 867
3 846 847 869
3 846 869 868
3 847 848 870
3 847 870 869
3 848 849 870
3 870 849 871
3 849 850 872
3 849 872 871
3 850 851 873
3 850 873 872
3 851 852 874
3 851 874 873
3 852 853 875
3 852 875 874
3 853 854 876
3 853 876 875
3 854 855 877
3 854 877 876
3 855 856 877
3 877 856 878
3 856 857 879
3 856 879 878
3 857 858 879
3 879 858 880
3 858 859 881
3 858 881 880
3 859 860 882
3 859 882 881
3 860 861 882
3 882 861 883
3 861 862 884
3 861 884 883
3 863 864 886
3 863 886 885
3 864 865 886
3 886 865 887
3 865 866 887
3 887 866 888
3 866 867 889
3 866 889 888
3 867 868 890
3 867 890 889
3 868 869 890
3 890 869 891
3 869 870 892
3 869 892 891
3 870 871 892
3 892 871 893
3 871 872 894
3 871 894 893
3 872 873 895
3 872 895 894
3 873 874 896
3 873 896 895
3 874 875 896
3 896 875 897
3 875 876 897
3 897 876 898
3 876 877 899
3 876 899 898
3 877 878 899
3 899 878 900
3 878 879 901
3 878 901 900
3 879 880 901
3 901 880 902
3 880 881 902
3 902 881 903
3 881 882 904
3 881 904 903
3 882 883 905
3 882 905 904
3 883 884 905
3 905 884 906
3 9 8 837
3 837 838 863
3 838 839 841
3 839 840 841
3 839 838 862
3 838 837 884
3 837 8 30
3 30 29 905
3 29 28 904
3 28 27 903
3 27 26 902
3 26 25 901
3 25 24 900
3 24 23 899
3 23 22 898
3 22 21 897
3 21 20 896
3 20 19 895
3 19 18 894
3 18 17 893
3 17 16 892
3 16 15 891
3 15 14 890
3 14 13 889
3 13 12 888
3 12 11 887
3 11 10 886
3 10 9 885
3 842 841 840
3 843 842 840
3 844 843 840
3 845 844 840
3 846 845 840
3 847 846 840
3 848 847 840
3 841 863 838
3 863 885 837
3 885 886 10
3 886 887 11
3 887 888 12
3 888 889 13
3 889 890 14
3 890 891 15
3 891 892 16
3 849 848 840
3 850 849 840
3 851 850 840
3 852 851 840
3 853 852 840
3 854 853 840
3 855 854 840
3 856 855 840
3 892 893 17
3 893 894 18
3 894 895 19
3 895 896 20
3 896 897 21
3 897 898 22
3 898 899 23
3 899 900 24
3 857 856 840
3 858 857 840
3 859 858 840
3 860 859 840
3 861 860 840
3 862 861 840
3 884 862 838
3 906 884 837
3 900 901 25
3 901 902 26
3 902 903 27
3 903 904 28
3 904 905 29
3 905 906 30
3 9 837 885
3 862 840 839
3 837 30 906
3 910 911 970
3 910 970 969
3 911 912 970
3 970 912 971
3 912 913 971
3 971 913 972
3 913 914 973
3 913 973 972
3 914 915 973
3 973 915 974
3 915 916 974
3 974 916 975
3 916 917 976
3 916 976 975
3 917 918 977
3 917 977 976
3 918 919 978
3 918 978 977
3 919 920 978
3 978 920 979
3 920 921 980
3 920 980 979
3 921 922 981
3 921 981 980
3 922 923 981
3 981 923 982
3 923 924 983
3 923 983 982
3 924 925 983
3 983 925 984
3 925 926 985
3 925 985 984
3 926 927 985
3 985 927 986
3 927 928 986
3 986 928 987
3 928 929 988
3 928 988 987
3 929 930 988
3 988 930 989
3 930 931 989
3 989 931 990
3 931 932 991
3 931 991 990
3 932 933 992
3 932 992 991
3 933 934 993
3 933 993 992
3 934 935 993
3 993 935 994
3 935 936 995
3 935 995 994
3 936 937 996
3 936 996 995
3 937 938 996
3 996 938 997
3 938 939 998
3 938 998 997
3 939 940 998
3 998 940 999
3 940 941 1000
3 940 1000 999
3 941 942 1000
3 1000 942 1001
3 942 943 1001
3 1001 943 1002
3 943 944 1003
3 943 1003 1002
3 944 945 1003
3 1003 945 1004
3 945 946 1004
3 1004 946 1005
3 946 947 1006
3 946 1006 1005
3 947 948 1007
3 947 1007 1006
3 948 949 1008
3 948 1008 1007
3 949 950 1008
3 1008 950 1009
3 950 951 1010
3 950 1010 1009
3 951 952 1011
3 951 1011 1010
3 952 953 1011
3 1011 953 1012
3 953 954 1013
3 953 1013 1012
3 954 955 1013
3 1013 955 1014
3 955 956 1015
3 955 1015 1014
3 956 957 1015
3 1015 957 1016
3 957 958 1016
3 1016 958 1017
3 958 959 1018
3 958 1018 1017
3 959 960 1018
3 1018 960 1019
3 960 961 1019
3 1019 961 1020
3 961 962 1021
3 961 1021 1020
3 962 963 1022
3 962 1022 1021
3 963 964 1023
3 963 1023 1022
3 964 965 1023
3 1023 965 1024
3 965 966 1025
3 965 1025 1024
3 966 967 1026
3 966 1026 1025
3 967 968 1026
3 1026 968 1027
3 969 970 1029
3 969 1029 1028
3 970 971 1030
3 970 1030 1029
3 971 972 1031
3 971 1031 1030
3 972 973 1032
3 972 1032 1031
3 973 974 1033
3 973 1033 1032
3 974 975 1034
3 974 1034 1033
3 975 976 1035
3 975 1035 1034
3 976 977 1035
3 1035 977 1036
3 977 978 1036
3 1036 978 1037
3 978 979 1037
3 1037 979 1038
3 979 980 1038
3 1038 980 1039
3 980 981 1039
3 1039 981 1040
3 981 982 1040
3 1040 982 1041
3 982 983 1042
3 982 1042 1041
3 983 984 1042
3 1042 984 1043
3 984 985 1044
3 984 1044 1043
3 985 986 1045
3 985 1045 1044
3 986 987 1046
3 986 1046 1045
3 987 988 1047
3 987 1047 1046
3 988 989 1048
3 988 1048 1047
3 989 990 1049
3 989 1049 1048
3 990 991 1050
3 990 1050 1049
3 991 992 1050
3 1050 992 1051
3 992 993 1051
3 1051 993 1052
3 993 994 1052
3 1052 994 1053
3 994 995 1053
3 1053 995 1054
3 995 996 1054
3 1054 996 1055
3 996 997 1055
3 1055 997 1056
3 997 998 1057
3 997 1057 1056
3 998 999 1057
3 1057 999 1058
3 999 1000 1059
3 999 1059 1058
3 1000 1001 1060
3 1000 1060 1059
3 1001 1002 1061
3 1001 1061 1060
3 1002 1003 1062
3 1002 1062 1061
3 1003 1004 1063
3 1003 1063 1062
3 1004 1005 1064
3 1004 1064 1063
3 1005 1006 1065
3 1005 1065 1064
3 1006 1007 1065
3 1065 1007 1066
3 1007 1008 1066
3 1066 1008 1067
3 1008 1009 1067
3 1067 1009 1068
3 1009 1010 1068
3 1068 1010 1069
3 1010 1011 1069
3 1069 1011 1070
3 1011 1012 1070
3 1070 1012 1071
3 1012 1013 1072
3 1012 1072 1071
3 1013 1014 1072
3 1072 1014 1073
3 1014 1015 1074
3 1014 1074 1073
3 1015 1016 1075
3 1015 1075 1074
3 1016 1017 1076
3 1016 1076 1075
3 1017 1018 1077
3 1017 1077 1076
3 1018 1019 1078
3 1018 1078 1077
3 1019 1020 1079
3 1019 1079 1078
3 1020 1021 1080
3 1020 1080 1079
3 1021 1022 1080
3 1080 1022 1081
3 1022 1023 1081
3 1081 1023 1082
3 1023 1024 1082
3 1082 1024 1083
3 1024 1025 1083
3 1083 1025 1084
3 1025 1026 1084
3 1084 1026 1085
3 1026 1027 1085
3 1085 1027 1086
3 521 520 907
3 907 908 969
3 908 909 910
3 909 776 836
3 836 835 910
3 835 834 911
3 834 833 912
3 833 832 913
3 832 831 914
3 831 830 915
3 830 829 916
3 829 828 917
3 828 827 918
3 827 826 919
3 826 825 920
3 825 824 921
3 824 823 922
3 823 822 923
3 822 821 924
3 821 820 925
3 820 819 926
3 819 818 927
3 818 817 928
3 817 816 929
3 816 815 930
3 815 814 931
3 814 813 932
3 813 812 933
3 812 811 934
3 811 810 935
3 810 809 936
3 809 808 937
3 808 807 938
3 807 806 939
3 806 805 940
3 805 804 941
3 804 803 942
3 803 802 943
3 802 801 944
3 801 800 945
3 800 799 946
3 799 798 947
3 798 797 948
3 797 796 950
3 796 795 951
3 795 794 952
3 794 793 953
3 793 792 954
3 792 791 955
3 791 790 956
3 790 789 957
3 789 788 958
3 788 787 959
3 787 786 960
3 786 785 961
3 785 784 962
3 784 783 963
3 783 782 964
3 782 781 965
3 781 780 966
3 780 779 967
3 779 778 968
3 778 776 909
3 909 908 968
3 908 907 1027
3 907 520 579
3 579 578 1085
3 578 577 1084
3 577 576 1083
3 576 575 1082
3 575 574 1081
3 574 573 1080
3 573 572 1079
3 572 571 1078
3 571 570 1077
3 570 569 1076
3 569 568 1075
3 568 567 1074
3 567 566 1073
3 566 565 1072
3 565 564 1071
3 564 563 1070
3 563 562 1069
3 562 561 1068
3 561 560 1067
3 560 559 1066
3 559 558 1065
3 558 557 1064
3 557 556 1063
3 556 555 1062
3 555 554 1061
3 554 553 1060
3 553 552 1059
3 552 551 1058
3 551 550 1057
3 550 549 1056
3 549 548 1055
3 548 547 1054
3 547 546 1053
3 546 545 1052
3 545 544 1051
3 544 543 1050
3 543 542 1049
3 542 541 1048
3 541 540 1047
3 540 539 1046
3 539 538 1045
3 538 537 1044
3 537 536 1043
3 536 535 1042
3 535 534 1041
3 534 533 1040
3 533 532 1039
3 532 531 1038
3 531 530 1037
3 530 529 1036
3 529 528 1035
3 528 527 1034
3 527 526 1033
3 526 525 1032
3 525 524 1031
3 524 523 1030
3 523 522 1029
3 522 521 1028
3 911 910 835
3 912 911 834
3 913 912 833
3 914 913 832
3 915 914 831
3 916 915 830
3 917 916 829
3 910 969 908
3 969 1028 907
3 1028 1029 522
3 1029 1030 523
3 1030 1031 524
3 1031 1032 525
3 1032 1033 526
3 1033 1034 527
3 1034 1035 528
3 918 917 828
3 919 918 827
3 920 919 826
3 921 920 825
3 922 921 824
3 923 922 823
3 924 923 822
3 925 924 821
3 1035 1036 529
3 1036 1037 530
3 1037 1038 531
3 1038 1039 532
3 1039 1040 533
3 1040 1041 534
3 1041 1042 535
3 1042 1043 536
3 926 925 820
3 927 926 819
3 928 927 818
3 929 928 817
3 930 929 816
3 931 930 815
3 932 931 814
3 933 932 813
3 1043 1044 537
3 1044 1045 538
3 1045 1046 539
3 1046 1047 540
3 1047 1048 541
3 1048 1049 542
3 1049 1050 543
3 1050 1051 544
3 934 933 812
3 935 934 811
3 936 935 810
3 937 936 809
3 938 937 808
3 939 938 807
3 940 939 806
3 941 940 805
3 1051 1052 545
3 1052 1053 546
3 1053 1054 547
3 1054 1055 548
3 1055 1056 549
3 1056 1057 550
3 1057 1058 551
3 1058 1059 552
3 942 941 804
3 943 942 803
3 944 943 802
3 945 944 801
3 946 945 800
3 947 946 799
3 948 947 798
3 949 948 797
3 1059 1060 553
3 1060 1061 554
3 1061 1062 555
3 1062 1063 556
3 1063 1064 557
3 1064 1065 558
3 1065 1066 559
3 1066 1067 560
3 950 949 797
3 951 950 796
3 952 951 795
3 953 952 794
3 954 953 793
3 955 954 792
3 956 955 791
3 957 956 790
3 1067 1068 561
3 1068 1069 562
3 1069 1070 563
3 1070 1071 564
3 1071 1072 565
3 1072 1073 566
3 1073 1074 567
3 1074 1075 568
3 958 957 789
3 959 958 788
3 960 959 787
3 961 960 786
3 962 961 785
3 963 962 784
3 964 963 783
3 965 964 782
3 1075 1076 569
3 1076 1077 570
3 1077 1078 571
3 1078 1079 572
3 1079 1080 573
3 1080 1081 574
3 1081 1082 575
3 1082 1083 576
3 966 965 781
3 967 966 780
3 968 967 779
3 1027 968 908
3 1086 1027 907
3 1083 1084 577
3 1084 1085 578
3 1085 1086 579
3 521 907 1028
3 910 909 836
3 968 778 909
3 907 579 1086

CELL_TYPES 2170
5 5 5 5 5 5 5 5 5 5 5 5 5 5 5 5 5 5 5 5
5 5 5 5 5 5 5 5 5 5 5 5 5 5 5 5 5 5 5 5
5 5 5 5 5 5 5 5 5 5 5 5 5 5 5 5 5 5 5 5
5 5 5 5 5 5 5 5 5 5 5 5 5 5 5 5 5 5 5 5
5 5 5 5 5 5 5 5 5 5 5 5 5 5 5 5 5 5 5 5
5 5 5 5 5 5 5 5 5 5 5 5 5 5 5 5 5 5 5 5
5 5 5 5 5 5 5 5 5 5 5 5 5 5 5 5 5 5 5 5
5 5 5 5 5 5 5 5 5 5 5 5 5 5 5 5 5 5 5 5
5 5 5 5 5 5 5 5 5 5 5 5 5 5 5 5 5 5 5 5
5 5 5 5 5 5 5 5 5 5 5 5 5 5 5 5 5 5 5 5
5 5 5 5 5 5 5 5 5 5 5 5 5 5 5 5 5 5 5 5
5 5 5 5 5 5 5 5 5 5 5 5 5 5 5 5 5 5 5 5
5 5 5 5 5 5 5 5 5 5 5 5 5 5 5 5 5 5 5 5
5 5 5 5 5 5 5 5 5 5 5 5 5 5 5 5 5 5 5 5
5 5 5 5 5 5 5 5 5 5 5 5 5 5 5 5 5 5 5 5
5 5 5 5 5 5 5 5 5 5 5 5 5 5 5 5 5 5 5 5
5 5 5 5 5 5 5 5 5 5 5 5 5 5 5 5 5 5 5 5
5 5 5 5 5 5 5 5 5 5 5 5 5 5 5 5 5 5 5 5
5 5 5 5 5 5 5 5 5 5 5 5 5 5 5 5 5 5 5 5
5 5 5 5 5 5 5 5 5 5 5 5 5 5 5 5 5 5 5 5
5 5 5 5 5 5 5 5 5 5 5 5 5 5 5 5 5 5 5 5
5 5 5 5 5 5 5 5 5 5 5 5 5 5 5 5 5 5 5 5
5 5 5 5 5 5 5 5 5 5 5 5 5 5 5 5 5 5 5 5
5 5 5 5 5 5 5 5 5 5 5 5 5 5 5 5 5 5 5 5
5 5 5 5 5 5 5 5 5 5 5 5 5 5 5 5 5 5 5 5
5 5 5 5 5 5 5 5 5 5 5 5 5 5 5 5 5 5 5 5
5 5 5 5 5 5 5 5 5 5 5 5 5 5 5 5 5 5 5 5
5 5 5 5 5 5 5 5 5 5 5 5 5 5 5 5 5 5 5 5
5 5 5 5 5 5 5 5 5 5 5 5 5 5 5 5 5 5 5 5
5 5 5 5 5 5 5 5 5 5 5 5 5 5 5 5 5 5 5 5
5 5 5 5 5 5 5 5 5 5 5 5 5 5 5 5 5 5 5 5
5 5 5 5 5 5 5 5 5 5 5 5 5 5 5 5 5 5 5 5
5 5 5 5 5 5 5 5 5 5 5 5 5 5 5 5 5 5 5 5
5 5 5 5 5 5 5 5 5 5 5 5 5 5 5 5 5 5 5 5
5 5 5 5 5 5 5 5 5 5 5 5 5 5 5 5 5 5 5 5
5 5 5 5 5 5 5 5 5 5 5 5 5 5 5 5 5 5 5 5
5 5 5 5 5 5 5 5 5 5 5 5 5 5 5 5 5 5 5 5
5 5 5 5 5 5 5 5 5 5 5 5 5 5 5 5 5 5 5 5
5 5 5 5 5 5 5 5 5 5 5 5 5 5 5 5 5 5 5 5
5 5 5 5 5 5 5 5 5 5 5 5 5 5 5 5 5 5 5 5
5 5 5 5 5 5 5 5 5 5 5 5 5 5 5 5 5 5 5 5
5 5 5 5 5 5 5 5 5 5 5 5 5 5 5 5 5 5 5 5
5 5 5 5 5 5 5 5 5 5 5 5 5 5 5 5 5 5 5 5
5 5 5 5 5 5 5 5 5 5 5 5 5 5 5 5 5 5 5 5
5 5 5 5 5 5 5 5 5 5 5 5 5 5 5 5 5 5 5 5
5 5 5 5 5 5 5 5 5 5 5 5 5 5 5 5 5 5 5 5
5 5 5 5 5 5 5 5 5 5 5 5 5 5 5 5 5 5 5 5
5 5 5 5 5 5 5 5 5 5 5 5 5 5 5 5 5 5 5 5
5 5 5 5 5 5 5 5 5 5 5 5 5 5 5 5 5 5 5 5
5 5 5 5 5 5 5 5 5 5 5 5 5 5 5 5 5 5 5 5
5 5 5 5 5 5 5 5 5 5 5 5 5 5 5 5 5 5 5 5
5 5 5 5 5 5 5 5 5 5 5 5 5 5 5 5 5 5 5 5
5 5 5 5 5 5 5 5 5 5 5 5 5 5 5 5 5 5 5 5
5 5 5 5 5 5 5 5 5 5 5 5 5 5 5 5 5 5 5 5
5 5 5 5 5 5 5 5 5 5 5 5 5 5 5 5 5 5 5 5
5 5 5 5 5 5 5 5 5 5 5 5 5 5 5 5 5 5 5 5
5 5 5 5 5 5 5 5 5 5 5 5 5 5 5 5 5 5 5 5
5 5 5 5 5 5 5 5 5 5 5 5 5 5 5 5 5 5 5 5
5 5 5 5 5 5 5 5 5 5 5 5 5 5 5 5 5 5 5 5
5 5 5 5 5 5 5 5 5 5 5 5 5 5 5 5 5 5 5 5
5 5 5 5 5 5 5 5 5 5 5 5 5 5 5 5 5 5 5 5
5 5 5 5 5 5 5 5 5 5 5 5 5 5 5 5 5 5 5 5
5 5 5 5 5 5 5 5 5 5 5 5 5 5 5 5 5 5 5 5
5 5 5 5 5 5 5 5 5 5 5 5 5 5 5 5 5 5 5 5
5 5 5 5 5 5 5 5 5 5 5 5 5 5 5 5 5 5 5 5
5 5 5 5 5 5 5 5 5 5 5 5 5 5 5 5 5 5 5 5
5 5 5 5 5 5 5 5 5 5 5 5 5 5 5 5 5 5 5 5
5 5 5 5 5 5 5 5 5 5 5 5 5 5 5 5 5 5 5 5
5 5 5 5 5 5 5 5 5 5 5 5 5 5 5 5 5 5 5 5
5 5 5 5 5 5 5 5 5 5 5 5 5 5 5 5 5 5 5 5
5 5 5 5 5 5 5 5 5 5 5 5 5 5 5 5 5 5 5 5
5 5 5 5 5 5 5 5 5 5 5 5 5 5 5 5 5 5 5 5
5 5 5 5 5 5 5 5 5 5 5 5 5 5 5 5 5 5 5 5
5 5 5 5 5 5 5 5 5 5 5 5 5 5 5 5 5 5 5 5
5 5 5 5 5 5 5 5 5 5 5 5 5 5 5 5 5 5 5 5
5 5 5 5 5 5 5 5 5 5 5 5 5 5 5 5 5 5 5 5
5 5 5 5 5 5 5 5 5 5 5 5 5 5 5 5 5 5 5 5
5 5 5 5 5 5 5 5 5 5 5 5 5 5 5 5 5 5 5 5
5 5 5 5 5 5 5 5 5 5 5 5 5 5 5 5 5 5 5 5
5 5 5 5 5 5 5 5 5 5 5 5 5 5 5 5 5 5 5 5
5 5 5 5 5 5 5 5 5 5 5 5 5 5 5 5 5 5 5 5
5 5 5 5 5 5 5 5 5 5 5 5 5 5 5 5 5 5 5 5
5 5 5 5 5 5 5 5 5 5 5 5 5 5 5 5 5 5 5 5
5 5 5 5 5 5 5 5 5 5 5 5 5 5 5 5 5 5 5 5
5 5 5 5 5 5 5 5 5 5 5 5 5 5 5 5 5 5 5 5
5 5 5 5 5 5 5 5 5 5 5 5 5 5 5 5 5 5 5 5
5 5 5 5 5 5 5 5 5 5 5 5 5 5 5 5 5 5 5 5
5 5 5 5 5 5 5 5 5 5 5 5 5 5 5 5 5 5 5 5
5 5 5 5 5 5 5 5 5 5 5 5 5 5 5 5 5 5 5 5
5 5 5 5 5 5 5 5 5 5 5 5 5 5 5 5 5 5 5 5
5 5 5 5 5 5 5 5 5 5 5 5 5 5 5 5 5 5 5 5
5 5 5 5 5 5 5 5 5 5 5 5 5 5 5 5 5 5 5 5
5 5 5 5 5 5 5 5 5 5 5 5 5 5 5 5 5 5 5 5
5 5 5 5 5 5 5 5 5 5 5 5 5 5 5 5 5 5 5 5
5 5 5 5 5 5 5 5 5 5 5 5 5 5 5 5 5 5 5 5
5 5 5 5 5 5 5 5 5 5 5 5 5 5 5 5 5 5 5 5
5 5 5 5 5 5 5 5 5 5 5 5 5 5 5 5 5 5 5 5
5 5 5 5 5 5 5 5 5 5 5 5 5 5 5 5 5 5 5 5
5 5 5 5 5 5 5 5 5 5 5 5 5 5 5 5 5 5 5 5
5 5 5 5 5 5 5 5 5 5 5 5 5 5 5 5 5 5 5 5
5 5 5 5 5 5 5 5 5 5 5 5 5 5 5 5 5 5 5 5
5 5 5 5 5 5 5 5 5 5 5 5 5 5 5 5 5 5 5 5
5 5 5 5 5 5 5 5 5 5 5 5 5 5 5 5 5 5 5 5
5 5 5 5 5 5 5 5 5 5 5 5 5 5 5 5 5 5 5 5
5 5 5 5 5 5 5 5 5 5 5 5 5 5 5 5 5 5 5 5
5 5 5 5 5 5 5 5 5 5 5 5 5 5 5 5 5 5 5 5
5 5 5 5 5 5 5 5 5 5 5 5 5 5 5 5 5 5 5 5
5 5 5 5 5 5 5 5 5 5 5 5 5 5 5 5 5 5 5 5
5 5 5 5 5 5 5 5 5 5

CELL_DATA 2170
FIELD FieldData 1
PATCH_IDS 1 2170 int
1 1 1 1 1 1 1 1 1 1 1 1 1 1 1 1 1 1 1 1
1 1 1 1 1 1 1 1 1 1 1 1 1 1 1 1 1 1 1 1
1 1 1 1 1 1 1 1 1 1 1 1 1 1 1 1 1 1 1 1
1 1 1 1 1 1 1 1 1 1 1 1 1 1 1 1 1 1 1 1
1 1 1 1 1 1 1 1 1 1 1 1 1 1 1 1 1 1 1 1
1 1 1 1 1 1 1 1 1 1 1 1 1 1 1 1 1 1 1 1
1 1 1 1 1 1 1 1 1 1 1 1 1 1 1 1 1 1 1 1
1 1 1 1 1 1 1 1 1 1 1 1 1 1 1 1 1 1 1 1
1 1 1 1 1 1 1 1 1 1 1 1 1 1 1 1 1 1 1 1
1 1 1 1 1 1 1 1 1 1 1 1 1 1 1 1 1 1 1 1
1 1 1 1 1 1 1 1 1 1 1 1 1 1 1 1 1 1 1 1
1 1 1 1 1 1 1 1 1 1 1 1 1 1 1 1 1 1 1 1
1 1 1 1 1 1 1 1 1 1 1 1 1 1 1 1 1 1 1 1
1 1 1 1 1 1 1 1 1 1 1 1 1 1 1 1 1 1 1 1
1 1 1 1 1 1 1 1 1 1 1 1 1 1 1 1 1 1 1 1
1 1 1 1 1 1 1 1 1 1 1 1 1 1 1 1 1 1 1 1
1 1 1 1 1 1 1 1 1 1 1 1 1 1 1 1 1 1 1 1
1 1 1 1 1 1 1 1 1 1 1 1 1 1 1 1 1 1 1 1
1 1 1 1 1 1 1 1 1 1 1 1 1 1 1 1 1 1 1 1
1 1 1 1 1 1 1 1 1 1 1 1 1 1 1 1 1 1 1 1
1 1 1 1 1 1 1 1 1 1 1 1 1 1 1 1 1 1 1 1
1 1 1 1 1 1 1 1 1 1 1 1 1 1 1 1 1 1 1 1
1 1 1 1 1 1 1 1 1 1 1 1 1 1 1 1 1 1 1 1
1 1 1 1 1 1 1 1 1 1 1 1 1 1 1 1 1 1 1 1
1 1 1 1 1 1 1 1 1 1 1 1 1 1 1 1 1 1 1 1
1 1 1 1 1 1 1 1 1 1 1 1 1 1 1 1 1 1 1 1
1 1 1 1 1 1 1 1 1 1 1 1 1 1 1 1 1 1 1 1
1 1 1 1 1 1 1 1 1 1 1 1 1 1 1 1 1 1 1 1
1 1 1 1 1 1 1 1 1 1 1 1 1 1 1 1 1 1 1 1
1 1 1 1 1 1 1 1 1 1 1 1 1 1 1 1 1 1 1 1
1 1 1 1 1 1 1 1 1 1 1 1 1 1 1 1 1 1 1 1
1 1 1 1 1 1 1 1 1 1 1 1 1 1 1 1 1 1 1 1
1 1 1 1 1 1 1 1 1 1 1 1 1 1 1 1 1 1 1 1
1 1 1 1 1 1 1 1 1 1 1 1 1 1 1 1 1 1 1 1
1 1 1 1 1 1 1 1 1 1 1 1 1 1 1 1 1 1 1 1
1 1 1 1 1 1 1 1 1 1 1 1 1 1 1 1 1 1 1 1
1 1 1 1 1 1 1 1 1 1 1 1 1 1 1 1 1 1 1 1
1 1 1 1 1 1 1 1 1 1 1 1 1 1 1 1 1 1 1 1
1 1 1 1 1 1 1 1 1 1 1 1 2 2 2 2 2 2 2 2
2 2 2 2 2 2 2 2 2 2 2 2 2 2 2 2 2 2 2 2
2 2 2 2 2 2 2 2 2 2 2 2 2 2 2 2 2 2 2 2
2 2 2 2 2 2 2 2 2 2 2 2 2 2 2 2 2 2 2 2
2 2 2 2 2 2 2 2 2 2 2 2 2 2 2 2 2 2 2 2
2 2 2 2 2 2 2 2 2 2 2 2 2 2 2 2 2 2 2 2
2 2 2 2 2 2 2 2 2 2 2 2 2 2 2 2 2 2 2 2
2 2 2 2 2 2 2 2 2 2 2 2 2 2 2 2 2 2 2 2
2 2 2 2 2 2 2 2 2 2 2 2 2 2 2 2 2 2 2 2
2 2 2 2 2 2 2 2 2 2 2 2 2 2 2 2 2 2 2 2
2 2 2 2 2 2 2 2 3 3 3 3 3 3 3 3 3 3 3 3
3 3 3 3 3 3 3 3 3 3 3 3 3 3 3 3 3 3 3 3
3 3 3 3 3 3 3 3 3 3 3 3 3 3 3 3 3 3 3 3
3 3 3 3 3 3 4 4 4 4 4 4 4 4 4 4 4 4 4 4
4 4 4 4 4 4 4 4 4 4 4 4 4 4 4 4 4 4 4 4
4 4 4 4 4 4 4 4 4 4 4 4 4 4 4 4 4 4 4 4
4 4 4 4 4 4 4 4 4 4 4 4 4 4 4 4 4 4 4 4
4 4 4 4 4 4 4 4 4 4 4 4 4 4 4 4 4 4 4 4
4 4 4 4 4 4 4 4 4 4 4 4 4 4 4 4 4 4 4 4
4 4 4 4 4 4 4 4 4 4 4 4 4 4 4 4 4 4 4 4
4 4 4 4 4 4 4 4 4 4 4 4 4 4 4 4 4 4 4 4
4 4 4 4 4 4 4 4 4 4 4 4 4 4 4 4 4 4 4 4
4 4 4 4 4 4 4 4 4 4 4 4 4 4 4 4 4 4 4 4
4 4 4 4 4 4 4 4 4 4 4 4 4 4 4 4 4 4 4 4
4 4 4 4 4 4 4 4 4 4 4 4 4 4 4 4 4 4 4 4
4 4 4 4 4 4 4 4 4 4 4 4 4 4 4 4 4 4 4 4
4 4 4 4 4 4 4 4 4 4 4 4 4 4 4 4 4 4 4 4
4 4 4 4 4 4 4 4 4 4 4 4 4 4 4 4 4 4 4 4
4 4 4 4 4 4 4 4 4 4 4 4 4 4 4 4 4 4 4 4
4 4 4 4 4 4 4 4 4 4 4 4 4 4 4 4 4 4 4 4
4 4 4 4 4 4 4 4 4 4 4 4 4 4 4 4 4 4 4 4
4 4 4 4 4 4 4 4 4 4 4 4 4 4 4 4 4 4 4 4
4 4 4 4 4 4 4 4 4 4 4 4 4 4 4 4 4 4 5 5
5 5 5 5 5 5 5 5 5 5 5 5 5 5 5 5 5 5 5 5
5 5 5 5 5 5 5 5 5 5 5 5 5 5 5 5 5 5 5 5
5 5 5 5 5 5 5 5 5 5 5 5 5 5 5 5 5 5 5 5
5 5 5 5 5 5 5 5 5 5 5 5 5 5 5 5 5 5 5 5
5 5 5 5 5 5 5 5 5 5 5 5 5 5 5 5 5 5 5 5
5 5 5 5 5 5 5 5 5 6 6 6 6 6 6 6 6 6 6 6
6 6 6 6 6 6 6 6 6 6 6 6 6 6 6 6 6 6 6 6
6 6 6 6 6 6 6 6 6 6 6 6 6 6 6 6 6 6 6 6
6 6 6 6 6 6 6 6 6 6 6 6 6 6 6 6 6 6 6 6
6 6 6 6 6 6 6 6 6 6 6 6 6 6 6 6 6 6 6 6
6 6 6 6 6 6 6 6 6 6 6 6 6 6 6 6 6 6 6 6
6 6 6 6 6 6 6 6 6 6 6 6 6 6 6 6 6 6 6 6
6 6 6 6 6 6 6 6 6 6 6 6 6 6 6 6 6 6 6 6
6 6 6 6 6 6 6 6 6 6 7 7 7 7 7 7 7 7 7 7
7 7 7 7 7 7 7 7 7 7 7 7 7 7 7 7 7 7 7 7
7 7 7 7 7 7 7 7 7 7 7 7 7 7 7 7 7 7 7 7
7 7 7 7 7 7 7 7 7 7 7 7 7 7 7 7 7 7 7 7
7 7 7 7 7 7 7 7 7 7 7 7 7 7 7 7 7 7 7 7
7 7 7 7 7 7 7 7 7 7 7 7 7 7 7 7 7 7 7 7
7 7 7 7 7 7 7 7 7 7 7 7 7 7 7 7 7 7 7 7
7 7 7 7 7 7 7 7 7 7 7 7 7 7 7 7 7 7 7 7
7 7 7 7 7 7 7 7 7 7 7 7 7 7 7 7 7 7 7 7
7 7 7 7 7 7 7 7 7 7 7 7 7 7 7 7 7 7 7 7
7 7 7 7 7 7 7 7 7 7 7 7 7 7 7 7 7 7 7 7
7 7 7 7 7 7 7 7 7 7 7 7 7 7 7 7 7 7 7 7
7 7 7 7 7 7 7 7 7 7 7 7 7 7 7 7 7 7 7 7
7 7 7 7 7 7 7 7 7 7 7 7 7 7 7 7 7 7 7 7
7 7 7 7 7 7 7 7 7 7 7 7 7 7 7 7 7 7 7 7
7 7 7 7 7 7 7 7 7 7 7 7 7 7 7 7 7 7 7 7
7 7 7 7 7 7 7 7 7 7 7 7 7 7 7 7 7 7 7 7
7 7 7 7 7 7 7 7 7 7 7 7 7 7 7 7 7 7 7 7
7 7 7 7 7 7 7 7 7 7 7 7 7 7 7 7 7 7 7 7
7 7 7 7 7 7 7 7 7 7 7 7 7 7 7 7 7 7 7 7
7 7 7 7 7 7 7 7 7 7 7 7 7 7 7 7 7 7 7 7
7 7 7 7 7 7 7 7 7 7 7 7 7 7 7 7 7 7 7 7
7 7 7 7 7 7 7 7 7 7 7 7 7 7 7 7 7 7 7 7
7 7 7 7 7 7 7 7 7 7 7 7 7 7 7 7 7 7 7 7
7 7 7 7 7 7 7 7 7 7 

