ISO-10303-21;
HEADER;
FILE_DESCRIPTION(('STEP AP242'),
    '1');
FILE_NAME('cross',
    '',
    ('UNSPECIFIED'),
    ('UNSPECIFIED'),
    'C3D Converter',
    'C3D Toolkit',
    '');
FILE_SCHEMA(('AP242_MANAGED_MODEL_BASED_3D_ENGINEERING_MIM_LF { 1 0 10303 442 1 1 4 }'));
ENDSEC;

DATA;
#1=PRODUCT_DEFINITION('','UNSPECIFIED',#39,#42);
#2=SHAPE_DEFINITION_REPRESENTATION(#37,#3);
#3=SHAPE_REPRESENTATION('NONE',(#4),#8);
#4=AXIS2_PLACEMENT_3D('',#5,#6,#7);
#5=CARTESIAN_POINT('',(0.,0.,0.));
#6=DIRECTION('',(0.,0.,1.));
#7=DIRECTION('',(1.,0.,0.));
#8=(GEOMETRIC_REPRESENTATION_CONTEXT(3)GLOBAL_UNCERTAINTY_ASSIGNED_CONTEXT((#10))
GLOBAL_UNIT_ASSIGNED_CONTEXT((#9,#11,#12))REPRESENTATION_CONTEXT('NONE','NONE'));
#9=(LENGTH_UNIT()NAMED_UNIT(*)SI_UNIT(.MILLI.,.METRE.));
#10=UNCERTAINTY_MEASURE_WITH_UNIT(LENGTH_MEASURE(1.E-5),#9,'NONE','NONE');
#11=(NAMED_UNIT(*)PLANE_ANGLE_UNIT()SI_UNIT($,.RADIAN.));
#12=(NAMED_UNIT(*)SI_UNIT($,.STERADIAN.)SOLID_ANGLE_UNIT());
#13=BREP_WITH_VOIDS('',#14,(#15));
#14=CLOSED_SHELL('',(#64,#65,#66,#67,#68,#69));
#15=ORIENTED_CLOSED_SHELL('',*,#70,.T.);
#16=COLOUR_RGB('',0.564705882352941,0.564705882352941,0.564705882352941);
#17=FILL_AREA_STYLE_COLOUR('',#16);
#18=FILL_AREA_STYLE($,(#17));
#19=SURFACE_STYLE_FILL_AREA(#18);
#20=SURFACE_SIDE_STYLE('',(#19));
#21=SURFACE_STYLE_USAGE(.BOTH.,#20);
#22=PRESENTATION_STYLE_ASSIGNMENT((#21));
#23=MECHANICAL_DESIGN_GEOMETRIC_PRESENTATION_REPRESENTATION('NONE',(#24,#34),#8);
#24=STYLED_ITEM('',(#22),#13);
#25=MANIFOLD_SOLID_BREP('',#26);
#26=CLOSED_SHELL('',(#71,#72));
#27=COLOUR_RGB('',0.564705882352941,0.564705882352941,0.564705882352941);
#28=FILL_AREA_STYLE_COLOUR('',#27);
#29=FILL_AREA_STYLE($,(#28));
#30=SURFACE_STYLE_FILL_AREA(#29);
#31=SURFACE_SIDE_STYLE('',(#30));
#32=SURFACE_STYLE_USAGE(.BOTH.,#31);
#33=PRESENTATION_STYLE_ASSIGNMENT((#32));
#34=STYLED_ITEM('',(#33),#25);
#35=ADVANCED_BREP_SHAPE_REPRESENTATION('NONE',(#13,#25),#8);
#36=SHAPE_REPRESENTATION_RELATIONSHIP('','',#3,#35);
#37=PRODUCT_DEFINITION_SHAPE('NONE','NONE',#1);
#38=MECHANICAL_CONTEXT('NONE',#43,'mechanical');
#39=PRODUCT_DEFINITION_FORMATION_WITH_SPECIFIED_SOURCE('ANY','UNSPECIFIED',#40,.NOT_KNOWN.);
#40=PRODUCT('','\X2\0414043504420430043B044C\X0\','NONE',(#38));
#41=PRODUCT_RELATED_PRODUCT_CATEGORY('detail','',(#40));
#42=DESIGN_CONTEXT('detailed design',#43,'design');
#43=APPLICATION_CONTEXT('configuration controlled 3d designs of mechanical parts and assemblies');
#44=APPLICATION_PROTOCOL_DEFINITION('international standard','config_control_design',
1994,#43);
#45=CC_DESIGN_DATE_AND_TIME_ASSIGNMENT(#46,#50,(#1));
#46=DATE_AND_TIME(#47,#48);
#47=CALENDAR_DATE(0,1,1);
#48=LOCAL_TIME(0,0,0.,#49);
#49=COORDINATED_UNIVERSAL_TIME_OFFSET(0,0,.AHEAD.);
#50=DATE_TIME_ROLE('creation_date');
#51=CC_DESIGN_APPROVAL(#52,(#1));
#52=APPROVAL(#53,'UNSPECIFIED');
#53=APPROVAL_STATUS('not_yet_approved');
#54=APPROVAL_DATE_TIME(#55,#52);
#55=DATE_AND_TIME(#56,#57);
#56=CALENDAR_DATE(0,1,1);
#57=LOCAL_TIME(0,0,0.,#58);
#58=COORDINATED_UNIVERSAL_TIME_OFFSET(0,0,.AHEAD.);
#59=PERSON('UNSPECIFIED','v.smetana','UNSPECIFIED',('UNSPECIFIED'),('UNSPECIFIED'),
('UNSPECIFIED'));
#60=ORGANIZATION('UNSPECIFIED','UNSPECIFIED','UNSPECIFIED');
#61=PERSON_AND_ORGANIZATION(#59,#60);
#62=PERSON_AND_ORGANIZATION_ROLE('creator');
#63=CC_DESIGN_PERSON_AND_ORGANIZATION_ASSIGNMENT(#61,#62,(#39,#1));
#64=ADVANCED_FACE('',(#73),#75,.T.);
#65=ADVANCED_FACE('',(#80),#82,.T.);
#66=ADVANCED_FACE('',(#87),#89,.T.);
#67=ADVANCED_FACE('',(#94),#96,.F.);
#68=ADVANCED_FACE('',(#101),#103,.T.);
#69=ADVANCED_FACE('',(#108),#110,.T.);
#70=CLOSED_SHELL('',(#115,#116,#117));
#71=ADVANCED_FACE('',(#118),#120,.T.);
#72=ADVANCED_FACE('',(#125),#127,.T.);
#73=FACE_BOUND('',#74,.T.);
#74=EDGE_LOOP('',(#132,#133,#134,#135));
#75=PLANE('',#76);
#76=AXIS2_PLACEMENT_3D('',#77,#78,#79);
#77=CARTESIAN_POINT('',(-83.3677054650321,-899935.499997348,0.));
#78=DIRECTION('',(-1.,1.22497567645041E-16,0.));
#79=DIRECTION('',(-1.22497567645041E-16,-1.,0.));
#80=FACE_BOUND('',#81,.T.);
#81=EDGE_LOOP('',(#136,#137,#138,#139));
#82=PLANE('',#83);
#83=AXIS2_PLACEMENT_3D('',#84,#85,#86);
#84=CARTESIAN_POINT('',(0.,0.,100000.));
#85=DIRECTION('',(0.,0.,1.));
#86=DIRECTION('',(-1.,1.22464679914735E-16,0.));
#87=FACE_BOUND('',#88,.T.);
#88=EDGE_LOOP('',(#140,#141,#142,#143));
#89=PLANE('',#90);
#90=AXIS2_PLACEMENT_3D('',#91,#92,#93);
#91=CARTESIAN_POINT('',(199916.632294535,-899935.499997348,0.));
#92=DIRECTION('',(0.,1.,0.));
#93=DIRECTION('',(-1.,0.,0.));
#94=FACE_BOUND('',#95,.T.);
#95=EDGE_LOOP('',(#144,#145,#146,#147));
#96=PLANE('',#97);
#97=AXIS2_PLACEMENT_3D('',#98,#99,#100);
#98=CARTESIAN_POINT('',(0.,0.,-100000.));
#99=DIRECTION('',(0.,0.,1.));
#100=DIRECTION('',(-1.,1.22464679914735E-16,0.));
#101=FACE_BOUND('',#102,.T.);
#102=EDGE_LOOP('',(#148,#149,#150,#151));
#103=PLANE('',#104);
#104=AXIS2_PLACEMENT_3D('',#105,#106,#107);
#105=CARTESIAN_POINT('',(-83.3677054650566,-1099935.49999735,0.));
#106=DIRECTION('',(0.,-1.,0.));
#107=DIRECTION('',(1.,0.,0.));
#108=FACE_BOUND('',#109,.T.);
#109=EDGE_LOOP('',(#152,#153,#154,#155));
#110=PLANE('',#111);
#111=AXIS2_PLACEMENT_3D('',#112,#113,#114);
#112=CARTESIAN_POINT('',(199916.632294535,-1099935.49999735,0.));
#113=DIRECTION('',(1.,-1.45519152283669E-16,0.));
#114=DIRECTION('',(1.45519152283669E-16,1.,0.));
#115=ADVANCED_FACE('',(#156),#158,.F.);
#116=ADVANCED_FACE('',(#163,#165),#167,.F.);
#117=ADVANCED_FACE('',(#172),#174,.F.);
#118=FACE_BOUND('',#119,.T.);
#119=EDGE_LOOP('',(#179,#180,#181,#182));
#120=PLANE('',#121);
#121=AXIS2_PLACEMENT_3D('',#122,#123,#124);
#122=CARTESIAN_POINT('',(0.,0.,0.));
#123=DIRECTION('',(0.,0.,1.));
#124=DIRECTION('',(-1.,1.22464679914735E-16,0.));
#125=FACE_BOUND('',#126,.T.);
#126=EDGE_LOOP('',(#183,#184,#185,#186));
#127=CYLINDRICAL_SURFACE('',#128,2.65170820057392E-6);
#128=AXIS2_PLACEMENT_3D('',#129,#130,#131);
#129=CARTESIAN_POINT('',(126315.82805872,-998935.499997348,0.));
#130=DIRECTION('',(-1.,0.,0.));
#131=DIRECTION('',(0.,-1.,0.));
#132=ORIENTED_EDGE('',*,*,#187,.F.);
#133=ORIENTED_EDGE('',*,*,#188,.T.);
#134=ORIENTED_EDGE('',*,*,#189,.T.);
#135=ORIENTED_EDGE('',*,*,#190,.F.);
#136=ORIENTED_EDGE('',*,*,#191,.T.);
#137=ORIENTED_EDGE('',*,*,#192,.T.);
#138=ORIENTED_EDGE('',*,*,#193,.T.);
#139=ORIENTED_EDGE('',*,*,#187,.T.);
#140=ORIENTED_EDGE('',*,*,#193,.F.);
#141=ORIENTED_EDGE('',*,*,#194,.T.);
#142=ORIENTED_EDGE('',*,*,#195,.T.);
#143=ORIENTED_EDGE('',*,*,#188,.F.);
#144=ORIENTED_EDGE('',*,*,#189,.F.);
#145=ORIENTED_EDGE('',*,*,#195,.F.);
#146=ORIENTED_EDGE('',*,*,#196,.F.);
#147=ORIENTED_EDGE('',*,*,#197,.F.);
#148=ORIENTED_EDGE('',*,*,#191,.F.);
#149=ORIENTED_EDGE('',*,*,#190,.T.);
#150=ORIENTED_EDGE('',*,*,#197,.T.);
#151=ORIENTED_EDGE('',*,*,#198,.F.);
#152=ORIENTED_EDGE('',*,*,#192,.F.);
#153=ORIENTED_EDGE('',*,*,#198,.T.);
#154=ORIENTED_EDGE('',*,*,#196,.T.);
#155=ORIENTED_EDGE('',*,*,#194,.F.);
#156=FACE_BOUND('',#157,.T.);
#157=EDGE_LOOP('',(#199));
#158=PLANE('',#159);
#159=AXIS2_PLACEMENT_3D('',#160,#161,#162);
#160=CARTESIAN_POINT('',(126315.82805872,-998935.499997348,0.));
#161=DIRECTION('',(1.,0.,0.));
#162=DIRECTION('',(0.,-1.,0.));
#163=FACE_OUTER_BOUND('',#164,.T.);
#164=EDGE_LOOP('',(#200));
#165=FACE_OUTER_BOUND('',#166,.T.);
#166=EDGE_LOOP('',(#201));
#167=CYLINDRICAL_SURFACE('',#168,2000.);
#168=AXIS2_PLACEMENT_3D('',#169,#170,#171);
#169=CARTESIAN_POINT('',(76315.8280586187,-998935.499997348,0.));
#170=DIRECTION('',(1.,0.,0.));
#171=DIRECTION('',(0.,-1.,0.));
#172=FACE_BOUND('',#173,.T.);
#173=EDGE_LOOP('',(#202));
#174=PLANE('',#175);
#175=AXIS2_PLACEMENT_3D('',#176,#177,#178);
#176=CARTESIAN_POINT('',(76315.8280586187,-998935.499997348,0.));
#177=DIRECTION('',(-1.,0.,0.));
#178=DIRECTION('',(0.,-1.,0.));
#179=ORIENTED_EDGE('',*,*,#203,.T.);
#180=ORIENTED_EDGE('',*,*,#204,.T.);
#181=ORIENTED_EDGE('',*,*,#205,.T.);
#182=ORIENTED_EDGE('',*,*,#206,.T.);
#183=ORIENTED_EDGE('',*,*,#203,.F.);
#184=ORIENTED_EDGE('',*,*,#207,.F.);
#185=ORIENTED_EDGE('',*,*,#208,.T.);
#186=ORIENTED_EDGE('',*,*,#209,.T.);
#187=EDGE_CURVE('',#210,#211,#212,.T.);
#188=EDGE_CURVE('',#210,#213,#214,.T.);
#189=EDGE_CURVE('',#213,#215,#216,.T.);
#190=EDGE_CURVE('',#211,#215,#217,.T.);
#191=EDGE_CURVE('',#211,#218,#219,.T.);
#192=EDGE_CURVE('',#218,#220,#221,.T.);
#193=EDGE_CURVE('',#220,#210,#222,.T.);
#194=EDGE_CURVE('',#220,#223,#224,.T.);
#195=EDGE_CURVE('',#223,#213,#225,.T.);
#196=EDGE_CURVE('',#226,#223,#227,.T.);
#197=EDGE_CURVE('',#215,#226,#228,.T.);
#198=EDGE_CURVE('',#218,#226,#229,.T.);
#199=ORIENTED_EDGE('',*,*,#230,.F.);
#200=ORIENTED_EDGE('',*,*,#230,.T.);
#201=ORIENTED_EDGE('',*,*,#231,.T.);
#202=ORIENTED_EDGE('',*,*,#231,.F.);
#203=EDGE_CURVE('',#232,#233,#234,.F.);
#204=EDGE_CURVE('',#233,#235,#236,.F.);
#205=EDGE_CURVE('',#235,#237,#238,.F.);
#206=EDGE_CURVE('',#237,#232,#239,.F.);
#207=EDGE_CURVE('',#232,#232,#240,.T.);
#208=EDGE_CURVE('',#232,#233,#241,.T.);
#209=EDGE_CURVE('',#233,#233,#242,.T.);
#210=VERTEX_POINT('',#243);
#211=VERTEX_POINT('',#244);
#212=LINE('',#245,#246);
#213=VERTEX_POINT('',#248);
#214=LINE('',#249,#250);
#215=VERTEX_POINT('',#252);
#216=LINE('',#253,#254);
#217=LINE('',#256,#257);
#218=VERTEX_POINT('',#259);
#219=LINE('',#260,#261);
#220=VERTEX_POINT('',#263);
#221=LINE('',#264,#265);
#222=LINE('',#267,#268);
#223=VERTEX_POINT('',#270);
#224=LINE('',#271,#272);
#225=LINE('',#274,#275);
#226=VERTEX_POINT('',#277);
#227=LINE('',#278,#279);
#228=LINE('',#281,#282);
#229=LINE('',#284,#285);
#230=EDGE_CURVE('',#287,#287,#288,.T.);
#231=EDGE_CURVE('',#289,#289,#290,.T.);
#232=VERTEX_POINT('',#291);
#233=VERTEX_POINT('',#292);
#234=LINE('',#293,#294);
#235=VERTEX_POINT('',#296);
#236=LINE('',#297,#298);
#237=VERTEX_POINT('',#300);
#238=LINE('',#301,#302);
#239=LINE('',#304,#305);
#240=CIRCLE('',#307,2.65170820057392E-6);
#241=LINE('',#311,#312);
#242=CIRCLE('',#314,2.65170820057392E-6);
#243=CARTESIAN_POINT('',(-83.3677054650321,-899935.499997348,100000.));
#244=CARTESIAN_POINT('',(-83.3677054650566,-1099935.49999735,100000.));
#245=CARTESIAN_POINT('',(-83.3677054650321,-899935.499997348,100000.));
#246=VECTOR('',#247,1.);
#247=DIRECTION('',(-1.22497567645041E-16,-1.,0.));
#248=CARTESIAN_POINT('',(-83.3677054650321,-899935.499997348,-100000.));
#249=CARTESIAN_POINT('',(-83.3677054650323,-899935.499997348,100000.));
#250=VECTOR('',#251,1.);
#251=DIRECTION('',(0.,0.,-1.));
#252=CARTESIAN_POINT('',(-83.3677054650566,-1099935.49999735,-100000.));
#253=CARTESIAN_POINT('',(-83.3677054650321,-899935.499997348,-100000.));
#254=VECTOR('',#255,1.);
#255=DIRECTION('',(-1.22497567645041E-16,-1.,0.));
#256=CARTESIAN_POINT('',(-83.3677054650566,-1099935.49999735,100000.));
#257=VECTOR('',#258,1.);
#258=DIRECTION('',(0.,0.,-1.));
#259=CARTESIAN_POINT('',(199916.632294535,-1099935.49999735,100000.));
#260=CARTESIAN_POINT('',(-83.3677054650566,-1099935.49999735,100000.));
#261=VECTOR('',#262,1.);
#262=DIRECTION('',(1.,0.,0.));
#263=CARTESIAN_POINT('',(199916.632294535,-899935.499997348,100000.));
#264=CARTESIAN_POINT('',(199916.632294535,-1099935.49999735,100000.));
#265=VECTOR('',#266,1.);
#266=DIRECTION('',(1.45519152283669E-16,1.,0.));
#267=CARTESIAN_POINT('',(199916.632294535,-899935.499997348,100000.));
#268=VECTOR('',#269,1.);
#269=DIRECTION('',(-1.,0.,0.));
#270=CARTESIAN_POINT('',(199916.632294535,-899935.499997348,-100000.));
#271=CARTESIAN_POINT('',(199916.632294535,-899935.499997348,100000.));
#272=VECTOR('',#273,1.);
#273=DIRECTION('',(0.,0.,-1.));
#274=CARTESIAN_POINT('',(199916.632294535,-899935.499997348,-100000.));
#275=VECTOR('',#276,1.);
#276=DIRECTION('',(-1.,0.,0.));
#277=CARTESIAN_POINT('',(199916.632294535,-1099935.49999735,-100000.));
#278=CARTESIAN_POINT('',(199916.632294535,-1099935.49999735,-100000.));
#279=VECTOR('',#280,1.);
#280=DIRECTION('',(1.45519152283669E-16,1.,0.));
#281=CARTESIAN_POINT('',(-83.3677054650566,-1099935.49999735,-100000.));
#282=VECTOR('',#283,1.);
#283=DIRECTION('',(1.,0.,0.));
#284=CARTESIAN_POINT('',(199916.632294535,-1099935.49999735,100000.));
#285=VECTOR('',#286,1.);
#286=DIRECTION('',(0.,0.,-1.));
#287=VERTEX_POINT('',#318);
#288=CIRCLE('',#319,2000.);
#289=VERTEX_POINT('',#323);
#290=CIRCLE('',#324,2000.);
#291=CARTESIAN_POINT('',(76315.8280586187,-998935.5,-3.24740596010564E-22));
#292=CARTESIAN_POINT('',(126315.82805872,-998935.5,-3.24740596010564E-22));
#293=CARTESIAN_POINT('',(126315.82805872,-998935.5,-3.24740596010564E-22));
#294=VECTOR('',#295,1.);
#295=DIRECTION('',(-1.,0.,0.));
#296=CARTESIAN_POINT('',(126315.828058669,-996935.499997348,-1.22464679914735E-13));
#297=CARTESIAN_POINT('',(126315.82805872,-996935.499997348,0.));
#298=VECTOR('',#299,1.);
#299=DIRECTION('',(0.,-1.,0.));
#300=CARTESIAN_POINT('',(76315.8280586187,-996935.499997348,-1.22464679914735E-13));
#301=CARTESIAN_POINT('',(76315.8280586187,-996935.499997348,-1.22464679914735E-13));
#302=VECTOR('',#303,1.);
#303=DIRECTION('',(1.,0.,0.));
#304=CARTESIAN_POINT('',(76315.8280586187,-998935.5,0.));
#305=VECTOR('',#306,1.);
#306=DIRECTION('',(0.,1.,0.));
#307=AXIS2_PLACEMENT_3D('',#308,#309,#310);
#308=CARTESIAN_POINT('',(76315.8280586187,-998935.499997348,0.));
#309=DIRECTION('',(-1.,0.,0.));
#310=DIRECTION('',(0.,-1.,0.));
#311=CARTESIAN_POINT('',(76315.8280586187,-998935.5,0.));
#312=VECTOR('',#313,1.);
#313=DIRECTION('',(1.,0.,0.));
#314=AXIS2_PLACEMENT_3D('',#315,#316,#317);
#315=CARTESIAN_POINT('',(126315.82805872,-998935.499997348,0.));
#316=DIRECTION('',(-1.,0.,0.));
#317=DIRECTION('',(0.,-1.,0.));
#318=CARTESIAN_POINT('',(126315.828058652,-1000935.49999735,2.44929359829471E-13));
#319=AXIS2_PLACEMENT_3D('',#320,#321,#322);
#320=CARTESIAN_POINT('',(126315.82805872,-998935.499997348,0.));
#321=DIRECTION('',(1.,0.,0.));
#322=DIRECTION('',(0.,-1.,0.));
#323=CARTESIAN_POINT('',(76315.8280586187,-1000935.49999735,1.63286239886314E-13));
#324=AXIS2_PLACEMENT_3D('',#325,#326,#327);
#325=CARTESIAN_POINT('',(76315.8280586187,-998935.499997348,0.));
#326=DIRECTION('',(-1.,0.,0.));
#327=DIRECTION('',(0.,-1.,0.));
ENDSEC;
END-ISO-10303-21;
