ISO-10303-21;
HEADER;
FILE_DESCRIPTION(('STEP AP242'),
    '1');
FILE_NAME('Деталь',
    '',
    ('UNSPECIFIED'),
    ('UNSPECIFIED'),
    'C3D Converter',
    'C3D Toolkit',
    '');
FILE_SCHEMA(('AP242_MANAGED_MODEL_BASED_3D_ENGINEERING_MIM_LF { 1 0 10303 442 1 1 4 }'));
ENDSEC;

DATA;
#1=PRODUCT_DEFINITION('','UNSPECIFIED',#29,#32);
#2=SHAPE_DEFINITION_REPRESENTATION(#27,#3);
#3=SHAPE_REPRESENTATION('NONE',(#4),#8);
#4=AXIS2_PLACEMENT_3D('',#5,#6,#7);
#5=CARTESIAN_POINT('',(0.,0.,0.));
#6=DIRECTION('',(0.,0.,1.));
#7=DIRECTION('',(1.,0.,0.));
#8=(GEOMETRIC_REPRESENTATION_CONTEXT(3)GLOBAL_UNCERTAINTY_ASSIGNED_CONTEXT((#10))
GLOBAL_UNIT_ASSIGNED_CONTEXT((#9,#11,#12))REPRESENTATION_CONTEXT('NONE','NONE'));
#9=(LENGTH_UNIT()NAMED_UNIT(*)SI_UNIT(.MILLI.,.METRE.));
#10=UNCERTAINTY_MEASURE_WITH_UNIT(LENGTH_MEASURE(1.E-5),#9,'NONE','NONE');
#11=(NAMED_UNIT(*)PLANE_ANGLE_UNIT()SI_UNIT($,.RADIAN.));
#12=(NAMED_UNIT(*)SI_UNIT($,.STERADIAN.)SOLID_ANGLE_UNIT());
#13=BREP_WITH_VOIDS('',#14,(#15));
#14=CLOSED_SHELL('',(#54,#55,#56,#57,#58,#59));
#15=ORIENTED_CLOSED_SHELL('',*,#60,.T.);
#16=COLOUR_RGB('',0.564705882352941,0.564705882352941,0.564705882352941);
#17=FILL_AREA_STYLE_COLOUR('',#16);
#18=FILL_AREA_STYLE($,(#17));
#19=SURFACE_STYLE_FILL_AREA(#18);
#20=SURFACE_SIDE_STYLE('',(#19));
#21=SURFACE_STYLE_USAGE(.BOTH.,#20);
#22=PRESENTATION_STYLE_ASSIGNMENT((#21));
#23=MECHANICAL_DESIGN_GEOMETRIC_PRESENTATION_REPRESENTATION('NONE',(#24),#8);
#24=STYLED_ITEM('',(#22),#13);
#25=ADVANCED_BREP_SHAPE_REPRESENTATION('NONE',(#13),#8);
#26=SHAPE_REPRESENTATION_RELATIONSHIP('','',#3,#25);
#27=PRODUCT_DEFINITION_SHAPE('NONE','NONE',#1);
#28=MECHANICAL_CONTEXT('NONE',#33,'mechanical');
#29=PRODUCT_DEFINITION_FORMATION_WITH_SPECIFIED_SOURCE('ANY','UNSPECIFIED',#30,.NOT_KNOWN.);
#30=PRODUCT('','\X2\0414043504420430043B044C\X0\','NONE',(#28));
#31=PRODUCT_RELATED_PRODUCT_CATEGORY('detail','',(#30));
#32=DESIGN_CONTEXT('detailed design',#33,'design');
#33=APPLICATION_CONTEXT('configuration controlled 3d designs of mechanical parts and assemblies');
#34=APPLICATION_PROTOCOL_DEFINITION('international standard','config_control_design',
1994,#33);
#35=CC_DESIGN_DATE_AND_TIME_ASSIGNMENT(#36,#40,(#1));
#36=DATE_AND_TIME(#37,#38);
#37=CALENDAR_DATE(0,1,1);
#38=LOCAL_TIME(0,0,0.,#39);
#39=COORDINATED_UNIVERSAL_TIME_OFFSET(0,0,.AHEAD.);
#40=DATE_TIME_ROLE('creation_date');
#41=CC_DESIGN_APPROVAL(#42,(#1));
#42=APPROVAL(#43,'UNSPECIFIED');
#43=APPROVAL_STATUS('not_yet_approved');
#44=APPROVAL_DATE_TIME(#45,#42);
#45=DATE_AND_TIME(#46,#47);
#46=CALENDAR_DATE(0,1,1);
#47=LOCAL_TIME(0,0,0.,#48);
#48=COORDINATED_UNIVERSAL_TIME_OFFSET(0,0,.AHEAD.);
#49=PERSON('UNSPECIFIED','v.smetana','UNSPECIFIED',('UNSPECIFIED'),('UNSPECIFIED'),
('UNSPECIFIED'));
#50=ORGANIZATION('UNSPECIFIED','UNSPECIFIED','UNSPECIFIED');
#51=PERSON_AND_ORGANIZATION(#49,#50);
#52=PERSON_AND_ORGANIZATION_ROLE('creator');
#53=CC_DESIGN_PERSON_AND_ORGANIZATION_ASSIGNMENT(#51,#52,(#29,#1));
#54=ADVANCED_FACE('',(#61),#63,.T.);
#55=ADVANCED_FACE('',(#68),#70,.T.);
#56=ADVANCED_FACE('',(#75),#77,.T.);
#57=ADVANCED_FACE('',(#82),#84,.T.);
#58=ADVANCED_FACE('',(#89),#91,.T.);
#59=ADVANCED_FACE('',(#96),#98,.F.);
#60=CLOSED_SHELL('',(#103));
#61=FACE_BOUND('',#62,.T.);
#62=EDGE_LOOP('',(#104,#105,#106,#107));
#63=PLANE('',#64);
#64=AXIS2_PLACEMENT_3D('',#65,#66,#67);
#65=CARTESIAN_POINT('',(-280.745376298582,229.225407009423,200.));
#66=DIRECTION('',(0.,1.,0.));
#67=DIRECTION('',(1.,0.,9.8858119757927E-17));
#68=FACE_BOUND('',#69,.T.);
#69=EDGE_LOOP('',(#108,#109,#110,#111));
#70=PLANE('',#71);
#71=AXIS2_PLACEMENT_3D('',#72,#73,#74);
#72=CARTESIAN_POINT('',(294.254623701418,229.225407009423,200.));
#73=DIRECTION('',(1.,0.,0.));
#74=DIRECTION('',(0.,-1.,0.));
#75=FACE_BOUND('',#76,.T.);
#76=EDGE_LOOP('',(#112,#113,#114,#115));
#77=PLANE('',#78);
#78=AXIS2_PLACEMENT_3D('',#79,#80,#81);
#79=CARTESIAN_POINT('',(294.254623701418,-258.774592990577,200.));
#80=DIRECTION('',(0.,-1.,0.));
#81=DIRECTION('',(-1.,0.,-9.8858119757927E-17));
#82=FACE_BOUND('',#83,.T.);
#83=EDGE_LOOP('',(#116,#117,#118,#119));
#84=PLANE('',#85);
#85=AXIS2_PLACEMENT_3D('',#86,#87,#88);
#86=CARTESIAN_POINT('',(-280.745376298582,-258.774592990577,200.));
#87=DIRECTION('',(-1.,0.,0.));
#88=DIRECTION('',(0.,1.,0.));
#89=FACE_BOUND('',#90,.T.);
#90=EDGE_LOOP('',(#120,#121,#122,#123));
#91=PLANE('',#92);
#92=AXIS2_PLACEMENT_3D('',#93,#94,#95);
#93=CARTESIAN_POINT('',(2.44929359829471E-14,0.,-200.));
#94=DIRECTION('',(1.22464679914735E-16,0.,-1.));
#95=DIRECTION('',(-1.,0.,-1.22464679914735E-16));
#96=FACE_BOUND('',#97,.T.);
#97=EDGE_LOOP('',(#124,#125,#126,#127));
#98=PLANE('',#99);
#99=AXIS2_PLACEMENT_3D('',#100,#101,#102);
#100=CARTESIAN_POINT('',(-2.44929359829471E-14,0.,200.));
#101=DIRECTION('',(1.22464679914735E-16,0.,-1.));
#102=DIRECTION('',(-1.,0.,-1.22464679914735E-16));
#103=ADVANCED_FACE('',(),#128,.F.);
#104=ORIENTED_EDGE('',*,*,#133,.T.);
#105=ORIENTED_EDGE('',*,*,#134,.T.);
#106=ORIENTED_EDGE('',*,*,#135,.F.);
#107=ORIENTED_EDGE('',*,*,#136,.F.);
#108=ORIENTED_EDGE('',*,*,#137,.T.);
#109=ORIENTED_EDGE('',*,*,#138,.T.);
#110=ORIENTED_EDGE('',*,*,#139,.F.);
#111=ORIENTED_EDGE('',*,*,#134,.F.);
#112=ORIENTED_EDGE('',*,*,#140,.T.);
#113=ORIENTED_EDGE('',*,*,#141,.T.);
#114=ORIENTED_EDGE('',*,*,#142,.F.);
#115=ORIENTED_EDGE('',*,*,#138,.F.);
#116=ORIENTED_EDGE('',*,*,#143,.T.);
#117=ORIENTED_EDGE('',*,*,#136,.T.);
#118=ORIENTED_EDGE('',*,*,#144,.F.);
#119=ORIENTED_EDGE('',*,*,#141,.F.);
#120=ORIENTED_EDGE('',*,*,#135,.T.);
#121=ORIENTED_EDGE('',*,*,#139,.T.);
#122=ORIENTED_EDGE('',*,*,#142,.T.);
#123=ORIENTED_EDGE('',*,*,#144,.T.);
#124=ORIENTED_EDGE('',*,*,#143,.F.);
#125=ORIENTED_EDGE('',*,*,#140,.F.);
#126=ORIENTED_EDGE('',*,*,#137,.F.);
#127=ORIENTED_EDGE('',*,*,#133,.F.);
#128=SPHERICAL_SURFACE('',#129,50.);
#129=AXIS2_PLACEMENT_3D('',#130,#131,#132);
#130=CARTESIAN_POINT('',(3.06161699786838E-15,3.94430452610506E-31,0.));
#131=DIRECTION('',(1.22464679914735E-16,-6.12323399573676E-17,1.));
#132=DIRECTION('',(-1.,-1.22464679914735E-16,1.22464679914735E-16));
#133=EDGE_CURVE('',#145,#146,#147,.T.);
#134=EDGE_CURVE('',#146,#148,#149,.T.);
#135=EDGE_CURVE('',#150,#148,#151,.T.);
#136=EDGE_CURVE('',#145,#150,#152,.T.);
#137=EDGE_CURVE('',#146,#153,#154,.T.);
#138=EDGE_CURVE('',#153,#155,#156,.T.);
#139=EDGE_CURVE('',#148,#155,#157,.T.);
#140=EDGE_CURVE('',#153,#158,#159,.T.);
#141=EDGE_CURVE('',#158,#160,#161,.T.);
#142=EDGE_CURVE('',#155,#160,#162,.T.);
#143=EDGE_CURVE('',#158,#145,#163,.T.);
#144=EDGE_CURVE('',#160,#150,#164,.T.);
#145=VERTEX_POINT('',#165);
#146=VERTEX_POINT('',#166);
#147=LINE('',#167,#168);
#148=VERTEX_POINT('',#170);
#149=LINE('',#171,#172);
#150=VERTEX_POINT('',#174);
#151=LINE('',#175,#176);
#152=LINE('',#178,#179);
#153=VERTEX_POINT('',#181);
#154=LINE('',#182,#183);
#155=VERTEX_POINT('',#185);
#156=LINE('',#186,#187);
#157=LINE('',#189,#190);
#158=VERTEX_POINT('',#192);
#159=LINE('',#193,#194);
#160=VERTEX_POINT('',#196);
#161=LINE('',#197,#198);
#162=LINE('',#200,#201);
#163=LINE('',#203,#204);
#164=LINE('',#206,#207);
#165=CARTESIAN_POINT('',(-280.745376298582,229.225407009423,200.));
#166=CARTESIAN_POINT('',(294.254623701418,229.225407009423,200.));
#167=CARTESIAN_POINT('',(-280.745376298582,229.225407009423,200.));
#168=VECTOR('',#169,1.);
#169=DIRECTION('',(1.,0.,9.8858119757927E-17));
#170=CARTESIAN_POINT('',(294.254623701418,229.225407009423,-200.));
#171=CARTESIAN_POINT('',(294.254623701418,229.225407009423,200.));
#172=VECTOR('',#173,1.);
#173=DIRECTION('',(0.,0.,-1.));
#174=CARTESIAN_POINT('',(-280.745376298582,229.225407009423,-200.));
#175=CARTESIAN_POINT('',(-280.745376298582,229.225407009423,-200.));
#176=VECTOR('',#177,1.);
#177=DIRECTION('',(1.,0.,9.8858119757927E-17));
#178=CARTESIAN_POINT('',(-280.745376298582,229.225407009423,200.));
#179=VECTOR('',#180,1.);
#180=DIRECTION('',(0.,0.,-1.));
#181=CARTESIAN_POINT('',(294.254623701418,-258.774592990577,200.));
#182=CARTESIAN_POINT('',(294.254623701418,229.225407009423,200.));
#183=VECTOR('',#184,1.);
#184=DIRECTION('',(0.,-1.,0.));
#185=CARTESIAN_POINT('',(294.254623701418,-258.774592990577,-200.));
#186=CARTESIAN_POINT('',(294.254623701418,-258.774592990577,200.));
#187=VECTOR('',#188,1.);
#188=DIRECTION('',(0.,0.,-1.));
#189=CARTESIAN_POINT('',(294.254623701418,229.225407009423,-200.));
#190=VECTOR('',#191,1.);
#191=DIRECTION('',(0.,-1.,0.));
#192=CARTESIAN_POINT('',(-280.745376298582,-258.774592990577,200.));
#193=CARTESIAN_POINT('',(294.254623701418,-258.774592990577,200.));
#194=VECTOR('',#195,1.);
#195=DIRECTION('',(-1.,0.,-9.8858119757927E-17));
#196=CARTESIAN_POINT('',(-280.745376298582,-258.774592990577,-200.));
#197=CARTESIAN_POINT('',(-280.745376298582,-258.774592990577,200.));
#198=VECTOR('',#199,1.);
#199=DIRECTION('',(0.,0.,-1.));
#200=CARTESIAN_POINT('',(294.254623701418,-258.774592990577,-200.));
#201=VECTOR('',#202,1.);
#202=DIRECTION('',(-1.,0.,-9.8858119757927E-17));
#203=CARTESIAN_POINT('',(-280.745376298582,-258.774592990577,200.));
#204=VECTOR('',#205,1.);
#205=DIRECTION('',(0.,1.,0.));
#206=CARTESIAN_POINT('',(-280.745376298582,-258.774592990577,-200.));
#207=VECTOR('',#208,1.);
#208=DIRECTION('',(0.,1.,0.));
ENDSEC;
END-ISO-10303-21;
