ISO-10303-21;
HEADER;
FILE_DESCRIPTION(('STEP AP242'),
    '1');
FILE_NAME('falcon',
    '',
    ('UNSPECIFIED'),
    ('UNSPECIFIED'),
    'C3D Converter',
    'C3D Toolkit',
    '');
FILE_SCHEMA(('AP242_MANAGED_MODEL_BASED_3D_ENGINEERING_MIM_LF { 1 0 10303 442 1 1 4 }'));
ENDSEC;

DATA;
#1=PRODUCT_DEFINITION('','UNSPECIFIED',#29,#32);
#2=SHAPE_DEFINITION_REPRESENTATION(#27,#3);
#3=SHAPE_REPRESENTATION('NONE',(#4),#8);
#4=AXIS2_PLACEMENT_3D('',#5,#6,#7);
#5=CARTESIAN_POINT('',(0.,0.,0.));
#6=DIRECTION('',(0.,0.,1.));
#7=DIRECTION('',(1.,0.,0.));
#8=(GEOMETRIC_REPRESENTATION_CONTEXT(3)GLOBAL_UNCERTAINTY_ASSIGNED_CONTEXT((#10))
GLOBAL_UNIT_ASSIGNED_CONTEXT((#9,#11,#12))REPRESENTATION_CONTEXT('NONE','NONE'));
#9=(LENGTH_UNIT()NAMED_UNIT(*)SI_UNIT(.MILLI.,.METRE.));
#10=UNCERTAINTY_MEASURE_WITH_UNIT(LENGTH_MEASURE(1.E-5),#9,'NONE','NONE');
#11=(NAMED_UNIT(*)PLANE_ANGLE_UNIT()SI_UNIT($,.RADIAN.));
#12=(NAMED_UNIT(*)SI_UNIT($,.STERADIAN.)SOLID_ANGLE_UNIT());
#13=BREP_WITH_VOIDS('',#14,(#15));
#14=CLOSED_SHELL('',(#54,#55,#56,#57,#58,#59));
#15=ORIENTED_CLOSED_SHELL('',*,#60,.T.);
#16=COLOUR_RGB('',0.564705882352941,0.564705882352941,0.564705882352941);
#17=FILL_AREA_STYLE_COLOUR('',#16);
#18=FILL_AREA_STYLE($,(#17));
#19=SURFACE_STYLE_FILL_AREA(#18);
#20=SURFACE_SIDE_STYLE('',(#19));
#21=SURFACE_STYLE_USAGE(.BOTH.,#20);
#22=PRESENTATION_STYLE_ASSIGNMENT((#21));
#23=MECHANICAL_DESIGN_GEOMETRIC_PRESENTATION_REPRESENTATION('NONE',(#24),#8);
#24=STYLED_ITEM('',(#22),#13);
#25=ADVANCED_BREP_SHAPE_REPRESENTATION('NONE',(#13),#8);
#26=SHAPE_REPRESENTATION_RELATIONSHIP('','',#3,#25);
#27=PRODUCT_DEFINITION_SHAPE('NONE','NONE',#1);
#28=MECHANICAL_CONTEXT('NONE',#33,'mechanical');
#29=PRODUCT_DEFINITION_FORMATION_WITH_SPECIFIED_SOURCE('ANY','UNSPECIFIED',#30,.NOT_KNOWN.);
#30=PRODUCT('','\X2\0414043504420430043B044C\X0\','NONE',(#28));
#31=PRODUCT_RELATED_PRODUCT_CATEGORY('detail','',(#30));
#32=DESIGN_CONTEXT('detailed design',#33,'design');
#33=APPLICATION_CONTEXT('configuration controlled 3d designs of mechanical parts and assemblies');
#34=APPLICATION_PROTOCOL_DEFINITION('international standard','config_control_design',
1994,#33);
#35=CC_DESIGN_DATE_AND_TIME_ASSIGNMENT(#36,#40,(#1));
#36=DATE_AND_TIME(#37,#38);
#37=CALENDAR_DATE(0,1,1);
#38=LOCAL_TIME(0,0,0.,#39);
#39=COORDINATED_UNIVERSAL_TIME_OFFSET(0,0,.AHEAD.);
#40=DATE_TIME_ROLE('creation_date');
#41=CC_DESIGN_APPROVAL(#42,(#1));
#42=APPROVAL(#43,'UNSPECIFIED');
#43=APPROVAL_STATUS('not_yet_approved');
#44=APPROVAL_DATE_TIME(#45,#42);
#45=DATE_AND_TIME(#46,#47);
#46=CALENDAR_DATE(0,1,1);
#47=LOCAL_TIME(0,0,0.,#48);
#48=COORDINATED_UNIVERSAL_TIME_OFFSET(0,0,.AHEAD.);
#49=PERSON('UNSPECIFIED','v.smetana','UNSPECIFIED',('UNSPECIFIED'),('UNSPECIFIED'),
('UNSPECIFIED'));
#50=ORGANIZATION('UNSPECIFIED','UNSPECIFIED','UNSPECIFIED');
#51=PERSON_AND_ORGANIZATION(#49,#50);
#52=PERSON_AND_ORGANIZATION_ROLE('creator');
#53=CC_DESIGN_PERSON_AND_ORGANIZATION_ASSIGNMENT(#51,#52,(#29,#1));
#54=ADVANCED_FACE('',(#61),#63,.T.);
#55=ADVANCED_FACE('',(#68),#70,.T.);
#56=ADVANCED_FACE('',(#75),#77,.T.);
#57=ADVANCED_FACE('',(#82),#84,.F.);
#58=ADVANCED_FACE('',(#89),#91,.T.);
#59=ADVANCED_FACE('',(#96),#98,.T.);
#60=CLOSED_SHELL('',(#103,#104,#105,#106));
#61=FACE_BOUND('',#62,.T.);
#62=EDGE_LOOP('',(#107,#108,#109,#110));
#63=PLANE('',#64);
#64=AXIS2_PLACEMENT_3D('',#65,#66,#67);
#65=CARTESIAN_POINT('',(-83.3677054650321,-899935.499997348,0.));
#66=DIRECTION('',(-1.,1.22497567645041E-16,0.));
#67=DIRECTION('',(-1.22497567645041E-16,-1.,0.));
#68=FACE_BOUND('',#69,.T.);
#69=EDGE_LOOP('',(#111,#112,#113,#114));
#70=PLANE('',#71);
#71=AXIS2_PLACEMENT_3D('',#72,#73,#74);
#72=CARTESIAN_POINT('',(0.,0.,100000.));
#73=DIRECTION('',(0.,0.,1.));
#74=DIRECTION('',(-1.,1.22464679914735E-16,0.));
#75=FACE_BOUND('',#76,.T.);
#76=EDGE_LOOP('',(#115,#116,#117,#118));
#77=PLANE('',#78);
#78=AXIS2_PLACEMENT_3D('',#79,#80,#81);
#79=CARTESIAN_POINT('',(199916.632294535,-899935.499997348,0.));
#80=DIRECTION('',(0.,1.,0.));
#81=DIRECTION('',(-1.,0.,0.));
#82=FACE_BOUND('',#83,.T.);
#83=EDGE_LOOP('',(#119,#120,#121,#122));
#84=PLANE('',#85);
#85=AXIS2_PLACEMENT_3D('',#86,#87,#88);
#86=CARTESIAN_POINT('',(0.,0.,-100000.));
#87=DIRECTION('',(0.,0.,1.));
#88=DIRECTION('',(-1.,1.22464679914735E-16,0.));
#89=FACE_BOUND('',#90,.T.);
#90=EDGE_LOOP('',(#123,#124,#125,#126));
#91=PLANE('',#92);
#92=AXIS2_PLACEMENT_3D('',#93,#94,#95);
#93=CARTESIAN_POINT('',(-83.3677054650566,-1099935.49999735,0.));
#94=DIRECTION('',(0.,-1.,0.));
#95=DIRECTION('',(1.,0.,0.));
#96=FACE_BOUND('',#97,.T.);
#97=EDGE_LOOP('',(#127,#128,#129,#130));
#98=PLANE('',#99);
#99=AXIS2_PLACEMENT_3D('',#100,#101,#102);
#100=CARTESIAN_POINT('',(199916.632294535,-1099935.49999735,0.));
#101=DIRECTION('',(1.,-1.45519152283669E-16,0.));
#102=DIRECTION('',(1.45519152283669E-16,1.,0.));
#103=ADVANCED_FACE('',(#131),#133,.T.);
#104=ADVANCED_FACE('',(#138,#140),#142,.F.);
#105=ADVANCED_FACE('',(#147,#149),#151,.F.);
#106=ADVANCED_FACE('',(#156),#158,.F.);
#107=ORIENTED_EDGE('',*,*,#163,.F.);
#108=ORIENTED_EDGE('',*,*,#164,.T.);
#109=ORIENTED_EDGE('',*,*,#165,.T.);
#110=ORIENTED_EDGE('',*,*,#166,.F.);
#111=ORIENTED_EDGE('',*,*,#167,.T.);
#112=ORIENTED_EDGE('',*,*,#168,.T.);
#113=ORIENTED_EDGE('',*,*,#169,.T.);
#114=ORIENTED_EDGE('',*,*,#163,.T.);
#115=ORIENTED_EDGE('',*,*,#169,.F.);
#116=ORIENTED_EDGE('',*,*,#170,.T.);
#117=ORIENTED_EDGE('',*,*,#171,.T.);
#118=ORIENTED_EDGE('',*,*,#164,.F.);
#119=ORIENTED_EDGE('',*,*,#165,.F.);
#120=ORIENTED_EDGE('',*,*,#171,.F.);
#121=ORIENTED_EDGE('',*,*,#172,.F.);
#122=ORIENTED_EDGE('',*,*,#173,.F.);
#123=ORIENTED_EDGE('',*,*,#167,.F.);
#124=ORIENTED_EDGE('',*,*,#166,.T.);
#125=ORIENTED_EDGE('',*,*,#173,.T.);
#126=ORIENTED_EDGE('',*,*,#174,.F.);
#127=ORIENTED_EDGE('',*,*,#168,.F.);
#128=ORIENTED_EDGE('',*,*,#174,.T.);
#129=ORIENTED_EDGE('',*,*,#172,.T.);
#130=ORIENTED_EDGE('',*,*,#170,.F.);
#131=FACE_OUTER_BOUND('',#132,.T.);
#132=EDGE_LOOP('',(#175));
#133=DEGENERATE_TOROIDAL_SURFACE('',#134,22752.7651229275,25414.9065475721,.F.);
#134=AXIS2_PLACEMENT_3D('',#135,#136,#137);
#135=CARTESIAN_POINT('',(87639.6593043905,-999085.499997348,0.));
#136=DIRECTION('',(1.,0.,0.));
#137=DIRECTION('',(0.,-1.,0.));
#138=FACE_OUTER_BOUND('',#139,.T.);
#139=EDGE_LOOP('',(#176));
#140=FACE_OUTER_BOUND('',#141,.T.);
#141=EDGE_LOOP('',(#177));
#142=CONICAL_SURFACE('',#143,2225.,0.743197172113852);
#143=AXIS2_PLACEMENT_3D('',#144,#145,#146);
#144=CARTESIAN_POINT('',(89823.8938424812,-999085.499997348,0.));
#145=DIRECTION('',(-1.,0.,0.));
#146=DIRECTION('',(0.,1.,0.));
#147=FACE_OUTER_BOUND('',#148,.T.);
#148=EDGE_LOOP('',(#178));
#149=FACE_OUTER_BOUND('',#150,.T.);
#150=EDGE_LOOP('',(#179));
#151=CYLINDRICAL_SURFACE('',#152,1850.);
#152=AXIS2_PLACEMENT_3D('',#153,#154,#155);
#153=CARTESIAN_POINT('',(90231.9596263437,-999085.499997348,0.));
#154=DIRECTION('',(1.,0.,0.));
#155=DIRECTION('',(0.,-1.,0.));
#156=FACE_BOUND('',#157,.T.);
#157=EDGE_LOOP('',(#180));
#158=PLANE('',#159);
#159=AXIS2_PLACEMENT_3D('',#160,#161,#162);
#160=CARTESIAN_POINT('',(146315.828058619,-999085.499997348,0.));
#161=DIRECTION('',(1.,0.,0.));
#162=DIRECTION('',(0.,-1.,0.));
#163=EDGE_CURVE('',#181,#182,#183,.T.);
#164=EDGE_CURVE('',#181,#184,#185,.T.);
#165=EDGE_CURVE('',#184,#186,#187,.T.);
#166=EDGE_CURVE('',#182,#186,#188,.T.);
#167=EDGE_CURVE('',#182,#189,#190,.T.);
#168=EDGE_CURVE('',#189,#191,#192,.T.);
#169=EDGE_CURVE('',#191,#181,#193,.T.);
#170=EDGE_CURVE('',#191,#194,#195,.T.);
#171=EDGE_CURVE('',#194,#184,#196,.T.);
#172=EDGE_CURVE('',#197,#194,#198,.T.);
#173=EDGE_CURVE('',#186,#197,#199,.T.);
#174=EDGE_CURVE('',#189,#197,#200,.T.);
#175=ORIENTED_EDGE('',*,*,#201,.F.);
#176=ORIENTED_EDGE('',*,*,#202,.F.);
#177=ORIENTED_EDGE('',*,*,#201,.T.);
#178=ORIENTED_EDGE('',*,*,#203,.F.);
#179=ORIENTED_EDGE('',*,*,#202,.T.);
#180=ORIENTED_EDGE('',*,*,#203,.T.);
#181=VERTEX_POINT('',#204);
#182=VERTEX_POINT('',#205);
#183=LINE('',#206,#207);
#184=VERTEX_POINT('',#209);
#185=LINE('',#210,#211);
#186=VERTEX_POINT('',#213);
#187=LINE('',#214,#215);
#188=LINE('',#217,#218);
#189=VERTEX_POINT('',#220);
#190=LINE('',#221,#222);
#191=VERTEX_POINT('',#224);
#192=LINE('',#225,#226);
#193=LINE('',#228,#229);
#194=VERTEX_POINT('',#231);
#195=LINE('',#232,#233);
#196=LINE('',#235,#236);
#197=VERTEX_POINT('',#238);
#198=LINE('',#239,#240);
#199=LINE('',#242,#243);
#200=LINE('',#245,#246);
#201=EDGE_CURVE('',#248,#248,#249,.T.);
#202=EDGE_CURVE('',#250,#250,#251,.T.);
#203=EDGE_CURVE('',#252,#252,#253,.T.);
#204=CARTESIAN_POINT('',(-83.3677054650321,-899935.499997348,100000.));
#205=CARTESIAN_POINT('',(-83.3677054650566,-1099935.49999735,100000.));
#206=CARTESIAN_POINT('',(-83.3677054650321,-899935.499997348,100000.));
#207=VECTOR('',#208,1.);
#208=DIRECTION('',(-1.22497567645041E-16,-1.,0.));
#209=CARTESIAN_POINT('',(-83.3677054650321,-899935.499997348,-100000.));
#210=CARTESIAN_POINT('',(-83.3677054650323,-899935.499997348,100000.));
#211=VECTOR('',#212,1.);
#212=DIRECTION('',(0.,0.,-1.));
#213=CARTESIAN_POINT('',(-83.3677054650566,-1099935.49999735,-100000.));
#214=CARTESIAN_POINT('',(-83.3677054650321,-899935.499997348,-100000.));
#215=VECTOR('',#216,1.);
#216=DIRECTION('',(-1.22497567645041E-16,-1.,0.));
#217=CARTESIAN_POINT('',(-83.3677054650566,-1099935.49999735,100000.));
#218=VECTOR('',#219,1.);
#219=DIRECTION('',(0.,0.,-1.));
#220=CARTESIAN_POINT('',(199916.632294535,-1099935.49999735,100000.));
#221=CARTESIAN_POINT('',(-83.3677054650566,-1099935.49999735,100000.));
#222=VECTOR('',#223,1.);
#223=DIRECTION('',(1.,0.,0.));
#224=CARTESIAN_POINT('',(199916.632294535,-899935.499997348,100000.));
#225=CARTESIAN_POINT('',(199916.632294535,-1099935.49999735,100000.));
#226=VECTOR('',#227,1.);
#227=DIRECTION('',(1.45519152283669E-16,1.,0.));
#228=CARTESIAN_POINT('',(199916.632294535,-899935.499997348,100000.));
#229=VECTOR('',#230,1.);
#230=DIRECTION('',(-1.,0.,0.));
#231=CARTESIAN_POINT('',(199916.632294535,-899935.499997348,-100000.));
#232=CARTESIAN_POINT('',(199916.632294535,-899935.499997348,100000.));
#233=VECTOR('',#234,1.);
#234=DIRECTION('',(0.,0.,-1.));
#235=CARTESIAN_POINT('',(199916.632294535,-899935.499997348,-100000.));
#236=VECTOR('',#237,1.);
#237=DIRECTION('',(-1.,0.,0.));
#238=CARTESIAN_POINT('',(199916.632294535,-1099935.49999735,-100000.));
#239=CARTESIAN_POINT('',(199916.632294535,-1099935.49999735,-100000.));
#240=VECTOR('',#241,1.);
#241=DIRECTION('',(1.45519152283669E-16,1.,0.));
#242=CARTESIAN_POINT('',(-83.3677054650566,-1099935.49999735,-100000.));
#243=VECTOR('',#244,1.);
#244=DIRECTION('',(1.,0.,0.));
#245=CARTESIAN_POINT('',(199916.632294535,-1099935.49999735,100000.));
#246=VECTOR('',#247,1.);
#247=DIRECTION('',(0.,0.,-1.));
#248=VERTEX_POINT('',#254);
#249=CIRCLE('',#255,2600.);
#250=VERTEX_POINT('',#259);
#251=CIRCLE('',#260,1850.);
#252=VERTEX_POINT('',#264);
#253=CIRCLE('',#265,1850.);
#254=CARTESIAN_POINT('',(89415.8280586186,-1001685.49999735,2.97501813757711E-14));
#255=AXIS2_PLACEMENT_3D('',#256,#257,#258);
#256=CARTESIAN_POINT('',(89415.8280586186,-999085.499997348,0.));
#257=DIRECTION('',(-1.,0.,0.));
#258=DIRECTION('',(0.,-1.,2.44929359829471E-16));
#259=CARTESIAN_POINT('',(90231.9596263437,-1000935.49999735,-1.84222861269048E-13));
#260=AXIS2_PLACEMENT_3D('',#261,#262,#263);
#261=CARTESIAN_POINT('',(90231.9596263437,-999085.499997348,0.));
#262=DIRECTION('',(-1.,0.,0.));
#263=DIRECTION('',(0.,-1.,2.44929359829471E-16));
#264=CARTESIAN_POINT('',(146315.828058619,-1000935.49999735,-1.98335126793452E-13));
#265=AXIS2_PLACEMENT_3D('',#266,#267,#268);
#266=CARTESIAN_POINT('',(146315.828058619,-999085.499997348,0.));
#267=DIRECTION('',(-1.,0.,0.));
#268=DIRECTION('',(0.,-1.,0.));
ENDSEC;
END-ISO-10303-21;
