ISO-10303-21;
HEADER;
FILE_DESCRIPTION(('STEP AP242'),
    '1');
FILE_NAME('ננכ',
    '',
    ('UNSPECIFIED'),
    ('UNSPECIFIED'),
    'C3D Converter',
    'C3D Toolkit',
    '');
FILE_SCHEMA(('AP242_MANAGED_MODEL_BASED_3D_ENGINEERING_MIM_LF { 1 0 10303 442 1 1 4 }'));
ENDSEC;

DATA;
#1=PRODUCT_DEFINITION('','UNSPECIFIED',#28,#31);
#2=SHAPE_DEFINITION_REPRESENTATION(#26,#3);
#3=SHAPE_REPRESENTATION('NONE',(#4),#8);
#4=AXIS2_PLACEMENT_3D('',#5,#6,#7);
#5=CARTESIAN_POINT('',(0.,0.,0.));
#6=DIRECTION('',(0.,0.,1.));
#7=DIRECTION('',(1.,0.,0.));
#8=(GEOMETRIC_REPRESENTATION_CONTEXT(3)GLOBAL_UNCERTAINTY_ASSIGNED_CONTEXT((#10))
GLOBAL_UNIT_ASSIGNED_CONTEXT((#9,#11,#12))REPRESENTATION_CONTEXT('NONE','NONE'));
#9=(LENGTH_UNIT()NAMED_UNIT(*)SI_UNIT(.MILLI.,.METRE.));
#10=UNCERTAINTY_MEASURE_WITH_UNIT(LENGTH_MEASURE(1.E-5),#9,'NONE','NONE');
#11=(NAMED_UNIT(*)PLANE_ANGLE_UNIT()SI_UNIT($,.RADIAN.));
#12=(NAMED_UNIT(*)SI_UNIT($,.STERADIAN.)SOLID_ANGLE_UNIT());
#13=MANIFOLD_SOLID_BREP('',#14);
#14=CLOSED_SHELL('',(#53,#54,#55,#56));
#15=COLOUR_RGB('',0.564705882352941,0.564705882352941,0.564705882352941);
#16=FILL_AREA_STYLE_COLOUR('',#15);
#17=FILL_AREA_STYLE($,(#16));
#18=SURFACE_STYLE_FILL_AREA(#17);
#19=SURFACE_SIDE_STYLE('',(#18));
#20=SURFACE_STYLE_USAGE(.BOTH.,#19);
#21=PRESENTATION_STYLE_ASSIGNMENT((#20));
#22=MECHANICAL_DESIGN_GEOMETRIC_PRESENTATION_REPRESENTATION('NONE',(#23),#8);
#23=STYLED_ITEM('',(#21),#13);
#24=ADVANCED_BREP_SHAPE_REPRESENTATION('NONE',(#13),#8);
#25=SHAPE_REPRESENTATION_RELATIONSHIP('','',#3,#24);
#26=PRODUCT_DEFINITION_SHAPE('NONE','NONE',#1);
#27=MECHANICAL_CONTEXT('NONE',#32,'mechanical');
#28=PRODUCT_DEFINITION_FORMATION_WITH_SPECIFIED_SOURCE('ANY','UNSPECIFIED',#29,.NOT_KNOWN.);
#29=PRODUCT('','\X2\0414043504420430043B044C\X0\','NONE',(#27));
#30=PRODUCT_RELATED_PRODUCT_CATEGORY('detail','',(#29));
#31=DESIGN_CONTEXT('detailed design',#32,'design');
#32=APPLICATION_CONTEXT('configuration controlled 3d designs of mechanical parts and assemblies');
#33=APPLICATION_PROTOCOL_DEFINITION('international standard','config_control_design',
1994,#32);
#34=CC_DESIGN_DATE_AND_TIME_ASSIGNMENT(#35,#39,(#1));
#35=DATE_AND_TIME(#36,#37);
#36=CALENDAR_DATE(0,1,1);
#37=LOCAL_TIME(0,0,0.,#38);
#38=COORDINATED_UNIVERSAL_TIME_OFFSET(0,0,.AHEAD.);
#39=DATE_TIME_ROLE('creation_date');
#40=CC_DESIGN_APPROVAL(#41,(#1));
#41=APPROVAL(#42,'UNSPECIFIED');
#42=APPROVAL_STATUS('not_yet_approved');
#43=APPROVAL_DATE_TIME(#44,#41);
#44=DATE_AND_TIME(#45,#46);
#45=CALENDAR_DATE(0,1,1);
#46=LOCAL_TIME(0,0,0.,#47);
#47=COORDINATED_UNIVERSAL_TIME_OFFSET(0,0,.AHEAD.);
#48=PERSON('UNSPECIFIED','v.smetana','UNSPECIFIED',('UNSPECIFIED'),('UNSPECIFIED'),
('UNSPECIFIED'));
#49=ORGANIZATION('UNSPECIFIED','UNSPECIFIED','UNSPECIFIED');
#50=PERSON_AND_ORGANIZATION(#48,#49);
#51=PERSON_AND_ORGANIZATION_ROLE('creator');
#52=CC_DESIGN_PERSON_AND_ORGANIZATION_ASSIGNMENT(#50,#51,(#28,#1));
#53=ADVANCED_FACE('',(#57),#59,.T.);
#54=ADVANCED_FACE('',(#64,#66),#68,.T.);
#55=ADVANCED_FACE('',(#73,#75),#77,.T.);
#56=ADVANCED_FACE('',(#82),#84,.F.);
#57=FACE_BOUND('',#58,.T.);
#58=EDGE_LOOP('',(#89));
#59=PLANE('',#60);
#60=AXIS2_PLACEMENT_3D('',#61,#62,#63);
#61=CARTESIAN_POINT('',(36204.4797711049,-1.74512168878498E-13,2850.));
#62=DIRECTION('',(1.,-1.40642629959403E-32,2.27373675443232E-16));
#63=DIRECTION('',(2.27373675443232E-16,6.12323399573677E-17,-1.));
#64=FACE_OUTER_BOUND('',#65,.T.);
#65=EDGE_LOOP('',(#90));
#66=FACE_OUTER_BOUND('',#67,.T.);
#67=EDGE_LOOP('',(#91));
#68=CYLINDRICAL_SURFACE('',#69,1849.99999999999);
#69=AXIS2_PLACEMENT_3D('',#70,#71,#72);
#70=CARTESIAN_POINT('',(-19895.5202288951,-1.74512168878497E-13,2849.99999999999));
#71=DIRECTION('',(1.,-1.40642629959403E-32,2.27373675443232E-16));
#72=DIRECTION('',(2.27373675443232E-16,6.12323399573677E-17,-1.));
#73=FACE_OUTER_BOUND('',#74,.T.);
#74=EDGE_LOOP('',(#92));
#75=FACE_OUTER_BOUND('',#76,.T.);
#76=EDGE_LOOP('',(#93));
#77=CONICAL_SURFACE('',#78,2225.,0.753151280962194);
#78=AXIS2_PLACEMENT_3D('',#79,#80,#81);
#79=CARTESIAN_POINT('',(-20295.5202288951,-1.74512168878497E-13,2849.99999999999));
#80=DIRECTION('',(-1.,1.40642629959403E-32,-2.27373675443232E-16));
#81=DIRECTION('',(-2.27373675443232E-16,-6.12323399573676E-17,1.));
#82=FACE_OUTER_BOUND('',#83,.T.);
#83=EDGE_LOOP('',(#94));
#84=DEGENERATE_TOROIDAL_SURFACE('',#85,26273.5687092352,28893.6623639643,.F.);
#85=AXIS2_PLACEMENT_3D('',#86,#87,#88);
#86=CARTESIAN_POINT('',(-21772.9035385125,-1.74512168878497E-13,2849.99999999999));
#87=DIRECTION('',(1.,-1.40642629959403E-32,2.27373675443232E-16));
#88=DIRECTION('',(2.27373675443232E-16,6.12323399573676E-17,-1.));
#89=ORIENTED_EDGE('',*,*,#95,.T.);
#90=ORIENTED_EDGE('',*,*,#95,.F.);
#91=ORIENTED_EDGE('',*,*,#96,.T.);
#92=ORIENTED_EDGE('',*,*,#96,.F.);
#93=ORIENTED_EDGE('',*,*,#97,.T.);
#94=ORIENTED_EDGE('',*,*,#97,.F.);
#95=EDGE_CURVE('',#98,#98,#99,.T.);
#96=EDGE_CURVE('',#100,#100,#101,.T.);
#97=EDGE_CURVE('',#102,#102,#103,.T.);
#98=VERTEX_POINT('',#104);
#99=CIRCLE('',#105,1850.);
#100=VERTEX_POINT('',#109);
#101=CIRCLE('',#110,1849.99999999999);
#102=VERTEX_POINT('',#114);
#103=CIRCLE('',#115,2600.);
#104=CARTESIAN_POINT('',(36204.4797711049,-6.12323399573679E-14,1000.));
#105=AXIS2_PLACEMENT_3D('',#106,#107,#108);
#106=CARTESIAN_POINT('',(36204.4797711049,-1.74512168878498E-13,2850.));
#107=DIRECTION('',(1.,-1.40642629959403E-32,2.27373675443232E-16));
#108=DIRECTION('',(2.27373675443232E-16,6.12323399573677E-17,-1.));
#109=CARTESIAN_POINT('',(-19895.5202288951,-6.12323399573675E-14,999.999999999998));
#110=AXIS2_PLACEMENT_3D('',#111,#112,#113);
#111=CARTESIAN_POINT('',(-19895.5202288951,-1.74512168878497E-13,2849.99999999999));
#112=DIRECTION('',(1.,-1.40642629959403E-32,2.27373675443232E-16));
#113=DIRECTION('',(2.27373675443232E-16,6.12323399573677E-17,-1.));
#114=CARTESIAN_POINT('',(-20695.5202288951,-1.53080849893415E-14,249.999999999994));
#115=AXIS2_PLACEMENT_3D('',#116,#117,#118);
#116=CARTESIAN_POINT('',(-20695.5202288951,-1.74512168878497E-13,2849.99999999999));
#117=DIRECTION('',(1.,-1.40642629959403E-32,2.27373675443232E-16));
#118=DIRECTION('',(2.27373675443232E-16,6.12323399573676E-17,-1.));
ENDSEC;
END-ISO-10303-21;
