ISO-10303-21;
HEADER;
FILE_DESCRIPTION(('STEP AP242'),
    '1');
FILE_NAME('Деталь',
    '',
    ('UNSPECIFIED'),
    ('UNSPECIFIED'),
    'C3D Converter',
    'C3D Toolkit',
    '');
FILE_SCHEMA(('AP242_MANAGED_MODEL_BASED_3D_ENGINEERING_MIM_LF { 1 0 10303 442 1 1 4 }'));
ENDSEC;

DATA;
#1=PRODUCT_DEFINITION('','UNSPECIFIED',#28,#31);
#2=SHAPE_DEFINITION_REPRESENTATION(#26,#3);
#3=SHAPE_REPRESENTATION('NONE',(#4),#8);
#4=AXIS2_PLACEMENT_3D('',#5,#6,#7);
#5=CARTESIAN_POINT('',(0.,0.,0.));
#6=DIRECTION('',(0.,0.,1.));
#7=DIRECTION('',(1.,0.,0.));
#8=(GEOMETRIC_REPRESENTATION_CONTEXT(3)GLOBAL_UNCERTAINTY_ASSIGNED_CONTEXT((#10))
GLOBAL_UNIT_ASSIGNED_CONTEXT((#9,#11,#12))REPRESENTATION_CONTEXT('NONE','NONE'));
#9=(LENGTH_UNIT()NAMED_UNIT(*)SI_UNIT(.MILLI.,.METRE.));
#10=UNCERTAINTY_MEASURE_WITH_UNIT(LENGTH_MEASURE(1.E-5),#9,'NONE','NONE');
#11=(NAMED_UNIT(*)PLANE_ANGLE_UNIT()SI_UNIT($,.RADIAN.));
#12=(NAMED_UNIT(*)SI_UNIT($,.STERADIAN.)SOLID_ANGLE_UNIT());
#13=MANIFOLD_SOLID_BREP('',#14);
#14=CLOSED_SHELL('',(#53,#54,#55,#56));
#15=COLOUR_RGB('',0.564705882352941,0.564705882352941,0.564705882352941);
#16=FILL_AREA_STYLE_COLOUR('',#15);
#17=FILL_AREA_STYLE($,(#16));
#18=SURFACE_STYLE_FILL_AREA(#17);
#19=SURFACE_SIDE_STYLE('',(#18));
#20=SURFACE_STYLE_USAGE(.BOTH.,#19);
#21=PRESENTATION_STYLE_ASSIGNMENT((#20));
#22=MECHANICAL_DESIGN_GEOMETRIC_PRESENTATION_REPRESENTATION('NONE',(#23),#8);
#23=STYLED_ITEM('',(#21),#13);
#24=ADVANCED_BREP_SHAPE_REPRESENTATION('NONE',(#13),#8);
#25=SHAPE_REPRESENTATION_RELATIONSHIP('','',#3,#24);
#26=PRODUCT_DEFINITION_SHAPE('NONE','NONE',#1);
#27=MECHANICAL_CONTEXT('NONE',#32,'mechanical');
#28=PRODUCT_DEFINITION_FORMATION_WITH_SPECIFIED_SOURCE('ANY','UNSPECIFIED',#29,.NOT_KNOWN.);
#29=PRODUCT('','\X2\0414043504420430043B044C\X0\','NONE',(#27));
#30=PRODUCT_RELATED_PRODUCT_CATEGORY('detail','',(#29));
#31=DESIGN_CONTEXT('detailed design',#32,'design');
#32=APPLICATION_CONTEXT('configuration controlled 3d designs of mechanical parts and assemblies');
#33=APPLICATION_PROTOCOL_DEFINITION('international standard','config_control_design',
1994,#32);
#34=CC_DESIGN_DATE_AND_TIME_ASSIGNMENT(#35,#39,(#1));
#35=DATE_AND_TIME(#36,#37);
#36=CALENDAR_DATE(0,1,1);
#37=LOCAL_TIME(0,0,0.,#38);
#38=COORDINATED_UNIVERSAL_TIME_OFFSET(0,0,.AHEAD.);
#39=DATE_TIME_ROLE('creation_date');
#40=CC_DESIGN_APPROVAL(#41,(#1));
#41=APPROVAL(#42,'UNSPECIFIED');
#42=APPROVAL_STATUS('not_yet_approved');
#43=APPROVAL_DATE_TIME(#44,#41);
#44=DATE_AND_TIME(#45,#46);
#45=CALENDAR_DATE(0,1,1);
#46=LOCAL_TIME(0,0,0.,#47);
#47=COORDINATED_UNIVERSAL_TIME_OFFSET(0,0,.AHEAD.);
#48=PERSON('UNSPECIFIED','v.smetana','UNSPECIFIED',('UNSPECIFIED'),('UNSPECIFIED'),
('UNSPECIFIED'));
#49=ORGANIZATION('UNSPECIFIED','UNSPECIFIED','UNSPECIFIED');
#50=PERSON_AND_ORGANIZATION(#48,#49);
#51=PERSON_AND_ORGANIZATION_ROLE('creator');
#52=CC_DESIGN_PERSON_AND_ORGANIZATION_ASSIGNMENT(#50,#51,(#28,#1));
#53=ADVANCED_FACE('',(#57),#59,.T.);
#54=ADVANCED_FACE('',(#64),#66,.T.);
#55=ADVANCED_FACE('',(#71),#73,.T.);
#56=ADVANCED_FACE('',(#78),#80,.F.);
#57=FACE_BOUND('',#58,.T.);
#58=EDGE_LOOP('',(#85,#86,#87,#88));
#59=PLANE('',#60);
#60=AXIS2_PLACEMENT_3D('',#61,#62,#63);
#61=CARTESIAN_POINT('',(50.,-3.74939945665464E-31,6.12323399573677E-15));
#62=DIRECTION('',(1.22464679914735E-16,6.12323399573677E-17,-1.));
#63=DIRECTION('',(-1.,7.49879891330929E-33,-1.22464679914735E-16));
#64=FACE_BOUND('',#65,.T.);
#65=EDGE_LOOP('',(#89,#90,#91,#92));
#66=CYLINDRICAL_SURFACE('',#67,95.9999999999999);
#67=AXIS2_PLACEMENT_3D('',#68,#69,#70);
#68=CARTESIAN_POINT('',(9.14794966854038E-15,5.01806404412025E-15,-81.9512049941914));
#69=DIRECTION('',(0.,1.,6.12323399573677E-17));
#70=DIRECTION('',(-0.520833333333334,-5.2271500459586E-17,0.853658385356161));
#71=FACE_BOUND('',#72,.T.);
#72=EDGE_LOOP('',(#93,#94));
#73=PLANE('',#74);
#74=AXIS2_PLACEMENT_3D('',#75,#76,#77);
#75=CARTESIAN_POINT('',(0.,100.,6.12323399573677E-15));
#76=DIRECTION('',(0.,1.,6.12323399573677E-17));
#77=DIRECTION('',(-1.,7.49879891330929E-33,-1.22464679914735E-16));
#78=FACE_BOUND('',#79,.T.);
#79=EDGE_LOOP('',(#95,#96));
#80=PLANE('',#81);
#81=AXIS2_PLACEMENT_3D('',#82,#83,#84);
#82=CARTESIAN_POINT('',(0.,0.,0.));
#83=DIRECTION('',(0.,1.,6.12323399573677E-17));
#84=DIRECTION('',(-1.,7.49879891330929E-33,-1.22464679914735E-16));
#85=ORIENTED_EDGE('',*,*,#97,.T.);
#86=ORIENTED_EDGE('',*,*,#98,.T.);
#87=ORIENTED_EDGE('',*,*,#99,.F.);
#88=ORIENTED_EDGE('',*,*,#100,.F.);
#89=ORIENTED_EDGE('',*,*,#101,.T.);
#90=ORIENTED_EDGE('',*,*,#100,.T.);
#91=ORIENTED_EDGE('',*,*,#102,.F.);
#92=ORIENTED_EDGE('',*,*,#98,.F.);
#93=ORIENTED_EDGE('',*,*,#99,.T.);
#94=ORIENTED_EDGE('',*,*,#102,.T.);
#95=ORIENTED_EDGE('',*,*,#101,.F.);
#96=ORIENTED_EDGE('',*,*,#97,.F.);
#97=EDGE_CURVE('',#103,#104,#105,.T.);
#98=EDGE_CURVE('',#104,#106,#107,.T.);
#99=EDGE_CURVE('',#108,#106,#109,.T.);
#100=EDGE_CURVE('',#103,#108,#110,.T.);
#101=EDGE_CURVE('',#104,#103,#111,.T.);
#102=EDGE_CURVE('',#106,#108,#112,.T.);
#103=VERTEX_POINT('',#113);
#104=VERTEX_POINT('',#114);
#105=LINE('',#115,#116);
#106=VERTEX_POINT('',#118);
#107=LINE('',#119,#120);
#108=VERTEX_POINT('',#122);
#109=LINE('',#123,#124);
#110=LINE('',#126,#127);
#111=CIRCLE('',#129,95.9999999999999);
#112=CIRCLE('',#133,95.9999999999999);
#113=CARTESIAN_POINT('',(50.,6.01419978375407E-32,-9.82193361864235E-16));
#114=CARTESIAN_POINT('',(-50.,3.74939945665464E-31,-6.12323399573676E-15));
#115=CARTESIAN_POINT('',(50.,-3.74939945665464E-31,6.12323399573677E-15));
#116=VECTOR('',#117,1.);
#117=DIRECTION('',(-1.,7.49879891330929E-33,-1.22464679914735E-16));
#118=CARTESIAN_POINT('',(-50.,100.,3.94430452610506E-31));
#119=CARTESIAN_POINT('',(-50.,1.87469972832732E-31,-3.06161699786838E-15));
#120=VECTOR('',#121,1.);
#121=DIRECTION('',(0.,1.,3.06161699786838E-17));
#122=CARTESIAN_POINT('',(50.,100.,5.14104063387253E-15));
#123=CARTESIAN_POINT('',(50.,100.,1.22464679914735E-14));
#124=VECTOR('',#125,1.);
#125=DIRECTION('',(-1.,0.,-1.22464679914735E-16));
#126=CARTESIAN_POINT('',(50.,-1.87469972832732E-31,3.06161699786838E-15));
#127=VECTOR('',#128,1.);
#128=DIRECTION('',(0.,1.,3.06161699786838E-17));
#129=AXIS2_PLACEMENT_3D('',#130,#131,#132);
#130=CARTESIAN_POINT('',(9.14794966854038E-15,5.01806404412025E-15,-81.9512049941914));
#131=DIRECTION('',(0.,1.,6.12323399573677E-17));
#132=DIRECTION('',(-0.520833333333334,-5.2271500459586E-17,0.853658385356161));
#133=AXIS2_PLACEMENT_3D('',#134,#135,#136);
#134=CARTESIAN_POINT('',(9.14794966854038E-15,100.,-81.9512049941914));
#135=DIRECTION('',(0.,1.,6.12323399573677E-17));
#136=DIRECTION('',(-0.520833333333334,-5.2271500459586E-17,0.853658385356161));
ENDSEC;
END-ISO-10303-21;
