ISO-10303-21;
HEADER;
FILE_DESCRIPTION(('STEP AP242'),
    '1');
FILE_NAME('Круг',
    '',
    ('UNSPECIFIED'),
    ('UNSPECIFIED'),
    'C3D Converter',
    'C3D Toolkit',
    '');
FILE_SCHEMA(('AP242_MANAGED_MODEL_BASED_3D_ENGINEERING_MIM_LF { 1 0 10303 442 1 1 4 }'));
ENDSEC;

DATA;
#1=PRODUCT_DEFINITION('','UNSPECIFIED',#28,#31);
#2=SHAPE_DEFINITION_REPRESENTATION(#26,#3);
#3=SHAPE_REPRESENTATION('NONE',(#4),#8);
#4=AXIS2_PLACEMENT_3D('',#5,#6,#7);
#5=CARTESIAN_POINT('',(0.,0.,0.));
#6=DIRECTION('',(0.,0.,1.));
#7=DIRECTION('',(1.,0.,0.));
#8=(GEOMETRIC_REPRESENTATION_CONTEXT(3)GLOBAL_UNCERTAINTY_ASSIGNED_CONTEXT((#10))
GLOBAL_UNIT_ASSIGNED_CONTEXT((#9,#11,#12))REPRESENTATION_CONTEXT('NONE','NONE'));
#9=(LENGTH_UNIT()NAMED_UNIT(*)SI_UNIT(.MILLI.,.METRE.));
#10=UNCERTAINTY_MEASURE_WITH_UNIT(LENGTH_MEASURE(1.E-5),#9,'NONE','NONE');
#11=(NAMED_UNIT(*)PLANE_ANGLE_UNIT()SI_UNIT($,.RADIAN.));
#12=(NAMED_UNIT(*)SI_UNIT($,.STERADIAN.)SOLID_ANGLE_UNIT());
#13=MANIFOLD_SOLID_BREP('',#14);
#14=CLOSED_SHELL('',(#53,#54,#55,#56,#57,#58,#59));
#15=COLOUR_RGB('',0.564705882352941,0.564705882352941,0.564705882352941);
#16=FILL_AREA_STYLE_COLOUR('',#15);
#17=FILL_AREA_STYLE($,(#16));
#18=SURFACE_STYLE_FILL_AREA(#17);
#19=SURFACE_SIDE_STYLE('',(#18));
#20=SURFACE_STYLE_USAGE(.BOTH.,#19);
#21=PRESENTATION_STYLE_ASSIGNMENT((#20));
#22=MECHANICAL_DESIGN_GEOMETRIC_PRESENTATION_REPRESENTATION('NONE',(#23),#8);
#23=STYLED_ITEM('',(#21),#13);
#24=ADVANCED_BREP_SHAPE_REPRESENTATION('NONE',(#13),#8);
#25=SHAPE_REPRESENTATION_RELATIONSHIP('','',#3,#24);
#26=PRODUCT_DEFINITION_SHAPE('NONE','NONE',#1);
#27=MECHANICAL_CONTEXT('NONE',#32,'mechanical');
#28=PRODUCT_DEFINITION_FORMATION_WITH_SPECIFIED_SOURCE('ANY','UNSPECIFIED',#29,.NOT_KNOWN.);
#29=PRODUCT('','\X2\0414043504420430043B044C\X0\','NONE',(#27));
#30=PRODUCT_RELATED_PRODUCT_CATEGORY('detail','',(#29));
#31=DESIGN_CONTEXT('detailed design',#32,'design');
#32=APPLICATION_CONTEXT('configuration controlled 3d designs of mechanical parts and assemblies');
#33=APPLICATION_PROTOCOL_DEFINITION('international standard','config_control_design',
1994,#32);
#34=CC_DESIGN_DATE_AND_TIME_ASSIGNMENT(#35,#39,(#1));
#35=DATE_AND_TIME(#36,#37);
#36=CALENDAR_DATE(0,1,1);
#37=LOCAL_TIME(0,0,0.,#38);
#38=COORDINATED_UNIVERSAL_TIME_OFFSET(0,0,.AHEAD.);
#39=DATE_TIME_ROLE('creation_date');
#40=CC_DESIGN_APPROVAL(#41,(#1));
#41=APPROVAL(#42,'UNSPECIFIED');
#42=APPROVAL_STATUS('not_yet_approved');
#43=APPROVAL_DATE_TIME(#44,#41);
#44=DATE_AND_TIME(#45,#46);
#45=CALENDAR_DATE(0,1,1);
#46=LOCAL_TIME(0,0,0.,#47);
#47=COORDINATED_UNIVERSAL_TIME_OFFSET(0,0,.AHEAD.);
#48=PERSON('UNSPECIFIED','v.smetana','UNSPECIFIED',('UNSPECIFIED'),('UNSPECIFIED'),
('UNSPECIFIED'));
#49=ORGANIZATION('UNSPECIFIED','UNSPECIFIED','UNSPECIFIED');
#50=PERSON_AND_ORGANIZATION(#48,#49);
#51=PERSON_AND_ORGANIZATION_ROLE('creator');
#52=CC_DESIGN_PERSON_AND_ORGANIZATION_ASSIGNMENT(#50,#51,(#28,#1));
#53=ADVANCED_FACE('',(#60,#62),#64,.F.);
#54=ADVANCED_FACE('',(#69,#71),#73,.T.);
#55=ADVANCED_FACE('',(#78,#80),#82,.F.);
#56=ADVANCED_FACE('',(#87),#89,.T.);
#57=ADVANCED_FACE('',(#94),#96,.T.);
#58=ADVANCED_FACE('',(#101),#103,.T.);
#59=ADVANCED_FACE('',(#108),#110,.T.);
#60=FACE_BOUND('',#61,.T.);
#61=EDGE_LOOP('',(#115,#116,#117,#118));
#62=FACE_BOUND('',#63,.T.);
#63=EDGE_LOOP('',(#119));
#64=PLANE('',#65);
#65=AXIS2_PLACEMENT_3D('',#66,#67,#68);
#66=CARTESIAN_POINT('',(0.,0.,0.));
#67=DIRECTION('',(0.,0.,1.));
#68=DIRECTION('',(-1.,1.22464679914735E-16,0.));
#69=FACE_BOUND('',#70,.T.);
#70=EDGE_LOOP('',(#120,#121,#122,#123));
#71=FACE_BOUND('',#72,.T.);
#72=EDGE_LOOP('',(#124));
#73=PLANE('',#74);
#74=AXIS2_PLACEMENT_3D('',#75,#76,#77);
#75=CARTESIAN_POINT('',(0.,0.,30.));
#76=DIRECTION('',(0.,0.,1.));
#77=DIRECTION('',(-1.,1.22464679914735E-16,0.));
#78=FACE_OUTER_BOUND('',#79,.T.);
#79=EDGE_LOOP('',(#125));
#80=FACE_OUTER_BOUND('',#81,.T.);
#81=EDGE_LOOP('',(#126));
#82=CYLINDRICAL_SURFACE('',#83,27.);
#83=AXIS2_PLACEMENT_3D('',#84,#85,#86);
#84=CARTESIAN_POINT('',(0.,0.,0.));
#85=DIRECTION('',(0.,0.,1.));
#86=DIRECTION('',(-1.,1.22464679914735E-16,0.));
#87=FACE_BOUND('',#88,.T.);
#88=EDGE_LOOP('',(#127,#128,#129,#130));
#89=PLANE('',#90);
#90=AXIS2_PLACEMENT_3D('',#91,#92,#93);
#91=CARTESIAN_POINT('',(161.5,117.5,0.));
#92=DIRECTION('',(8.79929084532632E-17,1.,0.));
#93=DIRECTION('',(-1.,8.79929084532632E-17,0.));
#94=FACE_BOUND('',#95,.T.);
#95=EDGE_LOOP('',(#131,#132,#133,#134));
#96=PLANE('',#97);
#97=AXIS2_PLACEMENT_3D('',#98,#99,#100);
#98=CARTESIAN_POINT('',(161.5,-117.5,0.));
#99=DIRECTION('',(1.,-2.41886888769396E-16,0.));
#100=DIRECTION('',(2.41886888769396E-16,1.,0.));
#101=FACE_BOUND('',#102,.T.);
#102=EDGE_LOOP('',(#135,#136,#137,#138));
#103=PLANE('',#104);
#104=AXIS2_PLACEMENT_3D('',#105,#106,#107);
#105=CARTESIAN_POINT('',(-161.5,-117.5,0.));
#106=DIRECTION('',(-8.79929084532632E-17,-1.,0.));
#107=DIRECTION('',(1.,-8.79929084532632E-17,0.));
#108=FACE_BOUND('',#109,.T.);
#109=EDGE_LOOP('',(#139,#140,#141,#142));
#110=PLANE('',#111);
#111=AXIS2_PLACEMENT_3D('',#112,#113,#114);
#112=CARTESIAN_POINT('',(-161.5,117.5,0.));
#113=DIRECTION('',(-1.,2.41886888769396E-16,0.));
#114=DIRECTION('',(-2.41886888769396E-16,-1.,0.));
#115=ORIENTED_EDGE('',*,*,#143,.F.);
#116=ORIENTED_EDGE('',*,*,#144,.F.);
#117=ORIENTED_EDGE('',*,*,#145,.F.);
#118=ORIENTED_EDGE('',*,*,#146,.F.);
#119=ORIENTED_EDGE('',*,*,#147,.T.);
#120=ORIENTED_EDGE('',*,*,#148,.T.);
#121=ORIENTED_EDGE('',*,*,#149,.T.);
#122=ORIENTED_EDGE('',*,*,#150,.T.);
#123=ORIENTED_EDGE('',*,*,#151,.T.);
#124=ORIENTED_EDGE('',*,*,#152,.T.);
#125=ORIENTED_EDGE('',*,*,#152,.F.);
#126=ORIENTED_EDGE('',*,*,#147,.F.);
#127=ORIENTED_EDGE('',*,*,#143,.T.);
#128=ORIENTED_EDGE('',*,*,#153,.T.);
#129=ORIENTED_EDGE('',*,*,#151,.F.);
#130=ORIENTED_EDGE('',*,*,#154,.F.);
#131=ORIENTED_EDGE('',*,*,#144,.T.);
#132=ORIENTED_EDGE('',*,*,#154,.T.);
#133=ORIENTED_EDGE('',*,*,#150,.F.);
#134=ORIENTED_EDGE('',*,*,#155,.F.);
#135=ORIENTED_EDGE('',*,*,#145,.T.);
#136=ORIENTED_EDGE('',*,*,#155,.T.);
#137=ORIENTED_EDGE('',*,*,#149,.F.);
#138=ORIENTED_EDGE('',*,*,#156,.F.);
#139=ORIENTED_EDGE('',*,*,#146,.T.);
#140=ORIENTED_EDGE('',*,*,#156,.T.);
#141=ORIENTED_EDGE('',*,*,#148,.F.);
#142=ORIENTED_EDGE('',*,*,#153,.F.);
#143=EDGE_CURVE('',#157,#158,#159,.T.);
#144=EDGE_CURVE('',#160,#157,#161,.T.);
#145=EDGE_CURVE('',#162,#160,#163,.T.);
#146=EDGE_CURVE('',#158,#162,#164,.T.);
#147=EDGE_CURVE('',#165,#165,#166,.T.);
#148=EDGE_CURVE('',#167,#168,#169,.T.);
#149=EDGE_CURVE('',#168,#170,#171,.T.);
#150=EDGE_CURVE('',#170,#172,#173,.T.);
#151=EDGE_CURVE('',#172,#167,#174,.T.);
#152=EDGE_CURVE('',#175,#175,#176,.F.);
#153=EDGE_CURVE('',#158,#167,#177,.T.);
#154=EDGE_CURVE('',#157,#172,#178,.T.);
#155=EDGE_CURVE('',#160,#170,#179,.T.);
#156=EDGE_CURVE('',#162,#168,#180,.T.);
#157=VERTEX_POINT('',#181);
#158=VERTEX_POINT('',#182);
#159=LINE('',#183,#184);
#160=VERTEX_POINT('',#186);
#161=LINE('',#187,#188);
#162=VERTEX_POINT('',#190);
#163=LINE('',#191,#192);
#164=LINE('',#194,#195);
#165=VERTEX_POINT('',#197);
#166=CIRCLE('',#198,27.);
#167=VERTEX_POINT('',#202);
#168=VERTEX_POINT('',#203);
#169=LINE('',#204,#205);
#170=VERTEX_POINT('',#207);
#171=LINE('',#208,#209);
#172=VERTEX_POINT('',#211);
#173=LINE('',#212,#213);
#174=LINE('',#215,#216);
#175=VERTEX_POINT('',#218);
#176=CIRCLE('',#219,27.);
#177=LINE('',#223,#224);
#178=LINE('',#226,#227);
#179=LINE('',#229,#230);
#180=LINE('',#232,#233);
#181=CARTESIAN_POINT('',(161.5,117.5,0.));
#182=CARTESIAN_POINT('',(-161.5,117.5,0.));
#183=CARTESIAN_POINT('',(161.5,117.5,0.));
#184=VECTOR('',#185,1.);
#185=DIRECTION('',(-1.,8.79929084532632E-17,0.));
#186=CARTESIAN_POINT('',(161.5,-117.5,0.));
#187=CARTESIAN_POINT('',(161.5,-117.5,0.));
#188=VECTOR('',#189,1.);
#189=DIRECTION('',(2.41886888769396E-16,1.,0.));
#190=CARTESIAN_POINT('',(-161.5,-117.5,0.));
#191=CARTESIAN_POINT('',(-161.5,-117.5,0.));
#192=VECTOR('',#193,1.);
#193=DIRECTION('',(1.,-8.79929084532632E-17,0.));
#194=CARTESIAN_POINT('',(-161.5,117.5,0.));
#195=VECTOR('',#196,1.);
#196=DIRECTION('',(-2.41886888769396E-16,-1.,0.));
#197=CARTESIAN_POINT('',(-27.,6.61309271539571E-15,0.));
#198=AXIS2_PLACEMENT_3D('',#199,#200,#201);
#199=CARTESIAN_POINT('',(0.,0.,0.));
#200=DIRECTION('',(0.,0.,1.));
#201=DIRECTION('',(-1.,1.22464679914735E-16,0.));
#202=CARTESIAN_POINT('',(-161.5,117.5,30.));
#203=CARTESIAN_POINT('',(-161.5,-117.5,30.));
#204=CARTESIAN_POINT('',(-161.5,117.5,30.));
#205=VECTOR('',#206,1.);
#206=DIRECTION('',(-2.41886888769396E-16,-1.,0.));
#207=CARTESIAN_POINT('',(161.5,-117.5,30.));
#208=CARTESIAN_POINT('',(-161.5,-117.5,30.));
#209=VECTOR('',#210,1.);
#210=DIRECTION('',(1.,-8.79929084532632E-17,0.));
#211=CARTESIAN_POINT('',(161.5,117.5,30.));
#212=CARTESIAN_POINT('',(161.5,-117.5,30.));
#213=VECTOR('',#214,1.);
#214=DIRECTION('',(2.41886888769396E-16,1.,0.));
#215=CARTESIAN_POINT('',(161.5,117.5,30.));
#216=VECTOR('',#217,1.);
#217=DIRECTION('',(-1.,8.79929084532632E-17,0.));
#218=CARTESIAN_POINT('',(-27.,6.61309271539571E-15,30.));
#219=AXIS2_PLACEMENT_3D('',#220,#221,#222);
#220=CARTESIAN_POINT('',(0.,0.,30.));
#221=DIRECTION('',(0.,0.,1.));
#222=DIRECTION('',(-1.,1.22464679914735E-16,0.));
#223=CARTESIAN_POINT('',(-161.5,117.5,0.));
#224=VECTOR('',#225,1.);
#225=DIRECTION('',(0.,0.,1.));
#226=CARTESIAN_POINT('',(161.5,117.5,0.));
#227=VECTOR('',#228,1.);
#228=DIRECTION('',(0.,0.,1.));
#229=CARTESIAN_POINT('',(161.5,-117.5,0.));
#230=VECTOR('',#231,1.);
#231=DIRECTION('',(0.,0.,1.));
#232=CARTESIAN_POINT('',(-161.5,-117.5,0.));
#233=VECTOR('',#234,1.);
#234=DIRECTION('',(0.,0.,1.));
ENDSEC;
END-ISO-10303-21;
