ISO-10303-21;
HEADER;
FILE_DESCRIPTION(('STEP AP242'),
    '1');
FILE_NAME('Деталь',
    '',
    ('UNSPECIFIED'),
    ('UNSPECIFIED'),
    'C3D Converter',
    'C3D Toolkit',
    '');
FILE_SCHEMA(('AP242_MANAGED_MODEL_BASED_3D_ENGINEERING_MIM_LF { 1 0 10303 442 1 1 4 }'));
ENDSEC;

DATA;
#1=PRODUCT_DEFINITION('','UNSPECIFIED',#29,#32);
#2=SHAPE_DEFINITION_REPRESENTATION(#27,#3);
#3=SHAPE_REPRESENTATION('NONE',(#4),#8);
#4=AXIS2_PLACEMENT_3D('',#5,#6,#7);
#5=CARTESIAN_POINT('',(0.,0.,0.));
#6=DIRECTION('',(0.,0.,1.));
#7=DIRECTION('',(1.,0.,0.));
#8=(GEOMETRIC_REPRESENTATION_CONTEXT(3)GLOBAL_UNCERTAINTY_ASSIGNED_CONTEXT((#10))
GLOBAL_UNIT_ASSIGNED_CONTEXT((#9,#11,#12))REPRESENTATION_CONTEXT('NONE','NONE'));
#9=(LENGTH_UNIT()NAMED_UNIT(*)SI_UNIT(.MILLI.,.METRE.));
#10=UNCERTAINTY_MEASURE_WITH_UNIT(LENGTH_MEASURE(1.E-5),#9,'NONE','NONE');
#11=(NAMED_UNIT(*)PLANE_ANGLE_UNIT()SI_UNIT($,.RADIAN.));
#12=(NAMED_UNIT(*)SI_UNIT($,.STERADIAN.)SOLID_ANGLE_UNIT());
#13=BREP_WITH_VOIDS('',#14,(#15));
#14=CLOSED_SHELL('',(#54,#55,#56));
#15=ORIENTED_CLOSED_SHELL('',*,#57,.T.);
#16=COLOUR_RGB('',0.564705882352941,0.564705882352941,0.564705882352941);
#17=FILL_AREA_STYLE_COLOUR('',#16);
#18=FILL_AREA_STYLE($,(#17));
#19=SURFACE_STYLE_FILL_AREA(#18);
#20=SURFACE_SIDE_STYLE('',(#19));
#21=SURFACE_STYLE_USAGE(.BOTH.,#20);
#22=PRESENTATION_STYLE_ASSIGNMENT((#21));
#23=MECHANICAL_DESIGN_GEOMETRIC_PRESENTATION_REPRESENTATION('NONE',(#24),#8);
#24=STYLED_ITEM('',(#22),#13);
#25=ADVANCED_BREP_SHAPE_REPRESENTATION('NONE',(#13),#8);
#26=SHAPE_REPRESENTATION_RELATIONSHIP('','',#3,#25);
#27=PRODUCT_DEFINITION_SHAPE('NONE','NONE',#1);
#28=MECHANICAL_CONTEXT('NONE',#33,'mechanical');
#29=PRODUCT_DEFINITION_FORMATION_WITH_SPECIFIED_SOURCE('ANY','UNSPECIFIED',#30,.NOT_KNOWN.);
#30=PRODUCT('','\X2\0414043504420430043B044C\X0\','NONE',(#28));
#31=PRODUCT_RELATED_PRODUCT_CATEGORY('detail','',(#30));
#32=DESIGN_CONTEXT('detailed design',#33,'design');
#33=APPLICATION_CONTEXT('configuration controlled 3d designs of mechanical parts and assemblies');
#34=APPLICATION_PROTOCOL_DEFINITION('international standard','config_control_design',
1994,#33);
#35=CC_DESIGN_DATE_AND_TIME_ASSIGNMENT(#36,#40,(#1));
#36=DATE_AND_TIME(#37,#38);
#37=CALENDAR_DATE(0,1,1);
#38=LOCAL_TIME(0,0,0.,#39);
#39=COORDINATED_UNIVERSAL_TIME_OFFSET(0,0,.AHEAD.);
#40=DATE_TIME_ROLE('creation_date');
#41=CC_DESIGN_APPROVAL(#42,(#1));
#42=APPROVAL(#43,'UNSPECIFIED');
#43=APPROVAL_STATUS('not_yet_approved');
#44=APPROVAL_DATE_TIME(#45,#42);
#45=DATE_AND_TIME(#46,#47);
#46=CALENDAR_DATE(0,1,1);
#47=LOCAL_TIME(0,0,0.,#48);
#48=COORDINATED_UNIVERSAL_TIME_OFFSET(0,0,.AHEAD.);
#49=PERSON('UNSPECIFIED','v.smetana','UNSPECIFIED',('UNSPECIFIED'),('UNSPECIFIED'),
('UNSPECIFIED'));
#50=ORGANIZATION('UNSPECIFIED','UNSPECIFIED','UNSPECIFIED');
#51=PERSON_AND_ORGANIZATION(#49,#50);
#52=PERSON_AND_ORGANIZATION_ROLE('creator');
#53=CC_DESIGN_PERSON_AND_ORGANIZATION_ASSIGNMENT(#51,#52,(#29,#1));
#54=ADVANCED_FACE('',(#58,#60),#62,.T.);
#55=ADVANCED_FACE('',(#67),#69,.T.);
#56=ADVANCED_FACE('',(#74),#76,.F.);
#57=CLOSED_SHELL('',(#81,#82,#83));
#58=FACE_OUTER_BOUND('',#59,.T.);
#59=EDGE_LOOP('',(#84));
#60=FACE_OUTER_BOUND('',#61,.T.);
#61=EDGE_LOOP('',(#85));
#62=CYLINDRICAL_SURFACE('',#63,125.);
#63=AXIS2_PLACEMENT_3D('',#64,#65,#66);
#64=CARTESIAN_POINT('',(-750.,0.,1.37772764904077E-13));
#65=DIRECTION('',(1.,0.,-1.83697019872103E-16));
#66=DIRECTION('',(1.12481983699639E-32,1.,6.12323399573677E-17));
#67=FACE_BOUND('',#68,.T.);
#68=EDGE_LOOP('',(#86));
#69=PLANE('',#70);
#70=AXIS2_PLACEMENT_3D('',#71,#72,#73);
#71=CARTESIAN_POINT('',(750.,0.,-1.37772764904077E-13));
#72=DIRECTION('',(1.,0.,-1.83697019872103E-16));
#73=DIRECTION('',(1.12481983699639E-32,1.,6.12323399573677E-17));
#74=FACE_BOUND('',#75,.T.);
#75=EDGE_LOOP('',(#87));
#76=PLANE('',#77);
#77=AXIS2_PLACEMENT_3D('',#78,#79,#80);
#78=CARTESIAN_POINT('',(-750.,0.,1.37772764904077E-13));
#79=DIRECTION('',(1.,0.,-1.83697019872103E-16));
#80=DIRECTION('',(1.12481983699639E-32,1.,6.12323399573677E-17));
#81=ADVANCED_FACE('',(#88,#90),#92,.F.);
#82=ADVANCED_FACE('',(#97),#99,.F.);
#83=ADVANCED_FACE('',(#104),#106,.T.);
#84=ORIENTED_EDGE('',*,*,#111,.F.);
#85=ORIENTED_EDGE('',*,*,#112,.T.);
#86=ORIENTED_EDGE('',*,*,#111,.T.);
#87=ORIENTED_EDGE('',*,*,#112,.F.);
#88=FACE_OUTER_BOUND('',#89,.T.);
#89=EDGE_LOOP('',(#113));
#90=FACE_OUTER_BOUND('',#91,.T.);
#91=EDGE_LOOP('',(#114));
#92=CYLINDRICAL_SURFACE('',#93,25.);
#93=AXIS2_PLACEMENT_3D('',#94,#95,#96);
#94=CARTESIAN_POINT('',(-50.,0.,9.18485099360515E-15));
#95=DIRECTION('',(1.,0.,-1.83697019872103E-16));
#96=DIRECTION('',(1.12481983699639E-32,1.,6.12323399573677E-17));
#97=FACE_BOUND('',#98,.T.);
#98=EDGE_LOOP('',(#115));
#99=PLANE('',#100);
#100=AXIS2_PLACEMENT_3D('',#101,#102,#103);
#101=CARTESIAN_POINT('',(50.,0.,-9.18485099360515E-15));
#102=DIRECTION('',(1.,0.,-1.83697019872103E-16));
#103=DIRECTION('',(1.12481983699639E-32,1.,6.12323399573677E-17));
#104=FACE_BOUND('',#105,.T.);
#105=EDGE_LOOP('',(#116));
#106=PLANE('',#107);
#107=AXIS2_PLACEMENT_3D('',#108,#109,#110);
#108=CARTESIAN_POINT('',(-50.,0.,9.18485099360515E-15));
#109=DIRECTION('',(1.,0.,-1.83697019872103E-16));
#110=DIRECTION('',(1.12481983699639E-32,1.,6.12323399573677E-17));
#111=EDGE_CURVE('',#117,#117,#118,.T.);
#112=EDGE_CURVE('',#119,#119,#120,.T.);
#113=ORIENTED_EDGE('',*,*,#121,.T.);
#114=ORIENTED_EDGE('',*,*,#122,.F.);
#115=ORIENTED_EDGE('',*,*,#121,.F.);
#116=ORIENTED_EDGE('',*,*,#122,.T.);
#117=VERTEX_POINT('',#123);
#118=CIRCLE('',#124,125.);
#119=VERTEX_POINT('',#128);
#120=CIRCLE('',#129,125.);
#121=EDGE_CURVE('',#133,#133,#134,.T.);
#122=EDGE_CURVE('',#135,#135,#136,.T.);
#123=CARTESIAN_POINT('',(750.,125.,-1.45426807398748E-13));
#124=AXIS2_PLACEMENT_3D('',#125,#126,#127);
#125=CARTESIAN_POINT('',(750.,0.,-1.37772764904077E-13));
#126=DIRECTION('',(1.,0.,-1.83697019872103E-16));
#127=DIRECTION('',(1.12481983699639E-32,1.,6.12323399573677E-17));
#128=CARTESIAN_POINT('',(-750.,125.,1.30118722409406E-13));
#129=AXIS2_PLACEMENT_3D('',#130,#131,#132);
#130=CARTESIAN_POINT('',(-750.,0.,1.37772764904077E-13));
#131=DIRECTION('',(1.,0.,-1.83697019872103E-16));
#132=DIRECTION('',(1.12481983699639E-32,1.,6.12323399573677E-17));
#133=VERTEX_POINT('',#137);
#134=CIRCLE('',#138,25.);
#135=VERTEX_POINT('',#142);
#136=CIRCLE('',#143,25.);
#137=CARTESIAN_POINT('',(50.,25.,-1.07156594925393E-14));
#138=AXIS2_PLACEMENT_3D('',#139,#140,#141);
#139=CARTESIAN_POINT('',(50.,0.,-9.18485099360515E-15));
#140=DIRECTION('',(1.,0.,-1.83697019872103E-16));
#141=DIRECTION('',(1.12481983699639E-32,1.,6.12323399573677E-17));
#142=CARTESIAN_POINT('',(-50.,25.,7.65404249467096E-15));
#143=AXIS2_PLACEMENT_3D('',#144,#145,#146);
#144=CARTESIAN_POINT('',(-50.,0.,9.18485099360515E-15));
#145=DIRECTION('',(1.,0.,-1.83697019872103E-16));
#146=DIRECTION('',(1.12481983699639E-32,1.,6.12323399573677E-17));
ENDSEC;
END-ISO-10303-21;
