ISO-10303-21;
HEADER;
FILE_DESCRIPTION(('STEP AP242'),
    '1');
FILE_NAME('стержень',
    '',
    ('UNSPECIFIED'),
    ('UNSPECIFIED'),
    'C3D Converter',
    'C3D Toolkit',
    '');
FILE_SCHEMA(('AP242_MANAGED_MODEL_BASED_3D_ENGINEERING_MIM_LF { 1 0 10303 442 1 1 4 }'));
ENDSEC;

DATA;
#1=PRODUCT_DEFINITION('','UNSPECIFIED',#28,#31);
#2=SHAPE_DEFINITION_REPRESENTATION(#26,#3);
#3=SHAPE_REPRESENTATION('NONE',(#4),#8);
#4=AXIS2_PLACEMENT_3D('',#5,#6,#7);
#5=CARTESIAN_POINT('',(0.,0.,0.));
#6=DIRECTION('',(0.,0.,1.));
#7=DIRECTION('',(1.,0.,0.));
#8=(GEOMETRIC_REPRESENTATION_CONTEXT(3)GLOBAL_UNCERTAINTY_ASSIGNED_CONTEXT((#10))
GLOBAL_UNIT_ASSIGNED_CONTEXT((#9,#11,#12))REPRESENTATION_CONTEXT('NONE','NONE'));
#9=(LENGTH_UNIT()NAMED_UNIT(*)SI_UNIT(.MILLI.,.METRE.));
#10=UNCERTAINTY_MEASURE_WITH_UNIT(LENGTH_MEASURE(1.E-5),#9,'NONE','NONE');
#11=(NAMED_UNIT(*)PLANE_ANGLE_UNIT()SI_UNIT($,.RADIAN.));
#12=(NAMED_UNIT(*)SI_UNIT($,.STERADIAN.)SOLID_ANGLE_UNIT());
#13=MANIFOLD_SOLID_BREP('',#14);
#14=CLOSED_SHELL('',(#53,#62,#71));
#15=COLOUR_RGB('',0.564705882352941,0.564705882352941,0.564705882352941);
#16=FILL_AREA_STYLE_COLOUR('',#15);
#17=FILL_AREA_STYLE($,(#16));
#18=SURFACE_STYLE_FILL_AREA(#17);
#19=SURFACE_SIDE_STYLE('',(#18));
#20=SURFACE_STYLE_USAGE(.BOTH.,#19);
#21=PRESENTATION_STYLE_ASSIGNMENT((#20));
#22=MECHANICAL_DESIGN_GEOMETRIC_PRESENTATION_REPRESENTATION('NONE',(#23,#61,#70,
#79),#8);
#23=STYLED_ITEM('',(#21),#13);
#24=ADVANCED_BREP_SHAPE_REPRESENTATION('NONE',(#13),#8);
#25=SHAPE_REPRESENTATION_RELATIONSHIP('','',#3,#24);
#26=PRODUCT_DEFINITION_SHAPE('NONE','NONE',#1);
#27=MECHANICAL_CONTEXT('NONE',#32,'mechanical');
#28=PRODUCT_DEFINITION_FORMATION_WITH_SPECIFIED_SOURCE('ANY','UNSPECIFIED',#29,.NOT_KNOWN.);
#29=PRODUCT('','\X2\0414043504420430043B044C\X0\','NONE',(#27));
#30=PRODUCT_RELATED_PRODUCT_CATEGORY('detail','',(#29));
#31=DESIGN_CONTEXT('detailed design',#32,'design');
#32=APPLICATION_CONTEXT('configuration controlled 3d designs of mechanical parts and assemblies');
#33=APPLICATION_PROTOCOL_DEFINITION('international standard','config_control_design',
1994,#32);
#34=CC_DESIGN_DATE_AND_TIME_ASSIGNMENT(#35,#39,(#1));
#35=DATE_AND_TIME(#36,#37);
#36=CALENDAR_DATE(0,1,1);
#37=LOCAL_TIME(0,0,0.,#38);
#38=COORDINATED_UNIVERSAL_TIME_OFFSET(0,0,.AHEAD.);
#39=DATE_TIME_ROLE('creation_date');
#40=CC_DESIGN_APPROVAL(#41,(#1));
#41=APPROVAL(#42,'UNSPECIFIED');
#42=APPROVAL_STATUS('not_yet_approved');
#43=APPROVAL_DATE_TIME(#44,#41);
#44=DATE_AND_TIME(#45,#46);
#45=CALENDAR_DATE(0,1,1);
#46=LOCAL_TIME(0,0,0.,#47);
#47=COORDINATED_UNIVERSAL_TIME_OFFSET(0,0,.AHEAD.);
#48=PERSON('UNSPECIFIED','v.smetana','UNSPECIFIED',('UNSPECIFIED'),('UNSPECIFIED'),
('UNSPECIFIED'));
#49=ORGANIZATION('UNSPECIFIED','UNSPECIFIED','UNSPECIFIED');
#50=PERSON_AND_ORGANIZATION(#48,#49);
#51=PERSON_AND_ORGANIZATION_ROLE('creator');
#52=CC_DESIGN_PERSON_AND_ORGANIZATION_ASSIGNMENT(#50,#51,(#28,#1));
#53=ADVANCED_FACE('',(#80,#82),#84,.T.);
#54=COLOUR_RGB('',0.,0.,1.);
#55=FILL_AREA_STYLE_COLOUR('',#54);
#56=FILL_AREA_STYLE($,(#55));
#57=SURFACE_STYLE_FILL_AREA(#56);
#58=SURFACE_SIDE_STYLE('',(#57));
#59=SURFACE_STYLE_USAGE(.BOTH.,#58);
#60=PRESENTATION_STYLE_ASSIGNMENT((#59));
#61=STYLED_ITEM('',(#60),#53);
#62=ADVANCED_FACE('',(#89),#91,.T.);
#63=COLOUR_RGB('',0.,0.,1.);
#64=FILL_AREA_STYLE_COLOUR('',#63);
#65=FILL_AREA_STYLE($,(#64));
#66=SURFACE_STYLE_FILL_AREA(#65);
#67=SURFACE_SIDE_STYLE('',(#66));
#68=SURFACE_STYLE_USAGE(.BOTH.,#67);
#69=PRESENTATION_STYLE_ASSIGNMENT((#68));
#70=STYLED_ITEM('',(#69),#62);
#71=ADVANCED_FACE('',(#96),#98,.F.);
#72=COLOUR_RGB('',0.,0.,1.);
#73=FILL_AREA_STYLE_COLOUR('',#72);
#74=FILL_AREA_STYLE($,(#73));
#75=SURFACE_STYLE_FILL_AREA(#74);
#76=SURFACE_SIDE_STYLE('',(#75));
#77=SURFACE_STYLE_USAGE(.BOTH.,#76);
#78=PRESENTATION_STYLE_ASSIGNMENT((#77));
#79=STYLED_ITEM('',(#78),#71);
#80=FACE_BOUND('',#81,.T.);
#81=EDGE_LOOP('',(#103,#104,#105));
#82=FACE_OUTER_BOUND('',#83,.T.);
#83=EDGE_LOOP('',(#106));
#84=CYLINDRICAL_SURFACE('',#85,1850.);
#85=AXIS2_PLACEMENT_3D('',#86,#87,#88);
#86=CARTESIAN_POINT('',(-300.,0.,5.51091059616309E-14));
#87=DIRECTION('',(1.,0.,-1.83697019872103E-16));
#88=DIRECTION('',(1.12481983699639E-32,1.,6.12323399573677E-17));
#89=FACE_BOUND('',#90,.T.);
#90=EDGE_LOOP('',(#107,#108,#109));
#91=SPHERICAL_SURFACE('',#92,1850.);
#92=AXIS2_PLACEMENT_3D('',#93,#94,#95);
#93=CARTESIAN_POINT('',(70000.,9.18485099360515E-15,-1.29602995002642E-11));
#94=DIRECTION('',(0.,6.12323399573677E-17,1.));
#95=DIRECTION('',(0.,-1.,6.12323399573677E-17));
#96=FACE_BOUND('',#97,.T.);
#97=EDGE_LOOP('',(#110));
#98=PLANE('',#99);
#99=AXIS2_PLACEMENT_3D('',#100,#101,#102);
#100=CARTESIAN_POINT('',(-300.,0.,5.51091059616309E-14));
#101=DIRECTION('',(1.,0.,-1.83697019872103E-16));
#102=DIRECTION('',(1.12481983699639E-32,1.,6.12323399573677E-17));
#103=ORIENTED_EDGE('',*,*,#111,.F.);
#104=ORIENTED_EDGE('',*,*,#112,.F.);
#105=ORIENTED_EDGE('',*,*,#113,.F.);
#106=ORIENTED_EDGE('',*,*,#114,.T.);
#107=ORIENTED_EDGE('',*,*,#113,.T.);
#108=ORIENTED_EDGE('',*,*,#112,.T.);
#109=ORIENTED_EDGE('',*,*,#111,.T.);
#110=ORIENTED_EDGE('',*,*,#114,.F.);
#111=EDGE_CURVE('',#115,#116,#117,.T.);
#112=EDGE_CURVE('',#118,#115,#119,.F.);
#113=EDGE_CURVE('',#116,#118,#120,.T.);
#114=EDGE_CURVE('',#121,#121,#122,.T.);
#115=VERTEX_POINT('',#123);
#116=VERTEX_POINT('',#124);
#117=CIRCLE('',#125,1850.);
#118=VERTEX_POINT('',#129);
#119=CIRCLE('',#130,1850.);
#120=CIRCLE('',#134,1850.);
#121=VERTEX_POINT('',#138);
#122=CIRCLE('',#139,1850.);
#123=CARTESIAN_POINT('',(70000.,-1.34711147906209E-13,-1850.00000000001));
#124=CARTESIAN_POINT('',(70000.,1850.,-1.29720712199683E-11));
#125=AXIS2_PLACEMENT_3D('',#126,#127,#128);
#126=CARTESIAN_POINT('',(70000.,0.,-1.28587913910472E-11));
#127=DIRECTION('',(1.,0.,-1.83697019872103E-16));
#128=DIRECTION('',(-1.83697019872103E-16,-1.22464679914735E-16,-1.));
#129=CARTESIAN_POINT('',(70000.,9.18485099360515E-14,1849.99999999999));
#130=AXIS2_PLACEMENT_3D('',#131,#132,#133);
#131=CARTESIAN_POINT('',(70000.,0.,-1.28587913910472E-11));
#132=DIRECTION('',(-1.,0.,1.83697019872103E-16));
#133=DIRECTION('',(-1.83697019872103E-16,-1.22464679914735E-16,-1.));
#134=AXIS2_PLACEMENT_3D('',#135,#136,#137);
#135=CARTESIAN_POINT('',(70000.,0.,-1.28587913910472E-11));
#136=DIRECTION('',(1.,0.,-1.83697019872103E-16));
#137=DIRECTION('',(1.1248198369964E-32,1.,6.12323399573681E-17));
#138=CARTESIAN_POINT('',(-300.,1850.,-5.81707229594993E-14));
#139=AXIS2_PLACEMENT_3D('',#140,#141,#142);
#140=CARTESIAN_POINT('',(-300.,0.,5.51091059616309E-14));
#141=DIRECTION('',(1.,0.,-1.83697019872103E-16));
#142=DIRECTION('',(1.12481983699639E-32,1.,6.12323399573677E-17));
ENDSEC;
END-ISO-10303-21;
