ISO-10303-21;
HEADER;
FILE_DESCRIPTION(('STEP AP242'),
    '1');
FILE_NAME('Деталь',
    '',
    ('UNSPECIFIED'),
    ('UNSPECIFIED'),
    'C3D Converter',
    'C3D Toolkit',
    '');
FILE_SCHEMA(('AP242_MANAGED_MODEL_BASED_3D_ENGINEERING_MIM_LF { 1 0 10303 442 1 1 4 }'));
ENDSEC;

DATA;
#1=PRODUCT_DEFINITION('','UNSPECIFIED',#29,#32);
#2=SHAPE_DEFINITION_REPRESENTATION(#27,#3);
#3=SHAPE_REPRESENTATION('NONE',(#4),#8);
#4=AXIS2_PLACEMENT_3D('',#5,#6,#7);
#5=CARTESIAN_POINT('',(0.,0.,0.));
#6=DIRECTION('',(0.,0.,1.));
#7=DIRECTION('',(1.,0.,0.));
#8=(GEOMETRIC_REPRESENTATION_CONTEXT(3)GLOBAL_UNCERTAINTY_ASSIGNED_CONTEXT((#10))
GLOBAL_UNIT_ASSIGNED_CONTEXT((#9,#11,#12))REPRESENTATION_CONTEXT('NONE','NONE'));
#9=(LENGTH_UNIT()NAMED_UNIT(*)SI_UNIT(.MILLI.,.METRE.));
#10=UNCERTAINTY_MEASURE_WITH_UNIT(LENGTH_MEASURE(1.E-5),#9,'NONE','NONE');
#11=(NAMED_UNIT(*)PLANE_ANGLE_UNIT()SI_UNIT($,.RADIAN.));
#12=(NAMED_UNIT(*)SI_UNIT($,.STERADIAN.)SOLID_ANGLE_UNIT());
#13=BREP_WITH_VOIDS('',#14,(#15));
#14=CLOSED_SHELL('',(#54,#55,#56));
#15=ORIENTED_CLOSED_SHELL('',*,#57,.T.);
#16=COLOUR_RGB('',0.564705882352941,0.564705882352941,0.564705882352941);
#17=FILL_AREA_STYLE_COLOUR('',#16);
#18=FILL_AREA_STYLE($,(#17));
#19=SURFACE_STYLE_FILL_AREA(#18);
#20=SURFACE_SIDE_STYLE('',(#19));
#21=SURFACE_STYLE_USAGE(.BOTH.,#20);
#22=PRESENTATION_STYLE_ASSIGNMENT((#21));
#23=MECHANICAL_DESIGN_GEOMETRIC_PRESENTATION_REPRESENTATION('NONE',(#24),#8);
#24=STYLED_ITEM('',(#22),#13);
#25=ADVANCED_BREP_SHAPE_REPRESENTATION('NONE',(#13),#8);
#26=SHAPE_REPRESENTATION_RELATIONSHIP('','',#3,#25);
#27=PRODUCT_DEFINITION_SHAPE('NONE','NONE',#1);
#28=MECHANICAL_CONTEXT('NONE',#33,'mechanical');
#29=PRODUCT_DEFINITION_FORMATION_WITH_SPECIFIED_SOURCE('ANY','UNSPECIFIED',#30,.NOT_KNOWN.);
#30=PRODUCT('','\X2\0414043504420430043B044C\X0\','NONE',(#28));
#31=PRODUCT_RELATED_PRODUCT_CATEGORY('detail','',(#30));
#32=DESIGN_CONTEXT('detailed design',#33,'design');
#33=APPLICATION_CONTEXT('configuration controlled 3d designs of mechanical parts and assemblies');
#34=APPLICATION_PROTOCOL_DEFINITION('international standard','config_control_design',
1994,#33);
#35=CC_DESIGN_DATE_AND_TIME_ASSIGNMENT(#36,#40,(#1));
#36=DATE_AND_TIME(#37,#38);
#37=CALENDAR_DATE(0,1,1);
#38=LOCAL_TIME(0,0,0.,#39);
#39=COORDINATED_UNIVERSAL_TIME_OFFSET(0,0,.AHEAD.);
#40=DATE_TIME_ROLE('creation_date');
#41=CC_DESIGN_APPROVAL(#42,(#1));
#42=APPROVAL(#43,'UNSPECIFIED');
#43=APPROVAL_STATUS('not_yet_approved');
#44=APPROVAL_DATE_TIME(#45,#42);
#45=DATE_AND_TIME(#46,#47);
#46=CALENDAR_DATE(0,1,1);
#47=LOCAL_TIME(0,0,0.,#48);
#48=COORDINATED_UNIVERSAL_TIME_OFFSET(0,0,.AHEAD.);
#49=PERSON('UNSPECIFIED','v.smetana','UNSPECIFIED',('UNSPECIFIED'),('UNSPECIFIED'),
('UNSPECIFIED'));
#50=ORGANIZATION('UNSPECIFIED','UNSPECIFIED','UNSPECIFIED');
#51=PERSON_AND_ORGANIZATION(#49,#50);
#52=PERSON_AND_ORGANIZATION_ROLE('creator');
#53=CC_DESIGN_PERSON_AND_ORGANIZATION_ASSIGNMENT(#51,#52,(#29,#1));
#54=ADVANCED_FACE('',(#58,#60),#62,.T.);
#55=ADVANCED_FACE('',(#67),#69,.T.);
#56=ADVANCED_FACE('',(#74),#76,.F.);
#57=CLOSED_SHELL('',(#81));
#58=FACE_OUTER_BOUND('',#59,.T.);
#59=EDGE_LOOP('',(#82));
#60=FACE_OUTER_BOUND('',#61,.T.);
#61=EDGE_LOOP('',(#83));
#62=CYLINDRICAL_SURFACE('',#63,125.);
#63=AXIS2_PLACEMENT_3D('',#64,#65,#66);
#64=CARTESIAN_POINT('',(-750.,0.,1.37772764904077E-13));
#65=DIRECTION('',(1.,0.,-1.83697019872103E-16));
#66=DIRECTION('',(1.12481983699639E-32,1.,6.12323399573677E-17));
#67=FACE_BOUND('',#68,.T.);
#68=EDGE_LOOP('',(#84));
#69=PLANE('',#70);
#70=AXIS2_PLACEMENT_3D('',#71,#72,#73);
#71=CARTESIAN_POINT('',(750.,0.,-1.37772764904077E-13));
#72=DIRECTION('',(1.,0.,-1.83697019872103E-16));
#73=DIRECTION('',(1.12481983699639E-32,1.,6.12323399573677E-17));
#74=FACE_BOUND('',#75,.T.);
#75=EDGE_LOOP('',(#85));
#76=PLANE('',#77);
#77=AXIS2_PLACEMENT_3D('',#78,#79,#80);
#78=CARTESIAN_POINT('',(-750.,0.,1.37772764904077E-13));
#79=DIRECTION('',(1.,0.,-1.83697019872103E-16));
#80=DIRECTION('',(1.12481983699639E-32,1.,6.12323399573677E-17));
#81=ADVANCED_FACE('',(),#86,.F.);
#82=ORIENTED_EDGE('',*,*,#91,.F.);
#83=ORIENTED_EDGE('',*,*,#92,.T.);
#84=ORIENTED_EDGE('',*,*,#91,.T.);
#85=ORIENTED_EDGE('',*,*,#92,.F.);
#86=SPHERICAL_SURFACE('',#87,25.);
#87=AXIS2_PLACEMENT_3D('',#88,#89,#90);
#88=CARTESIAN_POINT('',(0.,-1.53080849893419E-15,0.));
#89=DIRECTION('',(-1.83697019872103E-16,-6.12323399573677E-17,-1.));
#90=DIRECTION('',(-1.46161867042946E-32,1.,-6.12323399573677E-17));
#91=EDGE_CURVE('',#93,#93,#94,.T.);
#92=EDGE_CURVE('',#95,#95,#96,.T.);
#93=VERTEX_POINT('',#97);
#94=CIRCLE('',#98,125.);
#95=VERTEX_POINT('',#102);
#96=CIRCLE('',#103,125.);
#97=CARTESIAN_POINT('',(750.,125.,-1.45426807398748E-13));
#98=AXIS2_PLACEMENT_3D('',#99,#100,#101);
#99=CARTESIAN_POINT('',(750.,0.,-1.37772764904077E-13));
#100=DIRECTION('',(1.,0.,-1.83697019872103E-16));
#101=DIRECTION('',(1.12481983699639E-32,1.,6.12323399573677E-17));
#102=CARTESIAN_POINT('',(-750.,125.,1.30118722409406E-13));
#103=AXIS2_PLACEMENT_3D('',#104,#105,#106);
#104=CARTESIAN_POINT('',(-750.,0.,1.37772764904077E-13));
#105=DIRECTION('',(1.,0.,-1.83697019872103E-16));
#106=DIRECTION('',(1.12481983699639E-32,1.,6.12323399573677E-17));
ENDSEC;
END-ISO-10303-21;
