ISO-10303-21;
HEADER;
FILE_DESCRIPTION(('STEP AP242'),
    '1');
FILE_NAME('Деталь',
    '',
    ('UNSPECIFIED'),
    ('UNSPECIFIED'),
    'C3D Converter',
    'C3D Toolkit',
    '');
FILE_SCHEMA(('AP242_MANAGED_MODEL_BASED_3D_ENGINEERING_MIM_LF { 1 0 10303 442 1 1 4 }'));
ENDSEC;

DATA;
#1=PRODUCT_DEFINITION('','UNSPECIFIED',#29,#32);
#2=SHAPE_DEFINITION_REPRESENTATION(#27,#3);
#3=SHAPE_REPRESENTATION('NONE',(#4),#8);
#4=AXIS2_PLACEMENT_3D('',#5,#6,#7);
#5=CARTESIAN_POINT('',(0.,0.,0.));
#6=DIRECTION('',(0.,0.,1.));
#7=DIRECTION('',(1.,0.,0.));
#8=(GEOMETRIC_REPRESENTATION_CONTEXT(3)GLOBAL_UNCERTAINTY_ASSIGNED_CONTEXT((#10))
GLOBAL_UNIT_ASSIGNED_CONTEXT((#9,#11,#12))REPRESENTATION_CONTEXT('NONE','NONE'));
#9=(LENGTH_UNIT()NAMED_UNIT(*)SI_UNIT(.MILLI.,.METRE.));
#10=UNCERTAINTY_MEASURE_WITH_UNIT(LENGTH_MEASURE(1.E-5),#9,'NONE','NONE');
#11=(NAMED_UNIT(*)PLANE_ANGLE_UNIT()SI_UNIT($,.RADIAN.));
#12=(NAMED_UNIT(*)SI_UNIT($,.STERADIAN.)SOLID_ANGLE_UNIT());
#13=BREP_WITH_VOIDS('',#14,(#15));
#14=CLOSED_SHELL('',(#54,#55,#56,#57,#58,#59));
#15=ORIENTED_CLOSED_SHELL('',*,#60,.T.);
#16=COLOUR_RGB('',0.564705882352941,0.564705882352941,0.564705882352941);
#17=FILL_AREA_STYLE_COLOUR('',#16);
#18=FILL_AREA_STYLE($,(#17));
#19=SURFACE_STYLE_FILL_AREA(#18);
#20=SURFACE_SIDE_STYLE('',(#19));
#21=SURFACE_STYLE_USAGE(.BOTH.,#20);
#22=PRESENTATION_STYLE_ASSIGNMENT((#21));
#23=MECHANICAL_DESIGN_GEOMETRIC_PRESENTATION_REPRESENTATION('NONE',(#24),#8);
#24=STYLED_ITEM('',(#22),#13);
#25=ADVANCED_BREP_SHAPE_REPRESENTATION('NONE',(#13),#8);
#26=SHAPE_REPRESENTATION_RELATIONSHIP('','',#3,#25);
#27=PRODUCT_DEFINITION_SHAPE('NONE','NONE',#1);
#28=MECHANICAL_CONTEXT('NONE',#33,'mechanical');
#29=PRODUCT_DEFINITION_FORMATION_WITH_SPECIFIED_SOURCE('ANY','UNSPECIFIED',#30,.NOT_KNOWN.);
#30=PRODUCT('','\X2\0414043504420430043B044C\X0\','NONE',(#28));
#31=PRODUCT_RELATED_PRODUCT_CATEGORY('detail','',(#30));
#32=DESIGN_CONTEXT('detailed design',#33,'design');
#33=APPLICATION_CONTEXT('configuration controlled 3d designs of mechanical parts and assemblies');
#34=APPLICATION_PROTOCOL_DEFINITION('international standard','config_control_design',
1994,#33);
#35=CC_DESIGN_DATE_AND_TIME_ASSIGNMENT(#36,#40,(#1));
#36=DATE_AND_TIME(#37,#38);
#37=CALENDAR_DATE(0,1,1);
#38=LOCAL_TIME(0,0,0.,#39);
#39=COORDINATED_UNIVERSAL_TIME_OFFSET(0,0,.AHEAD.);
#40=DATE_TIME_ROLE('creation_date');
#41=CC_DESIGN_APPROVAL(#42,(#1));
#42=APPROVAL(#43,'UNSPECIFIED');
#43=APPROVAL_STATUS('not_yet_approved');
#44=APPROVAL_DATE_TIME(#45,#42);
#45=DATE_AND_TIME(#46,#47);
#46=CALENDAR_DATE(0,1,1);
#47=LOCAL_TIME(0,0,0.,#48);
#48=COORDINATED_UNIVERSAL_TIME_OFFSET(0,0,.AHEAD.);
#49=PERSON('UNSPECIFIED','v.smetana','UNSPECIFIED',('UNSPECIFIED'),('UNSPECIFIED'),
('UNSPECIFIED'));
#50=ORGANIZATION('UNSPECIFIED','UNSPECIFIED','UNSPECIFIED');
#51=PERSON_AND_ORGANIZATION(#49,#50);
#52=PERSON_AND_ORGANIZATION_ROLE('creator');
#53=CC_DESIGN_PERSON_AND_ORGANIZATION_ASSIGNMENT(#51,#52,(#29,#1));
#54=ADVANCED_FACE('',(#61),#63,.T.);
#55=ADVANCED_FACE('',(#68),#70,.T.);
#56=ADVANCED_FACE('',(#75),#77,.T.);
#57=ADVANCED_FACE('',(#82),#84,.T.);
#58=ADVANCED_FACE('',(#89),#91,.T.);
#59=ADVANCED_FACE('',(#96),#98,.F.);
#60=CLOSED_SHELL('',(#103,#104));
#61=FACE_BOUND('',#62,.T.);
#62=EDGE_LOOP('',(#105,#106,#107,#108));
#63=PLANE('',#64);
#64=AXIS2_PLACEMENT_3D('',#65,#66,#67);
#65=CARTESIAN_POINT('',(1045.68482410413,1130.46388769145,0.));
#66=DIRECTION('',(2.17439968719092E-16,1.,0.));
#67=DIRECTION('',(-1.,2.17439968719092E-16,0.));
#68=FACE_BOUND('',#69,.T.);
#69=EDGE_LOOP('',(#109,#110,#111,#112));
#70=PLANE('',#71);
#71=AXIS2_PLACEMENT_3D('',#72,#73,#74);
#72=CARTESIAN_POINT('',(1045.68482410413,-1130.46388769145,0.));
#73=DIRECTION('',(1.,-2.0113307281983E-16,0.));
#74=DIRECTION('',(2.0113307281983E-16,1.,0.));
#75=FACE_BOUND('',#76,.T.);
#76=EDGE_LOOP('',(#113,#114,#115,#116));
#77=PLANE('',#78);
#78=AXIS2_PLACEMENT_3D('',#79,#80,#81);
#79=CARTESIAN_POINT('',(-1045.68482410413,-1130.46388769145,0.));
#80=DIRECTION('',(-2.17439968719092E-16,-1.,0.));
#81=DIRECTION('',(1.,-2.17439968719092E-16,0.));
#82=FACE_BOUND('',#83,.T.);
#83=EDGE_LOOP('',(#117,#118,#119,#120));
#84=PLANE('',#85);
#85=AXIS2_PLACEMENT_3D('',#86,#87,#88);
#86=CARTESIAN_POINT('',(-1045.68482410413,1130.46388769145,0.));
#87=DIRECTION('',(-1.,2.0113307281983E-16,0.));
#88=DIRECTION('',(-2.0113307281983E-16,-1.,0.));
#89=FACE_BOUND('',#90,.T.);
#90=EDGE_LOOP('',(#121,#122,#123,#124));
#91=PLANE('',#92);
#92=AXIS2_PLACEMENT_3D('',#93,#94,#95);
#93=CARTESIAN_POINT('',(-1045.68482410413,1130.46388769145,1300.));
#94=DIRECTION('',(0.,0.,1.));
#95=DIRECTION('',(-2.0113307281983E-16,-1.,0.));
#96=FACE_BOUND('',#97,.T.);
#97=EDGE_LOOP('',(#125,#126,#127,#128));
#98=PLANE('',#99);
#99=AXIS2_PLACEMENT_3D('',#100,#101,#102);
#100=CARTESIAN_POINT('',(-1045.68482410413,1130.46388769145,-1300.));
#101=DIRECTION('',(0.,0.,1.));
#102=DIRECTION('',(-2.0113307281983E-16,-1.,0.));
#103=ADVANCED_FACE('',(#129),#131,.F.);
#104=ADVANCED_FACE('',(#136),#138,.T.);
#105=ORIENTED_EDGE('',*,*,#143,.T.);
#106=ORIENTED_EDGE('',*,*,#144,.F.);
#107=ORIENTED_EDGE('',*,*,#145,.F.);
#108=ORIENTED_EDGE('',*,*,#146,.T.);
#109=ORIENTED_EDGE('',*,*,#145,.T.);
#110=ORIENTED_EDGE('',*,*,#147,.F.);
#111=ORIENTED_EDGE('',*,*,#148,.F.);
#112=ORIENTED_EDGE('',*,*,#149,.T.);
#113=ORIENTED_EDGE('',*,*,#148,.T.);
#114=ORIENTED_EDGE('',*,*,#150,.F.);
#115=ORIENTED_EDGE('',*,*,#151,.F.);
#116=ORIENTED_EDGE('',*,*,#152,.T.);
#117=ORIENTED_EDGE('',*,*,#151,.T.);
#118=ORIENTED_EDGE('',*,*,#153,.F.);
#119=ORIENTED_EDGE('',*,*,#143,.F.);
#120=ORIENTED_EDGE('',*,*,#154,.T.);
#121=ORIENTED_EDGE('',*,*,#153,.T.);
#122=ORIENTED_EDGE('',*,*,#150,.T.);
#123=ORIENTED_EDGE('',*,*,#147,.T.);
#124=ORIENTED_EDGE('',*,*,#144,.T.);
#125=ORIENTED_EDGE('',*,*,#146,.F.);
#126=ORIENTED_EDGE('',*,*,#149,.F.);
#127=ORIENTED_EDGE('',*,*,#152,.F.);
#128=ORIENTED_EDGE('',*,*,#154,.F.);
#129=FACE_BOUND('',#130,.T.);
#130=EDGE_LOOP('',(#155,#156));
#131=SPHERICAL_SURFACE('',#132,35.);
#132=AXIS2_PLACEMENT_3D('',#133,#134,#135);
#133=CARTESIAN_POINT('',(2.14313189850787E-15,0.,0.));
#134=DIRECTION('',(1.22464679914735E-16,-1.,0.));
#135=DIRECTION('',(-1.,-1.22464679914735E-16,0.));
#136=FACE_BOUND('',#137,.T.);
#137=EDGE_LOOP('',(#157,#158));
#138=PLANE('',#139);
#139=AXIS2_PLACEMENT_3D('',#140,#141,#142);
#140=CARTESIAN_POINT('',(0.,0.,0.));
#141=DIRECTION('',(0.,0.,1.));
#142=DIRECTION('',(-1.,1.22464679914735E-16,0.));
#143=EDGE_CURVE('',#159,#160,#161,.T.);
#144=EDGE_CURVE('',#162,#160,#163,.T.);
#145=EDGE_CURVE('',#164,#162,#165,.T.);
#146=EDGE_CURVE('',#164,#159,#166,.T.);
#147=EDGE_CURVE('',#167,#162,#168,.T.);
#148=EDGE_CURVE('',#169,#167,#170,.T.);
#149=EDGE_CURVE('',#169,#164,#171,.T.);
#150=EDGE_CURVE('',#172,#167,#173,.T.);
#151=EDGE_CURVE('',#174,#172,#175,.T.);
#152=EDGE_CURVE('',#174,#169,#176,.T.);
#153=EDGE_CURVE('',#160,#172,#177,.T.);
#154=EDGE_CURVE('',#159,#174,#178,.T.);
#155=ORIENTED_EDGE('',*,*,#179,.F.);
#156=ORIENTED_EDGE('',*,*,#180,.F.);
#157=ORIENTED_EDGE('',*,*,#179,.T.);
#158=ORIENTED_EDGE('',*,*,#180,.T.);
#159=VERTEX_POINT('',#181);
#160=VERTEX_POINT('',#182);
#161=LINE('',#183,#184);
#162=VERTEX_POINT('',#186);
#163=LINE('',#187,#188);
#164=VERTEX_POINT('',#190);
#165=LINE('',#191,#192);
#166=LINE('',#194,#195);
#167=VERTEX_POINT('',#197);
#168=LINE('',#198,#199);
#169=VERTEX_POINT('',#201);
#170=LINE('',#202,#203);
#171=LINE('',#205,#206);
#172=VERTEX_POINT('',#208);
#173=LINE('',#209,#210);
#174=VERTEX_POINT('',#212);
#175=LINE('',#213,#214);
#176=LINE('',#216,#217);
#177=LINE('',#219,#220);
#178=LINE('',#222,#223);
#179=EDGE_CURVE('',#225,#226,#227,.F.);
#180=EDGE_CURVE('',#226,#225,#228,.T.);
#181=CARTESIAN_POINT('',(-1045.68482410413,1130.46388769145,-1300.));
#182=CARTESIAN_POINT('',(-1045.68482410413,1130.46388769145,1300.));
#183=CARTESIAN_POINT('',(-1045.68482410413,1130.46388769145,-1300.));
#184=VECTOR('',#185,1.);
#185=DIRECTION('',(0.,0.,1.));
#186=CARTESIAN_POINT('',(1045.68482410413,1130.46388769145,1300.));
#187=CARTESIAN_POINT('',(1045.68482410413,1130.46388769145,1300.));
#188=VECTOR('',#189,1.);
#189=DIRECTION('',(-1.,2.17439968719092E-16,0.));
#190=CARTESIAN_POINT('',(1045.68482410413,1130.46388769145,-1300.));
#191=CARTESIAN_POINT('',(1045.68482410413,1130.46388769145,-1300.));
#192=VECTOR('',#193,1.);
#193=DIRECTION('',(0.,0.,1.));
#194=CARTESIAN_POINT('',(1045.68482410413,1130.46388769145,-1300.));
#195=VECTOR('',#196,1.);
#196=DIRECTION('',(-1.,2.17439968719092E-16,0.));
#197=CARTESIAN_POINT('',(1045.68482410413,-1130.46388769145,1300.));
#198=CARTESIAN_POINT('',(1045.68482410413,-1130.46388769145,1300.));
#199=VECTOR('',#200,1.);
#200=DIRECTION('',(2.0113307281983E-16,1.,0.));
#201=CARTESIAN_POINT('',(1045.68482410413,-1130.46388769145,-1300.));
#202=CARTESIAN_POINT('',(1045.68482410413,-1130.46388769145,-1300.));
#203=VECTOR('',#204,1.);
#204=DIRECTION('',(0.,0.,1.));
#205=CARTESIAN_POINT('',(1045.68482410413,-1130.46388769145,-1300.));
#206=VECTOR('',#207,1.);
#207=DIRECTION('',(2.0113307281983E-16,1.,0.));
#208=CARTESIAN_POINT('',(-1045.68482410413,-1130.46388769145,1300.));
#209=CARTESIAN_POINT('',(-1045.68482410413,-1130.46388769145,1300.));
#210=VECTOR('',#211,1.);
#211=DIRECTION('',(1.,-2.17439968719092E-16,0.));
#212=CARTESIAN_POINT('',(-1045.68482410413,-1130.46388769145,-1300.));
#213=CARTESIAN_POINT('',(-1045.68482410413,-1130.46388769145,-1300.));
#214=VECTOR('',#215,1.);
#215=DIRECTION('',(0.,0.,1.));
#216=CARTESIAN_POINT('',(-1045.68482410413,-1130.46388769145,-1300.));
#217=VECTOR('',#218,1.);
#218=DIRECTION('',(1.,-2.17439968719092E-16,0.));
#219=CARTESIAN_POINT('',(-1045.68482410413,1130.46388769145,1300.));
#220=VECTOR('',#221,1.);
#221=DIRECTION('',(-2.0113307281983E-16,-1.,0.));
#222=CARTESIAN_POINT('',(-1045.68482410413,1130.46388769145,-1300.));
#223=VECTOR('',#224,1.);
#224=DIRECTION('',(-2.0113307281983E-16,-1.,0.));
#225=VERTEX_POINT('',#229);
#226=VERTEX_POINT('',#230);
#227=CIRCLE('',#231,35.);
#228=CIRCLE('',#235,35.);
#229=CARTESIAN_POINT('',(5.35782974626967E-15,-35.,3.3635717359039E-31));
#230=CARTESIAN_POINT('',(-1.07156594925393E-15,35.,9.84217357371844E-32));
#231=AXIS2_PLACEMENT_3D('',#232,#233,#234);
#232=CARTESIAN_POINT('',(2.14313189850787E-15,0.,0.));
#233=DIRECTION('',(0.,0.,-1.));
#234=DIRECTION('',(-3.06161699786838E-16,1.,0.));
#235=AXIS2_PLACEMENT_3D('',#236,#237,#238);
#236=CARTESIAN_POINT('',(2.14313189850787E-15,0.,0.));
#237=DIRECTION('',(0.,0.,1.));
#238=DIRECTION('',(3.06161699786838E-16,1.,0.));
ENDSEC;
END-ISO-10303-21;
