# vtk DataFile Version 3.0
Generated by FvKompasPlugin. Date/time (GMT): Sat Jun 20 12:30:31 2026
ASCII
DATASET UNSTRUCTURED_GRID
POINTS 102 double
-34.9954296875 0.3999608154296875 -1.85
-35.00138671875 -0.1212103729248047 -1.77506201171875
-35.006859375 -0.6001593627929688 -1.556319091796875
-35.01140625 -0.9980845947265625 -1.211492309570313
-35.01466015625 -1.28274853515625 -0.7685177612304688
-35.01635546875 -1.431089233398438 -0.2632824401855469
-35.01635546875 -1.431089233398438 0.2632824401855469
-35.01466015625 -1.28274853515625 0.7685177612304688
-35.01140625 -0.9980845947265625 1.211492309570313
-35.006859375 -0.6001593627929688 1.556319091796875
-35.00138671875 -0.1212103729248047 1.77506201171875
-34.9954296875 0.3999608154296875 1.85
-34.98947265625 0.9211320190429688 1.77506201171875
-34.984 1.4000810546875 1.556319091796875
-34.97944921875 1.798006225585937 1.211492309570313
-34.97619921875 2.082670166015625 0.7685177612304688
-34.9745 2.231010986328125 0.2632824401855469
-34.9745 2.231010986328125 -0.2632824401855469
-34.97619921875 2.082670166015625 -0.7685177612304688
-34.97944921875 1.798006225585937 -1.211492309570313
-34.984 1.4000810546875 -1.556319091796875
-34.98947265625 0.9211320190429688 -1.77506201171875
20.6952578125 0.2699200744628906 -1.85
20.697123046875 0.1277563552856445 -1.844528930664063
20.700060546875 -0.09623338317871094 -1.8133984375
20.704908203125 -0.4658051147460938 -1.697391235351563
20.708896484375 -0.7698038330078125 -1.53014111328125
20.71248046875 -1.042939453125 -1.303331420898437
20.71547265625 -1.27108984375 -1.023462707519531
20.71771484375 -1.442042236328125 -0.7009274291992188
20.719064453125 -1.544897583007812 -0.3584732971191406
20.719470703125 -1.575876098632813 -0.1228334426879883
20.719478515625 -1.576501098632813 0.1130484313964844
20.71876953125 -1.522366333007813 0.4580245666503907
20.717220703125 -1.404302124023437 0.7868361206054688
20.714904296875 -1.227687133789062 1.085991333007813
20.711876953125 -0.9969446411132813 1.348088500976563
20.70825390625 -0.7208091430664063 1.562314453125
20.70415234375 -0.40810693359375 1.721255004882813
20.69967578125 -0.0668896484375 1.819077880859375
20.696462890625 0.1780721130371094 1.84771826171875
20.692728515625 0.4626824035644531 1.8399287109375
20.688048828125 0.8194583129882813 1.766484619140625
20.683716796875 1.149621215820313 1.6274287109375
20.680345703125 1.406627563476563 1.459529418945313
20.67687109375 1.67151708984375 1.20738037109375
20.674123046875 1.881054931640625 0.9090671386718751
20.672224609375 2.025679931640625 0.582581787109375
20.67130078125 2.096208984375 0.2944986572265625
20.6709921875 2.11973828125 0.01491856384277344
20.671181640625 2.10528271484375 -0.2313027648925781
20.672173828125 2.029537231445313 -0.5708239135742188
20.67400390625 1.890044189453125 -0.8929458618164062
20.676349609375 1.711322143554687 -1.159563110351562
20.679654296875 1.459375610351562 -1.416865966796875
20.68348046875 1.167652709960938 -1.617550659179688
20.6877109375 0.8451434936523438 -1.758287353515625
20.69219140625 0.5036213684082032 -1.835177490234375
2.13154638671875 0.2007288055419922 -1.85
-16.432244140625 0.2440762481689453 -1.85
2.1390205078125 0.7219393920898438 -1.77506201171875
-16.42552734375 0.7652529296875 -1.77506201171875
2.138685791015625 1.200919555664063 -1.556319091796875
-16.422958984375 1.244226318359375 -1.556319091796875
2.13840771484375 1.59887060546875 -1.211492309570313
-16.42082421875 1.642171752929688 -1.211492309570313
2.138208984375 1.883553100585938 -0.7685177612304688
-16.419296875 1.926850219726562 -0.7685177612304688
2.138105224609375 2.031903442382812 -0.2632824401855469
-16.4185 2.075198486328125 -0.2632824401855469
2.138105224609375 2.031903442382812 0.2632824401855469
-16.4185 2.075198486328125 0.2632824401855469
2.138208984375 1.883553100585938 0.7685177612304688
-16.419296875 1.926850219726562 0.7685177612304688
2.13840771484375 1.59887060546875 1.211492309570313
-16.42082421875 1.642171752929688 1.211492309570313
2.138685791015625 1.200919555664063 1.556319091796875
-16.422958984375 1.244226318359375 1.556319091796875
2.1390205078125 0.7219393920898438 1.77506201171875
-16.42552734375 0.7652529296875 1.77506201171875
2.139384521484375 0.2007342681884766 1.85
-16.42832421875 0.2440552215576172 1.85
2.139748779296875 -0.3204708251953125 1.77506201171875
-16.43112109375 -0.2771425170898438 1.77506201171875
2.140083251953125 -0.7994509887695312 1.556319091796875
-16.433689453125 -0.7561159057617187 1.556319091796875
2.140361328125 -1.197402099609375 1.211492309570313
-16.43582421875 -1.154061401367187 1.211492309570313
2.140560302734375 -1.48208447265625 0.7685177612304688
-16.4373515625 -1.43873974609375 0.7685177612304688
2.140663818359375 -1.630434936523438 0.2632824401855469
-16.4381484375 -1.587088134765625 0.2632824401855469
2.140663818359375 -1.630434936523438 -0.2632824401855469
-16.4381484375 -1.587088134765625 -0.2632824401855469
2.140560302734375 -1.48208447265625 -0.7685177612304688
-16.4373515625 -1.43873974609375 -0.7685177612304688
2.140361328125 -1.197402099609375 -1.211492309570313
-16.43582421875 -1.154061401367187 -1.211492309570313
2.140083251953125 -0.7994509887695312 -1.556319091796875
-16.433689453125 -0.7561159057617187 -1.556319091796875
2.139748779296875 -0.3204708251953125 -1.77506201171875
-16.43112109375 -0.2771425170898438 -1.77506201171875

CELLS 200 800
3 21 0 20
3 0 1 20
3 20 1 19
3 1 2 19
3 19 2 18
3 2 3 18
3 18 3 17
3 3 4 17
3 17 4 16
3 4 5 16
3 16 5 15
3 5 6 15
3 15 6 14
3 6 7 14
3 14 7 13
3 7 8 13
3 13 8 12
3 8 9 12
3 12 9 11
3 9 10 11
3 60 61 62
3 62 61 63
3 62 63 64
3 64 63 65
3 64 65 67
3 64 67 66
3 66 67 69
3 66 69 68
3 68 69 71
3 68 71 70
3 70 71 72
3 72 71 73
3 72 73 74
3 74 73 75
3 74 75 77
3 74 77 76
3 76 77 79
3 76 79 78
3 78 79 80
3 80 79 81
3 80 81 82
3 82 81 83
3 82 83 85
3 82 85 84
3 84 85 87
3 84 87 86
3 86 87 89
3 86 89 88
3 88 89 90
3 90 89 91
3 90 91 93
3 90 93 92
3 92 93 95
3 92 95 94
3 94 95 97
3 94 97 96
3 96 97 98
3 98 97 99
3 98 99 100
3 100 99 101
3 58 22 23
3 23 24 58
3 24 25 100
3 25 26 98
3 26 27 98
3 27 28 96
3 28 29 94
3 29 30 94
3 30 31 92
3 31 32 92
3 32 33 90
3 33 34 88
3 34 35 88
3 35 36 86
3 36 37 84
3 37 38 84
3 38 39 82
3 39 40 80
3 40 41 80
3 41 42 78
3 42 43 78
3 43 44 76
3 44 45 74
3 45 46 74
3 46 47 72
3 47 48 70
3 48 49 70
3 49 50 68
3 50 51 68
3 51 52 66
3 52 53 64
3 53 54 64
3 54 55 62
3 55 56 60
3 56 57 60
3 57 22 58
3 58 59 61
3 59 0 21
3 21 20 63
3 20 19 65
3 19 18 67
3 18 17 69
3 17 16 71
3 16 15 73
3 15 14 75
3 14 13 77
3 13 12 79
3 12 11 81
3 11 10 83
3 10 9 83
3 9 8 85
3 8 7 87
3 7 6 89
3 6 5 91
3 5 4 93
3 4 3 97
3 3 2 97
3 2 1 99
3 1 0 59
3 59 58 101
3 61 60 58
3 60 62 55
3 63 61 21
3 62 64 54
3 65 63 20
3 64 66 52
3 67 65 19
3 66 68 51
3 69 67 18
3 68 70 49
3 71 69 17
3 70 72 47
3 73 71 16
3 72 74 46
3 75 73 15
3 74 76 44
3 77 75 14
3 76 78 43
3 79 77 13
3 78 80 41
3 81 79 12
3 80 82 39
3 83 81 11
3 82 84 38
3 85 83 9
3 84 86 36
3 87 85 8
3 86 88 35
3 89 87 7
3 88 90 33
3 91 89 6
3 90 92 32
3 93 91 5
3 92 94 30
3 95 93 4
3 94 96 28
3 97 95 4
3 96 98 27
3 99 97 2
3 98 100 25
3 101 99 1
3 100 101 58
3 58 24 100
3 60 57 58
3 61 59 21
3 1 59 101
3 23 22 24
3 22 57 24
3 24 57 25
3 57 56 25
3 25 56 26
3 56 55 26
3 26 55 27
3 55 54 27
3 27 54 28
3 54 53 28
3 28 53 29
3 53 52 29
3 29 52 30
3 52 51 30
3 30 51 31
3 51 50 31
3 31 50 32
3 50 49 32
3 32 49 33
3 49 48 33
3 33 48 34
3 48 47 34
3 34 47 35
3 47 46 35
3 35 46 36
3 46 45 36
3 36 45 37
3 45 44 37
3 37 44 38
3 44 43 38
3 38 43 39
3 43 42 39
3 39 42 40
3 42 41 40

CELL_TYPES 200
5 5 5 5 5 5 5 5 5 5 5 5 5 5 5 5 5 5 5 5
5 5 5 5 5 5 5 5 5 5 5 5 5 5 5 5 5 5 5 5
5 5 5 5 5 5 5 5 5 5 5 5 5 5 5 5 5 5 5 5
5 5 5 5 5 5 5 5 5 5 5 5 5 5 5 5 5 5 5 5
5 5 5 5 5 5 5 5 5 5 5 5 5 5 5 5 5 5 5 5
5 5 5 5 5 5 5 5 5 5 5 5 5 5 5 5 5 5 5 5
5 5 5 5 5 5 5 5 5 5 5 5 5 5 5 5 5 5 5 5
5 5 5 5 5 5 5 5 5 5 5 5 5 5 5 5 5 5 5 5
5 5 5 5 5 5 5 5 5 5 5 5 5 5 5 5 5 5 5 5
5 5 5 5 5 5 5 5 5 5 5 5 5 5 5 5 5 5 5 5

CELL_DATA 200
FIELD FieldData 1
PATCH_IDS 1 200 int
1 1 1 1 1 1 1 1 1 1 1 1 1 1 1 1 1 1 1 1
2 2 2 2 2 2 2 2 2 2 2 2 2 2 2 2 2 2 2 2
2 2 2 2 2 2 2 2 2 2 2 2 2 2 2 2 2 2 2 2
2 2 2 2 2 2 2 2 2 2 2 2 2 2 2 2 2 2 2 2
2 2 2 2 2 2 2 2 2 2 2 2 2 2 2 2 2 2 2 2
2 2 2 2 2 2 2 2 2 2 2 2 2 2 2 2 2 2 2 2
2 2 2 2 2 2 2 2 2 2 2 2 2 2 2 2 2 2 2 2
2 2 2 2 2 2 2 2 2 2 2 2 2 2 2 2 2 2 2 2
2 2 2 2 2 2 3 3 3 3 3 3 3 3 3 3 3 3 3 3
3 3 3 3 3 3 3 3 3 3 3 3 3 3 3 3 3 3 3 3

