# vtk DataFile Version 3.0
Generated by FvKompasPlugin. Date/time (GMT): Sat Jun 13 13:17:14 2026
ASCII
DATASET UNSTRUCTURED_GRID
POINTS 96 double
69.137328125 -1.13279828226065e-16 1.85
69.137328125 1.000185485839844 1.556319091796875
69.137328125 1.682819213867188 0.7685177612304688
69.137328125 1.831169677734375 -0.2632824401855469
69.137328125 1.39813671875 -1.211492309570313
69.137328125 0.5212052001953125 -1.77506201171875
69.137328125 -0.5212052001953125 -1.77506201171875
69.137328125 -1.39813671875 -1.211492309570313
69.137328125 -1.831169677734375 -0.2632824401855469
69.137328125 -1.682819213867188 0.7685177612304688
69.137328125 -1.000185485839844 1.556319091796875
36.9696171875 -1.13279828226065e-16 1.85
36.9696171875 1.000185485839844 1.556319091796875
36.9696171875 1.682819213867188 0.7685177612304688
36.9696171875 1.831169677734375 -0.2632824401855469
36.9696171875 1.39813671875 -1.211492309570313
36.9696171875 0.5212052001953125 -1.77506201171875
36.9696171875 -0.5212052001953125 -1.77506201171875
36.9696171875 -1.39813671875 -1.211492309570313
36.9696171875 -1.831169677734375 -0.2632824401855469
36.9696171875 -1.682819213867188 0.7685177612304688
36.9696171875 -1.000185485839844 1.556319091796875
4.80061279296875 -1.13279828226065e-16 1.85
4.80061279296875 1.000185485839844 1.556319091796875
4.80061279296875 1.682819213867188 0.7685177612304688
4.80061279296875 1.831169677734375 -0.2632824401855469
4.80061279296875 1.39813671875 -1.211492309570313
4.80061279296875 0.5212052001953125 -1.77506201171875
4.80061279296875 -0.5212052001953125 -1.77506201171875
4.80061279296875 -1.39813671875 -1.211492309570313
4.80061279296875 -1.831169677734375 -0.2632824401855469
4.80061279296875 -1.682819213867188 0.7685177612304688
4.80061279296875 -1.000185485839844 1.556319091796875
69.337328125 -1.010333581120265e-16 1.65
69.337328125 -0.892057373046875 1.388068359375
69.337328125 -1.500892822265625 0.6854347534179688
69.337328125 -1.633205322265625 -0.2348194885253906
69.337328125 -1.24698681640625 -1.080520263671875
69.337328125 -0.4648587036132812 -1.583163452148437
69.337328125 0.4648587036132812 -1.583163452148437
69.337328125 1.24698681640625 -1.080520263671875
69.337328125 1.633205322265625 -0.2348194885253906
69.337328125 1.500892822265625 0.6854347534179688
69.337328125 0.892057373046875 1.388068359375
69.23733593750001 -1.071564711963013e-16 1.749998046875
69.23733593750001 0.946120361328125 1.472192016601563
69.23733593750001 1.591854125976563 0.7269754638671875
69.23733593750001 1.732185546875 -0.2490506896972656
69.23733593750001 1.322560302734375 -1.146005004882813
69.23733593750001 0.4930314025878906 -1.67911083984375
69.23733593750001 -0.4930314025878906 -1.67911083984375
69.23733593750001 -1.322560302734375 -1.146005004882813
69.23733593750001 -1.732185546875 -0.2490506896972656
69.23733593750001 -1.591854125976563 0.7269754638671875
69.23733593750001 -0.946120361328125 1.472192016601563
-0.3043831176757812 -3.209022606562133e-17 0.5240731201171875
2.15768701171875 -2.820109868285209e-16 1.5351962890625
-0.3043831176757812 -0.3080424499511719 0.4239840698242188
-0.3043831176757812 -0.4984231872558594 0.161947509765625
-0.3043831176757812 -0.4984231872558594 -0.161947509765625
-0.3043831176757812 -0.3080424499511719 -0.4239840698242188
-0.3043831176757812 9.627067480873219e-17 -0.5240731201171875
-0.3043831176757812 0.3080424499511719 -0.4239840698242188
-0.3043831176757812 0.4984231872558594 -0.161947509765625
-0.3043831176757812 0.4984231872558594 0.161947509765625
-0.3043831176757812 0.3080424499511719 0.4239840698242188
2.15768701171875 0.82998974609375 1.2914892578125
2.15768701171875 1.396463623046875 0.6377435913085938
2.15768701171875 1.519570190429687 -0.2184812164306641
2.15768701171875 1.160223999023438 -1.005339782714844
2.15768701171875 0.4325147705078125 -1.473010009765625
2.15768701171875 -0.4325147705078125 -1.473010009765625
2.15768701171875 -1.160223999023438 -1.005339782714844
2.15768701171875 -1.519570190429687 -0.2184812164306641
2.15768701171875 -1.396463623046875 0.6377435913085938
2.15768701171875 -0.82998974609375 1.2914892578125
-0.6626688842773437 -1.240353773188795e-30 2.025651521520011e-14
-0.564536376953125 -5.830907046262823e-17 0.3174197998046875
-0.4922638244628906 0.2370487518310547 0.3262696228027344
-0.4922638244628906 0.3835529479980469 0.1246239013671875
-0.4922638244628906 0.3835529479980469 -0.1246239013671875
-0.4922638244628906 0.2370487518310547 -0.3262696228027344
-0.4922638244628906 7.408343280198085e-17 -0.4032914123535156
-0.4922638244628906 -0.2370487518310547 -0.3262696228027344
-0.4922638244628906 -0.3835529479980469 -0.1246239013671875
-0.4922638244628906 -0.3835529479980469 0.1246239013671875
-0.4922638244628906 -0.2370487518310547 0.3262696228027344
-0.6183190307617188 0.1286705627441406 0.177099838256836
-0.6183190307617188 0.2081933441162109 0.0676461181640625
-0.6183190307617188 0.2081933441162109 -0.0676461181640625
-0.6183190307617188 0.1286705627441406 -0.177099838256836
-0.6183190307617188 4.02126452254091e-17 -0.2189074401855469
-0.6183190307617188 -0.1286705627441406 -0.177099838256836
-0.6183190307617188 -0.2081933441162109 -0.0676461181640625
-0.6183190307617188 -0.2081933441162109 0.0676461181640625
-0.6183190307617188 -0.1286705627441406 0.177099838256836

CELLS 188 752
3 0 1 12
3 0 12 11
3 1 2 13
3 1 13 12
3 2 3 14
3 2 14 13
3 3 4 15
3 3 15 14
3 4 5 16
3 4 16 15
3 5 6 17
3 5 17 16
3 6 7 18
3 6 18 17
3 7 8 19
3 7 19 18
3 8 9 20
3 8 20 19
3 9 10 21
3 9 21 20
3 10 0 11
3 10 11 21
3 11 12 23
3 11 23 22
3 12 13 24
3 12 24 23
3 13 14 25
3 13 25 24
3 14 15 26
3 14 26 25
3 15 16 27
3 15 27 26
3 16 17 28
3 16 28 27
3 17 18 29
3 17 29 28
3 18 19 30
3 18 30 29
3 19 20 31
3 19 31 30
3 20 21 32
3 20 32 31
3 21 11 22
3 21 22 32
3 43 33 42
3 33 34 42
3 42 34 41
3 34 35 41
3 41 35 40
3 35 36 40
3 40 36 39
3 36 37 39
3 39 37 38
3 33 43 45
3 33 45 44
3 43 42 46
3 43 46 45
3 42 41 47
3 42 47 46
3 41 40 48
3 41 48 47
3 40 39 49
3 40 49 48
3 39 38 50
3 39 50 49
3 38 37 51
3 38 51 50
3 37 36 52
3 37 52 51
3 36 35 53
3 36 53 52
3 35 34 54
3 35 54 53
3 34 33 44
3 34 44 54
3 44 45 1
3 44 1 0
3 45 46 2
3 45 2 1
3 46 47 3
3 46 3 2
3 47 48 4
3 47 4 3
3 48 49 5
3 48 5 4
3 49 50 6
3 49 6 5
3 50 51 7
3 50 7 6
3 51 52 8
3 51 8 7
3 52 53 9
3 52 9 8
3 53 54 10
3 53 10 9
3 54 44 0
3 54 0 10
3 65 55 66
3 55 56 66
3 56 22 23
3 23 24 66
3 24 25 67
3 25 26 68
3 26 27 69
3 27 28 70
3 28 29 71
3 29 30 72
3 30 31 73
3 31 32 74
3 32 22 56
3 56 55 75
3 55 57 75
3 57 58 74
3 58 59 73
3 59 60 72
3 60 61 71
3 61 62 70
3 62 63 69
3 63 64 68
3 64 65 67
3 67 66 24
3 68 67 25
3 69 68 26
3 70 69 27
3 71 70 28
3 72 71 29
3 73 72 30
3 66 67 65
3 67 68 64
3 68 69 63
3 69 70 62
3 70 71 61
3 71 72 60
3 72 73 59
3 74 73 31
3 75 74 32
3 73 74 58
3 74 75 57
3 66 56 23
3 32 56 75
3 78 79 88
3 78 88 87
3 79 80 89
3 79 89 88
3 80 81 89
3 89 81 90
3 81 82 90
3 90 82 91
3 82 83 92
3 82 92 91
3 83 84 93
3 83 93 92
3 84 85 94
3 84 94 93
3 85 86 94
3 94 86 95
3 76 77 87
3 77 55 78
3 55 65 78
3 65 64 78
3 64 63 79
3 63 62 80
3 62 61 81
3 61 60 82
3 60 59 83
3 59 58 84
3 58 57 85
3 57 55 86
3 55 77 86
3 77 76 95
3 79 78 64
3 80 79 63
3 81 80 62
3 82 81 61
3 83 82 60
3 84 83 59
3 85 84 58
3 78 87 77
3 87 88 76
3 88 89 76
3 89 90 76
3 90 91 76
3 91 92 76
3 92 93 76
3 93 94 76
3 86 85 57
3 95 86 77
3 94 95 76

CELL_TYPES 188
5 5 5 5 5 5 5 5 5 5 5 5 5 5 5 5 5 5 5 5
5 5 5 5 5 5 5 5 5 5 5 5 5 5 5 5 5 5 5 5
5 5 5 5 5 5 5 5 5 5 5 5 5 5 5 5 5 5 5 5
5 5 5 5 5 5 5 5 5 5 5 5 5 5 5 5 5 5 5 5
5 5 5 5 5 5 5 5 5 5 5 5 5 5 5 5 5 5 5 5
5 5 5 5 5 5 5 5 5 5 5 5 5 5 5 5 5 5 5 5
5 5 5 5 5 5 5 5 5 5 5 5 5 5 5 5 5 5 5 5
5 5 5 5 5 5 5 5 5 5 5 5 5 5 5 5 5 5 5 5
5 5 5 5 5 5 5 5 5 5 5 5 5 5 5 5 5 5 5 5
5 5 5 5 5 5 5 5

CELL_DATA 188
FIELD FieldData 1
PATCH_IDS 1 188 int
1 1 1 1 1 1 1 1 1 1 1 1 1 1 1 1 1 1 1 1
1 1 1 1 1 1 1 1 1 1 1 1 1 1 1 1 1 1 1 1
1 1 1 1 2 2 2 2 2 2 2 2 2 3 3 3 3 3 3 3
3 3 3 3 3 3 3 3 3 3 3 3 3 3 3 3 3 3 3 3
3 3 3 3 3 3 3 3 3 3 3 3 3 3 3 3 3 4 4 4
4 4 4 4 4 4 4 4 4 4 4 4 4 4 4 4 4 4 4 4
4 4 4 4 4 4 4 4 4 4 4 4 4 4 4 4 4 4 4 4
5 5 5 5 5 5 5 5 5 5 5 5 5 5 5 5 5 5 5 5
5 5 5 5 5 5 5 5 5 5 5 5 5 5 5 5 5 5 5 5
5 5 5 5 5 5 5 5 

