# vtk DataFile Version 3.0
Generated by FvKompasPlugin. Date/time (GMT): Sat Jun 20 12:41:22 2026
ASCII
DATASET UNSTRUCTURED_GRID
POINTS 1087 double
29.52985398716883 0.06036304347698881 -2.599999999999996
30.21605319430116 0.06268185583039113 -2.48383081054687
30.89366846606863 0.06497166124942487 -2.325073242187495
31.56005723943402 0.06722352995429509 -2.124345703124995
32.21262382609245 0.06942869056484811 -1.882430664062495
32.84882331869911 0.071578543300542 -1.600270507812495
33.46618112200777 0.0736647259802972 -1.278964843749994
34.06228709352917 0.0756790942225414 -0.9197658691406193
34.63482093401111 0.07761380724501528 -0.5240731201171818
34.63529872894722 -0.06377861972511231 -0.5046390991210881
34.6357410880479 -0.1946846258547723 -0.447778259277338
34.6361152035608 -0.3053955110828118 -0.3577077636718692
34.636393328994 -0.3877003390133641 -0.2411077270507755
34.63655483712544 -0.4354949574864855 -0.1066258316039981
34.63658774939472 -0.4452345869364762 0.03576401519775969
34.63648962525112 -0.4161970024829867 0.1755014038085995
34.63626774190003 -0.3505357257659906 0.3022226562500058
34.63593855537298 -0.2531205409930792 0.4065294494628964
34.63552647999441 -0.1311763062057776 0.4806857910156307
34.63506207751081 0.006252932332680825 0.5191918945312558
34.63457979051142 0.1489746821573498 0.5191918945312558
34.63411538802781 0.2864039206958083 0.4806857910156307
34.63370331264924 0.4083481554831099 0.4065294494628964
34.63337412612219 0.5057633402560212 0.3022226562500058
34.6331522427711 0.5714246169730174 0.1755014038085995
34.63305411862749 0.6004622014265069 0.03576401519775969
34.63308703089678 0.5907225719765162 -0.1066258316039981
34.63324853902822 0.5429279535033947 -0.2411077270507755
34.63352666446144 0.4606231255728425 -0.3577077636718692
34.63390077997433 0.3499122403448029 -0.447778259277338
34.63434313907499 0.2190062342151429 -0.5046390991210881
29.5287304711953 0.3928417665211667 -2.57865405273437
29.52762540341753 0.719861170149497 -2.514966552734371
29.52655692874133 1.036051686630959 -2.40998364257812
29.52554259188639 1.336221359525144 -2.265428710937496
29.52459904770878 1.61544156706977 -2.083675537109371
29.52374178967343 1.869127374505111 -1.86770825195312
29.5229848938985 2.09311327827044 -1.62107348632812
29.52234078856837 2.283721442919117 -1.347820678710933
29.5218200489216 2.437822369717514 -1.052436645507808
29.52143122730136 2.552885189326616 -0.7397717285156201
29.52118070671819 2.627020996515537 -0.4149597167968701
29.52107260143779 2.659012268938873 -0.08333409881591308
29.52110868603115 2.648333863110563 0.2496598663330127
29.52128836814959 2.595161070998525 0.5785544433593799
29.52160869759981 2.500366934493109 0.8979491577148486
29.5220644141937 2.365508085331697 1.202599609375005
29.52264803602318 2.192798622200974 1.487503295898442
29.52334997867245 1.985074832618039 1.747982299804693
29.52415871733008 1.745747219571497 1.97975952148438
29.52506097200112 1.478745692264079 2.179029052734379
29.52604192778158 1.188454380937947 2.342519042968755
29.52708547782042 0.8796397378711367 2.467544921875005
29.52817448659703 0.5573726264454396 2.552053710937505
29.52929107263781 0.2269446576836514 2.59465795898438
29.53041690169986 -0.1062185707296735 2.59465795898438
29.53153348774063 -0.4366465394914616 2.552053710937505
29.53262249651724 -0.7589136509171588 2.467544921875005
29.53366604655608 -1.067728293983969 2.342519042968755
29.53464700233654 -1.358019605310101 2.179029052734379
29.53554925700758 -1.625021132617519 1.97975952148438
29.53635799566521 -1.864348745664062 1.747982299804693
29.53705993831448 -2.072072535246996 1.487503295898442
29.53764356014396 -2.244781998377719 1.202599609375005
29.53809927673785 -2.379640847539132 0.8979491577148486
29.53841960618806 -2.474434984044547 0.5785544433593799
29.53859928830651 -2.527607776156585 0.2496598663330127
29.53863537289986 -2.538286181984895 -0.0833340988159131
29.53852726761946 -2.506294909561559 -0.4149597167968702
29.5382767470363 -2.432159102372638 -0.7397717285156201
29.53788792541606 -2.317096282763536 -1.052436645507808
29.53736718576929 -2.16299535596514 -1.347820678710933
29.53672308043916 -1.972387191316462 -1.62107348632812
29.53596618466423 -1.748401287551133 -1.86770825195312
29.53510892662888 -1.494715480115792 -2.083675537109371
29.53416538245127 -1.215495272571166 -2.265428710937496
29.53315104559633 -0.9153255996769809 -2.40998364257812
29.53208257092014 -0.599135083195519 -2.514966552734371
29.53097750314236 -0.2721156795671888 -2.57865405273437
34.06267663746106 -0.03959747691272365 -0.9125132446289006
34.06306003804435 -0.1530560652637341 -0.8908696899414006
34.06343124879038 -0.2629073515178346 -0.8551766357421818
34.06378441564129 -0.36741896183802 -0.8059969482421818
34.06411396877689 -0.4649426359817437 -0.7441062011718693
34.06441471091517 -0.5539403578279948 -0.6704804687499943
34.06468189934813 -0.6330086319720886 -0.5862808227539006
34.06491132019153 -0.7009004562564646 -0.4928351745605412
34.06509935541608 -0.7565451580832111 -0.3916172485351506
34.06524303977223 -0.7990652400210104 -0.2842232666015568
34.06534010678385 -0.8277899905672718 -0.1723469390869084
34.06538902628566 -0.8422665924831451 -0.05775257492064862
34.06538902628566 -0.8422665924831451 0.05775257492065997
34.06534010678385 -0.8277899905672718 0.1723469390869198
34.06524303977223 -0.7990652400210104 0.2842232666015682
34.06509935541608 -0.7565451580832111 0.3916172485351619
34.06491132019153 -0.7009004562564646 0.4928351745605526
34.06468189934813 -0.6330086319720886 0.5862808227539119
34.06441471091517 -0.5539403578279948 0.6704804687500057
34.06411396877689 -0.4649426359817437 0.7441062011718808
34.06378441564129 -0.36741896183802 0.8059969482421933
34.06343124879038 -0.2629073515178346 0.8551766357421932
34.06306003804435 -0.1530560652637341 0.8908696899414119
34.06267663746106 -0.03959747691272365 0.9125132446289119
34.06228709352917 0.07567909422254251 0.9197658691406307
34.06189754959728 0.1909556653578064 0.9125132446289119
34.06151414901399 0.3044142537088168 0.8908696899414119
34.06114293826796 0.4142655399629174 0.8551766357421932
34.06078977141704 0.5187771502831028 0.8059969482421933
34.06046021828145 0.6163008244268264 0.7441062011718808
34.06015947614316 0.7052985462730775 0.6704804687500057
34.05989228771022 0.7843668204171713 0.5862808227539119
34.05966286686681 0.8522586447015473 0.4928351745605526
34.05947483164226 0.9079033465282939 0.3916172485351619
34.05933114728611 0.9504234284660932 0.2842232666015682
34.05923408027449 0.9791481790123545 0.1723469390869198
34.05918516077267 0.9936247809282278 0.05775257492065998
34.05918516077267 0.9936247809282278 -0.05775257492064861
34.05923408027449 0.9791481790123545 -0.1723469390869084
34.05933114728611 0.9504234284660932 -0.2842232666015568
34.05947483164226 0.9079033465282939 -0.3916172485351506
34.05966286686681 0.8522586447015473 -0.4928351745605412
34.05989228771022 0.7843668204171713 -0.5862808227539006
34.06015947614316 0.7052985462730775 -0.6704804687499943
34.06046021828145 0.6163008244268264 -0.7441062011718693
34.06078977141704 0.5187771502831028 -0.8059969482421818
34.06114293826796 0.4142655399629174 -0.8551766357421818
34.06151414901399 0.3044142537088168 -0.8908696899414006
34.06189754959728 0.1909556653578064 -0.9125132446289006
33.46672279572434 -0.08663115751330414 -1.268879882812494
33.46725592699777 -0.2443991013386634 -1.238783813476557
33.46777210780797 -0.3971509452635032 -1.189151489257807
33.46826319805306 -0.54247781327084 -1.120765502929682
33.46872145254746 -0.6780876957418691 -1.034704345703119
33.46913964451375 -0.801841994047117 -0.9323252563476507
33.4695111787106 -0.9117889981385038 -0.8152429199218695
33.46983019600129 -1.006194831196883 -0.6853036499023382
33.47009166554718 -1.083570732191114 -0.544556762695307
33.47029146318261 -1.142696249105017 -0.3952218933105413
33.47042643823972 -1.182639014215088 -0.2396541137695257
33.4704944622233 -1.202769148305134 -0.08030686950683037
33.4704944622233 -1.202769148305134 0.08030686950684152
33.47042643823972 -1.182639014215088 0.2396541137695368
33.47029146318261 -1.142696249105017 0.3952218933105525
33.47009166554718 -1.083570732191114 0.5445567626953181
33.46983019600129 -1.006194831196883 0.6853036499023494
33.4695111787106 -0.9117889981385038 0.8152429199218806
33.46913964451375 -0.801841994047117 0.9323252563476618
33.46872145254746 -0.6780876957418691 1.034704345703131
33.46826319805306 -0.54247781327084 1.120765502929693
33.46777210780797 -0.3971509452635032 1.189151489257818
33.46725592699777 -0.2443991013386634 1.238783813476568
33.46672279572434 -0.08663115751330414 1.268879882812506
33.46618112200777 0.07366472598029875 1.278964843750006
33.46563944829118 0.2339606094738984 1.268879882812506
33.46510631701776 0.3917285532992577 1.238783813476568
33.46459013620757 0.5444803972240974 1.189151489257818
33.46409904596248 0.6898072652314343 1.120765502929693
33.46364079146807 0.8254171477024633 1.034704345703131
33.46322259950179 0.9491714460077112 0.9323252563476618
33.46285106530493 1.059118450099098 0.8152429199218806
33.46253204801424 1.153524283157477 0.6853036499023494
33.46227057846835 1.230900184151708 0.5445567626953181
33.46207078083292 1.290025701065611 0.3952218933105525
33.46193580577582 1.329968466175682 0.2396541137695369
33.46186778179223 1.350098600265729 0.08030686950684153
33.46186778179223 1.350098600265729 -0.08030686950683036
33.46193580577582 1.329968466175682 -0.2396541137695257
33.46207078083292 1.290025701065611 -0.3952218933105413
33.46227057846835 1.230900184151708 -0.544556762695307
33.46253204801424 1.153524283157477 -0.6853036499023382
33.46285106530493 1.059118450099098 -0.8152429199218695
33.46322259950179 0.9491714460077112 -0.9323252563476507
33.46364079146807 0.8254171477024633 -1.034704345703119
33.46409904596248 0.6898072652314343 -1.120765502929682
33.46459013620757 0.5444803972240974 -1.189151489257807
33.46510631701776 0.3917285532992577 -1.238783813476557
33.46563944829118 0.2339606094738984 -1.268879882812494
32.84950107343435 -0.1289873892010981 -1.587651855468745
32.85016813959691 -0.3263902843422394 -1.549994995117182
32.85081399711996 -0.5175169702003317 -1.487893920898432
32.85142846026716 -0.6993532122762209 -1.402327758789057
32.85200183912607 -0.8690315037486336 -1.294645996093745
32.8525250906859 -1.023875773470868 -1.166546997070307
32.85298996310907 -1.161444079818832 -1.020050781249995
32.85338912484341 -1.279566818480704 -0.8574678344726508
32.85371628115318 -1.376381207123326 -0.6813620605468695
32.85396627250005 -1.450360398995509 -0.4945107727050727
32.85413515663042 -1.500337774781525 -0.2998607788085883
32.85422026962534 -1.525525008904212 -0.1004818115234321
32.85422026962534 -1.525525008904212 0.100481811523443
32.85413515663042 -1.500337774781525 0.2998607788085992
32.85396627250005 -1.450360398995509 0.4945107727050836
32.85371628115318 -1.376381207123326 0.6813620605468804
32.85338912484341 -1.279566818480704 0.8574678344726617
32.85298996310907 -1.161444079818832 1.020050781250005
32.8525250906859 -1.023875773470868 1.166546997070318
32.85200183912607 -0.8690315037486336 1.294645996093756
32.85142846026716 -0.6993532122762209 1.402327758789068
32.85081399711996 -0.5175169702003317 1.487893920898443
32.85016813959691 -0.3263902843422394 1.549994995117193
32.84950107343435 -0.1289873892010981 1.587651855468756
32.84882331869911 0.07157854330054393 1.600270507812505
32.84814556396386 0.2721444758021819 1.587651855468756
32.8474784978013 0.4695473709433233 1.549994995117193
32.84683264027827 0.6606740568014156 1.487893920898443
32.84621817713106 0.8425102988773048 1.402327758789068
32.84564479827215 1.012188590349717 1.294645996093756
32.84512154671233 1.167032860071952 1.166546997070318
32.84465667428916 1.304601166419916 1.020050781250005
32.8442575125548 1.422723905081787 0.8574678344726617
32.84393035624504 1.51953829372441 0.6813620605468804
32.84368036489818 1.593517485596592 0.4945107727050836
32.84351148076779 1.643494861382609 0.2998607788085992
32.84342636777288 1.668682095505295 0.100481811523443
32.84342636777288 1.668682095505295 -0.100481811523432
32.84351148076779 1.643494861382609 -0.2998607788085883
32.84368036489818 1.593517485596592 -0.4945107727050727
32.84393035624504 1.51953829372441 -0.6813620605468695
32.8442575125548 1.422723905081787 -0.8574678344726508
32.84465667428916 1.304601166419916 -1.020050781249995
32.84512154671233 1.167032860071952 -1.166546997070307
32.84564479827215 1.012188590349717 -1.294645996093745
32.84621817713106 0.8425102988773048 -1.402327758789057
32.84683264027827 0.6606740568014156 -1.487893920898432
32.8474784978013 0.4695473709433233 -1.549994995117182
32.84814556396386 0.2721444758021819 -1.587651855468745
32.21342108273543 -0.1665010842157023 -1.86758715820312
32.21420576609749 -0.3987100855623462 -1.823290649414057
32.21496550141287 -0.6235362860436567 -1.750239746093745
32.21568830702743 -0.8374339905718172 -1.649586547851557
32.2163627840451 -1.037029957908367 -1.522918334960932
32.21697829535243 -1.219176378877346 -1.372232910156244
32.21752513422764 -1.381000772320649 -1.19990649414062
32.21799467655273 -1.519951028786154 -1.008656799316401
32.21837951714448 -1.633835754535668 -0.8014999999999947
32.21867358731662 -1.720859061385348 -0.5817030639648384
32.21887224892962 -1.77964839857805 -0.3527323303222603
32.21897236905308 -1.80927664738374 -0.1181987991332954
32.21897236905308 -1.80927664738374 0.1181987991333061
32.21887224892962 -1.77964839857805 0.352732330322271
32.21867358731662 -1.720859061385348 0.5817030639648491
32.21837951714448 -1.633835754535668 0.8015000000000053
32.21799467655273 -1.519951028786154 1.008656799316412
32.21752513422764 -1.381000772320649 1.199906494140631
32.21697829535243 -1.219176378877346 1.372232910156256
32.2163627840451 -1.037029957908367 1.522918334960943
32.21568830702743 -0.8374339905718172 1.649586547851568
32.21496550141287 -0.6235362860436567 1.750239746093756
32.21420576609749 -0.3987100855623462 1.823290649414068
32.21342108273543 -0.1665010842157023 1.86758715820313
32.21262382609245 0.06942869056485036 1.882430664062505
32.21182656944946 0.3053584653453983 1.86758715820313
32.2110418860874 0.5375674666920423 1.823290649414068
32.21028215077202 0.7623936671733527 1.750239746093756
32.20955934515746 0.9762913717015133 1.649586547851568
32.2088848681398 1.175887339038063 1.522918334960943
32.20826935683247 1.358033760007042 1.372232910156256
32.20772251795726 1.519858153450344 1.199906494140631
32.20725297563215 1.65880840991585 1.008656799316412
32.2068681350404 1.772693135665363 0.8015000000000053
32.20657406486827 1.859716442515044 0.5817030639648491
32.20637540325527 1.918505779707746 0.352732330322271
32.2062752831318 1.948134028513435 0.1181987991333061
32.2062752831318 1.948134028513435 -0.1181987991332954
32.20637540325527 1.918505779707746 -0.3527323303222603
32.20657406486827 1.859716442515044 -0.5817030639648384
32.2068681350404 1.772693135665363 -0.8014999999999947
32.20725297563215 1.65880840991585 -1.008656799316401
32.20772251795726 1.519858153450344 -1.19990649414062
32.20826935683247 1.358033760007042 -1.372232910156244
32.2088848681398 1.175887339038063 -1.522918334960932
32.20955934515746 0.9762913717015133 -1.649586547851557
32.21028215077202 0.7623936671733527 -1.750239746093745
32.2110418860874 0.5375674666920423 -1.823290649414057
32.21182656944946 0.3053584653453983 -1.86758715820312
31.56095695321393 -0.199026079038793 -2.107594726562495
31.56184247805719 -0.4610767984313038 -2.057605468749995
31.56269984849854 -0.7147958698368797 -1.97516674804687
31.56351554333418 -0.9561820038451005 -1.86157836914062
31.56427669898697 -1.181428520530123 -1.718631835937495
31.56497131070283 -1.38698288890566 -1.548581420898432
31.56558842498153 -1.569603672400633 -1.354109008789057
31.5661183093201 -1.726410760505962 -1.138281372070307
31.56655260648745 -1.854931022810783 -0.9045024414062448
31.56688446817407 -1.953137859557883 -0.6564589233398386
31.56710866017931 -2.019482329395659 -0.3980627136230416
31.56722164697366 -2.052918173649309 -0.1333887786865182
31.56722164697366 -2.052918173649309 0.1333887786865287
31.56710866017931 -2.019482329395659 0.3980627136230521
31.56688446817407 -1.953137859557883 0.656458923339849
31.56655260648745 -1.854931022810783 0.9045024414062552
31.5661183093201 -1.726410760505962 1.138281372070318
31.56558842498153 -1.569603672400633 1.354109008789068
31.56497131070283 -1.38698288890566 1.548581420898443
31.56427669898697 -1.181428520530123 1.718631835937505
31.56351554333418 -0.9561820038451005 1.86157836914063
31.56269984849854 -0.7147958698368797 1.97516674804688
31.56184247805719 -0.4610767984313038 2.057605468750005
31.56095695321393 -0.199026079038793 2.107594726562505
31.56005723943402 0.06722352995429763 2.124345703125005
31.5591575256541 0.333473138947383 2.107594726562505
31.55827200081084 0.5955238583398936 2.057605468750005
31.5574146303695 0.8492429297454696 1.97516674804688
31.55659893553385 1.09062906375369 1.86157836914063
31.55583777988106 1.315875580438713 1.718631835937505
31.55514316816521 1.521429948814251 1.548581420898443
31.55452605388651 1.704050732309223 1.354109008789068
31.55399616954793 1.860857820414552 1.138281372070318
31.55356187238058 1.989378082719373 0.9045024414062552
31.55323001069396 2.087584919466473 0.656458923339849
31.55300581868872 2.153929389304249 0.3980627136230521
31.55289283189437 2.187365233557899 0.1333887786865287
31.55289283189437 2.187365233557899 -0.1333887786865182
31.55300581868872 2.153929389304249 -0.3980627136230416
31.55323001069396 2.087584919466473 -0.6564589233398386
31.55356187238058 1.989378082719373 -0.9045024414062448
31.55399616954793 1.860857820414552 -1.138281372070307
31.55452605388651 1.704050732309223 -1.354109008789057
31.55514316816521 1.521429948814251 -1.548581420898432
31.55583777988106 1.315875580438713 -1.718631835937495
31.55659893553385 1.09062906375369 -1.86157836914062
31.5574146303695 0.8492429297454696 -1.97516674804687
31.55827200081084 0.5955238583398936 -2.057605468749995
31.5591575256541 0.333473138947383 -2.107594726562495
30.89465319301869 -0.2264356410193885 -2.306739257812495
30.89562239020389 -0.5132472664023078 -2.252026855468745
30.89656077278068 -0.7909400168476672 -2.161798339843745
30.89745354182943 -1.055134492310908 -2.03747729492187
30.8982866183445 -1.301664334743995 -1.881023803710932
30.89904686361185 -1.526641443787518 -1.69490551757812
30.89972228834612 -1.726517866065774 -1.482057495117182
30.9003022405839 -1.898141397896643 -1.245836547851557
30.9007775748084 -2.038805633833961 -0.9899680786132762
30.90114079343657 -2.146291836545653 -0.7184871826171824
30.90138616933138 -2.218905191489546 -0.4356752929687449
30.90150983242658 -2.255500441532632 -0.1459925537109324
30.90150983242658 -2.255500441532632 0.1459925537109426
30.90138616933138 -2.218905191489546 0.4356752929687551
30.90114079343657 -2.146291836545653 0.7184871826171926
30.9007775748084 -2.038805633833961 0.9899680786132864
30.9003022405839 -1.898141397896643 1.245836547851568
30.89972228834612 -1.726517866065774 1.482057495117193
30.89904686361185 -1.526641443787518 1.69490551757813
30.8982866183445 -1.301664334743995 1.881023803710943
30.89745354182943 -1.055134492310908 2.03747729492188
30.89656077278068 -0.7909400168476672 2.161798339843755
30.89562239020389 -0.5132472664023078 2.252026855468755
30.89465319301869 -0.2264356410193885 2.306739257812505
30.89366846606863 0.06497166124942766 2.325073242187505
30.89268373911857 0.3563789635182379 2.306739257812505
30.89171454193337 0.6431905889011573 2.252026855468755
30.89077615935658 0.9208833393465168 2.161798339843755
30.88988339030783 1.185077814809757 2.03747729492188
30.88905031379277 1.431607657242844 1.881023803710943
30.88829006852542 1.656584766286368 1.69490551757813
30.88761464379115 1.856461188564623 1.482057495117193
30.88703469155336 2.028084720395492 1.245836547851568
30.88655935732886 2.168748956332811 0.9899680786132864
30.88619613870069 2.276235159044503 0.7184871826171926
30.88595076280589 2.348848513988396 0.4356752929687551
30.88582709971069 2.385443764031482 0.1459925537109426
30.88582709971069 2.385443764031482 -0.1459925537109324
30.88595076280589 2.348848513988396 -0.4356752929687449
30.88619613870069 2.276235159044503 -0.7184871826171824
30.88655935732886 2.168748956332811 -0.9899680786132762
30.88703469155336 2.028084720395492 -1.245836547851557
30.88761464379115 1.856461188564623 -1.482057495117182
30.88829006852542 1.656584766286368 -1.69490551757812
30.88905031379277 1.431607657242844 -1.881023803710932
30.88988339030783 1.185077814809757 -2.03747729492187
30.89077615935658 0.9208833393465168 -2.161798339843745
30.89171454193337 0.6431905889011573 -2.252026855468745
30.89268373911857 0.3563789635182379 -2.306739257812495
30.21710515901159 -0.2486229158412475 -2.464245117187495
30.2181405336283 -0.5550182306802436 -2.405796874999995
30.21914298968512 -0.8516720545076122 -2.30940747070312
30.22009671763969 -1.133905916720719 -2.176597656249995
30.22098667736355 -1.397269037067316 -2.009461425781245
30.22179883233845 -1.63760763066977 -1.810634765624995
30.22252037570587 -1.851131802174375 -1.583253417968745
30.22313992744155 -2.034473895027581 -1.330903198242183
30.22364771791761 -2.184742812454909 -1.05756372070312
30.22403573763967 -2.299568328731398 -0.7675459594726513
30.22429786759657 -2.377139663180111 -0.4654234924316356
30.22442997454766 -2.416233678253324 -0.1559610290527294
30.22442997454766 -2.416233678253324 0.1559610290527394
30.22429786759657 -2.377139663180111 0.4654234924316457
30.22403573763967 -2.299568328731398 0.7675459594726612
30.22364771791761 -2.184742812454909 1.05756372070313
30.22313992744155 -2.034473895027581 1.330903198242193
30.22252037570587 -1.851131802174375 1.583253417968755
30.22179883233845 -1.63760763066977 1.810634765625005
30.22098667736355 -1.397269037067316 2.009461425781255
30.22009671763969 -1.133905916720719 2.176597656250005
30.21914298968512 -0.8516720545076122 2.30940747070313
30.2181405336283 -0.5550182306802436 2.405796875000005
30.21710515901159 -0.2486229158412475 2.464245117187505
30.21605319430116 0.0626818558303941 2.48383081054688
30.21500122959073 0.3739866275020295 2.464245117187505
30.21396585497402 0.6803819423410256 2.405796875000005
30.2129633989172 0.9770357661683942 2.30940747070313
30.21200967096263 1.2592696283815 2.176597656250005
30.21111971123877 1.522632748728098 2.009461425781255
30.21030755626387 1.762971342330552 1.810634765625005
30.20958601289645 1.976495513835157 1.583253417968755
30.20896646116077 2.159837606688363 1.330903198242193
30.20845867068471 2.310106524115691 1.05756372070313
30.20807065096264 2.424932040392181 0.7675459594726612
30.20780852100575 2.502503374840893 0.4654234924316457
30.20767641405466 2.541597389914106 0.1559610290527394
30.20767641405466 2.541597389914106 -0.1559610290527293
30.20780852100575 2.502503374840893 -0.4654234924316356
30.20807065096264 2.424932040392181 -0.7675459594726513
30.20845867068471 2.310106524115691 -1.05756372070312
30.20896646116077 2.159837606688363 -1.330903198242183
30.20958601289645 1.976495513835157 -1.583253417968745
30.21030755626387 1.762971342330552 -1.810634765624995
30.21111971123877 1.522632748728098 -2.009461425781245
30.21200967096263 1.2592696283815 -2.176597656249995
30.2129633989172 0.9770357661683942 -2.30940747070312
30.21396585497402 0.6803819423410256 -2.405796874999995
30.21500122959073 0.3739866275020295 -2.464245117187495
25.90931020560872 0.04812845975923846 -2.599999999999996
25.91043372158225 -0.2843502632849392 -2.578654052734371
25.91153878936002 -0.6113696669132694 -2.514966552734371
25.91260726403622 -0.9275601833947313 -2.409983642578121
25.91362160089116 -1.227729856288917 -2.265428710937496
25.91456514506877 -1.506950063833543 -2.083675537109371
25.91542240310412 -1.760635871268883 -1.867708251953121
25.91617929887905 -1.984621775034212 -1.621073486328121
25.91682340420918 -2.17522993968289 -1.347820678710933
25.91734414385595 -2.329330866481286 -1.052436645507808
25.91773296547619 -2.444393686090388 -0.7397717285156208
25.91798348605936 -2.518529493279309 -0.4149597167968708
25.91809159133976 -2.550520765702645 -0.08333409881591373
25.9180555067464 -2.539842359874335 0.2496598663330121
25.91787582462796 -2.486669567762297 0.5785544433593792
25.91755549517774 -2.391875431256882 0.897949157714848
25.91709977858385 -2.257016582095469 1.202599609375004
25.91651615675437 -2.084307118964746 1.487503295898442
25.9158142141051 -1.876583329381812 1.747982299804692
25.91500547544747 -1.637255716335269 1.979759521484379
25.91410322077643 -1.370254189027852 2.179029052734379
25.91312226499597 -1.07996287770172 2.342519042968754
25.91207871495713 -0.7711482346349092 2.467544921875004
25.91098970618052 -0.448881123209212 2.552053710937504
25.90987312013974 -0.1184531544474238 2.594657958984379
25.9087472910777 0.214710073965901 2.594657958984379
25.90763070503692 0.5451380427276892 2.552053710937504
25.90654169626031 0.8674051541533864 2.467544921875004
25.90549814622147 1.176219797220197 2.342519042968754
25.90451719044101 1.466511108546329 2.179029052734379
25.90361493576997 1.733512635853746 1.979759521484379
25.90280619711234 1.972840248900289 1.747982299804692
25.90210425446307 2.180564038483224 1.487503295898442
25.90152063263359 2.353273501613947 1.202599609375004
25.9010649160397 2.488132350775359 0.897949157714848
25.90074458658949 2.582926487280775 0.5785544433593792
25.90056490447104 2.636099279392813 0.2496598663330121
25.90052881987769 2.646777685221123 -0.08333409881591372
25.90063692515809 2.614786412797788 -0.4149597167968708
25.90088744574125 2.540650605608866 -0.7397717285156208
25.90127626736149 2.425587785999764 -1.052436645507808
25.90179700700826 2.271486859201367 -1.347820678710933
25.90244111233839 2.080878694552689 -1.621073486328121
25.90319800811332 1.85689279078736 -1.867708251953121
25.90405526614867 1.603206983352019 -2.083675537109371
25.90499881032628 1.323986775807394 -2.265428710937496
25.90601314718122 1.023817102913209 -2.409983642578121
25.90708162185742 0.7076265864317466 -2.514966552734371
25.90818668963519 0.3806071828034163 -2.578654052734371
22.28862384673766 0.03589339424257824 -2.599999999999997
22.28974736271119 -0.2965853288015994 -2.578654052734371
22.29085243048896 -0.6236047324299296 -2.514966552734371
22.29192090516516 -0.9397952489113914 -2.409983642578121
22.2929352420201 -1.239964921805577 -2.265428710937496
22.29387878619771 -1.519185129350203 -2.083675537109372
22.29473604423306 -1.772870936785544 -1.867708251953121
22.29549294000799 -1.996856840550872 -1.621073486328121
22.29613704533812 -2.18746500519955 -1.347820678710934
22.29665778498488 -2.341565931997947 -1.052436645507809
22.29704660660513 -2.456628751607048 -0.7397717285156213
22.2972971271883 -2.53076455879597 -0.4149597167968714
22.29740523246869 -2.562755831219306 -0.08333409881591437
22.29736914787534 -2.552077425390995 0.2496598663330114
22.29718946575689 -2.498904633278958 0.5785544433593787
22.29686913630668 -2.404110496773542 0.8979491577148474
22.2964134197128 -2.26925164761213 1.202599609375004
22.29582979788331 -2.096542184481407 1.487503295898441
22.29512785523404 -1.888818394898472 1.747982299804691
22.29431911657641 -1.649490781851929 1.979759521484379
22.29341686190537 -1.382489254544512 2.179029052734379
22.2924359061249 -1.09219794321838 2.342519042968754
22.29139235608606 -0.7833833001515694 2.467544921875004
22.29030334730945 -0.4611161887258722 2.552053710937504
22.28918676126868 -0.1306882199640841 2.594657958984379
22.28806093220663 0.2024750084492408 2.594657958984379
22.28694434616586 0.532902977211029 2.552053710937504
22.28585533738925 0.8551700886367261 2.467544921875004
22.28481178735041 1.163984731703537 2.342519042968754
22.28383083156995 1.454276043029668 2.179029052734379
22.28292857689891 1.721277570337086 1.979759521484379
22.28211983824128 1.960605183383629 1.747982299804691
22.28141789559201 2.168328972966564 1.487503295898441
22.28083427376253 2.341038436097287 1.202599609375004
22.28037855716864 2.475897285258699 0.8979491577148474
22.28005822771842 2.570691421764114 0.5785544433593787
22.27987854559997 2.623864213876152 0.2496598663330115
22.27984246100662 2.634542619704462 -0.08333409881591435
22.27995056628702 2.602551347281127 -0.4149597167968714
22.28020108687019 2.528415540092205 -0.7397717285156213
22.28058990849043 2.413352720483104 -1.052436645507809
22.28111064813719 2.259251793684707 -1.347820678710934
22.28175475346733 2.068643629036029 -1.621073486328121
22.28251164924226 1.8446577252707 -1.867708251953121
22.28336890727761 1.590971917835359 -2.083675537109372
22.28431245145522 1.311751710290734 -2.265428710937496
22.28532678831016 1.011582037396548 -2.409983642578121
22.28639526298636 0.6953915209150863 -2.514966552734371
22.28750033076413 0.3683721172867561 -2.578654052734371
20.69773839867896 0.0305174556063003 -1.849999999999997
20.6983918589723 -0.1628590953358311 -1.839865478515622
20.69903815982871 -0.3541169755132262 -1.809573120117184
20.69967022028922 -0.5411607379055056 -1.759454589843747
20.70028111511325 -0.7219410167721561 -1.690059082031247
20.70086415160656 -0.8944772631184261 -1.602146972656247
20.70141294160235 -1.056879045843238 -1.496681396484372
20.70192147251424 -1.207367078230463 -1.374817871093747
20.70238417271732 -1.344292565982987 -1.237891601562497
20.70279597301057 -1.466155395595424 -1.087402709960934
20.7031523614792 -1.571620369612986 -0.9249999999999967
20.70344943340704 -1.659531977054959 -0.7524627685546842
20.70368393417645 -1.728927088654725 -0.5716814575195279
20.70385329433075 -1.779045332777077 -0.3846366271972623
20.70395565803664 -1.809337518221694 -0.1933776550292935
20.70398990453415 -1.819471981843153 1.769647022068674e-15
20.70395565803664 -1.809337518221694 0.1933776550293002
20.70385329433075 -1.779045332777077 0.3846366271972689
20.70368393417645 -1.728927088654725 0.5716814575195346
20.70344943340704 -1.659531977054959 0.7524627685546909
20.7031523614792 -1.571620369612986 0.9250000000000033
20.70279597301057 -1.466155395595424 1.087402709960941
20.70238417271732 -1.344292565982987 1.237891601562503
20.70192147251424 -1.207367078230463 1.374817871093754
20.70141294160235 -1.056879045843238 1.496681396484378
20.70086415160656 -0.8944772631184261 1.602146972656253
20.70028111511325 -0.7219410167721561 1.690059082031254
20.69967022028922 -0.5411607379055056 1.759454589843753
20.69903815982871 -0.3541169755132262 1.809573120117191
20.6983918589723 -0.1628590953358311 1.839865478515629
20.69773839867896 0.03051745560630193 1.850000000000003
20.69708493838561 0.2238940065484319 1.839865478515629
20.6964386375292 0.4151518867258271 1.809573120117191
20.69580657706869 0.6021956491181063 1.759454589843753
20.69519568224467 0.7829759279847567 1.690059082031254
20.69461264575136 0.9555121743310269 1.602146972656253
20.69406385575556 1.117913957055838 1.496681396484378
20.69355532484368 1.268401989443064 1.374817871093754
20.69309262464059 1.405327477195587 1.237891601562503
20.69268082434734 1.527190306808025 1.087402709960941
20.69232443587871 1.632655280825587 0.9250000000000033
20.69202736395087 1.72056688826756 0.7524627685546909
20.69179286318146 1.789961999867326 0.5716814575195346
20.69162350302716 1.840080243989677 0.3846366271972689
20.69152113932127 1.870372429434295 0.1933776550293002
20.69148689282376 1.880506893055753 2.420897334949096e-15
20.69152113932127 1.870372429434295 -0.1933776550292935
20.69162350302716 1.840080243989677 -0.3846366271972623
20.69179286318146 1.789961999867326 -0.5716814575195279
20.69202736395087 1.72056688826756 -0.7524627685546842
20.69232443587871 1.632655280825587 -0.9249999999999967
20.69268082434734 1.527190306808025 -1.087402709960934
20.69309262464059 1.405327477195587 -1.237891601562497
20.69355532484368 1.268401989443064 -1.374817871093747
20.69406385575556 1.117913957055838 -1.496681396484372
20.69461264575136 0.9555121743310269 -1.602146972656247
20.69519568224467 0.7829759279847567 -1.690059082031247
20.69580657706869 0.6021956491181063 -1.759454589843747
20.6964386375292 0.4151518867258271 -1.809573120117184
20.69708493838561 0.2238940065484319 -1.839865478515622
21.60468634544208 0.03358222467188351 -2.329537109374997
21.75332709833732 0.03408451323539419 -2.444661621093747
21.92088766508451 0.03465073585424592 -2.529929443359372
22.10144815760838 0.03526088797370174 -2.582326171874997
21.60367970231348 0.3314751161318027 -2.310411621093747
21.60268958822873 0.6244766170621796 -2.253349365234372
21.60173226080731 0.9077756587404981 -2.159287109374997
21.60082343935738 1.176720473292523 -2.029769287109371
21.59997804685768 1.426894948236823 -1.866922851562496
21.59920996410806 1.654191379975628 -1.673421508789059
21.59853180367998 1.854877367944153 -1.452442749023434
21.59795470057325 2.025657764940478 -1.207614746093746
21.59748813112892 2.163728265686779 -0.942957885742184
21.59713975586716 2.266821915352839 -0.6628176269531215
21.59691529532503 2.333245852510331 -0.3717938842773403
21.59681843559419 2.361909263074784 -0.07466534423827775
21.59685076644604 2.352341690747898 0.2236892089843785
21.59701175740678 2.304700117055262 0.5183707885742223
21.59729876518239 2.219766764093261 0.8045407714843785
21.59770707655853 2.098936399289071 1.077500122070316
21.59822998677538 1.944193142173696 1.332767089843754
21.59885891090236 1.75807750558578 1.566149902343754
21.59958352120034 1.543645746489627 1.773816650390629
21.60039191954624 1.304418840875907 1.952357421875004
21.60127083254509 1.044324744833501 2.098840576171878
21.6022058278858 0.7676343690361578 2.210860595703128
21.60318155348748 0.4788908088828761 2.286578613281253
21.604181987577 0.1828353397934865 2.324750976562503
21.60519070330716 -0.1156708904497192 2.324750976562503
21.60619113739667 -0.4117263595391088 2.286578613281253
21.60716686299835 -0.7004699196923905 2.210860595703128
21.60810185833906 -0.9771602954897336 2.098840576171878
21.60898077133791 -1.237254391532139 1.952357421875004
21.60978916968381 -1.47648129714586 1.773816650390629
21.61051377998179 -1.690913056242013 1.566149902343754
21.61114270410878 -1.877028692829929 1.332767089843754
21.61166561432562 -2.031771949945304 1.077500122070316
21.61207392570177 -2.152602314749493 0.8045407714843784
21.61236093347738 -2.237535667711494 0.5183707885742221
21.61252192443812 -2.28517724140413 0.2236892089843785
21.61255425528996 -2.294744813731016 -0.07466534423827777
21.61245739555912 -2.266081403166563 -0.3717938842773403
21.61223293501699 -2.199657466009071 -0.6628176269531216
21.61188455975523 -2.096563816343011 -0.9429578857421841
21.6114179903109 -1.958493315596711 -1.207614746093746
21.61084088720417 -1.787712918600386 -1.452442749023434
21.61016272677609 -1.587026930631861 -1.673421508789059
21.60939464402647 -1.359730498893055 -1.866922851562496
21.60854925152678 -1.109556023948756 -2.029769287109371
21.60764043007685 -0.8406112093967308 -2.159287109374997
21.60668310265542 -0.5573121677184123 -2.253349365234372
21.60569298857067 -0.2643106667880354 -2.310411621093747
22.10256403636794 -0.2949577771735393 -2.561125244140622
22.10366159233147 -0.6197542320680572 -2.497870849609372
22.10472280393034 -0.9337954077938782 -2.393601318359372
22.10573024565713 -1.231924626029485 -2.250029052734372
22.10666737588676 -1.509246773122061 -2.069511474609371
22.10751880654779 -1.761208103098652 -1.855012329101559
22.10827055722186 -1.983671432549336 -1.610054077148434
22.1089102846994 -2.172984072368275 -1.338658691406246
22.10942748345418 -2.326037153586866 -1.045282592773434
22.1098136626054 -2.440317995238811 -0.734743041992184
22.11006248039242 -2.51394989905478 -0.4121389770507777
22.11016985142448 -2.545723887562451 -0.08276762390136362
22.11013401185557 -2.535117991085773 0.2479627685546911
22.10995555073436 -2.482306525035737 0.5746216430664098
22.10963739927922 -2.388156916100379 0.8918452148437536
22.10918477972833 -2.254214565612449 1.194424682617191
22.10860512531486 -2.082679168044002 1.477391845703129
22.1079079544548 -1.876367479773647 1.736100219726566
22.10710471317223 -1.638666688493421 1.966301757812504
22.10620859153732 -1.37348009222987 2.164216796875004
22.10523430380426 -1.08516203623896 2.326595458984379
22.10419784771812 -0.7784466853854194 2.450771484375004
22.10311624164976 -0.458370235280224 2.534705810546879
22.10200724569494 -0.1301883779617971 2.577020507812504
22.10088906952183 0.2007101539092002 2.577020507812504
22.099780073567 0.5288920112276271 2.534705810546879
22.09869846749865 0.8489684613328224 2.450771484375004
22.0976620114125 1.155683812186364 2.326595458984379
22.09668772367945 1.444001868177273 2.164216796875004
22.09579160204454 1.709188464440825 1.966301757812504
22.09498836076197 1.94688925572105 1.736100219726566
22.0942911899019 2.153200943991405 1.477391845703129
22.09371153548845 2.324736341559853 1.194424682617191
22.09325891593755 2.458678692047782 0.8918452148437536
22.09294076448241 2.552828300983141 0.5746216430664098
22.0927623033612 2.605639767033176 0.2479627685546911
22.09272646379229 2.616245663509855 -0.08276762390136361
22.09283383482435 2.584471675002183 -0.4121389770507777
22.09308265261137 2.510839771186215 -0.734743041992184
22.09346883176259 2.39655892953427 -1.045282592773434
22.09398603051736 2.243505848315678 -1.338658691406246
22.0946257579949 2.054193208496739 -1.610054077148434
22.09537750866897 1.831729879046055 -1.855012329101559
22.09622893933001 1.579768549069464 -2.069511474609371
22.09716606955964 1.302446401976888 -2.250029052734372
22.09817351128642 1.004317183741281 -2.393601318359372
22.0992347228853 0.6902760080154603 -2.497870849609372
22.10033227884882 0.3654795531209424 -2.561125244140622
21.92198090197656 -0.2888675891307484 -2.509158691406246
21.92305618794046 -0.6070737496214298 -2.447187744140622
21.92409586688181 -0.9147428303811942 -2.345033935546871
21.92508286721735 -1.206822888818659 -2.204374755859372
21.9260009824775 -1.478517992843634 -2.027519897460934
21.92683513726513 -1.725366925251745 -1.817373046874996
21.92757163454871 -1.943316364458948 -1.577385131835934
21.92819838109312 -2.128787595546422 -1.311496582031246
21.92870508669664 -2.278735469884878 -1.024073242187496
21.92908343001559 -2.390697477120002 -0.7198347167968715
21.92932719881403 -2.462835248841747 -0.4037764587402309
21.92943239020102 -2.493964221500899 -0.08108822631835584
21.92939727828047 -2.483573655826035 0.2429314727783239
21.92922243890107 -2.43183396100045 0.5629622192382848
21.92891074223132 -2.339594497409081 0.8737492065429723
21.92846730738464 -2.208370148980791 1.170189208984379
21.92789941414457 -2.040315200290653 1.447414672851566
21.927216389115 -1.838189645346051 1.700873779296879
21.92642944608306 -1.605311946645472 1.926404541015629
21.925551507407 -1.345506179034976 2.120303710937504
21.92459698827921 -1.063038187299261 2.279387695312504
21.92358156242674 -0.7625462506200472 2.401043945312504
21.92252190275248 -0.4489643313052961 2.483275390625004
21.92143540893112 -0.1274414630668515 2.524731445312504
21.92033992123791 0.196742934775343 2.524731445312504
21.91925342741655 0.5182658030137877 2.483275390625004
21.91819376774229 0.8318477223285388 2.401043945312504
21.91717834188981 1.132339659007752 2.279387695312504
21.91622382276203 1.414807650743467 2.120303710937504
21.91534588408598 1.674613418353964 1.926404541015629
21.91455894105403 1.907491117054543 1.700873779296879
21.91387591602446 2.109616671999144 1.447414672851566
21.91330802278438 2.277671620689282 1.170189208984379
21.91286458793772 2.408895969117572 0.8737492065429723
21.91255289126797 2.501135432708942 0.5629622192382848
21.91237805188856 2.552875127534527 0.2429314727783239
21.912342939968 2.563265693209391 -0.08108822631835583
21.912448131355 2.532136720550239 -0.4037764587402309
21.91269190015344 2.459998948828494 -0.7198347167968715
21.91307024347239 2.348036941593369 -1.024073242187496
21.91357694907591 2.198089067254914 -1.311496582031246
21.91420369562032 2.01261783616744 -1.577385131835934
21.9149401929039 1.794668396960237 -1.817373046874996
21.91577434769152 1.547819464552125 -2.027519897460934
21.91669246295167 1.27612436052715 -2.204374755859372
21.91767946328721 0.9840443020896857 -2.345033935546871
21.91871914222856 0.6763752213299213 -2.447187744140622
21.91979442819247 0.3581690608392399 -2.509158691406246
21.75438348926585 -0.2785300959284051 -2.424591064453122
21.75542253440239 -0.5860116167238902 -2.364708740234372
21.75642717237302 -0.8833111277826639 -2.265997802734372
21.75738090734008 -1.165547065179234 -2.130079345703122
21.75826807857024 -1.428084994924774 -1.959185180664059
21.75907411948398 -1.666614272685677 -1.756121093749996
21.75978579422372 -1.877218050708075 -1.524221679687496
21.76039141710343 -2.056438218853301 -1.267294433593746
21.76088104442059 -2.201332166969121 -0.9895583496093715
21.76124663656839 -2.309520758248637 -0.6955736694335902
21.76148218921042 -2.379227147368033 -0.3901677551269497
21.76158383640543 -2.409307297890456 -0.07835526275634415
21.7615499075322 -2.399266827872964 0.2347438201904332
21.76138096028946 -2.349270775435769 0.5439884033203161
21.76107976914594 -2.260140180813001 0.8443007202148473
21.76065127914046 -2.133338414555769 1.130749633789066
21.76010252668208 -1.970947740165972 1.398631713867191
21.75944252157542 -1.77563440218626 1.643548217773441
21.75868210140846 -1.550605535625747 1.861477783203129
21.75783375252796 -1.299556187746864 2.048841796875003
21.75691140420239 -1.026608405327206 2.202563964843753
21.75593020174748 -0.73624409637098 2.320120117187503
21.75490625634553 -0.4332309948871867 2.399580078125003
21.75385638130381 -0.1225446126291778 2.439638916015628
21.75279781537083 0.1907136390999659 2.439638916015628
21.75174794032911 0.5014000213579748 2.399580078125003
21.75072399492716 0.8044131228417681 2.320120117187503
21.74974279247225 1.094777431797993 2.202563964843753
21.74882044414667 1.367725214217652 2.048841796875003
21.74797209526617 1.618774562096535 1.861477783203129
21.74721167509922 1.843803428657048 1.643548217773441
21.74655166999256 2.03911676663676 1.398631713867191
21.74600291753418 2.201507441026557 1.130749633789066
21.74557442752868 2.32830920728379 0.8443007202148473
21.74527323638517 2.417439801906557 0.5439884033203161
21.74510428914243 2.467435854343753 0.2347438201904332
21.7450703602692 2.477476324361244 -0.07835526275634414
21.74517200746422 2.447396173838821 -0.3901677551269496
21.74540756010624 2.377689784719426 -0.6955736694335902
21.74577315225405 2.26950119343991 -0.9895583496093715
21.74626277957121 2.12460724532409 -1.267294433593746
21.74686840245091 1.945387077178863 -1.524221679687496
21.74758007719066 1.734783299156465 -1.756121093749996
21.74838611810439 1.496254021395562 -1.959185180664059
21.74927328933456 1.233716091650022 -2.130079345703122
21.75022702430162 0.9514801542534519 -2.265997802734372
21.75123166227225 0.6541806431946784 -2.364708740234372
21.75227070740878 0.3466991223991931 -2.424591064453122
21.38167492341761 0.03282862187700249 -2.120462890624997
21.49318307582216 0.0332054315244246 -2.225002197265622
21.38092592978418 0.2544760685348134 -2.108846679687497
21.38018514220093 0.473695123295856 -2.074125488281247
21.37946067710262 0.6880839138873387 -2.016679931640621
21.37876047169317 0.8952936072844221 -1.937139160156246
21.37809219742397 1.09305401381208 -1.836374633789059
21.37746317677221 1.279198214690032 -1.715490478515621
21.37688030032854 1.451687098025472 -1.575810913085934
21.37634995522851 1.60863053789136 -1.418866577148434
21.37587795110898 1.748309305822415 -1.246376708984371
21.37546946029574 1.869192770909366 -1.060231445312496
21.37512895757867 1.969956721962822 -0.8624699096679653
21.37486017401182 2.049497039310214 -0.6552590332031216
21.37466605442604 2.106942267966192 -0.440869018554684
21.37454872484152 2.141663261132259 -0.2216487121581997
21.37450947143033 2.153279405747157 -6.919831583084844e-15
21.37454872484152 2.141663261132259 0.2216487121582066
21.37466605442604 2.106942267966192 0.440869018554691
21.37486017401182 2.049497039310214 0.6552590332031284
21.37512895757867 1.969956721962822 0.8624699096679722
21.37546946029574 1.869192770909366 1.060231445312504
21.37587795110898 1.748309305822415 1.246376708984379
21.37634995522851 1.60863053789136 1.418866577148441
21.37688030032854 1.451687098025472 1.575810913085941
21.37746317677221 1.279198214690032 1.715490478515629
21.37809219742397 1.09305401381208 1.836374633789066
21.37876047169317 0.8952936072844221 1.937139160156254
21.37946067710262 0.6880839138873387 2.016679931640629
21.38018514220093 0.473695123295856 2.074125488281253
21.38092592978418 0.2544760685348134 2.108846679687503
21.38167492341761 0.03282862187700153 2.120462890625003
21.38242391705105 -0.1888188247808081 2.108846679687503
21.3831647046343 -0.4080378795418508 2.074125488281253
21.38388916973261 -0.6224266701333333 2.016679931640629
21.38458937514206 -0.8296363635304167 1.937139160156254
21.38525764941125 -1.027396770058074 1.836374633789066
21.38588667006302 -1.213540970936027 1.715490478515629
21.38646954650669 -1.386029854271467 1.575810913085941
21.38699989160672 -1.542973294137356 1.418866577148441
21.38747189572625 -1.68265206206841 1.246376708984379
21.38788038653949 -1.803535527155361 1.060231445312504
21.38822088925656 -1.904299478208817 0.8624699096679722
21.3884896728234 -1.983839795556209 0.6552590332031284
21.38868379240919 -2.041285024212187 0.4408690185546909
21.38880112199371 -2.076006017378254 0.2216487121582066
21.3888403754049 -2.087622161993151 1.750454698722302e-15
21.38880112199371 -2.076006017378254 -0.2216487121581997
21.38868379240919 -2.041285024212187 -0.4408690185546841
21.3884896728234 -1.983839795556209 -0.6552590332031216
21.38822088925656 -1.904299478208817 -0.8624699096679653
21.38788038653949 -1.803535527155361 -1.060231445312496
21.38747189572625 -1.68265206206841 -1.246376708984371
21.38699989160672 -1.542973294137356 -1.418866577148434
21.38646954650669 -1.386029854271467 -1.575810913085934
21.38588667006302 -1.213540970936027 -1.715490478515621
21.38525764941125 -1.027396770058074 -1.836374633789059
21.38458937514206 -0.8296363635304167 -1.937139160156246
21.38388916973261 -0.6224266701333333 -2.016679931640621
21.3831647046343 -0.4080378795418508 -2.074125488281247
21.38242391705105 -0.1888188247808081 -2.108846679687497
34.78050369598256 0.07810610013114218 -0.4403947448730411
34.89497179242474 0.07849291205593262 -0.3174197998046817
34.96801043790918 0.07873972509748778 -0.1661214294433535
34.99310404463675 0.078824521705625 6.94504597852586e-16
34.96816189002236 0.03392095404410823 -0.1599611968994082
34.96830210963127 -0.007573815601979575 -0.1419373779296816
34.9684206972606 -0.04266709820739382 -0.1133867111205996
34.96850885785019 -0.06875619790840003 -0.07642666625975979
34.96856005290311 -0.08390619685840614 -0.03379840469359768
34.96857048552013 -0.08699349002246161 0.01133652782440769
34.96853938200768 -0.07778912057791704 0.05563068008423436
34.96846904911214 -0.05697571707358054 0.0957989654541074
34.96836470309042 -0.0260969108327779 0.1288622741699277
34.96823408286331 0.0125571424579721 0.1523684539794981
34.96808687591337 0.05611965504372492 0.1645741729736387
34.96793399990499 0.1013597951512506 0.1645741729736387
34.96778679295505 0.1449223077370034 0.1523684539794981
34.96765617272793 0.1835763610277534 0.1288622741699277
34.96755182670621 0.2144551672685561 0.0957989654541074
34.96748149381067 0.2352685707728926 0.05563068008423436
34.96745039029823 0.2444729402174371 0.01133652782440769
34.96746082291525 0.2413856470533817 -0.03379840469359768
34.96751201796817 0.2262356481033756 -0.07642666625975979
34.96760017855775 0.2001465484023693 -0.1133867111205996
34.96771876618709 0.1650532657969551 -0.1419373779296816
34.96785898579601 0.1235584961508673 -0.1599611968994082
34.89526118253715 -0.007145438711923645 -0.3056490173339786
34.89552910991062 -0.08643238531355758 -0.271209655761713
34.89575570358855 -0.1534875749704183 -0.2166558837890567
34.89592415820427 -0.2033378457692529 -0.1460337524414004
34.89602198019231 -0.2322860142293584 -0.06458097076415432
34.89604191451908 -0.2381851199525968 0.02166149330139742
34.89598248278794 -0.2205976654368686 0.1062974243164121
34.89584809275763 -0.1808280255590389 0.1830497589111386
34.89564871164313 -0.1218257684394288 0.2462261352539121
34.89539912642738 -0.0479667617330973 0.2911410522460995
34.8951178478513 0.03527116633865167 0.3144633483886777
34.89482573699818 0.1217146577732136 0.3144633483886777
34.89454445842211 0.2049525858449625 0.2911410522460995
34.89429487320636 0.278811592551294 0.2462261352539121
34.89409549209185 0.3378138496709041 0.1830497589111386
34.89396110206155 0.3775834895487338 0.1062974243164121
34.8939016703304 0.3951709440644621 0.02166149330139743
34.89392160465717 0.3892718383412236 -0.06458097076415432
34.89401942664522 0.3603236698811181 -0.1460337524414004
34.89418788126093 0.3104733990822835 -0.2166558837890567
34.89441447493886 0.2434182094254228 -0.271209655761713
34.89468240231233 0.1641312628237889 -0.3056490173339786
34.78090520174285 -0.04071029912104234 -0.4240637207031192
34.78127692965959 -0.1507146301556276 -0.3762817993164004
34.7815913104092 -0.243748385476622 -0.3005928039550723
34.78182502773976 -0.3129116563590709 -0.2026102294921817
34.7819607478733 -0.3530749097122131 -0.08960095977782624
34.78198840521385 -0.3612594638124209 0.0300536003112851
34.78190594850667 -0.3368582969790122 0.1474792175293027
34.78171949305042 -0.2816810912623845 0.2539669799804746
34.78144286756695 -0.1998201389713437 0.3416191711425839
34.78109658795513 -0.09734664872833941 0.4039350280761777
34.78070633626508 0.01813936716446581 0.4362928771972714
34.78030105570004 0.1380728330978185 0.4362928771972714
34.77991080400999 0.2535588489906237 0.4039350280761777
34.77956452439817 0.3560323392336279 0.3416191711425839
34.7792878989147 0.4378932915246687 0.2539669799804746
34.77910144345845 0.4930704972412964 0.1474792175293027
34.77901898675127 0.5174716640747052 0.0300536003112851
34.77904664409182 0.5092871099744974 -0.08960095977782621
34.77918236422536 0.4691238566213551 -0.2026102294921817
34.77941608155592 0.3999605857389063 -0.3005928039550723
34.77973046230553 0.3069268304179119 -0.3762817993164004
34.78010219022227 0.1969224993833266 -0.4240637207031192
20.88491408780823 0.03114996187517734 -1.867673828124997
21.0654745803321 0.03176011399463317 -1.920070678710934
21.2330351470793 0.03232633661348489 -2.005338256835934
21.23374347624536 -0.1772873957920664 -1.994352905273434
21.23444404486024 -0.3846045714856338 -1.961516845703122
21.2351291771413 -0.5873537190612276 -1.907190063476559
21.23579136704926 -0.7833135987596529 -1.831967651367184
21.2364233589318 -0.9703370670783483 -1.736673950195309
21.23701822899208 -1.146375185520456 -1.622352783203122
21.23756945974486 -1.309499254160424 -1.490256835937497
21.23807101158503 -1.457921990722308 -1.341833251953122
21.23851738920006 -1.590017183787868 -1.178708251953122
21.23890370241347 -1.704337698064864 -1.002669128417965
21.23922571815987 -1.799630855158612 -0.8156445922851528
21.23947990915973 -1.874852837786619 -0.6196835937499966
21.23966348980686 -1.929179309835136 -0.4169332885742154
21.2397744491683 -1.962015181928401 -0.2096149291992153
21.23981157078431 -1.973000470770181 1.767348687600928e-15
21.2397744491683 -1.962015181928401 0.2096149291992222
21.23966348980686 -1.929179309835136 0.4169332885742222
21.23947990915973 -1.874852837786619 0.6196835937500034
21.23922571815987 -1.799630855158612 0.8156445922851597
21.23890370241347 -1.704337698064864 1.002669128417972
21.23851738920006 -1.590017183787868 1.178708251953128
21.23807101158503 -1.457921990722308 1.341833251953128
21.23756945974486 -1.309499254160424 1.490256835937503
21.23701822899208 -1.146375185520456 1.622352783203128
21.2364233589318 -0.9703370670783483 1.736673950195316
21.23579136704926 -0.7833135987596529 1.831967651367191
21.2351291771413 -0.5873537190612276 1.907190063476566
21.23444404486024 -0.3846045714856338 1.961516845703128
21.23374347624536 -0.1772873957920664 1.994352905273441
21.2330351470793 0.03232633661348641 2.005338256835941
21.23232681791323 0.2419400690190359 1.994352905273441
21.23162624929835 0.4492572447126033 1.961516845703129
21.2309411170173 0.652006392288197 1.907190063476566
21.23027892710934 0.8479662719866223 1.831967651367191
21.2296469352268 1.034989740305318 1.736673950195316
21.22905206516651 1.211027858747425 1.622352783203129
21.22850083441374 1.374151927387394 1.490256835937504
21.22799928257356 1.522574663949278 1.341833251953129
21.22755290495855 1.654669857014838 1.178708251953129
21.22716659174512 1.768990371291834 1.002669128417972
21.22684457599873 1.864283528385582 0.8156445922851597
21.22659038499886 1.939505511013589 0.6196835937500034
21.22640680435174 1.993831983062106 0.4169332885742222
21.22629584499029 2.026667855155371 0.2096149291992222
21.22625872337429 2.037653143997151 2.473282280128661e-15
21.22629584499029 2.026667855155371 -0.2096149291992153
21.22640680435174 1.993831983062106 -0.4169332885742154
21.22659038499886 1.939505511013589 -0.6196835937499966
21.22684457599873 1.864283528385582 -0.8156445922851528
21.22716659174512 1.768990371291834 -1.002669128417965
21.22755290495855 1.654669857014838 -1.178708251953121
21.22799928257356 1.522574663949278 -1.341833251953121
21.22850083441374 1.374151927387394 -1.490256835937496
21.22905206516651 1.211027858747425 -1.622352783203121
21.2296469352268 1.034989740305318 -1.736673950195309
21.23027892710934 0.8479662719866223 -1.831967651367184
21.2309411170173 0.652006392288197 -1.907190063476559
21.23162624929835 0.4492572447126033 -1.961516845703121
21.23232681791323 0.2419400690190359 -1.994352905273434
21.06615279113663 -0.1689407817256897 -1.909552246093747
21.06682357128609 -0.3674427459090577 -1.878112548828122
21.06747957164556 -0.5615709710262879 -1.826095703124997
21.06811360477973 -0.7491985008374888 -1.754071777343747
21.06871872441057 -0.9282697440517552 -1.662829956054684
21.06928830044059 -1.096822675738494 -1.553369750976559
21.0698160925839 -1.253010626753798 -1.426890624999997
21.07029631822233 -1.395122364192204 -1.284778076171872
21.07072371551779 -1.521600768037868 -1.128589233398434
21.07109360260587 -1.631060348154399 -0.9600353393554654
21.07140192627075 -1.722301648499489 -0.7809630737304654
21.07164530897007 -1.794325163061087 -0.5933344726562466
21.07182108389735 -1.846341711774719 -0.3992051391601529
21.07192732468197 -1.877781229535808 -0.2007020416259732
21.07196286848905 -1.888299602098143 1.776342302539152e-15
21.07192732468197 -1.877781229535808 0.20070204162598
21.07182108389735 -1.846341711774719 0.3992051391601596
21.07164530897007 -1.794325163061087 0.5933344726562534
21.07140192627075 -1.722301648499489 0.7809630737304721
21.07109360260587 -1.631060348154399 0.9600353393554721
21.07072371551779 -1.521600768037868 1.128589233398441
21.07029631822233 -1.395122364192204 1.284778076171878
21.0698160925839 -1.253010626753798 1.426890625000004
21.06928830044059 -1.096822675738494 1.553369750976566
21.06871872441057 -0.9282697440517552 1.662829956054691
21.06811360477973 -0.7491985008374888 1.754071777343754
21.06747957164556 -0.5615709710262879 1.826095703125003
21.06682357128609 -0.3674427459090577 1.878112548828129
21.06615279113663 -0.1689407817256897 1.909552246093754
21.0654745803321 0.03176011399463462 1.920070678710941
21.06479636952758 0.2324610097149558 1.909552246093754
21.06412558937811 0.4309629738983239 1.878112548828129
21.06346958901864 0.6250911990155539 1.826095703125003
21.06283555588447 0.8127187288267549 1.754071777343754
21.06223043625362 0.9917899720410213 1.662829956054691
21.06166086022361 1.16034290372776 1.553369750976566
21.06113306808031 1.316530854743064 1.426890625000004
21.06065284244188 1.45864259218147 1.284778076171878
21.06022544514641 1.585120996027134 1.128589233398441
21.05985555805833 1.694580576143665 0.9600353393554721
21.05954723439345 1.785821876488755 0.7809630737304721
21.05930385169413 1.857845391050353 0.5933344726562534
21.05912807676684 1.909861939763985 0.3992051391601596
21.05902183598223 1.941301457525074 0.20070204162598
21.05898629217515 1.95181983008741 2.452259378831156e-15
21.05902183598223 1.941301457525074 -0.2007020416259732
21.05912807676684 1.909861939763985 -0.3992051391601528
21.05930385169413 1.857845391050353 -0.5933344726562466
21.05954723439345 1.785821876488755 -0.7809630737304654
21.05985555805833 1.694580576143665 -0.9600353393554654
21.06022544514641 1.585120996027134 -1.128589233398434
21.06065284244188 1.45864259218147 -1.284778076171872
21.06113306808031 1.316530854743064 -1.426890624999997
21.06166086022361 1.16034290372776 -1.553369750976559
21.06223043625362 0.9917899720410213 -1.662829956054684
21.06283555588447 0.8127187288267549 -1.754071777343747
21.06346958901864 0.6250911990155539 -1.826095703124997
21.06412558937811 0.4309629738983239 -1.878112548828122
21.06479636952758 0.2324610097149558 -1.909552246093747
20.88557379091401 -0.1640740058872562 -1.857442504882809
20.88622626610802 -0.3571590393287735 -1.826860717773434
20.88686436483299 -0.545989687270748 -1.776263427734372
20.88748109590006 -0.7284970680928826 -1.706204956054684
20.88806970236827 -0.9026816204578052 -1.617453002929684
20.8886237352272 -1.066634907996145 -1.510979858398434
20.88913712455309 -1.218560676315214 -1.387952148437497
20.88960424509618 -1.356794262067877 -1.249717773437497
20.89001997939302 -1.479821269603731 -1.097791137695309
20.89037977262895 -1.586293806227969 -0.9338369140624967
20.89067968255036 -1.675045252624866 -0.7596513671874967
20.89091642360221 -1.745103324306635 -0.5771429443359342
20.89108740157785 -1.795700325461139 -0.3883112182617154
20.89119074331903 -1.826281937964205 -0.1952250823974576
20.8912253169283 -1.836513202790788 1.777117441741112e-15
20.89119074331903 -1.826281937964205 0.1952250823974643
20.89108740157785 -1.795700325461139 0.3883112182617221
20.89091642360221 -1.745103324306635 0.5771429443359408
20.89067968255036 -1.675045252624866 0.7596513671875034
20.89037977262895 -1.586293806227969 0.9338369140625034
20.89001997939302 -1.479821269603731 1.097791137695316
20.88960424509618 -1.356794262067877 1.249717773437503
20.88913712455309 -1.218560676315214 1.387952148437503
20.8886237352272 -1.066634907996145 1.510979858398441
20.88806970236827 -0.9026816204578052 1.617453002929691
20.88748109590006 -0.7284970680928826 1.706204956054691
20.88686436483299 -0.545989687270748 1.776263427734379
20.88622626610802 -0.3571590393287735 1.826860717773441
20.88557379091401 -0.1640740058872562 1.857442504882816
20.88491408780823 0.03114996187517875 1.867673828125003
20.88425438470246 0.2263739296376107 1.857442504882816
20.88360190950845 0.4194589630791279 1.826860717773441
20.88296381078347 0.6082896110211026 1.776263427734379
20.8823470797164 0.7907969918432372 1.706204956054691
20.8817584732482 0.9649815442081597 1.617453002929691
20.88120444038926 1.128934831746499 1.510979858398441
20.88069105106337 1.280860600065568 1.387952148437503
20.88022393052029 1.419094185818231 1.249717773437503
20.87980819622344 1.542121193354085 1.097791137695316
20.87944840298752 1.648593729978324 0.9338369140625035
20.8791484930661 1.73734517637522 0.7596513671875035
20.87891175201425 1.80740324805699 0.5771429443359409
20.87874077403861 1.858000249211494 0.3883112182617221
20.87863743229744 1.888581861714559 0.1952250823974643
20.87860285868816 1.898813126541142 2.434589395887658e-15
20.87863743229744 1.888581861714559 -0.1952250823974576
20.87874077403861 1.858000249211494 -0.3883112182617154
20.87891175201425 1.80740324805699 -0.577142944335934
20.8791484930661 1.73734517637522 -0.7596513671874966
20.87944840298752 1.648593729978324 -0.9338369140624966
20.87980819622344 1.542121193354085 -1.097791137695309
20.88022393052029 1.419094185818231 -1.249717773437497
20.88069105106337 1.280860600065568 -1.387952148437497
20.88120444038926 1.128934831746499 -1.510979858398434
20.8817584732482 0.9649815442081597 -1.617453002929684
20.8823470797164 0.7907969918432372 -1.706204956054684
20.88296381078347 0.6082896110211026 -1.776263427734372
20.88360190950845 0.4194589630791279 -1.826860717773434
20.88425438470246 0.2263739296376107 -1.857442504882809

CELLS 2170 8680
3 79 80 129
3 79 129 128
3 80 81 129
3 129 81 130
3 81 82 130
3 130 82 131
3 82 83 132
3 82 132 131
3 83 84 133
3 83 133 132
3 84 85 134
3 84 134 133
3 85 86 135
3 85 135 134
3 86 87 135
3 135 87 136
3 87 88 136
3 136 88 137
3 88 89 138
3 88 138 137
3 89 90 138
3 138 90 139
3 90 91 140
3 90 140 139
3 91 92 141
3 91 141 140
3 92 93 141
3 141 93 142
3 93 94 143
3 93 143 142
3 94 95 144
3 94 144 143
3 95 96 144
3 144 96 145
3 96 97 146
3 96 146 145
3 97 98 146
3 146 98 147
3 98 99 148
3 98 148 147
3 99 100 149
3 99 149 148
3 100 101 150
3 100 150 149
3 101 102 150
3 150 102 151
3 102 103 152
3 102 152 151
3 103 104 152
3 152 104 153
3 104 105 154
3 104 154 153
3 105 106 154
3 154 106 155
3 106 107 155
3 155 107 156
3 107 108 157
3 107 157 156
3 108 109 158
3 108 158 157
3 109 110 159
3 109 159 158
3 110 111 160
3 110 160 159
3 111 112 160
3 160 112 161
3 112 113 161
3 161 113 162
3 113 114 163
3 113 163 162
3 114 115 163
3 163 115 164
3 115 116 165
3 115 165 164
3 116 117 166
3 116 166 165
3 117 118 166
3 166 118 167
3 118 119 168
3 118 168 167
3 119 120 169
3 119 169 168
3 120 121 169
3 169 121 170
3 121 122 171
3 121 171 170
3 122 123 171
3 171 123 172
3 123 124 173
3 123 173 172
3 124 125 174
3 124 174 173
3 125 126 175
3 125 175 174
3 126 127 175
3 175 127 176
3 128 129 178
3 128 178 177
3 129 130 178
3 178 130 179
3 130 131 180
3 130 180 179
3 131 132 181
3 131 181 180
3 132 133 181
3 181 133 182
3 133 134 182
3 182 134 183
3 134 135 184
3 134 184 183
3 135 136 184
3 184 136 185
3 136 137 186
3 136 186 185
3 137 138 187
3 137 187 186
3 138 139 188
3 138 188 187
3 139 140 189
3 139 189 188
3 140 141 189
3 189 141 190
3 141 142 191
3 141 191 190
3 142 143 191
3 191 143 192
3 143 144 193
3 143 193 192
3 144 145 194
3 144 194 193
3 145 146 195
3 145 195 194
3 146 147 196
3 146 196 195
3 147 148 196
3 196 148 197
3 148 149 197
3 197 149 198
3 149 150 199
3 149 199 198
3 150 151 199
3 199 151 200
3 151 152 201
3 151 201 200
3 152 153 201
3 201 153 202
3 153 154 203
3 153 203 202
3 154 155 203
3 203 155 204
3 155 156 205
3 155 205 204
3 156 157 206
3 156 206 205
3 157 158 206
3 206 158 207
3 158 159 207
3 207 159 208
3 159 160 209
3 159 209 208
3 160 161 209
3 209 161 210
3 161 162 211
3 161 211 210
3 162 163 212
3 162 212 211
3 163 164 213
3 163 213 212
3 164 165 214
3 164 214 213
3 165 166 214
3 214 166 215
3 166 167 216
3 166 216 215
3 167 168 216
3 216 168 217
3 168 169 218
3 168 218 217
3 169 170 219
3 169 219 218
3 170 171 220
3 170 220 219
3 171 172 221
3 171 221 220
3 172 173 221
3 221 173 222
3 173 174 222
3 222 174 223
3 174 175 224
3 174 224 223
3 175 176 224
3 224 176 225
3 177 178 227
3 177 227 226
3 178 179 227
3 227 179 228
3 179 180 229
3 179 229 228
3 180 181 230
3 180 230 229
3 181 182 230
3 230 182 231
3 182 183 232
3 182 232 231
3 183 184 233
3 183 233 232
3 184 185 234
3 184 234 233
3 185 186 234
3 234 186 235
3 186 187 235
3 235 187 236
3 187 188 237
3 187 237 236
3 188 189 238
3 188 238 237
3 189 190 238
3 238 190 239
3 190 191 240
3 190 240 239
3 191 192 241
3 191 241 240
3 192 193 241
3 241 193 242
3 193 194 242
3 242 194 243
3 194 195 243
3 243 195 244
3 195 196 245
3 195 245 244
3 196 197 245
3 245 197 246
3 197 198 247
3 197 247 246
3 198 199 248
3 198 248 247
3 199 200 248
3 248 200 249
3 200 201 249
3 249 201 250
3 201 202 251
3 201 251 250
3 202 203 252
3 202 252 251
3 203 204 252
3 252 204 253
3 204 205 254
3 204 254 253
3 205 206 255
3 205 255 254
3 206 207 255
3 255 207 256
3 207 208 257
3 207 257 256
3 208 209 258
3 208 258 257
3 209 210 259
3 209 259 258
3 210 211 259
3 259 211 260
3 211 212 260
3 260 212 261
3 212 213 262
3 212 262 261
3 213 214 263
3 213 263 262
3 214 215 263
3 263 215 264
3 215 216 265
3 215 265 264
3 216 217 266
3 216 266 265
3 217 218 266
3 266 218 267
3 218 219 267
3 267 219 268
3 219 220 268
3 268 220 269
3 220 221 270
3 220 270 269
3 221 222 270
3 270 222 271
3 222 223 272
3 222 272 271
3 223 224 273
3 223 273 272
3 224 225 273
3 273 225 274
3 226 227 276
3 226 276 275
3 227 228 276
3 276 228 277
3 228 229 278
3 228 278 277
3 229 230 278
3 278 230 279
3 230 231 280
3 230 280 279
3 231 232 280
3 280 232 281
3 232 233 281
3 281 233 282
3 233 234 283
3 233 283 282
3 234 235 283
3 283 235 284
3 235 236 285
3 235 285 284
3 236 237 286
3 236 286 285
3 237 238 287
3 237 287 286
3 238 239 287
3 287 239 288
3 239 240 288
3 288 240 289
3 240 241 290
3 240 290 289
3 241 242 291
3 241 291 290
3 242 243 292
3 242 292 291
3 243 244 293
3 243 293 292
3 244 245 294
3 244 294 293
3 245 246 295
3 245 295 294
3 246 247 296
3 246 296 295
3 247 248 297
3 247 297 296
3 248 249 297
3 297 249 298
3 249 250 299
3 249 299 298
3 250 251 299
3 299 251 300
3 251 252 301
3 251 301 300
3 252 253 301
3 301 253 302
3 253 254 303
3 253 303 302
3 254 255 303
3 303 255 304
3 255 256 305
3 255 305 304
3 256 257 305
3 305 257 306
3 257 258 306
3 306 258 307
3 258 259 308
3 258 308 307
3 259 260 308
3 308 260 309
3 260 261 310
3 260 310 309
3 261 262 311
3 261 311 310
3 262 263 312
3 262 312 311
3 263 264 312
3 312 264 313
3 264 265 313
3 313 265 314
3 265 266 315
3 265 315 314
3 266 267 316
3 266 316 315
3 267 268 317
3 267 317 316
3 268 269 318
3 268 318 317
3 269 270 319
3 269 319 318
3 270 271 320
3 270 320 319
3 271 272 321
3 271 321 320
3 272 273 322
3 272 322 321
3 273 274 322
3 322 274 323
3 275 276 324
3 324 276 325
3 276 277 326
3 276 326 325
3 277 278 326
3 326 278 327
3 278 279 328
3 278 328 327
3 279 280 329
3 279 329 328
3 280 281 329
3 329 281 330
3 281 282 331
3 281 331 330
3 282 283 331
3 331 283 332
3 283 284 333
3 283 333 332
3 284 285 334
3 284 334 333
3 285 286 335
3 285 335 334
3 286 287 336
3 286 336 335
3 287 288 337
3 287 337 336
3 288 289 337
3 337 289 338
3 289 290 338
3 338 290 339
3 290 291 340
3 290 340 339
3 291 292 340
3 340 292 341
3 292 293 342
3 292 342 341
3 293 294 342
3 342 294 343
3 294 295 343
3 343 295 344
3 295 296 345
3 295 345 344
3 296 297 345
3 345 297 346
3 297 298 347
3 297 347 346
3 298 299 348
3 298 348 347
3 299 300 348
3 348 300 349
3 300 301 349
3 349 301 350
3 301 302 351
3 301 351 350
3 302 303 351
3 351 303 352
3 303 304 353
3 303 353 352
3 304 305 354
3 304 354 353
3 305 306 354
3 354 306 355
3 306 307 356
3 306 356 355
3 307 308 356
3 356 308 357
3 308 309 358
3 308 358 357
3 309 310 359
3 309 359 358
3 310 311 360
3 310 360 359
3 311 312 361
3 311 361 360
3 312 313 362
3 312 362 361
3 313 314 362
3 362 314 363
3 314 315 363
3 363 315 364
3 315 316 365
3 315 365 364
3 316 317 365
3 365 317 366
3 317 318 367
3 317 367 366
3 318 319 367
3 367 319 368
3 319 320 368
3 368 320 369
3 320 321 370
3 320 370 369
3 321 322 370
3 370 322 371
3 322 323 372
3 322 372 371
3 324 325 373
3 373 325 374
3 325 326 375
3 325 375 374
3 326 327 375
3 375 327 376
3 327 328 376
3 376 328 377
3 328 329 378
3 328 378 377
3 329 330 379
3 329 379 378
3 330 331 380
3 330 380 379
3 331 332 380
3 380 332 381
3 332 333 381
3 381 333 382
3 333 334 383
3 333 383 382
3 334 335 383
3 383 335 384
3 335 336 385
3 335 385 384
3 336 337 386
3 336 386 385
3 337 338 387
3 337 387 386
3 338 339 388
3 338 388 387
3 339 340 389
3 339 389 388
3 340 341 389
3 389 341 390
3 341 342 391
3 341 391 390
3 342 343 391
3 391 343 392
3 343 344 393
3 343 393 392
3 344 345 394
3 344 394 393
3 345 346 394
3 394 346 395
3 346 347 396
3 346 396 395
3 347 348 396
3 396 348 397
3 348 349 398
3 348 398 397
3 349 350 398
3 398 350 399
3 350 351 400
3 350 400 399
3 351 352 400
3 400 352 401
3 352 353 401
3 401 353 402
3 353 354 403
3 353 403 402
3 354 355 404
3 354 404 403
3 355 356 405
3 355 405 404
3 356 357 405
3 405 357 406
3 357 358 406
3 406 358 407
3 358 359 408
3 358 408 407
3 359 360 408
3 408 360 409
3 360 361 410
3 360 410 409
3 361 362 411
3 361 411 410
3 362 363 412
3 362 412 411
3 363 364 413
3 363 413 412
3 364 365 414
3 364 414 413
3 365 366 414
3 414 366 415
3 366 367 416
3 366 416 415
3 367 368 416
3 416 368 417
3 368 369 418
3 368 418 417
3 369 370 419
3 369 419 418
3 370 371 419
3 419 371 420
3 371 372 421
3 371 421 420
3 78 0 373
3 0 1 373
3 1 2 324
3 2 3 275
3 3 4 226
3 4 5 177
3 5 6 128
3 6 7 79
3 7 8 79
3 8 9 79
3 9 10 81
3 10 11 83
3 11 12 86
3 12 13 88
3 13 14 90
3 14 15 92
3 15 16 94
3 16 17 96
3 17 18 99
3 18 19 101
3 19 20 103
3 20 21 105
3 21 22 107
3 22 23 110
3 23 24 112
3 24 25 114
3 25 26 116
3 26 27 118
3 27 28 120
3 28 29 123
3 29 30 125
3 30 8 127
3 8 7 127
3 7 6 127
3 6 5 176
3 5 4 225
3 4 3 274
3 3 2 323
3 2 1 372
3 1 0 421
3 0 31 421
3 31 32 420
3 32 33 419
3 33 34 418
3 34 35 417
3 35 36 416
3 36 37 415
3 37 38 414
3 38 39 413
3 39 40 412
3 40 41 411
3 41 42 410
3 42 43 409
3 43 44 408
3 44 45 407
3 45 46 406
3 46 47 405
3 47 48 404
3 48 49 403
3 49 50 402
3 50 51 401
3 51 52 400
3 52 53 399
3 53 54 398
3 54 55 397
3 55 56 396
3 56 57 395
3 57 58 394
3 58 59 393
3 59 60 392
3 60 61 391
3 61 62 390
3 62 63 389
3 63 64 388
3 64 65 387
3 65 66 386
3 66 67 385
3 67 68 384
3 68 69 383
3 69 70 382
3 70 71 381
3 71 72 380
3 72 73 379
3 73 74 378
3 74 75 377
3 75 76 376
3 76 77 375
3 77 78 374
3 81 80 9
3 83 82 10
3 85 84 11
3 79 128 6
3 128 177 5
3 177 226 4
3 226 275 3
3 275 324 2
3 324 373 1
3 373 374 78
3 374 375 77
3 375 376 76
3 376 377 75
3 377 378 74
3 378 379 73
3 379 380 72
3 87 86 12
3 89 88 13
3 92 91 14
3 94 93 15
3 380 381 71
3 381 382 70
3 382 383 69
3 383 384 68
3 384 385 67
3 385 386 66
3 386 387 65
3 387 388 64
3 96 95 16
3 98 97 17
3 100 99 18
3 102 101 19
3 388 389 63
3 389 390 62
3 390 391 61
3 391 392 60
3 392 393 59
3 393 394 58
3 394 395 57
3 395 396 56
3 105 104 20
3 107 106 21
3 109 108 22
3 396 397 55
3 397 398 54
3 398 399 53
3 399 400 52
3 400 401 51
3 401 402 50
3 402 403 49
3 403 404 48
3 111 110 23
3 113 112 24
3 115 114 25
3 118 117 26
3 404 405 47
3 405 406 46
3 406 407 45
3 407 408 44
3 408 409 43
3 409 410 42
3 410 411 41
3 411 412 40
3 120 119 27
3 122 121 28
3 124 123 29
3 126 125 30
3 412 413 39
3 413 414 38
3 414 415 37
3 415 416 36
3 416 417 35
3 417 418 34
3 418 419 33
3 419 420 32
3 176 127 6
3 225 176 5
3 274 225 4
3 323 274 3
3 372 323 2
3 421 372 1
3 420 421 31
3 79 9 80
3 81 10 82
3 83 11 84
3 11 86 85
3 12 88 87
3 13 90 89
3 90 14 91
3 92 15 93
3 94 16 95
3 96 17 97
3 17 99 98
3 18 101 100
3 19 103 102
3 103 20 104
3 105 21 106
3 107 22 108
3 22 110 109
3 23 112 111
3 24 114 113
3 25 116 115
3 116 26 117
3 118 27 119
3 120 28 121
3 28 123 122
3 29 125 124
3 30 127 126
3 0 78 423
3 0 423 422
3 78 77 424
3 78 424 423
3 77 76 425
3 77 425 424
3 76 75 426
3 76 426 425
3 75 74 427
3 75 427 426
3 74 73 428
3 74 428 427
3 73 72 429
3 73 429 428
3 72 71 430
3 72 430 429
3 71 70 431
3 71 431 430
3 70 69 432
3 70 432 431
3 69 68 433
3 69 433 432
3 68 67 434
3 68 434 433
3 67 66 435
3 67 435 434
3 66 65 436
3 66 436 435
3 65 64 437
3 65 437 436
3 64 63 438
3 64 438 437
3 63 62 439
3 63 439 438
3 62 61 440
3 62 440 439
3 61 60 441
3 61 441 440
3 60 59 442
3 60 442 441
3 59 58 443
3 59 443 442
3 58 57 444
3 58 444 443
3 57 56 445
3 57 445 444
3 56 55 446
3 56 446 445
3 55 54 447
3 55 447 446
3 54 53 448
3 54 448 447
3 53 52 449
3 53 449 448
3 52 51 450
3 52 450 449
3 51 50 451
3 51 451 450
3 50 49 452
3 50 452 451
3 49 48 453
3 49 453 452
3 48 47 454
3 48 454 453
3 47 46 455
3 47 455 454
3 46 45 456
3 46 456 455
3 45 44 457
3 45 457 456
3 44 43 458
3 44 458 457
3 43 42 459
3 43 459 458
3 42 41 460
3 42 460 459
3 41 40 461
3 41 461 460
3 40 39 462
3 40 462 461
3 39 38 463
3 39 463 462
3 38 37 464
3 38 464 463
3 37 36 465
3 37 465 464
3 36 35 466
3 36 466 465
3 35 34 467
3 35 467 466
3 34 33 468
3 34 468 467
3 33 32 469
3 33 469 468
3 32 31 470
3 32 470 469
3 31 0 422
3 31 422 470
3 422 423 472
3 422 472 471
3 423 424 473
3 423 473 472
3 424 425 474
3 424 474 473
3 425 426 475
3 425 475 474
3 426 427 476
3 426 476 475
3 427 428 477
3 427 477 476
3 428 429 478
3 428 478 477
3 429 430 479
3 429 479 478
3 430 431 480
3 430 480 479
3 431 432 481
3 431 481 480
3 432 433 482
3 432 482 481
3 433 434 483
3 433 483 482
3 434 435 484
3 434 484 483
3 435 436 485
3 435 485 484
3 436 437 486
3 436 486 485
3 437 438 487
3 437 487 486
3 438 439 488
3 438 488 487
3 439 440 489
3 439 489 488
3 440 441 490
3 440 490 489
3 441 442 491
3 441 491 490
3 442 443 492
3 442 492 491
3 443 444 493
3 443 493 492
3 444 445 494
3 444 494 493
3 445 446 495
3 445 495 494
3 446 447 496
3 446 496 495
3 447 448 497
3 447 497 496
3 448 449 498
3 448 498 497
3 449 450 499
3 449 499 498
3 450 451 500
3 450 500 499
3 451 452 501
3 451 501 500
3 452 453 502
3 452 502 501
3 453 454 503
3 453 503 502
3 454 455 504
3 454 504 503
3 455 456 505
3 455 505 504
3 456 457 506
3 456 506 505
3 457 458 507
3 457 507 506
3 458 459 508
3 458 508 507
3 459 460 509
3 459 509 508
3 460 461 510
3 460 510 509
3 461 462 511
3 461 511 510
3 462 463 512
3 462 512 511
3 463 464 513
3 463 513 512
3 464 465 514
3 464 514 513
3 465 466 515
3 465 515 514
3 466 467 516
3 466 516 515
3 467 468 517
3 467 517 516
3 468 469 518
3 468 518 517
3 469 470 519
3 469 519 518
3 470 422 471
3 470 471 519
3 579 520 578
3 520 521 578
3 578 521 577
3 521 522 577
3 577 522 576
3 522 523 576
3 576 523 575
3 523 524 575
3 575 524 574
3 524 525 574
3 574 525 573
3 525 526 573
3 573 526 572
3 526 527 572
3 572 527 571
3 527 528 571
3 571 528 570
3 528 529 570
3 570 529 569
3 529 530 569
3 569 530 568
3 530 531 568
3 568 531 567
3 531 532 567
3 567 532 566
3 532 533 566
3 566 533 565
3 533 534 565
3 565 534 564
3 534 535 564
3 564 535 563
3 535 536 563
3 563 536 562
3 536 537 562
3 562 537 561
3 537 538 561
3 561 538 560
3 538 539 560
3 560 539 559
3 539 540 559
3 559 540 558
3 540 541 558
3 558 541 557
3 541 542 557
3 557 542 556
3 542 543 556
3 556 543 555
3 543 544 555
3 555 544 554
3 544 545 554
3 554 545 553
3 545 546 553
3 553 546 552
3 546 547 552
3 552 547 551
3 547 548 551
3 551 548 550
3 548 549 550
3 632 633 681
3 632 681 680
3 633 634 682
3 633 682 681
3 634 635 683
3 634 683 682
3 635 636 684
3 635 684 683
3 636 637 684
3 684 637 685
3 637 638 685
3 685 638 686
3 638 639 687
3 638 687 686
3 639 640 687
3 687 640 688
3 640 641 688
3 688 641 689
3 641 642 689
3 689 642 690
3 642 643 691
3 642 691 690
3 643 644 691
3 691 644 692
3 644 645 693
3 644 693 692
3 645 646 694
3 645 694 693
3 646 647 694
3 694 647 695
3 647 648 696
3 647 696 695
3 648 649 697
3 648 697 696
3 649 650 697
3 697 650 698
3 650 651 698
3 698 651 699
3 651 652 699
3 699 652 700
3 652 653 700
3 700 653 701
3 653 654 701
3 701 654 702
3 654 655 702
3 702 655 703
3 655 656 704
3 655 704 703
3 656 657 705
3 656 705 704
3 657 658 706
3 657 706 705
3 658 659 707
3 658 707 706
3 659 660 708
3 659 708 707
3 660 661 709
3 660 709 708
3 661 662 710
3 661 710 709
3 662 663 710
3 710 663 711
3 663 664 711
3 711 664 712
3 664 665 713
3 664 713 712
3 665 666 713
3 713 666 714
3 666 667 714
3 714 667 715
3 667 668 716
3 667 716 715
3 668 669 716
3 716 669 717
3 669 670 718
3 669 718 717
3 670 671 719
3 670 719 718
3 671 672 720
3 671 720 719
3 672 673 720
3 720 673 721
3 673 674 722
3 673 722 721
3 674 675 723
3 674 723 722
3 675 676 723
3 723 676 724
3 676 677 724
3 724 677 725
3 677 678 725
3 725 678 726
3 678 679 726
3 726 679 727
3 680 681 728
3 728 681 729
3 681 682 729
3 729 682 730
3 682 683 730
3 730 683 731
3 683 684 731
3 731 684 732
3 684 685 732
3 732 685 733
3 685 686 734
3 685 734 733
3 686 687 734
3 734 687 735
3 687 688 736
3 687 736 735
3 688 689 737
3 688 737 736
3 689 690 737
3 737 690 738
3 690 691 738
3 738 691 739
3 691 692 740
3 691 740 739
3 692 693 740
3 740 693 741
3 693 694 741
3 741 694 742
3 694 695 742
3 742 695 743
3 695 696 743
3 743 696 744
3 696 697 745
3 696 745 744
3 697 698 746
3 697 746 745
3 698 699 747
3 698 747 746
3 699 700 748
3 699 748 747
3 700 701 749
3 700 749 748
3 701 702 750
3 701 750 749
3 702 703 751
3 702 751 750
3 703 704 752
3 703 752 751
3 704 705 752
3 752 705 753
3 705 706 753
3 753 706 754
3 706 707 754
3 754 707 755
3 707 708 755
3 755 708 756
3 708 709 756
3 756 709 757
3 709 710 758
3 709 758 757
3 710 711 758
3 758 711 759
3 711 712 760
3 711 760 759
3 712 713 761
3 712 761 760
3 713 714 762
3 713 762 761
3 714 715 763
3 714 763 762
3 715 716 763
3 763 716 764
3 716 717 765
3 716 765 764
3 717 718 766
3 717 766 765
3 718 719 766
3 766 719 767
3 719 720 767
3 767 720 768
3 720 721 769
3 720 769 768
3 721 722 769
3 769 722 770
3 722 723 771
3 722 771 770
3 723 724 772
3 723 772 771
3 724 725 773
3 724 773 772
3 725 726 774
3 725 774 773
3 726 727 775
3 726 775 774
3 631 580 581
3 581 582 680
3 582 583 632
3 583 471 472
3 472 473 632
3 473 474 633
3 474 475 634
3 475 476 635
3 476 477 636
3 477 478 637
3 478 479 638
3 479 480 639
3 480 481 640
3 481 482 641
3 482 483 642
3 483 484 643
3 484 485 644
3 485 486 645
3 486 487 646
3 487 488 647
3 488 489 649
3 489 490 650
3 490 491 651
3 491 492 652
3 492 493 653
3 493 494 654
3 494 495 655
3 495 496 656
3 496 497 657
3 497 498 658
3 498 499 659
3 499 500 660
3 500 501 661
3 501 502 662
3 502 503 663
3 503 504 664
3 504 505 665
3 505 506 666
3 506 507 667
3 507 508 668
3 508 509 669
3 509 510 670
3 510 511 671
3 511 512 672
3 512 513 673
3 513 514 673
3 514 515 674
3 515 516 675
3 516 517 676
3 517 518 677
3 518 519 678
3 519 471 583
3 583 582 679
3 582 581 727
3 581 580 584
3 584 585 774
3 585 586 773
3 586 587 772
3 587 588 771
3 588 589 770
3 589 590 769
3 590 591 769
3 591 592 768
3 592 593 767
3 593 594 766
3 594 595 765
3 595 596 764
3 596 597 763
3 597 598 762
3 598 599 761
3 599 600 760
3 600 601 759
3 601 602 758
3 602 603 757
3 603 604 756
3 604 605 755
3 605 606 754
3 606 607 753
3 607 608 752
3 608 609 751
3 609 610 750
3 610 611 749
3 611 612 748
3 612 613 747
3 613 614 746
3 614 615 745
3 615 616 743
3 616 617 742
3 617 618 741
3 618 619 740
3 619 620 739
3 620 621 738
3 621 622 737
3 622 623 736
3 623 624 735
3 624 625 734
3 625 626 733
3 626 627 732
3 627 628 731
3 628 629 730
3 629 630 729
3 630 631 728
3 633 632 473
3 634 633 474
3 635 634 475
3 636 635 476
3 637 636 477
3 638 637 478
3 639 638 479
3 632 680 582
3 680 728 581
3 728 729 630
3 729 730 629
3 730 731 628
3 731 732 627
3 732 733 626
3 733 734 625
3 734 735 624
3 640 639 480
3 641 640 481
3 642 641 482
3 643 642 483
3 644 643 484
3 645 644 485
3 646 645 486
3 647 646 487
3 735 736 623
3 736 737 622
3 737 738 621
3 738 739 620
3 739 740 619
3 740 741 618
3 741 742 617
3 742 743 616
3 648 647 488
3 649 648 488
3 650 649 489
3 651 650 490
3 652 651 491
3 653 652 492
3 654 653 493
3 655 654 494
3 743 744 615
3 744 745 615
3 745 746 614
3 746 747 613
3 747 748 612
3 748 749 611
3 749 750 610
3 750 751 609
3 656 655 495
3 657 656 496
3 658 657 497
3 659 658 498
3 660 659 499
3 661 660 500
3 662 661 501
3 663 662 502
3 751 752 608
3 752 753 607
3 753 754 606
3 754 755 605
3 755 756 604
3 756 757 603
3 757 758 602
3 758 759 601
3 664 663 503
3 665 664 504
3 666 665 505
3 667 666 506
3 668 667 507
3 669 668 508
3 670 669 509
3 671 670 510
3 759 760 600
3 760 761 599
3 761 762 598
3 762 763 597
3 763 764 596
3 764 765 595
3 765 766 594
3 766 767 593
3 672 671 511
3 673 672 512
3 674 673 514
3 675 674 515
3 676 675 516
3 677 676 517
3 678 677 518
3 679 678 519
3 767 768 592
3 768 769 591
3 769 770 589
3 770 771 588
3 771 772 587
3 772 773 586
3 773 774 585
3 774 775 584
3 727 679 582
3 775 727 581
3 631 581 728
3 632 583 472
3 519 583 679
3 581 584 775
3 836 776 777
3 777 580 631
3 631 630 835
3 630 629 834
3 629 628 833
3 628 627 831
3 627 626 830
3 626 625 829
3 625 624 828
3 624 623 827
3 623 622 825
3 622 621 824
3 621 620 823
3 620 619 822
3 619 618 820
3 618 617 819
3 617 616 818
3 616 615 817
3 615 614 816
3 614 613 814
3 613 612 813
3 612 611 812
3 611 610 811
3 610 609 809
3 609 608 808
3 608 607 807
3 607 606 806
3 606 605 805
3 605 604 803
3 604 603 802
3 603 602 801
3 602 601 800
3 601 600 798
3 600 599 797
3 599 598 796
3 598 597 795
3 597 596 794
3 596 595 792
3 595 594 791
3 594 593 790
3 593 592 789
3 592 591 787
3 591 590 786
3 590 589 785
3 589 588 784
3 588 587 783
3 587 586 781
3 586 585 780
3 585 584 779
3 584 580 777
3 777 776 778
3 778 779 584
3 779 780 585
3 780 781 586
3 781 782 587
3 782 783 587
3 783 784 588
3 784 785 589
3 785 786 590
3 786 787 591
3 787 788 592
3 788 789 592
3 789 790 593
3 790 791 594
3 791 792 595
3 792 793 596
3 793 794 596
3 794 795 597
3 795 796 598
3 796 797 599
3 797 798 600
3 798 799 601
3 799 800 601
3 800 801 602
3 801 802 603
3 802 803 604
3 803 804 605
3 804 805 605
3 805 806 606
3 806 807 607
3 807 808 608
3 808 809 609
3 809 810 610
3 810 811 610
3 811 812 611
3 812 813 612
3 813 814 613
3 814 815 614
3 815 816 614
3 816 817 615
3 817 818 616
3 818 819 617
3 819 820 618
3 820 821 619
3 821 822 619
3 822 823 620
3 823 824 621
3 824 825 622
3 825 826 623
3 826 827 623
3 827 828 624
3 828 829 625
3 829 830 626
3 830 831 627
3 831 832 628
3 832 833 628
3 833 834 629
3 834 835 630
3 835 836 631
3 836 777 631
3 584 777 778
3 841 842 863
3 863 842 864
3 842 843 865
3 842 865 864
3 843 844 865
3 865 844 866
3 844 845 866
3 866 845 867
3 845 846 868
3 845 868 867
3 846 847 869
3 846 869 868
3 847 848 870
3 847 870 869
3 848 849 870
3 870 849 871
3 849 850 872
3 849 872 871
3 850 851 873
3 850 873 872
3 851 852 874
3 851 874 873
3 852 853 875
3 852 875 874
3 853 854 876
3 853 876 875
3 854 855 877
3 854 877 876
3 855 856 877
3 877 856 878
3 856 857 879
3 856 879 878
3 857 858 879
3 879 858 880
3 858 859 881
3 858 881 880
3 859 860 882
3 859 882 881
3 860 861 882
3 882 861 883
3 861 862 884
3 861 884 883
3 863 864 886
3 863 886 885
3 864 865 886
3 886 865 887
3 865 866 887
3 887 866 888
3 866 867 889
3 866 889 888
3 867 868 890
3 867 890 889
3 868 869 890
3 890 869 891
3 869 870 892
3 869 892 891
3 870 871 892
3 892 871 893
3 871 872 894
3 871 894 893
3 872 873 895
3 872 895 894
3 873 874 896
3 873 896 895
3 874 875 896
3 896 875 897
3 875 876 897
3 897 876 898
3 876 877 899
3 876 899 898
3 877 878 899
3 899 878 900
3 878 879 901
3 878 901 900
3 879 880 901
3 901 880 902
3 880 881 902
3 902 881 903
3 881 882 904
3 881 904 903
3 882 883 905
3 882 905 904
3 883 884 905
3 905 884 906
3 9 8 837
3 837 838 863
3 838 839 841
3 839 840 841
3 839 838 862
3 838 837 884
3 837 8 30
3 30 29 905
3 29 28 904
3 28 27 903
3 27 26 902
3 26 25 901
3 25 24 900
3 24 23 899
3 23 22 898
3 22 21 897
3 21 20 896
3 20 19 895
3 19 18 894
3 18 17 893
3 17 16 892
3 16 15 891
3 15 14 890
3 14 13 889
3 13 12 888
3 12 11 887
3 11 10 886
3 10 9 885
3 842 841 840
3 843 842 840
3 844 843 840
3 845 844 840
3 846 845 840
3 847 846 840
3 848 847 840
3 841 863 838
3 863 885 837
3 885 886 10
3 886 887 11
3 887 888 12
3 888 889 13
3 889 890 14
3 890 891 15
3 891 892 16
3 849 848 840
3 850 849 840
3 851 850 840
3 852 851 840
3 853 852 840
3 854 853 840
3 855 854 840
3 856 855 840
3 892 893 17
3 893 894 18
3 894 895 19
3 895 896 20
3 896 897 21
3 897 898 22
3 898 899 23
3 899 900 24
3 857 856 840
3 858 857 840
3 859 858 840
3 860 859 840
3 861 860 840
3 862 861 840
3 884 862 838
3 906 884 837
3 900 901 25
3 901 902 26
3 902 903 27
3 903 904 28
3 904 905 29
3 905 906 30
3 9 837 885
3 862 840 839
3 837 30 906
3 910 911 970
3 910 970 969
3 911 912 970
3 970 912 971
3 912 913 971
3 971 913 972
3 913 914 973
3 913 973 972
3 914 915 973
3 973 915 974
3 915 916 974
3 974 916 975
3 916 917 976
3 916 976 975
3 917 918 977
3 917 977 976
3 918 919 978
3 918 978 977
3 919 920 978
3 978 920 979
3 920 921 980
3 920 980 979
3 921 922 981
3 921 981 980
3 922 923 981
3 981 923 982
3 923 924 983
3 923 983 982
3 924 925 983
3 983 925 984
3 925 926 985
3 925 985 984
3 926 927 985
3 985 927 986
3 927 928 986
3 986 928 987
3 928 929 988
3 928 988 987
3 929 930 988
3 988 930 989
3 930 931 989
3 989 931 990
3 931 932 991
3 931 991 990
3 932 933 992
3 932 992 991
3 933 934 993
3 933 993 992
3 934 935 993
3 993 935 994
3 935 936 995
3 935 995 994
3 936 937 996
3 936 996 995
3 937 938 996
3 996 938 997
3 938 939 998
3 938 998 997
3 939 940 998
3 998 940 999
3 940 941 1000
3 940 1000 999
3 941 942 1000
3 1000 942 1001
3 942 943 1001
3 1001 943 1002
3 943 944 1003
3 943 1003 1002
3 944 945 1003
3 1003 945 1004
3 945 946 1004
3 1004 946 1005
3 946 947 1006
3 946 1006 1005
3 947 948 1007
3 947 1007 1006
3 948 949 1008
3 948 1008 1007
3 949 950 1008
3 1008 950 1009
3 950 951 1010
3 950 1010 1009
3 951 952 1011
3 951 1011 1010
3 952 953 1011
3 1011 953 1012
3 953 954 1013
3 953 1013 1012
3 954 955 1013
3 1013 955 1014
3 955 956 1015
3 955 1015 1014
3 956 957 1015
3 1015 957 1016
3 957 958 1016
3 1016 958 1017
3 958 959 1018
3 958 1018 1017
3 959 960 1018
3 1018 960 1019
3 960 961 1019
3 1019 961 1020
3 961 962 1021
3 961 1021 1020
3 962 963 1022
3 962 1022 1021
3 963 964 1023
3 963 1023 1022
3 964 965 1023
3 1023 965 1024
3 965 966 1025
3 965 1025 1024
3 966 967 1026
3 966 1026 1025
3 967 968 1026
3 1026 968 1027
3 969 970 1029
3 969 1029 1028
3 970 971 1030
3 970 1030 1029
3 971 972 1031
3 971 1031 1030
3 972 973 1032
3 972 1032 1031
3 973 974 1033
3 973 1033 1032
3 974 975 1034
3 974 1034 1033
3 975 976 1035
3 975 1035 1034
3 976 977 1035
3 1035 977 1036
3 977 978 1036
3 1036 978 1037
3 978 979 1037
3 1037 979 1038
3 979 980 1038
3 1038 980 1039
3 980 981 1039
3 1039 981 1040
3 981 982 1040
3 1040 982 1041
3 982 983 1042
3 982 1042 1041
3 983 984 1042
3 1042 984 1043
3 984 985 1044
3 984 1044 1043
3 985 986 1045
3 985 1045 1044
3 986 987 1046
3 986 1046 1045
3 987 988 1047
3 987 1047 1046
3 988 989 1048
3 988 1048 1047
3 989 990 1049
3 989 1049 1048
3 990 991 1050
3 990 1050 1049
3 991 992 1050
3 1050 992 1051
3 992 993 1051
3 1051 993 1052
3 993 994 1052
3 1052 994 1053
3 994 995 1053
3 1053 995 1054
3 995 996 1054
3 1054 996 1055
3 996 997 1055
3 1055 997 1056
3 997 998 1057
3 997 1057 1056
3 998 999 1057
3 1057 999 1058
3 999 1000 1059
3 999 1059 1058
3 1000 1001 1060
3 1000 1060 1059
3 1001 1002 1061
3 1001 1061 1060
3 1002 1003 1062
3 1002 1062 1061
3 1003 1004 1063
3 1003 1063 1062
3 1004 1005 1064
3 1004 1064 1063
3 1005 1006 1065
3 1005 1065 1064
3 1006 1007 1065
3 1065 1007 1066
3 1007 1008 1066
3 1066 1008 1067
3 1008 1009 1067
3 1067 1009 1068
3 1009 1010 1068
3 1068 1010 1069
3 1010 1011 1069
3 1069 1011 1070
3 1011 1012 1070
3 1070 1012 1071
3 1012 1013 1072
3 1012 1072 1071
3 1013 1014 1072
3 1072 1014 1073
3 1014 1015 1074
3 1014 1074 1073
3 1015 1016 1075
3 1015 1075 1074
3 1016 1017 1076
3 1016 1076 1075
3 1017 1018 1077
3 1017 1077 1076
3 1018 1019 1078
3 1018 1078 1077
3 1019 1020 1079
3 1019 1079 1078
3 1020 1021 1080
3 1020 1080 1079
3 1021 1022 1080
3 1080 1022 1081
3 1022 1023 1081
3 1081 1023 1082
3 1023 1024 1082
3 1082 1024 1083
3 1024 1025 1083
3 1083 1025 1084
3 1025 1026 1084
3 1084 1026 1085
3 1026 1027 1085
3 1085 1027 1086
3 521 520 907
3 907 908 969
3 908 909 910
3 909 776 836
3 836 835 910
3 835 834 911
3 834 833 912
3 833 832 913
3 832 831 914
3 831 830 915
3 830 829 916
3 829 828 917
3 828 827 918
3 827 826 919
3 826 825 920
3 825 824 921
3 824 823 922
3 823 822 923
3 822 821 924
3 821 820 925
3 820 819 926
3 819 818 927
3 818 817 928
3 817 816 929
3 816 815 930
3 815 814 931
3 814 813 932
3 813 812 933
3 812 811 934
3 811 810 935
3 810 809 936
3 809 808 937
3 808 807 938
3 807 806 939
3 806 805 940
3 805 804 941
3 804 803 942
3 803 802 943
3 802 801 944
3 801 800 945
3 800 799 946
3 799 798 947
3 798 797 948
3 797 796 950
3 796 795 951
3 795 794 952
3 794 793 953
3 793 792 954
3 792 791 955
3 791 790 956
3 790 789 957
3 789 788 958
3 788 787 959
3 787 786 960
3 786 785 961
3 785 784 962
3 784 783 963
3 783 782 964
3 782 781 965
3 781 780 966
3 780 779 967
3 779 778 968
3 778 776 909
3 909 908 968
3 908 907 1027
3 907 520 579
3 579 578 1085
3 578 577 1084
3 577 576 1083
3 576 575 1082
3 575 574 1081
3 574 573 1080
3 573 572 1079
3 572 571 1078
3 571 570 1077
3 570 569 1076
3 569 568 1075
3 568 567 1074
3 567 566 1073
3 566 565 1072
3 565 564 1071
3 564 563 1070
3 563 562 1069
3 562 561 1068
3 561 560 1067
3 560 559 1066
3 559 558 1065
3 558 557 1064
3 557 556 1063
3 556 555 1062
3 555 554 1061
3 554 553 1060
3 553 552 1059
3 552 551 1058
3 551 550 1057
3 550 549 1056
3 549 548 1055
3 548 547 1054
3 547 546 1053
3 546 545 1052
3 545 544 1051
3 544 543 1050
3 543 542 1049
3 542 541 1048
3 541 540 1047
3 540 539 1046
3 539 538 1045
3 538 537 1044
3 537 536 1043
3 536 535 1042
3 535 534 1041
3 534 533 1040
3 533 532 1039
3 532 531 1038
3 531 530 1037
3 530 529 1036
3 529 528 1035
3 528 527 1034
3 527 526 1033
3 526 525 1032
3 525 524 1031
3 524 523 1030
3 523 522 1029
3 522 521 1028
3 911 910 835
3 912 911 834
3 913 912 833
3 914 913 832
3 915 914 831
3 916 915 830
3 917 916 829
3 910 969 908
3 969 1028 907
3 1028 1029 522
3 1029 1030 523
3 1030 1031 524
3 1031 1032 525
3 1032 1033 526
3 1033 1034 527
3 1034 1035 528
3 918 917 828
3 919 918 827
3 920 919 826
3 921 920 825
3 922 921 824
3 923 922 823
3 924 923 822
3 925 924 821
3 1035 1036 529
3 1036 1037 530
3 1037 1038 531
3 1038 1039 532
3 1039 1040 533
3 1040 1041 534
3 1041 1042 535
3 1042 1043 536
3 926 925 820
3 927 926 819
3 928 927 818
3 929 928 817
3 930 929 816
3 931 930 815
3 932 931 814
3 933 932 813
3 1043 1044 537
3 1044 1045 538
3 1045 1046 539
3 1046 1047 540
3 1047 1048 541
3 1048 1049 542
3 1049 1050 543
3 1050 1051 544
3 934 933 812
3 935 934 811
3 936 935 810
3 937 936 809
3 938 937 808
3 939 938 807
3 940 939 806
3 941 940 805
3 1051 1052 545
3 1052 1053 546
3 1053 1054 547
3 1054 1055 548
3 1055 1056 549
3 1056 1057 550
3 1057 1058 551
3 1058 1059 552
3 942 941 804
3 943 942 803
3 944 943 802
3 945 944 801
3 946 945 800
3 947 946 799
3 948 947 798
3 949 948 797
3 1059 1060 553
3 1060 1061 554
3 1061 1062 555
3 1062 1063 556
3 1063 1064 557
3 1064 1065 558
3 1065 1066 559
3 1066 1067 560
3 950 949 797
3 951 950 796
3 952 951 795
3 953 952 794
3 954 953 793
3 955 954 792
3 956 955 791
3 957 956 790
3 1067 1068 561
3 1068 1069 562
3 1069 1070 563
3 1070 1071 564
3 1071 1072 565
3 1072 1073 566
3 1073 1074 567
3 1074 1075 568
3 958 957 789
3 959 958 788
3 960 959 787
3 961 960 786
3 962 961 785
3 963 962 784
3 964 963 783
3 965 964 782
3 1075 1076 569
3 1076 1077 570
3 1077 1078 571
3 1078 1079 572
3 1079 1080 573
3 1080 1081 574
3 1081 1082 575
3 1082 1083 576
3 966 965 781
3 967 966 780
3 968 967 779
3 1027 968 908
3 1086 1027 907
3 1083 1084 577
3 1084 1085 578
3 1085 1086 579
3 521 907 1028
3 910 909 836
3 968 778 909
3 907 579 1086

CELL_TYPES 2170
5 5 5 5 5 5 5 5 5 5 5 5 5 5 5 5 5 5 5 5
5 5 5 5 5 5 5 5 5 5 5 5 5 5 5 5 5 5 5 5
5 5 5 5 5 5 5 5 5 5 5 5 5 5 5 5 5 5 5 5
5 5 5 5 5 5 5 5 5 5 5 5 5 5 5 5 5 5 5 5
5 5 5 5 5 5 5 5 5 5 5 5 5 5 5 5 5 5 5 5
5 5 5 5 5 5 5 5 5 5 5 5 5 5 5 5 5 5 5 5
5 5 5 5 5 5 5 5 5 5 5 5 5 5 5 5 5 5 5 5
5 5 5 5 5 5 5 5 5 5 5 5 5 5 5 5 5 5 5 5
5 5 5 5 5 5 5 5 5 5 5 5 5 5 5 5 5 5 5 5
5 5 5 5 5 5 5 5 5 5 5 5 5 5 5 5 5 5 5 5
5 5 5 5 5 5 5 5 5 5 5 5 5 5 5 5 5 5 5 5
5 5 5 5 5 5 5 5 5 5 5 5 5 5 5 5 5 5 5 5
5 5 5 5 5 5 5 5 5 5 5 5 5 5 5 5 5 5 5 5
5 5 5 5 5 5 5 5 5 5 5 5 5 5 5 5 5 5 5 5
5 5 5 5 5 5 5 5 5 5 5 5 5 5 5 5 5 5 5 5
5 5 5 5 5 5 5 5 5 5 5 5 5 5 5 5 5 5 5 5
5 5 5 5 5 5 5 5 5 5 5 5 5 5 5 5 5 5 5 5
5 5 5 5 5 5 5 5 5 5 5 5 5 5 5 5 5 5 5 5
5 5 5 5 5 5 5 5 5 5 5 5 5 5 5 5 5 5 5 5
5 5 5 5 5 5 5 5 5 5 5 5 5 5 5 5 5 5 5 5
5 5 5 5 5 5 5 5 5 5 5 5 5 5 5 5 5 5 5 5
5 5 5 5 5 5 5 5 5 5 5 5 5 5 5 5 5 5 5 5
5 5 5 5 5 5 5 5 5 5 5 5 5 5 5 5 5 5 5 5
5 5 5 5 5 5 5 5 5 5 5 5 5 5 5 5 5 5 5 5
5 5 5 5 5 5 5 5 5 5 5 5 5 5 5 5 5 5 5 5
5 5 5 5 5 5 5 5 5 5 5 5 5 5 5 5 5 5 5 5
5 5 5 5 5 5 5 5 5 5 5 5 5 5 5 5 5 5 5 5
5 5 5 5 5 5 5 5 5 5 5 5 5 5 5 5 5 5 5 5
5 5 5 5 5 5 5 5 5 5 5 5 5 5 5 5 5 5 5 5
5 5 5 5 5 5 5 5 5 5 5 5 5 5 5 5 5 5 5 5
5 5 5 5 5 5 5 5 5 5 5 5 5 5 5 5 5 5 5 5
5 5 5 5 5 5 5 5 5 5 5 5 5 5 5 5 5 5 5 5
5 5 5 5 5 5 5 5 5 5 5 5 5 5 5 5 5 5 5 5
5 5 5 5 5 5 5 5 5 5 5 5 5 5 5 5 5 5 5 5
5 5 5 5 5 5 5 5 5 5 5 5 5 5 5 5 5 5 5 5
5 5 5 5 5 5 5 5 5 5 5 5 5 5 5 5 5 5 5 5
5 5 5 5 5 5 5 5 5 5 5 5 5 5 5 5 5 5 5 5
5 5 5 5 5 5 5 5 5 5 5 5 5 5 5 5 5 5 5 5
5 5 5 5 5 5 5 5 5 5 5 5 5 5 5 5 5 5 5 5
5 5 5 5 5 5 5 5 5 5 5 5 5 5 5 5 5 5 5 5
5 5 5 5 5 5 5 5 5 5 5 5 5 5 5 5 5 5 5 5
5 5 5 5 5 5 5 5 5 5 5 5 5 5 5 5 5 5 5 5
5 5 5 5 5 5 5 5 5 5 5 5 5 5 5 5 5 5 5 5
5 5 5 5 5 5 5 5 5 5 5 5 5 5 5 5 5 5 5 5
5 5 5 5 5 5 5 5 5 5 5 5 5 5 5 5 5 5 5 5
5 5 5 5 5 5 5 5 5 5 5 5 5 5 5 5 5 5 5 5
5 5 5 5 5 5 5 5 5 5 5 5 5 5 5 5 5 5 5 5
5 5 5 5 5 5 5 5 5 5 5 5 5 5 5 5 5 5 5 5
5 5 5 5 5 5 5 5 5 5 5 5 5 5 5 5 5 5 5 5
5 5 5 5 5 5 5 5 5 5 5 5 5 5 5 5 5 5 5 5
5 5 5 5 5 5 5 5 5 5 5 5 5 5 5 5 5 5 5 5
5 5 5 5 5 5 5 5 5 5 5 5 5 5 5 5 5 5 5 5
5 5 5 5 5 5 5 5 5 5 5 5 5 5 5 5 5 5 5 5
5 5 5 5 5 5 5 5 5 5 5 5 5 5 5 5 5 5 5 5
5 5 5 5 5 5 5 5 5 5 5 5 5 5 5 5 5 5 5 5
5 5 5 5 5 5 5 5 5 5 5 5 5 5 5 5 5 5 5 5
5 5 5 5 5 5 5 5 5 5 5 5 5 5 5 5 5 5 5 5
5 5 5 5 5 5 5 5 5 5 5 5 5 5 5 5 5 5 5 5
5 5 5 5 5 5 5 5 5 5 5 5 5 5 5 5 5 5 5 5
5 5 5 5 5 5 5 5 5 5 5 5 5 5 5 5 5 5 5 5
5 5 5 5 5 5 5 5 5 5 5 5 5 5 5 5 5 5 5 5
5 5 5 5 5 5 5 5 5 5 5 5 5 5 5 5 5 5 5 5
5 5 5 5 5 5 5 5 5 5 5 5 5 5 5 5 5 5 5 5
5 5 5 5 5 5 5 5 5 5 5 5 5 5 5 5 5 5 5 5
5 5 5 5 5 5 5 5 5 5 5 5 5 5 5 5 5 5 5 5
5 5 5 5 5 5 5 5 5 5 5 5 5 5 5 5 5 5 5 5
5 5 5 5 5 5 5 5 5 5 5 5 5 5 5 5 5 5 5 5
5 5 5 5 5 5 5 5 5 5 5 5 5 5 5 5 5 5 5 5
5 5 5 5 5 5 5 5 5 5 5 5 5 5 5 5 5 5 5 5
5 5 5 5 5 5 5 5 5 5 5 5 5 5 5 5 5 5 5 5
5 5 5 5 5 5 5 5 5 5 5 5 5 5 5 5 5 5 5 5
5 5 5 5 5 5 5 5 5 5 5 5 5 5 5 5 5 5 5 5
5 5 5 5 5 5 5 5 5 5 5 5 5 5 5 5 5 5 5 5
5 5 5 5 5 5 5 5 5 5 5 5 5 5 5 5 5 5 5 5
5 5 5 5 5 5 5 5 5 5 5 5 5 5 5 5 5 5 5 5
5 5 5 5 5 5 5 5 5 5 5 5 5 5 5 5 5 5 5 5
5 5 5 5 5 5 5 5 5 5 5 5 5 5 5 5 5 5 5 5
5 5 5 5 5 5 5 5 5 5 5 5 5 5 5 5 5 5 5 5
5 5 5 5 5 5 5 5 5 5 5 5 5 5 5 5 5 5 5 5
5 5 5 5 5 5 5 5 5 5 5 5 5 5 5 5 5 5 5 5
5 5 5 5 5 5 5 5 5 5 5 5 5 5 5 5 5 5 5 5
5 5 5 5 5 5 5 5 5 5 5 5 5 5 5 5 5 5 5 5
5 5 5 5 5 5 5 5 5 5 5 5 5 5 5 5 5 5 5 5
5 5 5 5 5 5 5 5 5 5 5 5 5 5 5 5 5 5 5 5
5 5 5 5 5 5 5 5 5 5 5 5 5 5 5 5 5 5 5 5
5 5 5 5 5 5 5 5 5 5 5 5 5 5 5 5 5 5 5 5
5 5 5 5 5 5 5 5 5 5 5 5 5 5 5 5 5 5 5 5
5 5 5 5 5 5 5 5 5 5 5 5 5 5 5 5 5 5 5 5
5 5 5 5 5 5 5 5 5 5 5 5 5 5 5 5 5 5 5 5
5 5 5 5 5 5 5 5 5 5 5 5 5 5 5 5 5 5 5 5
5 5 5 5 5 5 5 5 5 5 5 5 5 5 5 5 5 5 5 5
5 5 5 5 5 5 5 5 5 5 5 5 5 5 5 5 5 5 5 5
5 5 5 5 5 5 5 5 5 5 5 5 5 5 5 5 5 5 5 5
5 5 5 5 5 5 5 5 5 5 5 5 5 5 5 5 5 5 5 5
5 5 5 5 5 5 5 5 5 5 5 5 5 5 5 5 5 5 5 5
5 5 5 5 5 5 5 5 5 5 5 5 5 5 5 5 5 5 5 5
5 5 5 5 5 5 5 5 5 5 5 5 5 5 5 5 5 5 5 5
5 5 5 5 5 5 5 5 5 5 5 5 5 5 5 5 5 5 5 5
5 5 5 5 5 5 5 5 5 5 5 5 5 5 5 5 5 5 5 5
5 5 5 5 5 5 5 5 5 5 5 5 5 5 5 5 5 5 5 5
5 5 5 5 5 5 5 5 5 5 5 5 5 5 5 5 5 5 5 5
5 5 5 5 5 5 5 5 5 5 5 5 5 5 5 5 5 5 5 5
5 5 5 5 5 5 5 5 5 5 5 5 5 5 5 5 5 5 5 5
5 5 5 5 5 5 5 5 5 5 5 5 5 5 5 5 5 5 5 5
5 5 5 5 5 5 5 5 5 5 5 5 5 5 5 5 5 5 5 5
5 5 5 5 5 5 5 5 5 5 5 5 5 5 5 5 5 5 5 5
5 5 5 5 5 5 5 5 5 5 5 5 5 5 5 5 5 5 5 5
5 5 5 5 5 5 5 5 5 5 5 5 5 5 5 5 5 5 5 5
5 5 5 5 5 5 5 5 5 5

CELL_DATA 2170
FIELD FieldData 1
PATCH_IDS 1 2170 int
1 1 1 1 1 1 1 1 1 1 1 1 1 1 1 1 1 1 1 1
1 1 1 1 1 1 1 1 1 1 1 1 1 1 1 1 1 1 1 1
1 1 1 1 1 1 1 1 1 1 1 1 1 1 1 1 1 1 1 1
1 1 1 1 1 1 1 1 1 1 1 1 1 1 1 1 1 1 1 1
1 1 1 1 1 1 1 1 1 1 1 1 1 1 1 1 1 1 1 1
1 1 1 1 1 1 1 1 1 1 1 1 1 1 1 1 1 1 1 1
1 1 1 1 1 1 1 1 1 1 1 1 1 1 1 1 1 1 1 1
1 1 1 1 1 1 1 1 1 1 1 1 1 1 1 1 1 1 1 1
1 1 1 1 1 1 1 1 1 1 1 1 1 1 1 1 1 1 1 1
1 1 1 1 1 1 1 1 1 1 1 1 1 1 1 1 1 1 1 1
1 1 1 1 1 1 1 1 1 1 1 1 1 1 1 1 1 1 1 1
1 1 1 1 1 1 1 1 1 1 1 1 1 1 1 1 1 1 1 1
1 1 1 1 1 1 1 1 1 1 1 1 1 1 1 1 1 1 1 1
1 1 1 1 1 1 1 1 1 1 1 1 1 1 1 1 1 1 1 1
1 1 1 1 1 1 1 1 1 1 1 1 1 1 1 1 1 1 1 1
1 1 1 1 1 1 1 1 1 1 1 1 1 1 1 1 1 1 1 1
1 1 1 1 1 1 1 1 1 1 1 1 1 1 1 1 1 1 1 1
1 1 1 1 1 1 1 1 1 1 1 1 1 1 1 1 1 1 1 1
1 1 1 1 1 1 1 1 1 1 1 1 1 1 1 1 1 1 1 1
1 1 1 1 1 1 1 1 1 1 1 1 1 1 1 1 1 1 1 1
1 1 1 1 1 1 1 1 1 1 1 1 1 1 1 1 1 1 1 1
1 1 1 1 1 1 1 1 1 1 1 1 1 1 1 1 1 1 1 1
1 1 1 1 1 1 1 1 1 1 1 1 1 1 1 1 1 1 1 1
1 1 1 1 1 1 1 1 1 1 1 1 1 1 1 1 1 1 1 1
1 1 1 1 1 1 1 1 1 1 1 1 1 1 1 1 1 1 1 1
1 1 1 1 1 1 1 1 1 1 1 1 1 1 1 1 1 1 1 1
1 1 1 1 1 1 1 1 1 1 1 1 1 1 1 1 1 1 1 1
1 1 1 1 1 1 1 1 1 1 1 1 1 1 1 1 1 1 1 1
1 1 1 1 1 1 1 1 1 1 1 1 1 1 1 1 1 1 1 1
1 1 1 1 1 1 1 1 1 1 1 1 1 1 1 1 1 1 1 1
1 1 1 1 1 1 1 1 1 1 1 1 1 1 1 1 1 1 1 1
1 1 1 1 1 1 1 1 1 1 1 1 1 1 1 1 1 1 1 1
1 1 1 1 1 1 1 1 1 1 1 1 1 1 1 1 1 1 1 1
1 1 1 1 1 1 1 1 1 1 1 1 1 1 1 1 1 1 1 1
1 1 1 1 1 1 1 1 1 1 1 1 1 1 1 1 1 1 1 1
1 1 1 1 1 1 1 1 1 1 1 1 1 1 1 1 1 1 1 1
1 1 1 1 1 1 1 1 1 1 1 1 1 1 1 1 1 1 1 1
1 1 1 1 1 1 1 1 1 1 1 1 1 1 1 1 1 1 1 1
1 1 1 1 1 1 1 1 1 1 1 1 2 2 2 2 2 2 2 2
2 2 2 2 2 2 2 2 2 2 2 2 2 2 2 2 2 2 2 2
2 2 2 2 2 2 2 2 2 2 2 2 2 2 2 2 2 2 2 2
2 2 2 2 2 2 2 2 2 2 2 2 2 2 2 2 2 2 2 2
2 2 2 2 2 2 2 2 2 2 2 2 2 2 2 2 2 2 2 2
2 2 2 2 2 2 2 2 2 2 2 2 2 2 2 2 2 2 2 2
2 2 2 2 2 2 2 2 2 2 2 2 2 2 2 2 2 2 2 2
2 2 2 2 2 2 2 2 2 2 2 2 2 2 2 2 2 2 2 2
2 2 2 2 2 2 2 2 2 2 2 2 2 2 2 2 2 2 2 2
2 2 2 2 2 2 2 2 2 2 2 2 2 2 2 2 2 2 2 2
2 2 2 2 2 2 2 2 3 3 3 3 3 3 3 3 3 3 3 3
3 3 3 3 3 3 3 3 3 3 3 3 3 3 3 3 3 3 3 3
3 3 3 3 3 3 3 3 3 3 3 3 3 3 3 3 3 3 3 3
3 3 3 3 3 3 4 4 4 4 4 4 4 4 4 4 4 4 4 4
4 4 4 4 4 4 4 4 4 4 4 4 4 4 4 4 4 4 4 4
4 4 4 4 4 4 4 4 4 4 4 4 4 4 4 4 4 4 4 4
4 4 4 4 4 4 4 4 4 4 4 4 4 4 4 4 4 4 4 4
4 4 4 4 4 4 4 4 4 4 4 4 4 4 4 4 4 4 4 4
4 4 4 4 4 4 4 4 4 4 4 4 4 4 4 4 4 4 4 4
4 4 4 4 4 4 4 4 4 4 4 4 4 4 4 4 4 4 4 4
4 4 4 4 4 4 4 4 4 4 4 4 4 4 4 4 4 4 4 4
4 4 4 4 4 4 4 4 4 4 4 4 4 4 4 4 4 4 4 4
4 4 4 4 4 4 4 4 4 4 4 4 4 4 4 4 4 4 4 4
4 4 4 4 4 4 4 4 4 4 4 4 4 4 4 4 4 4 4 4
4 4 4 4 4 4 4 4 4 4 4 4 4 4 4 4 4 4 4 4
4 4 4 4 4 4 4 4 4 4 4 4 4 4 4 4 4 4 4 4
4 4 4 4 4 4 4 4 4 4 4 4 4 4 4 4 4 4 4 4
4 4 4 4 4 4 4 4 4 4 4 4 4 4 4 4 4 4 4 4
4 4 4 4 4 4 4 4 4 4 4 4 4 4 4 4 4 4 4 4
4 4 4 4 4 4 4 4 4 4 4 4 4 4 4 4 4 4 4 4
4 4 4 4 4 4 4 4 4 4 4 4 4 4 4 4 4 4 4 4
4 4 4 4 4 4 4 4 4 4 4 4 4 4 4 4 4 4 4 4
4 4 4 4 4 4 4 4 4 4 4 4 4 4 4 4 4 4 5 5
5 5 5 5 5 5 5 5 5 5 5 5 5 5 5 5 5 5 5 5
5 5 5 5 5 5 5 5 5 5 5 5 5 5 5 5 5 5 5 5
5 5 5 5 5 5 5 5 5 5 5 5 5 5 5 5 5 5 5 5
5 5 5 5 5 5 5 5 5 5 5 5 5 5 5 5 5 5 5 5
5 5 5 5 5 5 5 5 5 5 5 5 5 5 5 5 5 5 5 5
5 5 5 5 5 5 5 5 5 6 6 6 6 6 6 6 6 6 6 6
6 6 6 6 6 6 6 6 6 6 6 6 6 6 6 6 6 6 6 6
6 6 6 6 6 6 6 6 6 6 6 6 6 6 6 6 6 6 6 6
6 6 6 6 6 6 6 6 6 6 6 6 6 6 6 6 6 6 6 6
6 6 6 6 6 6 6 6 6 6 6 6 6 6 6 6 6 6 6 6
6 6 6 6 6 6 6 6 6 6 6 6 6 6 6 6 6 6 6 6
6 6 6 6 6 6 6 6 6 6 6 6 6 6 6 6 6 6 6 6
6 6 6 6 6 6 6 6 6 6 6 6 6 6 6 6 6 6 6 6
6 6 6 6 6 6 6 6 6 6 7 7 7 7 7 7 7 7 7 7
7 7 7 7 7 7 7 7 7 7 7 7 7 7 7 7 7 7 7 7
7 7 7 7 7 7 7 7 7 7 7 7 7 7 7 7 7 7 7 7
7 7 7 7 7 7 7 7 7 7 7 7 7 7 7 7 7 7 7 7
7 7 7 7 7 7 7 7 7 7 7 7 7 7 7 7 7 7 7 7
7 7 7 7 7 7 7 7 7 7 7 7 7 7 7 7 7 7 7 7
7 7 7 7 7 7 7 7 7 7 7 7 7 7 7 7 7 7 7 7
7 7 7 7 7 7 7 7 7 7 7 7 7 7 7 7 7 7 7 7
7 7 7 7 7 7 7 7 7 7 7 7 7 7 7 7 7 7 7 7
7 7 7 7 7 7 7 7 7 7 7 7 7 7 7 7 7 7 7 7
7 7 7 7 7 7 7 7 7 7 7 7 7 7 7 7 7 7 7 7
7 7 7 7 7 7 7 7 7 7 7 7 7 7 7 7 7 7 7 7
7 7 7 7 7 7 7 7 7 7 7 7 7 7 7 7 7 7 7 7
7 7 7 7 7 7 7 7 7 7 7 7 7 7 7 7 7 7 7 7
7 7 7 7 7 7 7 7 7 7 7 7 7 7 7 7 7 7 7 7
7 7 7 7 7 7 7 7 7 7 7 7 7 7 7 7 7 7 7 7
7 7 7 7 7 7 7 7 7 7 7 7 7 7 7 7 7 7 7 7
7 7 7 7 7 7 7 7 7 7 7 7 7 7 7 7 7 7 7 7
7 7 7 7 7 7 7 7 7 7 7 7 7 7 7 7 7 7 7 7
7 7 7 7 7 7 7 7 7 7 7 7 7 7 7 7 7 7 7 7
7 7 7 7 7 7 7 7 7 7 7 7 7 7 7 7 7 7 7 7
7 7 7 7 7 7 7 7 7 7 7 7 7 7 7 7 7 7 7 7
7 7 7 7 7 7 7 7 7 7 7 7 7 7 7 7 7 7 7 7
7 7 7 7 7 7 7 7 7 7 7 7 7 7 7 7 7 7 7 7
7 7 7 7 7 7 7 7 7 7 

