# vtk DataFile Version 3.0
Generated by FvKompasPlugin. Date/time (GMT): Sat Jun 20 12:41:22 2026
ASCII
DATASET UNSTRUCTURED_GRID
POINTS 66 double
20.69772265625 0.03497089385986328 1.85
20.699482421875 -0.4862313537597656 1.77506201171875
20.7011015625 -0.9652089233398438 1.556319091796875
20.702447265625 -1.363157836914062 1.211492309570313
20.703408203125 -1.647838745117188 0.7685177612304688
20.70391015625 -1.796188354492188 0.2632824401855469
20.70391015625 -1.796188354492188 -0.2632824401855469
20.703408203125 -1.647838745117188 -0.7685177612304688
20.702447265625 -1.363157836914062 -1.211492309570313
20.7011015625 -0.9652089233398438 -1.556319091796875
20.699482421875 -0.4862313537597656 -1.77506201171875
20.69772265625 0.03497089385986328 -1.85
20.6959609375 0.5561731567382813 -1.77506201171875
20.694341796875 1.035150634765625 -1.556319091796875
20.692998046875 1.433099609375 -1.211492309570313
20.69203515625 1.717780517578125 -0.7685177612304688
20.69153515625 1.866130126953125 -0.2632824401855469
20.69153515625 1.866130126953125 0.2632824401855469
20.69203515625 1.717780517578125 0.7685177612304688
20.692998046875 1.433099609375 1.211492309570313
20.694341796875 1.035150634765625 1.556319091796875
20.6959609375 0.5561731567382813 1.77506201171875
-35 0.1 1.85
-35.0029765625 -0.4211967163085937 1.77506201171875
-35.00571484375 -0.9001691894531251 1.556319091796875
-35.00798828125 -1.298113891601562 1.211492309570313
-35.0096171875 -1.582791748046875 0.7685177612304688
-35.01046484375 -1.731139770507812 0.2632824401855469
-35.01046484375 -1.731139770507812 -0.2632824401855469
-35.0096171875 -1.582791748046875 -0.7685177612304688
-35.00798828125 -1.298113891601562 -1.211492309570313
-35.00571484375 -0.9001691894531251 -1.556319091796875
-35.0029765625 -0.4211967163085937 -1.77506201171875
-35 0.1 -1.85
-34.9970234375 0.6211967163085937 -1.77506201171875
-34.99428515625 1.100169189453125 -1.556319091796875
-34.99201171875 1.498113891601563 -1.211492309570313
-34.9903828125 1.782791748046875 -0.7685177612304688
-34.98953515625 1.931139770507813 -0.2632824401855469
-34.98953515625 1.931139770507813 0.2632824401855469
-34.9903828125 1.782791748046875 0.7685177612304688
-34.99201171875 1.498113891601563 1.211492309570313
-34.99428515625 1.100169189453125 1.556319091796875
-34.9970234375 0.6211967163085937 1.77506201171875
-7.151212890625001 0.004174648761749267 1.85
-7.1506044921875 0.5253795166015625 1.77506201171875
-7.150044921875 1.004359497070312 1.556319091796875
-7.14958056640625 1.402310424804688 1.211492309570313
-7.149248046875 1.68699267578125 0.7685177612304688
-7.14907470703125 1.835343017578125 0.2632824401855469
-7.14907470703125 1.835343017578125 -0.2632824401855469
-7.149248046875 1.68699267578125 -0.7685177612304688
-7.14958056640625 1.402310424804688 -1.211492309570313
-7.150044921875 1.004359497070312 -1.556319091796875
-7.1506044921875 0.5253795166015625 -1.77506201171875
-7.151212890625001 0.004174648761749267 -1.85
-7.1518212890625 -0.5170302124023438 -1.77506201171875
-7.15238037109375 -0.9960101928710938 -1.556319091796875
-7.15284521484375 -1.393961059570312 -1.211492309570313
-7.153177734375 -1.678643432617188 -0.7685177612304688
-7.1533505859375 -1.826993774414063 -0.2632824401855469
-7.1533505859375 -1.826993774414063 0.2632824401855469
-7.153177734375 -1.678643432617188 0.7685177612304688
-7.15284521484375 -1.393961059570312 1.211492309570313
-7.15238037109375 -0.9960101928710938 1.556319091796875
-7.1518212890625 -0.5170302124023438 1.77506201171875

CELLS 128 512
3 21 0 20
3 0 1 20
3 20 1 19
3 1 2 19
3 19 2 18
3 2 3 18
3 18 3 17
3 3 4 17
3 17 4 16
3 4 5 16
3 16 5 15
3 5 6 15
3 15 6 14
3 6 7 14
3 14 7 13
3 7 8 13
3 13 8 12
3 8 9 12
3 12 9 11
3 9 10 11
3 44 22 23
3 23 24 64
3 24 25 63
3 25 26 63
3 26 27 61
3 27 28 60
3 28 29 59
3 29 30 58
3 30 31 57
3 31 32 56
3 32 33 56
3 33 34 55
3 34 35 54
3 35 36 53
3 36 37 52
3 37 38 51
3 38 39 50
3 39 40 49
3 40 41 48
3 41 42 47
3 42 43 46
3 43 22 44
3 44 0 21
3 21 20 46
3 20 19 47
3 19 18 48
3 18 17 49
3 17 16 50
3 16 15 51
3 15 14 52
3 14 13 53
3 13 12 54
3 12 11 55
3 11 10 56
3 10 9 56
3 9 8 57
3 8 7 58
3 7 6 59
3 6 5 60
3 5 4 61
3 4 3 63
3 3 2 63
3 2 1 64
3 1 0 44
3 45 46 43
3 46 45 21
3 46 47 42
3 47 46 20
3 47 48 41
3 48 47 19
3 48 49 40
3 49 48 18
3 49 50 39
3 50 49 17
3 50 51 38
3 51 50 16
3 51 52 37
3 52 51 15
3 52 53 36
3 53 52 14
3 53 54 35
3 54 53 13
3 54 55 34
3 55 54 12
3 55 56 33
3 56 55 11
3 56 57 31
3 57 56 9
3 57 58 30
3 58 57 8
3 58 59 29
3 59 58 7
3 59 60 28
3 60 59 6
3 60 61 27
3 61 60 5
3 61 62 26
3 62 61 4
3 62 63 26
3 63 62 4
3 63 64 24
3 64 63 2
3 64 65 23
3 65 64 1
3 44 23 65
3 43 44 45
3 44 21 45
3 1 44 65
3 23 22 24
3 22 43 24
3 24 43 25
3 43 42 25
3 25 42 26
3 42 41 26
3 26 41 27
3 41 40 27
3 27 40 28
3 40 39 28
3 28 39 29
3 39 38 29
3 29 38 30
3 38 37 30
3 30 37 31
3 37 36 31
3 31 36 32
3 36 35 32
3 32 35 33
3 35 34 33

CELL_TYPES 128
5 5 5 5 5 5 5 5 5 5 5 5 5 5 5 5 5 5 5 5
5 5 5 5 5 5 5 5 5 5 5 5 5 5 5 5 5 5 5 5
5 5 5 5 5 5 5 5 5 5 5 5 5 5 5 5 5 5 5 5
5 5 5 5 5 5 5 5 5 5 5 5 5 5 5 5 5 5 5 5
5 5 5 5 5 5 5 5 5 5 5 5 5 5 5 5 5 5 5 5
5 5 5 5 5 5 5 5 5 5 5 5 5 5 5 5 5 5 5 5
5 5 5 5 5 5 5 5

CELL_DATA 128
FIELD FieldData 1
PATCH_IDS 1 128 int
1 1 1 1 1 1 1 1 1 1 1 1 1 1 1 1 1 1 1 1
2 2 2 2 2 2 2 2 2 2 2 2 2 2 2 2 2 2 2 2
2 2 2 2 2 2 2 2 2 2 2 2 2 2 2 2 2 2 2 2
2 2 2 2 2 2 2 2 2 2 2 2 2 2 2 2 2 2 2 2
2 2 2 2 2 2 2 2 2 2 2 2 2 2 2 2 2 2 2 2
2 2 2 2 2 2 2 2 3 3 3 3 3 3 3 3 3 3 3 3
3 3 3 3 3 3 3 3 

