# vtk DataFile Version 3.0
Generated by FvKompasPlugin. Date/time (GMT): Sat Jun 20 12:35:38 2026
ASCII
DATASET UNSTRUCTURED_GRID
POINTS 8 double
-105.0613497687731 -39.45487461575757 -39.00023211747747
-105.0613497687731 -39.45487461575757 38.99976788252266
-105.0613497687731 39.63225072069283 -39.00023211747747
-105.0613497687731 39.63225072069283 38.99976788252266
105.0751289827223 -39.45487461575757 -39.00023211747747
105.0751289827223 -39.45487461575757 38.99976788252266
105.0751289827223 39.63225072069283 -39.00023211747747
105.0751289827223 39.63225072069283 38.99976788252266

CELLS 12 48
3 0 1 3
3 0 2 3
3 0 1 5
3 0 4 5
3 0 2 6
3 0 4 6
3 7 6 4
3 7 5 4
3 7 6 2
3 7 3 2
3 7 3 1
3 7 5 1

CELL_TYPES 12
5 5 5 5 5 5 5 5 5 5 5 5

CELL_DATA 12
FIELD FieldData 1
PATCH_IDS 1 12 int
1 1 2 2 3 3 4 4 5 5 6 6 

