# vtk DataFile Version 3.0
Generated by FvKompasPlugin. Date/time (GMT): Sat Jun 20 12:35:38 2026
ASCII
DATASET UNSTRUCTURED_GRID
POINTS 66 double
20.721177734375 0.05257494735717774 1.85
20.723822265625 -0.4686235656738281 1.77506201171875
20.726251953125 -0.9475977172851563 1.556319091796875
20.728271484375 -1.345543823242187 1.211492309570313
20.729716796875 -1.630222534179687 0.7685177612304688
20.73046875 -1.778571166992188 0.2632824401855469
20.73046875 -1.778571166992188 -0.2632824401855469
20.729716796875 -1.630222534179687 -0.7685177612304688
20.728271484375 -1.345543823242187 -1.211492309570313
20.726251953125 -0.9475977172851563 -1.556319091796875
20.723822265625 -0.4686235656738281 -1.77506201171875
20.721177734375 0.05257494735717774 -1.85
20.718533203125 0.5737734375 -1.77506201171875
20.7161015625 1.05274755859375 -1.556319091796875
20.71408203125 1.450693603515625 -1.211492309570313
20.712638671875 1.735372436523438 -0.7685177612304688
20.711884765625 1.883721069335938 -0.2632824401855469
20.711884765625 1.883721069335938 0.2632824401855469
20.712638671875 1.735372436523438 0.7685177612304688
20.71408203125 1.450693603515625 1.211492309570313
20.7161015625 1.05274755859375 1.556319091796875
20.718533203125 0.5737734375 1.77506201171875
-35 0.15 1.85
-35.00446875 -0.3711860961914062 1.77506201171875
-35.00857421875 -0.8501487426757812 1.556319091796875
-35.011984375 -1.248085327148438 1.211492309570313
-35.01442578125 -1.53275732421875 0.7685177612304688
-35.0156953125 -1.681102416992188 0.2632824401855469
-35.0156953125 -1.681102416992188 -0.2632824401855469
-35.01442578125 -1.53275732421875 -0.7685177612304688
-35.011984375 -1.248085327148438 -1.211492309570313
-35.00857421875 -0.8501487426757812 -1.556319091796875
-35.00446875 -0.3711860961914062 -1.77506201171875
-35 0.15 -1.85
-34.99553125 0.6711860961914062 -1.77506201171875
-34.99142578125 1.150148803710938 -1.556319091796875
-34.988015625 1.548085327148438 -1.211492309570313
-34.98557421875 1.83275732421875 -0.7685177612304688
-34.9843046875 1.981102416992188 -0.2632824401855469
-34.9843046875 1.981102416992188 0.2632824401855469
-34.98557421875 1.83275732421875 0.7685177612304688
-34.988015625 1.548085327148438 1.211492309570313
-34.99142578125 1.150148803710938 1.556319091796875
-34.99553125 0.6711860961914062 1.77506201171875
-7.13957763671875 0.006241551399230957 1.85
-7.13866650390625 0.5274459838867187 1.77506201171875
-7.137828613281251 1.006425537109375 1.556319091796875
-7.1371328125 1.404376098632812 1.211492309570313
-7.13663525390625 1.689058227539062 0.7685177612304688
-7.1363759765625 1.837408447265625 0.2632824401855469
-7.1363759765625 1.837408447265625 -0.2632824401855469
-7.13663525390625 1.689058227539062 -0.7685177612304688
-7.1371328125 1.404376098632812 -1.211492309570313
-7.137828613281251 1.006425537109375 -1.556319091796875
-7.13866650390625 0.5274459838867187 -1.77506201171875
-7.13957763671875 0.006241551399230957 -1.85
-7.14048876953125 -0.514962890625 -1.77506201171875
-7.141326171875 -0.9939424438476563 -1.556319091796875
-7.14202197265625 -1.39189306640625 -1.211492309570313
-7.14252001953125 -1.676575073242188 -0.7685177612304688
-7.142779296875 -1.82492529296875 -0.2632824401855469
-7.142779296875 -1.82492529296875 0.2632824401855469
-7.14252001953125 -1.676575073242188 0.7685177612304688
-7.14202197265625 -1.39189306640625 1.211492309570313
-7.141326171875 -0.9939424438476563 1.556319091796875
-7.14048876953125 -0.514962890625 1.77506201171875

CELLS 128 512
3 21 0 20
3 0 1 20
3 20 1 19
3 1 2 19
3 19 2 18
3 2 3 18
3 18 3 17
3 3 4 17
3 17 4 16
3 4 5 16
3 16 5 15
3 5 6 15
3 15 6 14
3 6 7 14
3 14 7 13
3 7 8 13
3 13 8 12
3 8 9 12
3 12 9 11
3 9 10 11
3 44 22 23
3 23 24 64
3 24 25 63
3 25 26 63
3 26 27 61
3 27 28 60
3 28 29 59
3 29 30 58
3 30 31 57
3 31 32 56
3 32 33 56
3 33 34 55
3 34 35 54
3 35 36 53
3 36 37 52
3 37 38 51
3 38 39 50
3 39 40 49
3 40 41 48
3 41 42 47
3 42 43 46
3 43 22 44
3 44 0 21
3 21 20 46
3 20 19 47
3 19 18 48
3 18 17 49
3 17 16 50
3 16 15 51
3 15 14 52
3 14 13 53
3 13 12 54
3 12 11 55
3 11 10 56
3 10 9 56
3 9 8 57
3 8 7 58
3 7 6 59
3 6 5 60
3 5 4 61
3 4 3 63
3 3 2 63
3 2 1 64
3 1 0 44
3 45 46 43
3 46 45 21
3 46 47 42
3 47 46 20
3 47 48 41
3 48 47 19
3 48 49 40
3 49 48 18
3 49 50 39
3 50 49 17
3 50 51 38
3 51 50 16
3 51 52 37
3 52 51 15
3 52 53 36
3 53 52 14
3 53 54 35
3 54 53 13
3 54 55 34
3 55 54 12
3 55 56 33
3 56 55 11
3 56 57 31
3 57 56 9
3 57 58 30
3 58 57 8
3 58 59 29
3 59 58 7
3 59 60 28
3 60 59 6
3 60 61 27
3 61 60 5
3 61 62 26
3 62 61 4
3 62 63 26
3 63 62 4
3 63 64 24
3 64 63 2
3 64 65 23
3 65 64 1
3 44 23 65
3 43 44 45
3 44 21 45
3 1 44 65
3 23 22 24
3 22 43 24
3 24 43 25
3 43 42 25
3 25 42 26
3 42 41 26
3 26 41 27
3 41 40 27
3 27 40 28
3 40 39 28
3 28 39 29
3 39 38 29
3 29 38 30
3 38 37 30
3 30 37 31
3 37 36 31
3 31 36 32
3 36 35 32
3 32 35 33
3 35 34 33

CELL_TYPES 128
5 5 5 5 5 5 5 5 5 5 5 5 5 5 5 5 5 5 5 5
5 5 5 5 5 5 5 5 5 5 5 5 5 5 5 5 5 5 5 5
5 5 5 5 5 5 5 5 5 5 5 5 5 5 5 5 5 5 5 5
5 5 5 5 5 5 5 5 5 5 5 5 5 5 5 5 5 5 5 5
5 5 5 5 5 5 5 5 5 5 5 5 5 5 5 5 5 5 5 5
5 5 5 5 5 5 5 5 5 5 5 5 5 5 5 5 5 5 5 5
5 5 5 5 5 5 5 5

CELL_DATA 128
FIELD FieldData 1
PATCH_IDS 1 128 int
1 1 1 1 1 1 1 1 1 1 1 1 1 1 1 1 1 1 1 1
2 2 2 2 2 2 2 2 2 2 2 2 2 2 2 2 2 2 2 2
2 2 2 2 2 2 2 2 2 2 2 2 2 2 2 2 2 2 2 2
2 2 2 2 2 2 2 2 2 2 2 2 2 2 2 2 2 2 2 2
2 2 2 2 2 2 2 2 2 2 2 2 2 2 2 2 2 2 2 2
2 2 2 2 2 2 2 2 3 3 3 3 3 3 3 3 3 3 3 3
3 3 3 3 3 3 3 3 

