# vtk DataFile Version 3.0
Generated by FvKompasPlugin. Date/time (GMT): Sat Jun 20 04:52:43 2026
ASCII
DATASET UNSTRUCTURED_GRID
POINTS 1087 double
25.85516723633156 5.310550056745063 6.367985270871451
26.54137036133156 5.310528573258811 6.251816083404825
27.21898950195656 5.31049921378705 6.093058517760213
27.88538208008156 5.310462092693705 5.892330982130167
28.53795239258156 5.31041735468322 5.650415947204428
29.17415551758156 5.310365174033032 5.368255795779383
29.79151684570656 5.310305754096912 5.046950137211228
30.38762622070656 5.310239326447128 4.687751168744176
30.96016333008156 5.310166149903732 4.292058426487109
30.96016333008156 5.451555787752119 4.272598257585424
30.96016333008156 5.582452023622861 4.215713209769671
30.96016333008156 5.693146882080326 4.125622241520408
30.96016333008156 5.775430615360465 4.009006985949116
30.96016333008156 5.823200635795485 3.874516253961877
30.96016333008156 5.832913988143328 3.732124608408371
30.96016333008156 5.803850396377888 3.5923925922177
30.96016333008156 5.738165310981229 3.465683484932235
30.96016333008156 5.640730281939409 3.361394708862676
30.96016333008156 5.518771639059134 3.287260920187974
30.96016333008156 5.381334497176691 3.248780232641248
30.96016333008156 5.23861193491999 3.248806626715881
30.96016333008156 5.101189035115836 3.287338144883492
30.96016333008156 4.979257820106096 3.361517036778102
30.96016333008156 4.881861370545952 3.46584184356702
30.96016333008156 4.816223154965591 3.592575236830486
30.96016333008156 4.787211247235844 3.732317993082459
30.96016333008156 4.796977264672091 3.87470603626272
30.96016333008156 4.844797025317323 4.009179090569738
30.96016333008156 4.927123884925459 4.125763904252898
30.96016333008156 5.037852057349616 4.215813924134152
30.96016333008156 5.168769324081925 4.272650554061252
25.85516723633156 4.978065493528142 6.346700810522406
25.85516723633156 4.651032450464534 6.283073788550379
25.85516723633156 4.334820719317102 6.178149354501074
25.85516723633156 4.034622604792033 6.033649936848697
25.85516723633156 3.755367195696893 5.85194840338081
25.85516723633156 3.50164000475427 5.63602803699638
25.85516723633156 3.277607215124837 5.389434698151757
25.85516723633156 3.086947432064759 5.116217145098201
25.85516723633156 2.932791001881327 4.820861615415159
25.85516723633156 2.817669705307311 4.5082179827733
25.85516723633156 2.743473407731704 4.183419686824924
25.85516723633156 2.711420624767183 3.851799990782157
25.85516723633156 2.722037509895816 3.518804056529348
25.85516723633156 2.775149781315106 3.189899651680932
25.85516723633156 2.869885390889528 2.870487412147852
25.85516723633156 3.004688667881954 2.565812025738652
25.85516723633156 3.177346426128592 2.280876404270867
25.85516723633156 3.385023227067093 2.020358989670382
25.85516723633156 3.624309339270581 1.788537512190691
25.85516723633156 3.891275535002654 1.589218606742854
25.85516723633156 4.181538264137133 1.425674934630697
25.85516723633156 4.490331543728275 1.300591947598918
25.85516723633156 4.812584861191745 1.216023561902036
25.85516723633156 5.143006831967822 1.173358207285902
25.85516723633156 5.476171956885914 1.173296594146164
25.85516723633156 5.806609685502456 1.21583973416671
25.85516723633156 6.128894259849381 1.300288923704617
25.85516723633156 6.437733782196681 1.425257690209437
25.85516723633156 6.728056980634149 1.588693992974654
25.85516723633156 6.995096879286164 1.787914143211775
25.85516723633156 7.234468717881972 2.019647101164651
25.85516723633156 7.442241861011127 2.280087685468254
25.85516723633156 7.615004995295272 2.564959427303604
25.85516723633156 7.749920951971881 2.869584933795636
25.85516723633156 7.844774694624221 3.188962112050155
25.85516723633156 7.898008612792654 3.517846850006241
25.85516723633156 7.908748660892566 3.85083883466285
25.85516723633156 7.876818534794948 4.182470363240363
25.85516723633156 7.802742373968524 4.507296079620878
25.85516723633156 7.687736721352723 4.819982270270216
25.85516723633156 7.533689543525206 5.115394796891256
25.85516723633156 7.343130827244768 5.388682849726795
25.85516723633156 7.119189259300213 5.635359033697235
25.85516723633156 6.865541947200221 5.851373230239199
25.85516723633156 6.586353762329153 6.033178038211581
25.85516723633156 6.28620911368262 6.177788478896659
25.85516723633156 5.970036212089179 6.282829861569426
25.85516723633156 5.643026724833047 6.34657783741928
30.38762622070656 5.425515212537256 4.680477225822859
30.38762622070656 5.538970444140292 4.658812689178298
30.38762622070656 5.648815754899735 4.623099320374327
30.38762622070656 5.753318865209567 4.573900305986725
30.38762622070656 5.850831648873628 4.511991524551717
30.38762622070656 5.939816261523955 4.438349334702518
30.38762622070656 6.018869414486758 4.354135067750347
30.38762622070656 6.086744344080305 4.26067686566229
30.38762622070656 6.14237064415185 4.159448650781926
30.38762622070656 6.184871107468681 4.052046807284717
30.38762622070656 6.213575331932724 3.94016516950607
30.38762622070656 6.228030824005984 3.825568130086469
30.38762622070656 6.228009463322397 3.710062982220306
30.38762622070656 6.213511586750136 3.595471297226528
30.38762622070656 6.184765983095012 3.483600283802061
30.38762622070656 6.142225798451981 3.37621416710497
30.38762622070656 6.086562061364092 3.275006533396218
30.38762622070656 6.018652569451436 3.181573442293408
30.38762622070656 5.939568273946524 3.097388420133029
30.38762622070656 5.850556429679662 3.023779147656486
30.38762622070656 5.753020754765003 2.96190643706754
30.38762622070656 5.648499454586665 2.912746078137094
30.38762622070656 5.538640942198757 2.877073339763334
30.38762622070656 5.425177705392073 2.855450767773106
30.38762622070656 5.309899136806531 2.848219461919028
30.38762622070656 5.194623250716404 2.855493404840347
30.38762622070656 5.081168019113369 2.877157941484908
30.38762622070656 4.971322708353927 2.912871310288878
30.38762622070656 4.866819598044095 2.962070324676481
30.38762622070656 4.769306814380032 3.023979106111488
30.38762622070656 4.680322201729707 3.097621295960687
30.38762622070656 4.601269048766904 3.181835562912857
30.38762622070656 4.533394119173356 3.275293765000914
30.38762622070656 4.477767819101811 3.376521979881278
30.38762622070656 4.435267355784981 3.483923823378488
30.38762622070656 4.406563131320937 3.595805461157135
30.38762622070656 4.392107639247676 3.710402500576736
30.38762622070656 4.392128999931265 3.8259076484429
30.38762622070656 4.406626876503525 3.940499333436677
30.38762622070656 4.435372480158649 4.052370346861144
30.38762622070656 4.477912664801679 4.159756463558235
30.38762622070656 4.533576401889569 4.260964097266987
30.38762622070656 4.601485893802225 4.354397188369797
30.38762622070656 4.680570189307137 4.438582210530176
30.38762622070656 4.769582033573998 4.512191483006719
30.38762622070656 4.867117708488658 4.574064193595665
30.38762622070656 4.971639008666997 4.623224552526112
30.38762622070656 5.081497521054904 4.658897290899871
30.38762622070656 5.194960757861587 4.680519862890098
29.79151684570656 5.470600685022445 5.03683553232034
29.79151684570656 5.628363961180582 5.006710286874677
29.79151684570656 5.781107495991355 4.957049714526657
29.79151684570656 5.926422544452471 4.888636853518916
29.79151684570656 6.062017283346379 4.802550618913981
29.79151684570656 6.185753352867688 4.700148644957333
29.79151684570656 6.295679330466494 4.5830459776171
29.79151684570656 6.390061670897501 4.453089250990686
29.79151684570656 6.467411983640614 4.312328056771527
29.79151684570656 6.526510220215504 4.162982255634251
29.79151684570656 6.566424443121157 4.007407091986372
29.79151684570656 6.586525223278227 3.84805612770646
29.79151684570656 6.586495520539746 3.687442391439293
29.79151684570656 6.566335803338397 3.528098872643509
29.79151684570656 6.526364041281981 3.372538482529793
29.79151684570656 6.467210570894608 3.223214550004807
29.79151684570656 6.389808200737125 3.082481974623464
29.79151684570656 6.295377800256217 2.952560165654754
29.79151684570656 6.185408517943369 2.835498164147655
29.79151684570656 6.061634581931489 2.733141962894742
29.79151684570656 5.926008011986735 2.647105885989853
29.79151684570656 5.780667669910263 2.578746776680154
29.79151684570656 5.62790577781629 2.529142702288104
29.79151684570656 5.470131370161155 2.499075810091181
29.79151684570656 5.309832709156748 2.489020493451977
29.79151684570656 5.149537778231215 2.499135098342866
29.79151684570656 4.991774502073079 2.529260343788528
29.79151684570656 4.839030967262306 2.578920916136548
29.79151684570656 4.69371591880119 2.64733377714429
29.79151684570656 4.558121179907282 2.733420011749224
29.79151684570656 4.434385110385972 2.835821985705872
29.79151684570656 4.324459132787168 2.952924653046106
29.79151684570656 4.23007679235616 3.082881379672519
29.79151684570656 4.152726479613047 3.223642573891679
29.79151684570656 4.093628243038157 3.372988375028954
29.79151684570656 4.053714020132503 3.528563538676833
29.79151684570656 4.033613239975434 3.687914502956745
29.79151684570656 4.033642942713915 3.848528239223913
29.79151684570656 4.053802659915264 4.007871758019697
29.79151684570656 4.09377442197168 4.163432148133412
29.79151684570656 4.152927892359053 4.312756080658398
29.79151684570656 4.230330262516536 4.453488656039741
29.79151684570656 4.324760662997444 4.583410465008452
29.79151684570656 4.434729945310291 4.700472466515551
29.79151684570656 4.558503881322173 4.802828667768464
29.79151684570656 4.694130451266926 4.888864744673352
29.79151684570656 4.839470793343398 4.957223853983051
29.79151684570656 4.99223268543737 5.006827928375101
29.79151684570656 5.150007093092505 5.036894820572025
29.17415551758156 5.510929914638116 5.355600052232636
29.17415551758156 5.708326969493012 5.317906686058731
29.17415551758156 5.89944325880265 5.255770267118828
29.17415551758156 6.08126471198204 5.170170478806567
29.17415551758156 6.250924055451236 5.062457338702476
29.17415551758156 6.405745516913372 4.934329705931312
29.17415551758156 6.54328751441154 4.787808051587313
29.17415551758156 6.661380858568097 4.62520326270397
29.17415551758156 6.758163230595895 4.449079587537435
29.17415551758156 6.832108288668433 4.262214621638202
29.17415551758156 6.882049951790344 4.067555388564542
29.17415551758156 6.90720045759105 3.86817176671802
29.17415551758156 6.907163292838045 3.667208147107635
29.17415551758156 6.881939043640787 3.467833841202629
29.17415551758156 6.831925386206314 3.273193093140372
29.17415551758156 6.75791121829334 3.086355489746348
29.17415551758156 6.661063710819719 2.910267623084158
29.17415551758156 6.542910232844235 2.747706523973171
29.17415551758156 6.405314051453534 2.601235751686732
29.17415551758156 6.250445210594203 2.473165390792021
29.17415551758156 6.080746039358639 2.365515009188217
29.17415551758156 5.898892938210008 2.2799824762081
29.17415551758156 5.707753679857022 2.217916748834367
29.17415551758156 5.510342697029564 2.180296395593017
29.17415551758156 5.309773289220627 2.167714834883823
29.17415551758156 5.109208548615544 2.18037057843057
29.17415551758156 4.911811493760649 2.218063944604475
29.17415551758156 4.72069520445101 2.280200363544378
29.17415551758156 4.538873751271622 2.365800151856639
29.17415551758156 4.369214407802425 2.47351329196073
29.17415551758156 4.214392946340289 2.601640924731893
29.17415551758156 4.07685094884212 2.748162579075892
29.17415551758156 3.958757604685564 2.910767367959236
29.17415551758156 3.861975232657767 3.086891043125771
29.17415551758156 3.788030174585228 3.273756009025004
29.17415551758156 3.738088511463317 3.468415242098664
29.17415551758156 3.712938005662612 3.667798863945186
29.17415551758156 3.712975170415616 3.868762483555571
29.17415551758156 3.738199419612874 4.068136789460577
29.17415551758156 3.788213077047346 4.262777537522834
29.17415551758156 3.862227244960322 4.449615140916858
29.17415551758156 3.959074752433942 4.625703007579047
29.17415551758156 4.077228230409426 4.788264106690035
29.17415551758156 4.214824411800127 4.934734878976474
29.17415551758156 4.369693252659457 5.062805239871184
29.17415551758156 4.539392423895023 5.170455621474989
29.17415551758156 4.721245525043652 5.255988154455105
29.17415551758156 4.912384783396639 5.318053881828839
29.17415551758156 5.109795766224097 5.355674235070189
28.53795239258156 5.546345727424779 5.63552881021059
28.53795239258156 5.778547858727761 5.59118935888746
28.53795239258156 6.003361829510509 5.518096878854153
28.53795239258156 6.217242137562558 5.417404125419188
28.53795239258156 6.41681581598363 5.290699002655159
28.53795239258156 6.598935407138244 5.139979895398569
28.53795239258156 6.760728852957928 4.967623555530751
28.53795239258156 6.89964453205688 4.776348167378854
28.53795239258156 7.013491596011949 4.56917031047047
28.53795239258156 7.100474750585636 4.349357284643581
28.53795239258156 7.159222078247248 4.120375682781262
28.53795239258156 7.188807122781326 3.885836676338383
28.53795239258156 7.188763405126273 3.649439082114195
28.53795239258156 7.159091614736147 3.414911034200218
28.53795239258156 7.100259598705247 3.185951176608207
28.53795239258156 7.013195148833285 2.966170337881864
28.53795239258156 6.899271464730121 2.759034603242223
28.53795239258156 6.76028504897184 2.567810608286444
28.53795239258156 6.598427865560345 2.395514122016597
28.53795239258156 6.416252541069423 2.24486238481727
28.53795239258156 6.216632012449553 2.118231086132118
28.53795239258156 6.00271447625447 2.017617446525059
28.53795239258156 5.777873486464625 1.94460812241609
28.53795239258156 5.545654971412353 1.900354557676041
28.53795239258156 5.309721108570439 1.885554683458778
28.53795239258156 5.073792735828881 1.900441820452616
28.53795239258156 4.841590604525899 1.944781271775746
28.53795239258156 4.616776633743151 2.017873751809053
28.53795239258156 4.402896325691103 2.118566505244018
28.53795239258156 4.203322647270031 2.245271628008048
28.53795239258156 4.021203056115416 2.395990735264637
28.53795239258156 3.859409610295732 2.568347075132456
28.53795239258156 3.72049393119678 2.759622463284352
28.53795239258156 3.606646867241712 2.966800320192737
28.53795239258156 3.519663712668024 3.186613346019625
28.53795239258156 3.460916385006413 3.415594947881944
28.53795239258156 3.431331340472334 3.650133954324823
28.53795239258156 3.431375058127387 3.886531548549011
28.53795239258156 3.461046848517513 4.121059596462987
28.53795239258156 3.519878864548414 4.350019454054999
28.53795239258156 3.606943314420376 4.569800292781342
28.53795239258156 3.720866998523539 4.776936027420983
28.53795239258156 3.859853414281819 4.968160022376762
28.53795239258156 4.021710597693316 5.14045650864661
28.53795239258156 4.203885922184236 5.291108245845936
28.53795239258156 4.403506450804108 5.417739544531089
28.53795239258156 4.61742398699919 5.518353184138148
28.53795239258156 4.842264976789036 5.591362508247116
28.53795239258156 5.074483491841307 5.635616072987164
27.88538208008156 5.576710119487228 5.875530767303858
27.88538208008156 5.838753085931985 5.825493048312508
27.88538208008156 6.092458355994562 5.743007407788692
27.88538208008156 6.33382485786396 5.629374390371312
27.88538208008156 6.559046221252844 5.486386203919741
27.88538208008156 6.764570311841205 5.316297777839404
27.88538208008156 6.947156170574642 5.121791596301226
27.88538208008156 7.103924237695907 4.905934964343466
27.88538208008156 7.232401998214256 4.672132269937367
27.88538208008156 7.330563522628956 4.424070594349636
27.88538208008156 7.396860584208773 4.165662119716934
27.88538208008156 7.430247671917858 3.900982005888829
27.88538208008156 7.430198336013793 3.634204453077694
27.88538208008156 7.396713354553895 3.369536706084633
27.88538208008156 7.330320721137086 3.111152770120922
27.88538208008156 7.232067453988617 2.863127418058957
27.88538208008156 7.1035032267149 2.629372259132198
27.88538208008156 6.946655332402141 2.413573625033789
27.88538208008156 6.763997545037515 2.219134989004197
27.88538208008156 6.558410558671526 2.049122590822153
27.88538208008156 6.333136324295159 1.906217715756261
27.88538208008156 6.091727810005978 1.792673979245878
27.88538208008156 5.837992048706763 1.710282181182859
27.88538208008156 5.575930592961393 1.660341386258846
27.88538208008156 5.309676370559953 1.64363964853304
27.88538208008156 5.043428343766432 1.660439863359349
27.88538208008156 4.781385377321675 1.710477582350697
27.88538208008156 4.527680107259099 1.792963222874514
27.88538208008156 4.2863136053897 1.906596240291895
27.88538208008156 4.061092242000816 2.049584426743465
27.88538208008156 3.855568151412455 2.219672852823802
27.88538208008156 3.672982292679019 2.41417903436198
27.88538208008156 3.516214225557754 2.630035666319741
27.88538208008156 3.387736465039404 2.86383836072584
27.88538208008156 3.289574940624704 3.11190003631357
27.88538208008156 3.223277879044888 3.370308510946272
27.88538208008156 3.189890791335803 3.634988624774377
27.88538208008156 3.189940127239867 3.901766177585512
27.88538208008156 3.223425108699766 4.166433924578574
27.88538208008156 3.289817742116573 4.424817860542285
27.88538208008156 3.388071009265043 4.67284321260425
27.88538208008156 3.51663523653876 4.906598371531008
27.88538208008156 3.673483130851519 5.122397005629417
27.88538208008156 3.856140918216145 5.31683564165901
27.88538208008156 4.061727904582134 5.486848039841054
27.88538208008156 4.287002138958501 5.629752914906946
27.88538208008156 4.528410653247683 5.743296651417329
27.88538208008156 4.782146414546896 5.825688449480348
27.88538208008156 5.044207870292268 5.875629244404362
27.21898950195656 5.601904784314469 6.074670642640818
27.21898950195656 5.888707924235042 6.019905200070705
27.21898950195656 6.166385569217532 5.929625331214807
27.21898950195656 6.430558557555283 5.805255429932219
27.21898950195656 6.677060869967119 5.648756349697633
27.21898950195656 6.902004840310457 5.462596460877192
27.21898950195656 7.101843037801576 5.249711478150934
27.21898950195656 7.273423861599038 5.013458795933879
27.21898950195656 7.414041579799629 4.757564317500178
27.21898950195656 7.521478188662496 4.486063548315191
27.21898950195656 7.594039655775016 4.203238234839653
27.21898950195656 7.630581542311547 3.913548732837013
27.21898950195656 7.630527544706241 3.6215636304081
27.21898950195656 7.593878514525592 3.3318876638023
27.21898950195656 7.521212445059011 3.049089207653163
27.21898950195656 7.41367542478544 2.777628194130642
27.21898950195656 7.272963069671792 2.521785742838511
27.21898950195656 7.101294875901332 2.2855965386031
27.21898950195656 6.901377953275163 2.072785483686911
27.21898950195656 6.676365144203412 1.886708806606994
27.21898950195656 6.429804965046647 1.730300909770432
27.21898950195656 6.165585994646493 1.606028725461065
27.21898950195656 5.887874977251162 1.51585156615279
27.21898950195656 5.601051601101877 1.461192205906572
27.21898950195656 5.309639249466606 1.442912112902993
27.21898950195656 5.018233678939191 1.461299988022389
27.21898950195656 4.731430539018619 1.516065430592501
27.21898950195656 4.453752894036128 1.6063452994484
27.21898950195656 4.189579905698378 1.730715200730989
27.21898950195656 3.943077593286542 1.887214280965574
27.21898950195656 3.718133622943204 2.073374169786014
27.21898950195656 3.518295425452085 2.286259152512272
27.21898950195656 3.346714601654623 2.522511834729328
27.21898950195656 3.206096883454032 2.778406313163028
27.21898950195656 3.098660274591165 3.049907082348016
27.21898950195656 3.026098807478644 3.332732395823554
27.21898950195656 2.989556920942113 3.622421897826194
27.21898950195656 2.98961091854742 3.914407000255107
27.21898950195656 3.026259948728069 4.204082966860907
27.21898950195656 3.09892601819465 4.486881423010044
27.21898950195656 3.20646303846822 4.758342436532566
27.21898950195656 3.347175393581869 5.014184887824697
27.21898950195656 3.518843587352328 5.250374092060107
27.21898950195656 3.718760509978498 5.463185146976296
27.21898950195656 3.943773319050248 5.649261824056213
27.21898950195656 4.190333498207014 5.805669720892776
27.21898950195656 4.454552468607167 5.929941905202142
27.21898950195656 4.732263486002498 6.020119064510418
27.21898950195656 5.019086862151784 6.074778424756635
26.54137036133156 5.621831494971823 6.232172819607958
26.54137036133156 5.928217744947952 6.173667915571994
26.54137036133156 6.224855431896821 6.077223651606339
26.54137036133156 6.507066339820799 5.944361644845432
26.54137036133156 6.770400050380003 5.777176712493765
26.54137036133156 7.010703242531881 5.578305609009586
26.54137036133156 7.224186579250442 5.350884777406496
26.54137036133156 7.407483047946688 5.098500655846369
26.54137036133156 7.557702271349765 4.825133393180458
26.54137036133156 7.67247480748264 4.535094401790976
26.54137036133156 7.749990711164934 4.232957594355113
26.54137036133156 7.789027719037076 3.923487906463517
26.54137036133156 7.788970034436897 3.611565853691934
26.54137036133156 7.749818567083566 3.302110625409371
26.54137036133156 7.672190918731324 3.000002509095826
26.54137036133156 7.557311115041268 2.710005987943012
26.54137036133156 7.406990792802341 2.436694304879039
26.54137036133156 7.223600988472067 2.184377995616449
26.54137036133156 7.010033551243222 1.957036139683508
26.54137036133156 6.76965681997413 1.758253929655083
26.54137036133156 6.50626129149356 1.591166406785329
26.54137036133156 6.2240012618044 1.458408789182097
26.54137036133156 5.927327923742672 1.36207424785053
26.54137036133156 5.620920055779648 1.303682669510431
26.54137036133156 5.309609889994846 1.284154547258382
26.54137036133156 4.998306968281838 1.30379781105525
26.54137036133156 4.691920718305708 1.362302715091214
26.54137036133156 4.395283031356839 1.458746979056868
26.54137036133156 4.113072123432861 1.591608985817776
26.54137036133156 3.849738412873657 1.758793918169441
26.54137036133156 3.609435220721779 1.957665021653621
26.54137036133156 3.395951884003218 2.185085853256711
26.54137036133156 3.212655415306974 2.437469974816839
26.54137036133156 3.062436191903896 2.710837237482749
26.54137036133156 2.94766365577102 3.000876228872231
26.54137036133156 2.870147752088727 3.303013036308093
26.54137036133156 2.831110744216584 3.61248272419969
26.54137036133156 2.831168428816763 3.924404776971274
26.54137036133156 2.870319896170094 4.233860005253836
26.54137036133156 2.947947544522337 4.535968121567381
26.54137036133156 3.062827348212392 4.825964642720195
26.54137036133156 3.21314767045132 5.099276325784168
26.54137036133156 3.396537474781593 5.351592635046758
26.54137036133156 3.610104912010439 5.578934490979699
26.54137036133156 3.850481643279531 5.777716701008124
26.54137036133156 4.1138771717601 5.944804223877879
26.54137036133156 4.396137201449261 6.077561841481111
26.54137036133156 4.692810539510988 6.173896382812678
26.54137036133156 4.999218407474012 6.232287961152776
22.23460278320656 5.310550056745062 6.367985270871451
22.23460278320656 5.643026724833046 6.34657783741928
22.23460278320656 5.970036212089179 6.282829861569428
22.23460278320656 6.286209113682619 6.177788478896659
22.23460278320656 6.586353762329153 6.033178038211582
22.23460278320656 6.86554194720022 5.8513732302392
22.23460278320656 7.119189259300212 5.635359033697236
22.23460278320656 7.343130827244767 5.388682849726797
22.23460278320656 7.533689543525205 5.115394796891257
22.23460278320656 7.687736721352723 4.819982270270218
22.23460278320656 7.802742373968524 4.507296079620879
22.23460278320656 7.876818534794948 4.182470363240364
22.23460278320656 7.908748660892565 3.850838834662852
22.23460278320656 7.898008612792654 3.517846850006242
22.23460278320656 7.844774694624221 3.188962112050157
22.23460278320656 7.749920951971881 2.869584933795637
22.23460278320656 7.615004995295271 2.564959427303605
22.23460278320656 7.442241861011127 2.280087685468255
22.23460278320656 7.234468717881972 2.019647101164652
22.23460278320656 6.995096879286163 1.787914143211776
22.23460278320656 6.728056980634149 1.588693992974655
22.23460278320656 6.437733782196681 1.425257690209438
22.23460278320656 6.128894259849381 1.300288923704618
22.23460278320656 5.806609685502455 1.21583973416671
22.23460278320656 5.476171956885913 1.173296594146165
22.23460278320656 5.143006831967821 1.173358207285903
22.23460278320656 4.812584861191745 1.216023561902037
22.23460278320656 4.490331543728274 1.300591947598919
22.23460278320656 4.181538264137132 1.425674934630699
22.23460278320656 3.891275535002654 1.589218606742855
22.23460278320656 3.62430933927058 1.788537512190692
22.23460278320656 3.385023227067093 2.020358989670383
22.23460278320656 3.177346426128592 2.280876404270868
22.23460278320656 3.004688667881954 2.565812025738653
22.23460278320656 2.869885390889527 2.870487412147853
22.23460278320656 2.775149781315106 3.189899651680933
22.23460278320656 2.722037509895815 3.518804056529349
22.23460278320656 2.711420624767182 3.851799990782158
22.23460278320656 2.743473407731703 4.183419686824925
22.23460278320656 2.817669705307311 4.508217982773301
22.23460278320656 2.932791001881327 4.82086161541516
22.23460278320656 3.086947432064759 5.116217145098202
22.23460278320656 3.277607215124836 5.389434698151759
22.23460278320656 3.50164000475427 5.636028036996381
22.23460278320656 3.755367195696892 5.851948403380812
22.23460278320656 4.034622604792032 6.033649936848699
22.23460278320656 4.334820719317102 6.178149354501076
22.23460278320656 4.651032450464533 6.28307378855038
22.23460278320656 4.978065493528141 6.346700810522407
18.61389575195656 5.310550056745062 6.367985270871452
18.61389575195656 5.643026724833046 6.346577837419281
18.61389575195656 5.970036212089178 6.282829861569428
18.61389575195656 6.286209113682619 6.177788478896661
18.61389575195656 6.586353762329153 6.033178038211584
18.61389575195656 6.86554194720022 5.851373230239202
18.61389575195656 7.119189259300212 5.635359033697237
18.61389575195656 7.343130827244766 5.388682849726798
18.61389575195656 7.533689543525204 5.115394796891258
18.61389575195656 7.687736721352723 4.819982270270219
18.61389575195656 7.802742373968523 4.50729607962088
18.61389575195656 7.876818534794948 4.182470363240365
18.61389575195656 7.908748660892565 3.850838834662853
18.61389575195656 7.898008612792653 3.517846850006243
18.61389575195656 7.84477469462422 3.188962112050158
18.61389575195656 7.749920951971879 2.869584933795638
18.61389575195656 7.615004995295271 2.564959427303606
18.61389575195656 7.442241861011127 2.280087685468256
18.61389575195656 7.234468717881971 2.019647101164653
18.61389575195656 6.995096879286163 1.787914143211778
18.61389575195656 6.728056980634149 1.588693992974656
18.61389575195656 6.437733782196681 1.425257690209439
18.61389575195656 6.12889425984938 1.300288923704619
18.61389575195656 5.806609685502455 1.215839734166712
18.61389575195656 5.476171956885912 1.173296594146166
18.61389575195656 5.143006831967821 1.173358207285904
18.61389575195656 4.812584861191744 1.216023561902038
18.61389575195656 4.490331543728274 1.30059194759892
18.61389575195656 4.181538264137132 1.4256749346307
18.61389575195656 3.891275535002654 1.589218606742856
18.61389575195656 3.62430933927058 1.788537512190693
18.61389575195656 3.385023227067092 2.020358989670385
18.61389575195656 3.177346426128591 2.280876404270869
18.61389575195656 3.004688667881953 2.565812025738655
18.61389575195656 2.869885390889527 2.870487412147854
18.61389575195656 2.775149781315105 3.189899651680935
18.61389575195656 2.722037509895815 3.51880405652935
18.61389575195656 2.711420624767182 3.851799990782159
18.61389575195656 2.743473407731703 4.183419686824926
18.61389575195656 2.81766970530731 4.508217982773302
18.61389575195656 2.932791001881326 4.82086161541516
18.61389575195656 3.086947432064758 5.116217145098203
18.61389575195656 3.277607215124836 5.38943469815176
18.61389575195656 3.501640004754269 5.636028036996382
18.61389575195656 3.755367195696892 5.851948403380812
18.61389575195656 4.034622604792032 6.0336499368487
18.61389575195656 4.334820719317102 6.178149354501076
18.61389575195656 4.651032450464533 6.28307378855038
18.61389575195656 4.978065493528141 6.346700810522409
17.02300122070656 5.310411357191725 5.617985283696497
17.02300122070656 5.503787134709448 5.607815000526253
17.02300122070656 5.695040501558105 5.577487272600469
17.02300122070656 5.882076060124876 5.527334152471502
17.02300122070656 6.062844534567412 5.45790521346288
17.02300122070656 6.235365505235256 5.369961197808601
17.02300122070656 6.397748708381355 5.264465589862417
17.02300122070656 6.548215060854162 5.142574236232936
17.02300122070656 6.685116005894066 5.005622646893235
17.02300122070656 6.806951698878088 4.855111221309655
17.02300122070656 6.912387239668719 4.69268901008807
17.02300122070656 7.000267439757836 4.520135523766083
17.02300122070656 7.06962951400088 4.339341382321049
17.02300122070656 7.119713452704729 4.152287286640243
17.02300122070656 7.149970440539816 3.961022715694042
17.02300122070656 7.16006919999172 3.767643189766712
17.02300122070656 7.149898916821476 3.574267412248987
17.02300122070656 7.119571188895691 3.38301404540033
17.02300122070656 7.069418068766724 3.195978486833559
17.02300122070656 6.999989129758101 3.015210012391023
17.02300122070656 6.912045114103823 2.842689041723179
17.02300122070656 6.80654950615764 2.68030583857708
17.02300122070656 6.684658152528158 2.529839486104274
17.02300122070656 6.547706563188457 2.392938541064369
17.02300122070656 6.397195137604877 2.271102848080347
17.02300122070656 6.234772926383291 2.165667307289715
17.02300122070656 6.062219440061305 2.077787107200598
17.02300122070656 5.881425298616271 2.008425032957555
17.02300122070656 5.694371202935466 1.958341094253707
17.02300122070656 5.503106631989264 1.928084106418619
17.02300122070656 5.30972710606193 1.917985346966716
17.02300122070656 5.116351328544209 1.92815563013696
17.02300122070656 4.925097961695552 1.958483358062745
17.02300122070656 4.738062403128782 2.008636478191712
17.02300122070656 4.557293928686246 2.078065417200334
17.02300122070656 4.384772958018401 2.166009432854612
17.02300122070656 4.222389754872303 2.271505040800796
17.02300122070656 4.071923402399496 2.393396394430277
17.02300122070656 3.935022457359592 2.530347983769979
17.02300122070656 3.813186764375569 2.680859409353558
17.02300122070656 3.707751223584938 2.843281620575143
17.02300122070656 3.619871023495821 3.01583510689713
17.02300122070656 3.550508949252778 3.196629248342164
17.02300122070656 3.500425010548929 3.383683344022969
17.02300122070656 3.470168022713841 3.574947914969171
17.02300122070656 3.460069263261937 3.768327440896504
17.02300122070656 3.470239546432182 3.961703218414226
17.02300122070656 3.500567274357967 4.152956585262883
17.02300122070656 3.550720394486934 4.339992143829654
17.02300122070656 3.620149333495556 4.520760618272189
17.02300122070656 3.708093349149835 4.693281588940033
17.02300122070656 3.813588957096018 4.855664792086133
17.02300122070656 3.935480310725499 5.00613114455894
17.02300122070656 4.072431900065201 5.143032089598845
17.02300122070656 4.222943325648781 5.264867782582866
17.02300122070656 4.385365536870366 5.370303323373497
17.02300122070656 4.557919023192352 5.458183523462615
17.02300122070656 4.738713164637386 5.527545597705657
17.02300122070656 4.925767260318192 5.577629536409506
17.02300122070656 5.117031831264393 5.607886524244594
17.92995434570656 5.31050003930223 6.097522384871385
18.07859594726906 5.310521329593367 6.212646894621499
18.24615747070656 5.310537098405185 6.297914715429038
18.42671899414406 5.310546788275639 6.350311443048676
17.92995434570656 5.012601915182179 6.078451987379704
17.92995434570656 4.719588193685226 6.021443918375211
17.92995434570656 4.436270144159498 5.927434055690822
17.92995434570656 4.167299846575378 5.797965972624801
17.92995434570656 3.917093831895924 5.635165805577338
17.92995434570656 3.689760321557457 5.441706500904191
17.92995434570656 3.489032324993122 5.220764858538405
17.92995434570656 3.318205679130313 4.97596844286199
17.92995434570656 3.180085448711083 4.711337120937571
17.92995434570656 3.076939405087729 4.431215932438658
17.92995434570656 3.010461269999847 4.140204478770088
17.92995434570656 2.981742747476863 3.843081244645196
17.92995434570656 2.991255198742024 3.544724927156973
17.92995434570656 3.038842547359183 3.250034542069244
17.92995434570656 3.123723461599024 2.963848857005439
17.92995434570656 3.244504035100299 2.690867165469371
17.92995434570656 3.399200965859949 2.435571584803431
17.92995434570656 3.585274501773626 2.202154357223558
17.92995434570656 3.799669077124984 1.994447957049106
17.92995434570656 4.038864326484865 1.815862947478589
17.92995434570656 4.298932813561141 1.669331695498695
17.92995434570656 4.575604048227199 1.557260508482128
17.92995434570656 4.864335249289584 1.481489093756813
17.92995434570656 5.160385344331168 1.443261980467279
17.92995434570656 5.458893273796977 1.44320677657769
17.92995434570656 5.754957487477859 1.481324388545158
17.92995434570656 6.043716694020824 1.556989006386527
17.92995434570656 6.320429361024679 1.668957854601363
17.92995434570656 6.58055202716248 1.815392906205478
17.92995434570656 6.819813312589714 1.993889433497595
17.92995434570656 7.034284696701597 2.201516522314666
17.92995434570656 7.220444552860207 2.434864911753072
17.92995434570656 7.37523589805829 2.690103257903848
17.92995434570656 7.496117429799579 2.963040258204412
17.92995434570656 7.581104188436241 3.249194529173873
17.92995434570656 7.628800529595974 3.543867293187686
17.92995434570656 7.638423331909849 3.842220071941015
17.92995434570656 7.609814706975631 4.139353907732417
17.92995434570656 7.543444211522732 4.430389929462364
17.92995434570656 7.440401782109421 4.710549248960746
17.92995434570656 7.302379439125707 4.975231638688156
17.92995434570656 7.131643346688632 5.220091220497969
17.92995434570656 6.930997082538366 5.441107090105934
17.92995434570656 6.703735141666068 5.634650464361894
17.92995434570656 6.453589358260942 5.797543162838813
17.92995434570656 6.184666964847747 5.927110719874516
17.92995434570656 5.901383705703015 6.021225365691938
17.92995434570656 5.608391089564462 6.07834180645466
18.42671899414406 5.640763412420349 6.329049447086356
18.42671899414406 5.965550018384092 6.265734987796189
18.42671899414406 6.279573698914058 6.161407381503212
18.42671899414406 6.577678063014007 6.017779984165978
18.42671899414406 6.854968405130564 5.837211122891111
18.42671899414406 7.106891501462443 5.622665384886639
18.42671899414406 7.329310796467484 5.377665996134849
18.42671899414406 7.518574324041627 5.10623560472887
18.42671899414406 7.6715740216574 4.812831206425864
18.42671899414406 7.785798084914489 4.502270526565271
18.42671899414406 7.859370747821173 4.179652850113105
18.42671899414406 7.891084005653624 3.850275626511726
18.42671899414406 7.88041688592679 3.519547201099852
18.42671899414406 7.827544709331765 3.192898098798784
18.42671899414406 7.733335899433747 2.875691943890334
18.42671899414406 7.599336829640436 2.57313725175803
18.42671899414406 7.42774812572842 2.290201816202667
18.42671899414406 7.22138741939755 2.031531600606346
18.42671899414406 6.98364270322409 1.801374025365956
18.42671899414406 6.718417996437238 1.603508031651089
18.42671899414406 6.430068270088543 1.441182692070273
18.42671899414406 6.1233282090703 1.317063390836473
18.42671899414406 5.803234414751034 1.233188259052059
18.42671899414406 5.47504286391108 1.190934254425901
18.42671899414406 5.144142448426918 1.190995448746716
18.42671899414406 4.815966548332591 1.233370837204641
18.42671899414406 4.495903798422792 1.317364354893413
18.42671899414406 4.189209665829233 1.441597100194028
18.42671899414406 3.90091999774162 1.604029079278593
18.42671899414406 3.635768492894812 1.801993156920008
18.42671899414406 3.398108920322713 2.032238649978573
18.42671899414406 3.191843901287633 2.29098517358127
18.42671899414406 3.020359857159962 2.573984054520272
18.42671899414406 2.886472701065394 2.87658828758659
18.42671899414406 2.79238122121461 3.193829265383743
18.42671899414406 2.739629864459553 3.520497900934342
18.42671899414406 2.72908507048661 3.851230249123558
18.42671899414406 2.76092015141123 4.180595720556467
18.42671899414406 2.834612134423812 4.503186162954018
18.42671899414406 2.948951055539532 4.813704574035435
18.42671899414406 3.102059262845546 5.107052362964557
18.42671899414406 3.291423170203101 5.378412733761199
18.42671899414406 3.513933066808494 5.623329840538058
18.42671899414406 3.765935498968835 5.837782386213314
18.42671899414406 4.043292608305273 6.018248675014726
18.42671899414406 4.341450074829524 6.161765804017303
18.42671899414406 4.655512321059252 6.265977256658296
18.42671899414406 4.980322322639712 6.329171584267321
18.24615747070656 5.634053423800086 6.277084134359937
18.24615747070656 5.952249935196693 6.215054341081593
18.24615747070656 6.259901875754348 6.112843635824383
18.24615747070656 6.551957584346758 5.972130443068905
18.24615747070656 6.823621528721014 5.79522534208839
18.24615747070656 7.070433003264318 5.585032844386445
18.24615747070656 7.288339301508936 5.345004627234572
18.24615747070656 7.473762416878952 5.079081782078214
18.24615747070656 7.623657990798429 4.791630716720167
18.24615747070656 7.735564371704797 4.487371490973296
18.24615747070656 7.807644104546019 4.17129989760948
18.24615747070656 7.838713578786063 3.848605913906586
18.24615747070656 7.828263032113693 3.524588141917391
18.24615747070656 7.776463858601957 3.204566969348021
18.24615747070656 7.684166395256463 2.893797045551737
18.24615747070656 7.552886478382931 2.597381315996047
18.24615747070656 7.384779304989555 2.320186935908636
18.24615747070656 7.182605726575088 2.06676521364316
18.24615747070656 6.949684994215803 1.841277522737279
18.24615747070656 6.689841889377612 1.647426402997309
18.24615747070656 6.407342869878904 1.488394659219954
18.24615747070656 6.106826724450232 1.366793982414097
18.24615747070656 5.793227812809421 1.284620530401721
18.24615747070656 5.471695447746329 1.243223936866893
18.24615747070656 5.147509204510637 1.243283889517431
18.24615747070656 4.825992172610927 1.284799403939802
18.24615747070656 4.512423675542744 1.367088839740101
18.24615747070656 4.211952526560833 1.488800658773586
18.24615747070656 3.929512346735661 1.647936878305539
18.24615747070656 3.669740958506165 1.841884091777946
18.24615747070656 3.436903642189316 2.067457916596386
18.24615747070656 3.23482380954779 2.320954398553204
18.24615747070656 3.066819172282447 2.598210936719024
18.24615747070656 2.935648898331393 2.894675201907864
18.24615747070656 2.843466384362757 3.205479242092002
18.24615747070656 2.791785579175255 3.525519551497466
18.24615747070656 2.781454876202985 3.849541166620118
18.24615747070656 2.812643701679572 4.172223636724999
18.24615747070656 2.884840333558715 4.488268548665234
18.24615747070656 2.996859241791962 4.792486363294619
18.24615747070656 3.146861123681719 5.07988196779416
18.24615747070656 3.332382582046655 5.345736213153758
18.24615747070656 3.550377643535599 5.585683817872395
18.24615747070656 3.797266844143733 5.795785014155278
18.24615747070656 4.068996201024295 5.972589623923181
18.24615747070656 4.361103934591093 6.113194785732142
18.24615747070656 4.668793658315745 6.21529169416876
18.24615747070656 4.987013090626233 6.277203793302253
18.07859594726906 5.623134006587589 6.192518525318455
18.07859594726906 5.930606203494633 6.132579338399576
18.07859594726906 6.227889152022938 6.033813421861105
18.07859594726906 6.510101560252409 5.89784277219146
18.07859594726906 6.772609380548096 5.72690005793937
18.07859594726906 7.011102462920107 5.52379186237348
18.07859594726906 7.221664553993967 5.291853504520845
18.07859594726906 7.400838228076493 5.034893118954971
18.07859594726906 7.545681638495016 4.757130243932396
18.07859594726906 7.653816478237579 4.463125561057155
18.07859594726906 7.723466784603096 4.157706760905992
18.07859594726906 7.753489442016457 3.845888711031047
18.07859594726906 7.743391012573795 3.532791490260494
18.07859594726906 7.693337486090708 3.223556158378357
18.07859594726906 7.604150846520277 2.923260329878179
18.07859594726906 7.47729538467241 2.636834871133929
18.07859594726906 7.314854245720344 2.368982827160074
18.07859594726906 7.119494502855638 2.124102447478455
18.07859594726906 6.894424053025301 1.906214501217352
18.07859594726906 6.643338626328274 1.718896918257711
18.07859594726906 6.370360861914031 1.565225230186493
18.07859594726906 6.079973160101335 1.447722778026158
18.07859594726906 5.776943638991818 1.368318855809814
18.07859594726906 5.46624807998611 1.328317475015507
18.07859594726906 5.152988045059672 1.328375407052394
18.07859594726906 4.842307302435092 1.36849170066932
18.07859594726906 4.539307170821815 1.448007697610435
18.07859594726906 4.248962948971311 1.565617546117167
18.07859594726906 3.976042041079828 1.719390188726132
18.07859594726906 3.725025913862821 1.90680062670237
18.07859594726906 3.500036068654841 2.124771803847425
18.07859594726906 3.304766911949325 2.369724423602134
18.07859594726906 3.142424853330203 2.637636530622929
18.07859594726906 3.01567533904598 2.92410888923053
18.07859594726906 2.926599774633455 3.224437684248698
18.07859594726906 2.876660627045172 3.533691508050126
18.07859594726906 2.866678002143723 3.846792442465101
18.07859594726906 2.896815988232861 4.158599366667344
18.07859594726906 2.966579253702113 4.463992384684543
18.07859594726906 3.074822828228217 4.757957052106554
18.07859594726906 3.219768963635525 5.035666335554122
18.07859594726906 3.399037666236113 5.292560433388806
18.07859594726906 3.609685528897038 5.524420895730183
18.07859594726906 3.848253717664126 5.727440867047603
18.07859594726906 4.110824745811435 5.898286477029038
18.07859594726906 4.393087425585655 6.034152736773464
18.07859594726906 4.690406883881801 6.132808691859069
18.07859594726906 4.99790122919317 6.192634151329707
17.70694165039406 5.310461374634557 5.888448169696566
17.81845043945656 5.31048070737474 5.992987474549563
17.70694165039406 5.088810518048868 5.87687294906087
17.70694165039406 4.869583794316079 5.842192299259792
17.70694165039406 4.65518315976966 5.784786391333853
17.70694165039406 4.447957577155498 5.705283941284311
17.70694165039406 4.250177410232968 5.604555989222418
17.70694165039406 4.0640097943064 5.483706260369343
17.70694165039406 3.891494097767477 5.344058596351744
17.70694165039406 3.73452074036801 5.187143287243726
17.70694165039406 3.594809278303292 5.014679253353696
17.70694165039406 3.473890700743745 4.828556348302706
17.70694165039406 3.373089603517422 4.630813450699641
17.70694165039406 3.293510513318516 4.423617287470751
17.70694165039406 3.236025309927851 4.209237900052458
17.70694165039406 3.201263578103897 3.99002401848964
17.70694165039406 3.189606377261869 3.768377458339345
17.70694165039406 3.201181597897566 3.546726601753646
17.70694165039406 3.235862247698643 3.327499878020856
17.70694165039406 3.293268155624582 3.113099243474437
17.70694165039406 3.372770605674123 2.905873660860276
17.70694165039406 3.473498557736017 2.708093493937746
17.70694165039406 3.594348286589092 2.521925878011177
17.70694165039406 3.733995950606692 2.349410181472254
17.70694165039406 3.89091125971471 2.192436824072787
17.70694165039406 4.063375293604738 2.052725362008069
17.70694165039406 4.249498198655729 1.931806784448522
17.70694165039406 4.447241096258795 1.831005687222199
17.70694165039406 4.654437259487684 1.751426597023293
17.70694165039406 4.868816646905977 1.693941393632629
17.70694165039406 5.088030528468795 1.659179661808674
17.70694165039406 5.309677088619102 1.647522460966647
17.70694165039406 5.531327945204789 1.659097681602343
17.70694165039406 5.750554668937579 1.69377833140342
17.70694165039406 5.964955303483998 1.75118423932936
17.70694165039406 6.172180886098159 1.830686689378901
17.70694165039406 6.369961053020689 1.931414641440794
17.70694165039406 6.556128668947259 2.052264370293869
17.70694165039406 6.728644365486181 2.191912034311469
17.70694165039406 6.885617722885648 2.348827343419487
17.70694165039406 7.025329184950366 2.521291377309516
17.70694165039406 7.146247762509913 2.707414282360507
17.70694165039406 7.247048859736235 2.905157179963572
17.70694165039406 7.326627949935141 3.112353343192462
17.70694165039406 7.384113153325806 3.326732730610754
17.70694165039406 7.41887488514976 3.545946612173573
17.70694165039406 7.430532085991788 3.76759317232388
17.70694165039406 7.418956865356091 3.989244028909567
17.70694165039406 7.384276215555015 4.208470752642357
17.70694165039406 7.326870307629075 4.422871387188775
17.70694165039406 7.247367857579535 4.630096969802937
17.70694165039406 7.146639905517641 4.827877136725466
17.70694165039406 7.025790176664565 5.014044752652036
17.70694165039406 6.886142512646966 5.186560449190958
17.70694165039406 6.729227203538948 5.343533806590425
17.70694165039406 6.556763169648919 5.483245268655144
17.70694165039406 6.370640264597928 5.60416384621469
17.70694165039406 6.172897366994863 5.704964943441013
17.70694165039406 5.965701203765973 5.784544033639919
17.70694165039406 5.751321816347682 5.842029237030584
17.70694165039406 5.532107934784863 5.876790968854539
31.10584692383156 5.310150675032705 4.208380052673873
31.22031567383156 5.310127932939435 4.085405109708392
31.29335473633156 5.310099952917581 3.934106741934275
31.31844848633156 5.310069231626831 3.767985315331607
31.29335473633156 5.354917839869526 3.927938220990312
31.29335473633156 5.39640951252705 3.909906728543626
31.29335473633156 5.431497714945163 3.881349572288878
31.29335473633156 5.457580128033976 3.844384703303877
31.29335473633156 5.47272232986301 3.80175364071988
31.29335473633156 5.475801293674592 3.756618138028848
31.29335473633156 5.466588680396073 3.712325688725414
31.29335473633156 5.445767729982133 3.67216125314409
31.29335473633156 5.414882633478019 3.639103655528436
31.29335473633156 5.376224013090006 3.615604624561538
31.29335473633156 5.332658995291139 3.603406961956829
31.29335473633156 5.28741859765777 3.603415328387565
31.29335473633156 5.243858094332963 3.615629103353701
31.29335473633156 5.205208168069325 3.63914243120203
31.29335473633156 5.174335300541612 3.672211449887247
31.29335473633156 5.153529206989643 3.712383583671909
31.29335473633156 5.144332976588814 3.756679437373263
31.29335473633156 5.147428634253676 3.801813798174621
31.29335473633156 5.162586602804946 3.844439257265058
31.29335473633156 5.18868268613833 3.881394476737698
31.29335473633156 5.223781448462399 3.909938653124678
31.29335473633156 5.265279787508299 3.927954798001029
31.22031567383156 5.395764594393657 4.07361849001388
31.22031567383156 5.475045623364407 4.039164466194707
31.22031567383156 5.542091105949111 3.984598294384316
31.22031567383156 5.591928600172488 3.913966945244608
31.22031567383156 5.620861870131789 3.832508811465597
31.22031567383156 5.626745060380216 3.746265257930796
31.22031567383156 5.609141853794887 3.661632580877745
31.22031567383156 5.569357793512227 3.584887602345863
31.22031567383156 5.510343517146794 3.521722138594653
31.22031567383156 5.436475783765466 3.476820881396819
31.22031567383156 5.353233068812458 3.453513979158868
31.22031567383156 5.266789085305304 3.453529965481676
31.22031567383156 5.18355499646445 3.476867654731256
31.22031567383156 5.109703875560255 3.521796229981702
31.22031567383156 5.050712965955303 3.584983516755399
31.22031567383156 5.010957293711378 3.661743204788032
31.22031567383156 4.993385391034924 3.746382386870451
31.22031567383156 4.999300479393337 3.832623758517251
31.22031567383156 5.028263875924469 3.914071185307037
31.22031567383156 5.078127490836041 3.984684096447357
31.22031567383156 5.145193150977559 4.039225466716533
31.22031567383156 5.224486917879156 4.073650164864061
31.10584692383156 5.428964730496634 4.192027055615751
31.10584692383156 5.538960851280449 4.144224791527848
31.10584692383156 5.631981138815449 4.068518592375496
31.10584692383156 5.70112668321848 3.970523228962047
31.10584692383156 5.741269266084055 3.857506533637349
31.10584692383156 5.749431738728791 3.737850461993698
31.10584692383156 5.725008717152833 3.620429359384018
31.10584692383156 5.669811504270968 3.51395180288377
31.10584692383156 5.587933876233385 3.426314752076978
31.10584692383156 5.485448278426285 3.364017847020289
31.10584692383156 5.369955621113036 3.331681355719549
31.10584692383156 5.250021472468116 3.331703535470391
31.10584692383156 5.13454078320612 3.364082741305197
31.10584692383156 5.03207823388308 3.426417547984487
31.10584692383156 4.950233025364866 3.514084876504199
31.10584692383156 4.895075198629901 3.6205828412644
31.10584692383156 4.8706956087357 3.738012969074784
31.10584692383156 4.878902337471205 3.857666013517156
31.10584692383156 4.919086718564066 3.970667853756238
31.10584692383156 4.988268503338598 4.068637635917555
31.10584692383156 5.081316785619862 4.144309424899288
31.10584692383156 5.191330579286754 4.192071001950676
17.21017797851906 5.310414625661148 5.635659111519274
17.39073950195656 5.310424315554178 5.688055961209222
17.55830102539406 5.310440084320844 5.773323537876142
17.55830102539406 5.520052978384495 5.762299421838755
17.55830102539406 5.727365261751944 5.729425022878149
17.55830102539406 5.930105516660112 5.675060746411556
17.55830102539406 6.126052600757709 5.599802095984531
17.55830102539406 6.31305951076734 5.504473809482684
17.55830102539406 6.489077489565819 5.390120089048323
17.55830102539406 6.652178057911194 5.257993976888696
17.55830102539406 6.800574190977779 5.109542947062636
17.55830102539406 6.932639968831706 4.946393520986905
17.55830102539406 7.046928578471922 4.77033325873563
17.55830102539406 7.14218769105477 4.583291102875897
17.55830102539406 7.217373862273879 4.387316196605071
17.55830102539406 7.271663148402428 4.18455584809576
17.55830102539406 7.304460867459452 3.977231419803522
17.55830102539406 7.315407454171364 3.767614462637593
17.55830102539406 7.304383338133977 3.55800156857394
17.55830102539406 7.271508939173372 3.35068928520649
17.55830102539406 7.217144662706779 3.147949030298323
17.55830102539406 7.141886012279754 2.952001946200726
17.55830102539406 7.046557725777907 2.764995036191095
17.55830102539406 6.932204005343546 2.588977057392616
17.55830102539406 6.800077893183919 2.425876489047241
17.55830102539406 6.651626863357858 2.277480355980656
17.55830102539406 6.488477437282127 2.14541457812673
17.55830102539406 6.312417175030853 2.031125968486513
17.55830102539406 6.12537501917112 1.935866855903666
17.55830102539406 5.929400112900294 1.860680684684556
17.55830102539406 5.726639764390982 1.806391398556007
17.55830102539406 5.519315336098744 1.773593679498984
17.55830102539406 5.309698378932811 1.762647092787071
17.55830102539406 5.100085484869163 1.773671208824458
17.55830102539406 4.892773201501713 1.806545607785063
17.55830102539406 4.690032946593545 1.860909884251657
17.55830102539406 4.494085862495949 1.936168534678682
17.55830102539406 4.307078952486318 2.031496821180528
17.55830102539406 4.131060973687839 2.145850541614889
17.55830102539406 3.967960405342464 2.277976653774517
17.55830102539406 3.819564272275878 2.426427683600576
17.55830102539406 3.687498494421952 2.589577109676307
17.55830102539406 3.573209884781735 2.765637371927582
17.55830102539406 3.477950772198888 2.952679527787316
17.55830102539406 3.402764600979778 3.148654434058141
17.55830102539406 3.348475314851229 3.351414782567452
17.55830102539406 3.315677595794207 3.558739210859691
17.55830102539406 3.304731009082293 3.768356168025623
17.55830102539406 3.31575512511968 3.977969062089273
17.55830102539406 3.348629524080286 4.185281345456723
17.55830102539406 3.402993800546879 4.38802160036489
17.55830102539406 3.478252450973904 4.583968684462486
17.55830102539406 3.57358073747575 4.770975594472119
17.55830102539406 3.687934457910112 4.946993573270596
17.55830102539406 3.820060570069739 5.110094141615972
17.55830102539406 3.968511599895799 5.258490274682558
17.55830102539406 4.13166102597153 5.390556052536483
17.55830102539406 4.307721288222806 5.5048446621767
17.55830102539406 4.494763444082538 5.600103774759548
17.55830102539406 4.690738350353364 5.675289945978657
17.55830102539406 4.893498698862675 5.729579232107206
17.55830102539406 5.100823127154913 5.762376951164229
17.39073950195656 5.511124408545596 5.677500412393864
17.39073950195656 5.709621688456071 5.646024005944575
17.39073950195656 5.903741399014854 5.593971260261814
17.39073950195656 6.091356677298832 5.521912637041294
17.39073950195656 6.270412066261875 5.430637700988129
17.39073950195656 6.43894571464716 5.321146326648691
17.39073950195656 6.59511116461872 5.194638318404625
17.39073950195656 6.737197429753984 5.052499490743904
17.39073950195656 6.86364766913744 4.896287260510266
17.39073950195656 6.9730767012107 4.727713126574176
17.39073950195656 7.06428540461518 4.548623990411511
17.39073950195656 7.136274630493934 4.360982072963972
17.39073950195656 7.18825557443844 4.166843123169814
17.39073950195656 7.219658561445159 3.968334214800759
17.39073950195656 7.230139877504445 3.76763023140426
17.39073950195656 7.219584328689087 3.566930138412839
17.39073950195656 7.188107922239797 3.368432858502364
17.39073950195656 7.136055176557036 3.174313147943581
17.39073950195656 7.063996553336517 2.986697869659602
17.39073950195656 6.972721617283351 2.80764248069656
17.39073950195656 6.863230242943914 2.639108832311275
17.39073950195656 6.736722234699847 2.482943382339716
17.39073950195656 6.594583407039127 2.340857117204452
17.39073950195656 6.438371176805489 2.214406877820995
17.39073950195656 6.269797042869398 2.104977845747735
17.39073950195656 6.090707906706734 2.013769142343256
17.39073950195656 5.903065989259194 1.941779916464502
17.39073950195656 5.708927039465037 1.889798972519995
17.39073950195656 5.510418131095982 1.858395985513276
17.39073950195656 5.309714147699479 1.847914669453991
17.39073950195656 5.109014054708061 1.858470218269349
17.39073950195656 4.910516774797586 1.889946624718638
17.39073950195656 4.716397064238803 1.941999370401399
17.39073950195656 4.528781785954825 2.014057993621919
17.39073950195656 4.349726396991782 2.105332929675083
17.39073950195656 4.181192748606498 2.214824304014522
17.39073950195656 4.025027298634939 2.341332312258589
17.39073950195656 3.882941033499674 2.483471139919308
17.39073950195656 3.756490794116218 2.639683370152947
17.39073950195656 3.647061762042958 2.808257504089037
17.39073950195656 3.555853058638478 2.987346640251702
17.39073950195656 3.483863832759724 3.174988557699241
17.39073950195656 3.431882888815218 3.369127507493399
17.39073950195656 3.400479901808499 3.567636415862454
17.39073950195656 3.389998585749213 3.768340399258956
17.39073950195656 3.400554134564571 3.969040492250373
17.39073950195656 3.432030541013861 4.167537772160848
17.39073950195656 3.484083286696622 4.361657482719633
17.39073950195656 3.556141909917141 4.549272761003611
17.39073950195656 3.647416845970306 4.728328149966653
17.39073950195656 3.756908220309744 4.896861798351937
17.39073950195656 3.883416228553811 5.053027248323497
17.39073950195656 4.025555056214531 5.195113513458761
17.39073950195656 4.181767286448169 5.321563752842217
17.39073950195656 4.350341420384259 5.430992784915477
17.39073950195656 4.529430556546924 5.522201488319958
17.39073950195656 4.717072473994463 5.59419071419871
17.39073950195656 4.911211423788621 5.646171658143218
17.39073950195656 5.109720332157677 5.677574645149936
17.21017797851906 5.50563781261363 5.625391684943072
17.21017797851906 5.698718289602487 5.594774190408914
17.21017797851906 5.887540655352301 5.544141980066985
17.21017797851906 6.070036118977985 5.474049757802995
17.21017797851906 6.244205249732728 5.385265593585593
17.21017797851906 6.408139780191795 5.278762130371593
17.21017797851906 6.560043661484802 5.155706326305746
17.21017797851906 6.698252470059561 5.017446389608138
17.21017797851906 6.821252081708029 4.86549700461268
17.21017797851906 6.927694903915134 4.701523093413376
17.21017797851906 7.016414642912405 4.527321136375283
17.21017797851906 7.086439361611783 4.344799760539654
17.21017797851906 7.137001729617545 4.155958680599097
17.21017797851906 7.167547808256237 3.962866892463007
17.21017797851906 7.177743027814497 3.767639921297289
17.21017797851906 7.167475601238293 3.572416734344806
17.21017797851906 7.136858106704136 3.379336257355948
17.21017797851906 7.086225896362207 3.190513891606135
17.21017797851906 7.016133674098217 3.00801842798045
17.21017797851906 6.927349509880815 2.833849297225707
17.21017797851906 6.820846046666815 2.66991476676664
17.21017797851906 6.697790242600969 2.518010885473634
17.21017797851906 6.559530305903361 2.379802076898874
17.21017797851906 6.407580920907901 2.256802465250407
17.21017797851906 6.243607009708597 2.150359643043301
17.21017797851906 6.069405052670505 2.06163990404603
17.21017797851906 5.886883676834875 1.991615185346653
17.21017797851906 5.698042596894319 1.94105281734089
17.21017797851906 5.504950808758229 1.910506738702199
17.21017797851906 5.309723837592509 1.900311519143939
17.21017797851906 5.114500650640028 1.910578945720142
17.21017797851906 4.92142017365117 1.941196440254299
17.21017797851906 4.732597807901357 1.991828650596228
17.21017797851906 4.550102344275673 2.061920872860218
17.21017797851906 4.37593321352093 2.15070503707762
17.21017797851906 4.211998683061863 2.25720850029162
17.21017797851906 4.060094801768856 2.380264304357466
17.21017797851906 3.921885993194096 2.518524241055075
17.21017797851906 3.798886381545629 2.670473626050534
17.21017797851906 3.692443559338524 2.834447537249838
17.21017797851906 3.603723820341253 3.00864949428793
17.21017797851906 3.533699101641875 3.19117087012356
17.21017797851906 3.483136733636113 3.380011950064116
17.21017797851906 3.452590654997421 3.573103738200206
17.21017797851906 3.442395435439161 3.768330709365926
17.21017797851906 3.452662862015364 3.963553896318407
17.21017797851906 3.483280356549522 4.156634373307265
17.21017797851906 3.53391256689145 4.345456739057078
17.21017797851906 3.60400478915544 4.527952202682764
17.21017797851906 3.692788953372842 4.702121333437505
17.21017797851906 3.799292416586843 4.866055863896572
17.21017797851906 3.922348220652689 5.01795974518958
17.21017797851906 4.060608157350297 5.156168553764339
17.21017797851906 4.212557542345756 5.279168165412806
17.21017797851906 4.37653145354506 5.385610987619912
17.21017797851906 4.550733410583153 5.474330726617183
17.21017797851906 4.733254786418782 5.54435544531656
17.21017797851906 4.922095866359339 5.594917813322322
17.21017797851906 5.115187654495428 5.625463891961014

CELLS 2170 8680
3 79 80 129
3 79 129 128
3 80 81 129
3 129 81 130
3 81 82 130
3 130 82 131
3 82 83 132
3 82 132 131
3 83 84 133
3 83 133 132
3 84 85 134
3 84 134 133
3 85 86 135
3 85 135 134
3 86 87 135
3 135 87 136
3 87 88 136
3 136 88 137
3 88 89 138
3 88 138 137
3 89 90 138
3 138 90 139
3 90 91 140
3 90 140 139
3 91 92 141
3 91 141 140
3 92 93 141
3 141 93 142
3 93 94 143
3 93 143 142
3 94 95 144
3 94 144 143
3 95 96 144
3 144 96 145
3 96 97 146
3 96 146 145
3 97 98 146
3 146 98 147
3 98 99 148
3 98 148 147
3 99 100 149
3 99 149 148
3 100 101 150
3 100 150 149
3 101 102 150
3 150 102 151
3 102 103 152
3 102 152 151
3 103 104 152
3 152 104 153
3 104 105 154
3 104 154 153
3 105 106 154
3 154 106 155
3 106 107 155
3 155 107 156
3 107 108 157
3 107 157 156
3 108 109 158
3 108 158 157
3 109 110 159
3 109 159 158
3 110 111 160
3 110 160 159
3 111 112 160
3 160 112 161
3 112 113 161
3 161 113 162
3 113 114 163
3 113 163 162
3 114 115 163
3 163 115 164
3 115 116 165
3 115 165 164
3 116 117 166
3 116 166 165
3 117 118 166
3 166 118 167
3 118 119 168
3 118 168 167
3 119 120 169
3 119 169 168
3 120 121 169
3 169 121 170
3 121 122 171
3 121 171 170
3 122 123 171
3 171 123 172
3 123 124 173
3 123 173 172
3 124 125 174
3 124 174 173
3 125 126 175
3 125 175 174
3 126 127 175
3 175 127 176
3 128 129 178
3 128 178 177
3 129 130 178
3 178 130 179
3 130 131 180
3 130 180 179
3 131 132 181
3 131 181 180
3 132 133 181
3 181 133 182
3 133 134 182
3 182 134 183
3 134 135 184
3 134 184 183
3 135 136 184
3 184 136 185
3 136 137 186
3 136 186 185
3 137 138 187
3 137 187 186
3 138 139 188
3 138 188 187
3 139 140 189
3 139 189 188
3 140 141 189
3 189 141 190
3 141 142 191
3 141 191 190
3 142 143 191
3 191 143 192
3 143 144 193
3 143 193 192
3 144 145 194
3 144 194 193
3 145 146 195
3 145 195 194
3 146 147 196
3 146 196 195
3 147 148 196
3 196 148 197
3 148 149 197
3 197 149 198
3 149 150 199
3 149 199 198
3 150 151 199
3 199 151 200
3 151 152 201
3 151 201 200
3 152 153 201
3 201 153 202
3 153 154 203
3 153 203 202
3 154 155 203
3 203 155 204
3 155 156 205
3 155 205 204
3 156 157 206
3 156 206 205
3 157 158 206
3 206 158 207
3 158 159 207
3 207 159 208
3 159 160 209
3 159 209 208
3 160 161 209
3 209 161 210
3 161 162 211
3 161 211 210
3 162 163 212
3 162 212 211
3 163 164 213
3 163 213 212
3 164 165 214
3 164 214 213
3 165 166 214
3 214 166 215
3 166 167 216
3 166 216 215
3 167 168 216
3 216 168 217
3 168 169 218
3 168 218 217
3 169 170 219
3 169 219 218
3 170 171 220
3 170 220 219
3 171 172 221
3 171 221 220
3 172 173 221
3 221 173 222
3 173 174 222
3 222 174 223
3 174 175 224
3 174 224 223
3 175 176 224
3 224 176 225
3 177 178 227
3 177 227 226
3 178 179 227
3 227 179 228
3 179 180 229
3 179 229 228
3 180 181 230
3 180 230 229
3 181 182 230
3 230 182 231
3 182 183 232
3 182 232 231
3 183 184 233
3 183 233 232
3 184 185 234
3 184 234 233
3 185 186 234
3 234 186 235
3 186 187 235
3 235 187 236
3 187 188 237
3 187 237 236
3 188 189 238
3 188 238 237
3 189 190 238
3 238 190 239
3 190 191 240
3 190 240 239
3 191 192 241
3 191 241 240
3 192 193 241
3 241 193 242
3 193 194 242
3 242 194 243
3 194 195 243
3 243 195 244
3 195 196 245
3 195 245 244
3 196 197 245
3 245 197 246
3 197 198 247
3 197 247 246
3 198 199 248
3 198 248 247
3 199 200 248
3 248 200 249
3 200 201 249
3 249 201 250
3 201 202 251
3 201 251 250
3 202 203 252
3 202 252 251
3 203 204 252
3 252 204 253
3 204 205 254
3 204 254 253
3 205 206 255
3 205 255 254
3 206 207 255
3 255 207 256
3 207 208 257
3 207 257 256
3 208 209 258
3 208 258 257
3 209 210 259
3 209 259 258
3 210 211 259
3 259 211 260
3 211 212 260
3 260 212 261
3 212 213 262
3 212 262 261
3 213 214 263
3 213 263 262
3 214 215 263
3 263 215 264
3 215 216 265
3 215 265 264
3 216 217 266
3 216 266 265
3 217 218 266
3 266 218 267
3 218 219 267
3 267 219 268
3 219 220 268
3 268 220 269
3 220 221 270
3 220 270 269
3 221 222 270
3 270 222 271
3 222 223 272
3 222 272 271
3 223 224 273
3 223 273 272
3 224 225 273
3 273 225 274
3 226 227 276
3 226 276 275
3 227 228 276
3 276 228 277
3 228 229 278
3 228 278 277
3 229 230 278
3 278 230 279
3 230 231 280
3 230 280 279
3 231 232 280
3 280 232 281
3 232 233 281
3 281 233 282
3 233 234 283
3 233 283 282
3 234 235 283
3 283 235 284
3 235 236 285
3 235 285 284
3 236 237 286
3 236 286 285
3 237 238 287
3 237 287 286
3 238 239 287
3 287 239 288
3 239 240 288
3 288 240 289
3 240 241 290
3 240 290 289
3 241 242 291
3 241 291 290
3 242 243 292
3 242 292 291
3 243 244 293
3 243 293 292
3 244 245 294
3 244 294 293
3 245 246 295
3 245 295 294
3 246 247 296
3 246 296 295
3 247 248 297
3 247 297 296
3 248 249 297
3 297 249 298
3 249 250 299
3 249 299 298
3 250 251 299
3 299 251 300
3 251 252 301
3 251 301 300
3 252 253 301
3 301 253 302
3 253 254 303
3 253 303 302
3 254 255 303
3 303 255 304
3 255 256 305
3 255 305 304
3 256 257 305
3 305 257 306
3 257 258 306
3 306 258 307
3 258 259 308
3 258 308 307
3 259 260 308
3 308 260 309
3 260 261 310
3 260 310 309
3 261 262 311
3 261 311 310
3 262 263 312
3 262 312 311
3 263 264 312
3 312 264 313
3 264 265 313
3 313 265 314
3 265 266 315
3 265 315 314
3 266 267 316
3 266 316 315
3 267 268 317
3 267 317 316
3 268 269 318
3 268 318 317
3 269 270 319
3 269 319 318
3 270 271 320
3 270 320 319
3 271 272 321
3 271 321 320
3 272 273 322
3 272 322 321
3 273 274 322
3 322 274 323
3 275 276 324
3 324 276 325
3 276 277 326
3 276 326 325
3 277 278 326
3 326 278 327
3 278 279 328
3 278 328 327
3 279 280 329
3 279 329 328
3 280 281 329
3 329 281 330
3 281 282 331
3 281 331 330
3 282 283 331
3 331 283 332
3 283 284 333
3 283 333 332
3 284 285 334
3 284 334 333
3 285 286 335
3 285 335 334
3 286 287 336
3 286 336 335
3 287 288 337
3 287 337 336
3 288 289 337
3 337 289 338
3 289 290 338
3 338 290 339
3 290 291 340
3 290 340 339
3 291 292 340
3 340 292 341
3 292 293 342
3 292 342 341
3 293 294 342
3 342 294 343
3 294 295 343
3 343 295 344
3 295 296 345
3 295 345 344
3 296 297 345
3 345 297 346
3 297 298 347
3 297 347 346
3 298 299 348
3 298 348 347
3 299 300 348
3 348 300 349
3 300 301 349
3 349 301 350
3 301 302 351
3 301 351 350
3 302 303 351
3 351 303 352
3 303 304 353
3 303 353 352
3 304 305 354
3 304 354 353
3 305 306 354
3 354 306 355
3 306 307 356
3 306 356 355
3 307 308 356
3 356 308 357
3 308 309 358
3 308 358 357
3 309 310 359
3 309 359 358
3 310 311 360
3 310 360 359
3 311 312 361
3 311 361 360
3 312 313 362
3 312 362 361
3 313 314 362
3 362 314 363
3 314 315 363
3 363 315 364
3 315 316 365
3 315 365 364
3 316 317 365
3 365 317 366
3 317 318 367
3 317 367 366
3 318 319 367
3 367 319 368
3 319 320 368
3 368 320 369
3 320 321 370
3 320 370 369
3 321 322 370
3 370 322 371
3 322 323 372
3 322 372 371
3 324 325 373
3 373 325 374
3 325 326 375
3 325 375 374
3 326 327 375
3 375 327 376
3 327 328 376
3 376 328 377
3 328 329 378
3 328 378 377
3 329 330 379
3 329 379 378
3 330 331 380
3 330 380 379
3 331 332 380
3 380 332 381
3 332 333 381
3 381 333 382
3 333 334 383
3 333 383 382
3 334 335 383
3 383 335 384
3 335 336 385
3 335 385 384
3 336 337 386
3 336 386 385
3 337 338 387
3 337 387 386
3 338 339 388
3 338 388 387
3 339 340 389
3 339 389 388
3 340 341 389
3 389 341 390
3 341 342 391
3 341 391 390
3 342 343 391
3 391 343 392
3 343 344 393
3 343 393 392
3 344 345 394
3 344 394 393
3 345 346 394
3 394 346 395
3 346 347 396
3 346 396 395
3 347 348 396
3 396 348 397
3 348 349 398
3 348 398 397
3 349 350 398
3 398 350 399
3 350 351 400
3 350 400 399
3 351 352 400
3 400 352 401
3 352 353 401
3 401 353 402
3 353 354 403
3 353 403 402
3 354 355 404
3 354 404 403
3 355 356 405
3 355 405 404
3 356 357 405
3 405 357 406
3 357 358 406
3 406 358 407
3 358 359 408
3 358 408 407
3 359 360 408
3 408 360 409
3 360 361 410
3 360 410 409
3 361 362 411
3 361 411 410
3 362 363 412
3 362 412 411
3 363 364 413
3 363 413 412
3 364 365 414
3 364 414 413
3 365 366 414
3 414 366 415
3 366 367 416
3 366 416 415
3 367 368 416
3 416 368 417
3 368 369 418
3 368 418 417
3 369 370 419
3 369 419 418
3 370 371 419
3 419 371 420
3 371 372 421
3 371 421 420
3 78 0 373
3 0 1 373
3 1 2 324
3 2 3 275
3 3 4 226
3 4 5 177
3 5 6 128
3 6 7 79
3 7 8 79
3 8 9 79
3 9 10 81
3 10 11 83
3 11 12 86
3 12 13 88
3 13 14 90
3 14 15 92
3 15 16 94
3 16 17 96
3 17 18 99
3 18 19 101
3 19 20 103
3 20 21 105
3 21 22 107
3 22 23 110
3 23 24 112
3 24 25 114
3 25 26 116
3 26 27 118
3 27 28 120
3 28 29 123
3 29 30 125
3 30 8 127
3 8 7 127
3 7 6 127
3 6 5 176
3 5 4 225
3 4 3 274
3 3 2 323
3 2 1 372
3 1 0 421
3 0 31 421
3 31 32 420
3 32 33 419
3 33 34 418
3 34 35 417
3 35 36 416
3 36 37 415
3 37 38 414
3 38 39 413
3 39 40 412
3 40 41 411
3 41 42 410
3 42 43 409
3 43 44 408
3 44 45 407
3 45 46 406
3 46 47 405
3 47 48 404
3 48 49 403
3 49 50 402
3 50 51 401
3 51 52 400
3 52 53 399
3 53 54 398
3 54 55 397
3 55 56 396
3 56 57 395
3 57 58 394
3 58 59 393
3 59 60 392
3 60 61 391
3 61 62 390
3 62 63 389
3 63 64 388
3 64 65 387
3 65 66 386
3 66 67 385
3 67 68 384
3 68 69 383
3 69 70 382
3 70 71 381
3 71 72 380
3 72 73 379
3 73 74 378
3 74 75 377
3 75 76 376
3 76 77 375
3 77 78 374
3 81 80 9
3 83 82 10
3 85 84 11
3 79 128 6
3 128 177 5
3 177 226 4
3 226 275 3
3 275 324 2
3 324 373 1
3 373 374 78
3 374 375 77
3 375 376 76
3 376 377 75
3 377 378 74
3 378 379 73
3 379 380 72
3 87 86 12
3 89 88 13
3 92 91 14
3 94 93 15
3 380 381 71
3 381 382 70
3 382 383 69
3 383 384 68
3 384 385 67
3 385 386 66
3 386 387 65
3 387 388 64
3 96 95 16
3 98 97 17
3 100 99 18
3 102 101 19
3 388 389 63
3 389 390 62
3 390 391 61
3 391 392 60
3 392 393 59
3 393 394 58
3 394 395 57
3 395 396 56
3 105 104 20
3 107 106 21
3 109 108 22
3 396 397 55
3 397 398 54
3 398 399 53
3 399 400 52
3 400 401 51
3 401 402 50
3 402 403 49
3 403 404 48
3 111 110 23
3 113 112 24
3 115 114 25
3 118 117 26
3 404 405 47
3 405 406 46
3 406 407 45
3 407 408 44
3 408 409 43
3 409 410 42
3 410 411 41
3 411 412 40
3 120 119 27
3 122 121 28
3 124 123 29
3 126 125 30
3 412 413 39
3 413 414 38
3 414 415 37
3 415 416 36
3 416 417 35
3 417 418 34
3 418 419 33
3 419 420 32
3 176 127 6
3 225 176 5
3 274 225 4
3 323 274 3
3 372 323 2
3 421 372 1
3 420 421 31
3 79 9 80
3 81 10 82
3 83 11 84
3 11 86 85
3 12 88 87
3 13 90 89
3 90 14 91
3 92 15 93
3 94 16 95
3 96 17 97
3 17 99 98
3 18 101 100
3 19 103 102
3 103 20 104
3 105 21 106
3 107 22 108
3 22 110 109
3 23 112 111
3 24 114 113
3 25 116 115
3 116 26 117
3 118 27 119
3 120 28 121
3 28 123 122
3 29 125 124
3 30 127 126
3 0 78 423
3 0 423 422
3 78 77 424
3 78 424 423
3 77 76 425
3 77 425 424
3 76 75 426
3 76 426 425
3 75 74 427
3 75 427 426
3 74 73 428
3 74 428 427
3 73 72 429
3 73 429 428
3 72 71 430
3 72 430 429
3 71 70 431
3 71 431 430
3 70 69 432
3 70 432 431
3 69 68 433
3 69 433 432
3 68 67 434
3 68 434 433
3 67 66 435
3 67 435 434
3 66 65 436
3 66 436 435
3 65 64 437
3 65 437 436
3 64 63 438
3 64 438 437
3 63 62 439
3 63 439 438
3 62 61 440
3 62 440 439
3 61 60 441
3 61 441 440
3 60 59 442
3 60 442 441
3 59 58 443
3 59 443 442
3 58 57 444
3 58 444 443
3 57 56 445
3 57 445 444
3 56 55 446
3 56 446 445
3 55 54 447
3 55 447 446
3 54 53 448
3 54 448 447
3 53 52 449
3 53 449 448
3 52 51 450
3 52 450 449
3 51 50 451
3 51 451 450
3 50 49 452
3 50 452 451
3 49 48 453
3 49 453 452
3 48 47 454
3 48 454 453
3 47 46 455
3 47 455 454
3 46 45 456
3 46 456 455
3 45 44 457
3 45 457 456
3 44 43 458
3 44 458 457
3 43 42 459
3 43 459 458
3 42 41 460
3 42 460 459
3 41 40 461
3 41 461 460
3 40 39 462
3 40 462 461
3 39 38 463
3 39 463 462
3 38 37 464
3 38 464 463
3 37 36 465
3 37 465 464
3 36 35 466
3 36 466 465
3 35 34 467
3 35 467 466
3 34 33 468
3 34 468 467
3 33 32 469
3 33 469 468
3 32 31 470
3 32 470 469
3 31 0 422
3 31 422 470
3 422 423 472
3 422 472 471
3 423 424 473
3 423 473 472
3 424 425 474
3 424 474 473
3 425 426 475
3 425 475 474
3 426 427 476
3 426 476 475
3 427 428 477
3 427 477 476
3 428 429 478
3 428 478 477
3 429 430 479
3 429 479 478
3 430 431 480
3 430 480 479
3 431 432 481
3 431 481 480
3 432 433 482
3 432 482 481
3 433 434 483
3 433 483 482
3 434 435 484
3 434 484 483
3 435 436 485
3 435 485 484
3 436 437 486
3 436 486 485
3 437 438 487
3 437 487 486
3 438 439 488
3 438 488 487
3 439 440 489
3 439 489 488
3 440 441 490
3 440 490 489
3 441 442 491
3 441 491 490
3 442 443 492
3 442 492 491
3 443 444 493
3 443 493 492
3 444 445 494
3 444 494 493
3 445 446 495
3 445 495 494
3 446 447 496
3 446 496 495
3 447 448 497
3 447 497 496
3 448 449 498
3 448 498 497
3 449 450 499
3 449 499 498
3 450 451 500
3 450 500 499
3 451 452 501
3 451 501 500
3 452 453 502
3 452 502 501
3 453 454 503
3 453 503 502
3 454 455 504
3 454 504 503
3 455 456 505
3 455 505 504
3 456 457 506
3 456 506 505
3 457 458 507
3 457 507 506
3 458 459 508
3 458 508 507
3 459 460 509
3 459 509 508
3 460 461 510
3 460 510 509
3 461 462 511
3 461 511 510
3 462 463 512
3 462 512 511
3 463 464 513
3 463 513 512
3 464 465 514
3 464 514 513
3 465 466 515
3 465 515 514
3 466 467 516
3 466 516 515
3 467 468 517
3 467 517 516
3 468 469 518
3 468 518 517
3 469 470 519
3 469 519 518
3 470 422 471
3 470 471 519
3 579 520 578
3 520 521 578
3 578 521 577
3 521 522 577
3 577 522 576
3 522 523 576
3 576 523 575
3 523 524 575
3 575 524 574
3 524 525 574
3 574 525 573
3 525 526 573
3 573 526 572
3 526 527 572
3 572 527 571
3 527 528 571
3 571 528 570
3 528 529 570
3 570 529 569
3 529 530 569
3 569 530 568
3 530 531 568
3 568 531 567
3 531 532 567
3 567 532 566
3 532 533 566
3 566 533 565
3 533 534 565
3 565 534 564
3 534 535 564
3 564 535 563
3 535 536 563
3 563 536 562
3 536 537 562
3 562 537 561
3 537 538 561
3 561 538 560
3 538 539 560
3 560 539 559
3 539 540 559
3 559 540 558
3 540 541 558
3 558 541 557
3 541 542 557
3 557 542 556
3 542 543 556
3 556 543 555
3 543 544 555
3 555 544 554
3 544 545 554
3 554 545 553
3 545 546 553
3 553 546 552
3 546 547 552
3 552 547 551
3 547 548 551
3 551 548 550
3 548 549 550
3 632 633 681
3 632 681 680
3 633 634 682
3 633 682 681
3 634 635 683
3 634 683 682
3 635 636 684
3 635 684 683
3 636 637 684
3 684 637 685
3 637 638 685
3 685 638 686
3 638 639 687
3 638 687 686
3 639 640 687
3 687 640 688
3 640 641 688
3 688 641 689
3 641 642 689
3 689 642 690
3 642 643 691
3 642 691 690
3 643 644 691
3 691 644 692
3 644 645 693
3 644 693 692
3 645 646 694
3 645 694 693
3 646 647 694
3 694 647 695
3 647 648 696
3 647 696 695
3 648 649 697
3 648 697 696
3 649 650 697
3 697 650 698
3 650 651 698
3 698 651 699
3 651 652 699
3 699 652 700
3 652 653 700
3 700 653 701
3 653 654 701
3 701 654 702
3 654 655 702
3 702 655 703
3 655 656 704
3 655 704 703
3 656 657 705
3 656 705 704
3 657 658 706
3 657 706 705
3 658 659 707
3 658 707 706
3 659 660 708
3 659 708 707
3 660 661 709
3 660 709 708
3 661 662 710
3 661 710 709
3 662 663 710
3 710 663 711
3 663 664 711
3 711 664 712
3 664 665 713
3 664 713 712
3 665 666 713
3 713 666 714
3 666 667 714
3 714 667 715
3 667 668 716
3 667 716 715
3 668 669 716
3 716 669 717
3 669 670 718
3 669 718 717
3 670 671 719
3 670 719 718
3 671 672 720
3 671 720 719
3 672 673 720
3 720 673 721
3 673 674 722
3 673 722 721
3 674 675 723
3 674 723 722
3 675 676 723
3 723 676 724
3 676 677 724
3 724 677 725
3 677 678 725
3 725 678 726
3 678 679 726
3 726 679 727
3 680 681 728
3 728 681 729
3 681 682 729
3 729 682 730
3 682 683 730
3 730 683 731
3 683 684 731
3 731 684 732
3 684 685 732
3 732 685 733
3 685 686 734
3 685 734 733
3 686 687 734
3 734 687 735
3 687 688 736
3 687 736 735
3 688 689 737
3 688 737 736
3 689 690 737
3 737 690 738
3 690 691 738
3 738 691 739
3 691 692 740
3 691 740 739
3 692 693 740
3 740 693 741
3 693 694 741
3 741 694 742
3 694 695 742
3 742 695 743
3 695 696 743
3 743 696 744
3 696 697 745
3 696 745 744
3 697 698 746
3 697 746 745
3 698 699 747
3 698 747 746
3 699 700 748
3 699 748 747
3 700 701 749
3 700 749 748
3 701 702 750
3 701 750 749
3 702 703 751
3 702 751 750
3 703 704 752
3 703 752 751
3 704 705 752
3 752 705 753
3 705 706 753
3 753 706 754
3 706 707 754
3 754 707 755
3 707 708 755
3 755 708 756
3 708 709 756
3 756 709 757
3 709 710 758
3 709 758 757
3 710 711 758
3 758 711 759
3 711 712 760
3 711 760 759
3 712 713 761
3 712 761 760
3 713 714 762
3 713 762 761
3 714 715 763
3 714 763 762
3 715 716 763
3 763 716 764
3 716 717 765
3 716 765 764
3 717 718 766
3 717 766 765
3 718 719 766
3 766 719 767
3 719 720 767
3 767 720 768
3 720 721 769
3 720 769 768
3 721 722 769
3 769 722 770
3 722 723 771
3 722 771 770
3 723 724 772
3 723 772 771
3 724 725 773
3 724 773 772
3 725 726 774
3 725 774 773
3 726 727 775
3 726 775 774
3 631 580 581
3 581 582 680
3 582 583 632
3 583 471 472
3 472 473 632
3 473 474 633
3 474 475 634
3 475 476 635
3 476 477 636
3 477 478 637
3 478 479 638
3 479 480 639
3 480 481 640
3 481 482 641
3 482 483 642
3 483 484 643
3 484 485 644
3 485 486 645
3 486 487 646
3 487 488 647
3 488 489 649
3 489 490 650
3 490 491 651
3 491 492 652
3 492 493 653
3 493 494 654
3 494 495 655
3 495 496 656
3 496 497 657
3 497 498 658
3 498 499 659
3 499 500 660
3 500 501 661
3 501 502 662
3 502 503 663
3 503 504 664
3 504 505 665
3 505 506 666
3 506 507 667
3 507 508 668
3 508 509 669
3 509 510 670
3 510 511 671
3 511 512 672
3 512 513 673
3 513 514 673
3 514 515 674
3 515 516 675
3 516 517 676
3 517 518 677
3 518 519 678
3 519 471 583
3 583 582 679
3 582 581 727
3 581 580 584
3 584 585 774
3 585 586 773
3 586 587 772
3 587 588 771
3 588 589 770
3 589 590 769
3 590 591 769
3 591 592 768
3 592 593 767
3 593 594 766
3 594 595 765
3 595 596 764
3 596 597 763
3 597 598 762
3 598 599 761
3 599 600 760
3 600 601 759
3 601 602 758
3 602 603 757
3 603 604 756
3 604 605 755
3 605 606 754
3 606 607 753
3 607 608 752
3 608 609 751
3 609 610 750
3 610 611 749
3 611 612 748
3 612 613 747
3 613 614 746
3 614 615 745
3 615 616 743
3 616 617 742
3 617 618 741
3 618 619 740
3 619 620 739
3 620 621 738
3 621 622 737
3 622 623 736
3 623 624 735
3 624 625 734
3 625 626 733
3 626 627 732
3 627 628 731
3 628 629 730
3 629 630 729
3 630 631 728
3 633 632 473
3 634 633 474
3 635 634 475
3 636 635 476
3 637 636 477
3 638 637 478
3 639 638 479
3 632 680 582
3 680 728 581
3 728 729 630
3 729 730 629
3 730 731 628
3 731 732 627
3 732 733 626
3 733 734 625
3 734 735 624
3 640 639 480
3 641 640 481
3 642 641 482
3 643 642 483
3 644 643 484
3 645 644 485
3 646 645 486
3 647 646 487
3 735 736 623
3 736 737 622
3 737 738 621
3 738 739 620
3 739 740 619
3 740 741 618
3 741 742 617
3 742 743 616
3 648 647 488
3 649 648 488
3 650 649 489
3 651 650 490
3 652 651 491
3 653 652 492
3 654 653 493
3 655 654 494
3 743 744 615
3 744 745 615
3 745 746 614
3 746 747 613
3 747 748 612
3 748 749 611
3 749 750 610
3 750 751 609
3 656 655 495
3 657 656 496
3 658 657 497
3 659 658 498
3 660 659 499
3 661 660 500
3 662 661 501
3 663 662 502
3 751 752 608
3 752 753 607
3 753 754 606
3 754 755 605
3 755 756 604
3 756 757 603
3 757 758 602
3 758 759 601
3 664 663 503
3 665 664 504
3 666 665 505
3 667 666 506
3 668 667 507
3 669 668 508
3 670 669 509
3 671 670 510
3 759 760 600
3 760 761 599
3 761 762 598
3 762 763 597
3 763 764 596
3 764 765 595
3 765 766 594
3 766 767 593
3 672 671 511
3 673 672 512
3 674 673 514
3 675 674 515
3 676 675 516
3 677 676 517
3 678 677 518
3 679 678 519
3 767 768 592
3 768 769 591
3 769 770 589
3 770 771 588
3 771 772 587
3 772 773 586
3 773 774 585
3 774 775 584
3 727 679 582
3 775 727 581
3 631 581 728
3 632 583 472
3 519 583 679
3 581 584 775
3 836 776 777
3 777 580 631
3 631 630 835
3 630 629 834
3 629 628 833
3 628 627 831
3 627 626 830
3 626 625 829
3 625 624 828
3 624 623 827
3 623 622 825
3 622 621 824
3 621 620 823
3 620 619 822
3 619 618 820
3 618 617 819
3 617 616 818
3 616 615 817
3 615 614 816
3 614 613 814
3 613 612 813
3 612 611 812
3 611 610 811
3 610 609 809
3 609 608 808
3 608 607 807
3 607 606 806
3 606 605 805
3 605 604 803
3 604 603 802
3 603 602 801
3 602 601 800
3 601 600 798
3 600 599 797
3 599 598 796
3 598 597 795
3 597 596 794
3 596 595 792
3 595 594 791
3 594 593 790
3 593 592 789
3 592 591 787
3 591 590 786
3 590 589 785
3 589 588 784
3 588 587 783
3 587 586 781
3 586 585 780
3 585 584 779
3 584 580 777
3 777 776 778
3 778 779 584
3 779 780 585
3 780 781 586
3 781 782 587
3 782 783 587
3 783 784 588
3 784 785 589
3 785 786 590
3 786 787 591
3 787 788 592
3 788 789 592
3 789 790 593
3 790 791 594
3 791 792 595
3 792 793 596
3 793 794 596
3 794 795 597
3 795 796 598
3 796 797 599
3 797 798 600
3 798 799 601
3 799 800 601
3 800 801 602
3 801 802 603
3 802 803 604
3 803 804 605
3 804 805 605
3 805 806 606
3 806 807 607
3 807 808 608
3 808 809 609
3 809 810 610
3 810 811 610
3 811 812 611
3 812 813 612
3 813 814 613
3 814 815 614
3 815 816 614
3 816 817 615
3 817 818 616
3 818 819 617
3 819 820 618
3 820 821 619
3 821 822 619
3 822 823 620
3 823 824 621
3 824 825 622
3 825 826 623
3 826 827 623
3 827 828 624
3 828 829 625
3 829 830 626
3 830 831 627
3 831 832 628
3 832 833 628
3 833 834 629
3 834 835 630
3 835 836 631
3 836 777 631
3 584 777 778
3 841 842 863
3 863 842 864
3 842 843 865
3 842 865 864
3 843 844 865
3 865 844 866
3 844 845 866
3 866 845 867
3 845 846 868
3 845 868 867
3 846 847 869
3 846 869 868
3 847 848 870
3 847 870 869
3 848 849 870
3 870 849 871
3 849 850 872
3 849 872 871
3 850 851 873
3 850 873 872
3 851 852 874
3 851 874 873
3 852 853 875
3 852 875 874
3 853 854 876
3 853 876 875
3 854 855 877
3 854 877 876
3 855 856 877
3 877 856 878
3 856 857 879
3 856 879 878
3 857 858 879
3 879 858 880
3 858 859 881
3 858 881 880
3 859 860 882
3 859 882 881
3 860 861 882
3 882 861 883
3 861 862 884
3 861 884 883
3 863 864 886
3 863 886 885
3 864 865 886
3 886 865 887
3 865 866 887
3 887 866 888
3 866 867 889
3 866 889 888
3 867 868 890
3 867 890 889
3 868 869 890
3 890 869 891
3 869 870 892
3 869 892 891
3 870 871 892
3 892 871 893
3 871 872 894
3 871 894 893
3 872 873 895
3 872 895 894
3 873 874 896
3 873 896 895
3 874 875 896
3 896 875 897
3 875 876 897
3 897 876 898
3 876 877 899
3 876 899 898
3 877 878 899
3 899 878 900
3 878 879 901
3 878 901 900
3 879 880 901
3 901 880 902
3 880 881 902
3 902 881 903
3 881 882 904
3 881 904 903
3 882 883 905
3 882 905 904
3 883 884 905
3 905 884 906
3 9 8 837
3 837 838 863
3 838 839 841
3 839 840 841
3 839 838 862
3 838 837 884
3 837 8 30
3 30 29 905
3 29 28 904
3 28 27 903
3 27 26 902
3 26 25 901
3 25 24 900
3 24 23 899
3 23 22 898
3 22 21 897
3 21 20 896
3 20 19 895
3 19 18 894
3 18 17 893
3 17 16 892
3 16 15 891
3 15 14 890
3 14 13 889
3 13 12 888
3 12 11 887
3 11 10 886
3 10 9 885
3 842 841 840
3 843 842 840
3 844 843 840
3 845 844 840
3 846 845 840
3 847 846 840
3 848 847 840
3 841 863 838
3 863 885 837
3 885 886 10
3 886 887 11
3 887 888 12
3 888 889 13
3 889 890 14
3 890 891 15
3 891 892 16
3 849 848 840
3 850 849 840
3 851 850 840
3 852 851 840
3 853 852 840
3 854 853 840
3 855 854 840
3 856 855 840
3 892 893 17
3 893 894 18
3 894 895 19
3 895 896 20
3 896 897 21
3 897 898 22
3 898 899 23
3 899 900 24
3 857 856 840
3 858 857 840
3 859 858 840
3 860 859 840
3 861 860 840
3 862 861 840
3 884 862 838
3 906 884 837
3 900 901 25
3 901 902 26
3 902 903 27
3 903 904 28
3 904 905 29
3 905 906 30
3 9 837 885
3 862 840 839
3 837 30 906
3 910 911 970
3 910 970 969
3 911 912 970
3 970 912 971
3 912 913 971
3 971 913 972
3 913 914 973
3 913 973 972
3 914 915 973
3 973 915 974
3 915 916 974
3 974 916 975
3 916 917 976
3 916 976 975
3 917 918 977
3 917 977 976
3 918 919 978
3 918 978 977
3 919 920 978
3 978 920 979
3 920 921 980
3 920 980 979
3 921 922 981
3 921 981 980
3 922 923 981
3 981 923 982
3 923 924 983
3 923 983 982
3 924 925 983
3 983 925 984
3 925 926 985
3 925 985 984
3 926 927 985
3 985 927 986
3 927 928 986
3 986 928 987
3 928 929 988
3 928 988 987
3 929 930 988
3 988 930 989
3 930 931 989
3 989 931 990
3 931 932 991
3 931 991 990
3 932 933 992
3 932 992 991
3 933 934 993
3 933 993 992
3 934 935 993
3 993 935 994
3 935 936 995
3 935 995 994
3 936 937 996
3 936 996 995
3 937 938 996
3 996 938 997
3 938 939 998
3 938 998 997
3 939 940 998
3 998 940 999
3 940 941 1000
3 940 1000 999
3 941 942 1000
3 1000 942 1001
3 942 943 1001
3 1001 943 1002
3 943 944 1003
3 943 1003 1002
3 944 945 1003
3 1003 945 1004
3 945 946 1004
3 1004 946 1005
3 946 947 1006
3 946 1006 1005
3 947 948 1007
3 947 1007 1006
3 948 949 1008
3 948 1008 1007
3 949 950 1008
3 1008 950 1009
3 950 951 1010
3 950 1010 1009
3 951 952 1011
3 951 1011 1010
3 952 953 1011
3 1011 953 1012
3 953 954 1013
3 953 1013 1012
3 954 955 1013
3 1013 955 1014
3 955 956 1015
3 955 1015 1014
3 956 957 1015
3 1015 957 1016
3 957 958 1016
3 1016 958 1017
3 958 959 1018
3 958 1018 1017
3 959 960 1018
3 1018 960 1019
3 960 961 1019
3 1019 961 1020
3 961 962 1021
3 961 1021 1020
3 962 963 1022
3 962 1022 1021
3 963 964 1023
3 963 1023 1022
3 964 965 1023
3 1023 965 1024
3 965 966 1025
3 965 1025 1024
3 966 967 1026
3 966 1026 1025
3 967 968 1026
3 1026 968 1027
3 969 970 1029
3 969 1029 1028
3 970 971 1030
3 970 1030 1029
3 971 972 1031
3 971 1031 1030
3 972 973 1032
3 972 1032 1031
3 973 974 1033
3 973 1033 1032
3 974 975 1034
3 974 1034 1033
3 975 976 1035
3 975 1035 1034
3 976 977 1035
3 1035 977 1036
3 977 978 1036
3 1036 978 1037
3 978 979 1037
3 1037 979 1038
3 979 980 1038
3 1038 980 1039
3 980 981 1039
3 1039 981 1040
3 981 982 1040
3 1040 982 1041
3 982 983 1042
3 982 1042 1041
3 983 984 1042
3 1042 984 1043
3 984 985 1044
3 984 1044 1043
3 985 986 1045
3 985 1045 1044
3 986 987 1046
3 986 1046 1045
3 987 988 1047
3 987 1047 1046
3 988 989 1048
3 988 1048 1047
3 989 990 1049
3 989 1049 1048
3 990 991 1050
3 990 1050 1049
3 991 992 1050
3 1050 992 1051
3 992 993 1051
3 1051 993 1052
3 993 994 1052
3 1052 994 1053
3 994 995 1053
3 1053 995 1054
3 995 996 1054
3 1054 996 1055
3 996 997 1055
3 1055 997 1056
3 997 998 1057
3 997 1057 1056
3 998 999 1057
3 1057 999 1058
3 999 1000 1059
3 999 1059 1058
3 1000 1001 1060
3 1000 1060 1059
3 1001 1002 1061
3 1001 1061 1060
3 1002 1003 1062
3 1002 1062 1061
3 1003 1004 1063
3 1003 1063 1062
3 1004 1005 1064
3 1004 1064 1063
3 1005 1006 1065
3 1005 1065 1064
3 1006 1007 1065
3 1065 1007 1066
3 1007 1008 1066
3 1066 1008 1067
3 1008 1009 1067
3 1067 1009 1068
3 1009 1010 1068
3 1068 1010 1069
3 1010 1011 1069
3 1069 1011 1070
3 1011 1012 1070
3 1070 1012 1071
3 1012 1013 1072
3 1012 1072 1071
3 1013 1014 1072
3 1072 1014 1073
3 1014 1015 1074
3 1014 1074 1073
3 1015 1016 1075
3 1015 1075 1074
3 1016 1017 1076
3 1016 1076 1075
3 1017 1018 1077
3 1017 1077 1076
3 1018 1019 1078
3 1018 1078 1077
3 1019 1020 1079
3 1019 1079 1078
3 1020 1021 1080
3 1020 1080 1079
3 1021 1022 1080
3 1080 1022 1081
3 1022 1023 1081
3 1081 1023 1082
3 1023 1024 1082
3 1082 1024 1083
3 1024 1025 1083
3 1083 1025 1084
3 1025 1026 1084
3 1084 1026 1085
3 1026 1027 1085
3 1085 1027 1086
3 521 520 907
3 907 908 969
3 908 909 910
3 909 776 836
3 836 835 910
3 835 834 911
3 834 833 912
3 833 832 913
3 832 831 914
3 831 830 915
3 830 829 916
3 829 828 917
3 828 827 918
3 827 826 919
3 826 825 920
3 825 824 921
3 824 823 922
3 823 822 923
3 822 821 924
3 821 820 925
3 820 819 926
3 819 818 927
3 818 817 928
3 817 816 929
3 816 815 930
3 815 814 931
3 814 813 932
3 813 812 933
3 812 811 934
3 811 810 935
3 810 809 936
3 809 808 937
3 808 807 938
3 807 806 939
3 806 805 940
3 805 804 941
3 804 803 942
3 803 802 943
3 802 801 944
3 801 800 945
3 800 799 946
3 799 798 947
3 798 797 948
3 797 796 950
3 796 795 951
3 795 794 952
3 794 793 953
3 793 792 954
3 792 791 955
3 791 790 956
3 790 789 957
3 789 788 958
3 788 787 959
3 787 786 960
3 786 785 961
3 785 784 962
3 784 783 963
3 783 782 964
3 782 781 965
3 781 780 966
3 780 779 967
3 779 778 968
3 778 776 909
3 909 908 968
3 908 907 1027
3 907 520 579
3 579 578 1085
3 578 577 1084
3 577 576 1083
3 576 575 1082
3 575 574 1081
3 574 573 1080
3 573 572 1079
3 572 571 1078
3 571 570 1077
3 570 569 1076
3 569 568 1075
3 568 567 1074
3 567 566 1073
3 566 565 1072
3 565 564 1071
3 564 563 1070
3 563 562 1069
3 562 561 1068
3 561 560 1067
3 560 559 1066
3 559 558 1065
3 558 557 1064
3 557 556 1063
3 556 555 1062
3 555 554 1061
3 554 553 1060
3 553 552 1059
3 552 551 1058
3 551 550 1057
3 550 549 1056
3 549 548 1055
3 548 547 1054
3 547 546 1053
3 546 545 1052
3 545 544 1051
3 544 543 1050
3 543 542 1049
3 542 541 1048
3 541 540 1047
3 540 539 1046
3 539 538 1045
3 538 537 1044
3 537 536 1043
3 536 535 1042
3 535 534 1041
3 534 533 1040
3 533 532 1039
3 532 531 1038
3 531 530 1037
3 530 529 1036
3 529 528 1035
3 528 527 1034
3 527 526 1033
3 526 525 1032
3 525 524 1031
3 524 523 1030
3 523 522 1029
3 522 521 1028
3 911 910 835
3 912 911 834
3 913 912 833
3 914 913 832
3 915 914 831
3 916 915 830
3 917 916 829
3 910 969 908
3 969 1028 907
3 1028 1029 522
3 1029 1030 523
3 1030 1031 524
3 1031 1032 525
3 1032 1033 526
3 1033 1034 527
3 1034 1035 528
3 918 917 828
3 919 918 827
3 920 919 826
3 921 920 825
3 922 921 824
3 923 922 823
3 924 923 822
3 925 924 821
3 1035 1036 529
3 1036 1037 530
3 1037 1038 531
3 1038 1039 532
3 1039 1040 533
3 1040 1041 534
3 1041 1042 535
3 1042 1043 536
3 926 925 820
3 927 926 819
3 928 927 818
3 929 928 817
3 930 929 816
3 931 930 815
3 932 931 814
3 933 932 813
3 1043 1044 537
3 1044 1045 538
3 1045 1046 539
3 1046 1047 540
3 1047 1048 541
3 1048 1049 542
3 1049 1050 543
3 1050 1051 544
3 934 933 812
3 935 934 811
3 936 935 810
3 937 936 809
3 938 937 808
3 939 938 807
3 940 939 806
3 941 940 805
3 1051 1052 545
3 1052 1053 546
3 1053 1054 547
3 1054 1055 548
3 1055 1056 549
3 1056 1057 550
3 1057 1058 551
3 1058 1059 552
3 942 941 804
3 943 942 803
3 944 943 802
3 945 944 801
3 946 945 800
3 947 946 799
3 948 947 798
3 949 948 797
3 1059 1060 553
3 1060 1061 554
3 1061 1062 555
3 1062 1063 556
3 1063 1064 557
3 1064 1065 558
3 1065 1066 559
3 1066 1067 560
3 950 949 797
3 951 950 796
3 952 951 795
3 953 952 794
3 954 953 793
3 955 954 792
3 956 955 791
3 957 956 790
3 1067 1068 561
3 1068 1069 562
3 1069 1070 563
3 1070 1071 564
3 1071 1072 565
3 1072 1073 566
3 1073 1074 567
3 1074 1075 568
3 958 957 789
3 959 958 788
3 960 959 787
3 961 960 786
3 962 961 785
3 963 962 784
3 964 963 783
3 965 964 782
3 1075 1076 569
3 1076 1077 570
3 1077 1078 571
3 1078 1079 572
3 1079 1080 573
3 1080 1081 574
3 1081 1082 575
3 1082 1083 576
3 966 965 781
3 967 966 780
3 968 967 779
3 1027 968 908
3 1086 1027 907
3 1083 1084 577
3 1084 1085 578
3 1085 1086 579
3 521 907 1028
3 910 909 836
3 968 778 909
3 907 579 1086

CELL_TYPES 2170
5 5 5 5 5 5 5 5 5 5 5 5 5 5 5 5 5 5 5 5
5 5 5 5 5 5 5 5 5 5 5 5 5 5 5 5 5 5 5 5
5 5 5 5 5 5 5 5 5 5 5 5 5 5 5 5 5 5 5 5
5 5 5 5 5 5 5 5 5 5 5 5 5 5 5 5 5 5 5 5
5 5 5 5 5 5 5 5 5 5 5 5 5 5 5 5 5 5 5 5
5 5 5 5 5 5 5 5 5 5 5 5 5 5 5 5 5 5 5 5
5 5 5 5 5 5 5 5 5 5 5 5 5 5 5 5 5 5 5 5
5 5 5 5 5 5 5 5 5 5 5 5 5 5 5 5 5 5 5 5
5 5 5 5 5 5 5 5 5 5 5 5 5 5 5 5 5 5 5 5
5 5 5 5 5 5 5 5 5 5 5 5 5 5 5 5 5 5 5 5
5 5 5 5 5 5 5 5 5 5 5 5 5 5 5 5 5 5 5 5
5 5 5 5 5 5 5 5 5 5 5 5 5 5 5 5 5 5 5 5
5 5 5 5 5 5 5 5 5 5 5 5 5 5 5 5 5 5 5 5
5 5 5 5 5 5 5 5 5 5 5 5 5 5 5 5 5 5 5 5
5 5 5 5 5 5 5 5 5 5 5 5 5 5 5 5 5 5 5 5
5 5 5 5 5 5 5 5 5 5 5 5 5 5 5 5 5 5 5 5
5 5 5 5 5 5 5 5 5 5 5 5 5 5 5 5 5 5 5 5
5 5 5 5 5 5 5 5 5 5 5 5 5 5 5 5 5 5 5 5
5 5 5 5 5 5 5 5 5 5 5 5 5 5 5 5 5 5 5 5
5 5 5 5 5 5 5 5 5 5 5 5 5 5 5 5 5 5 5 5
5 5 5 5 5 5 5 5 5 5 5 5 5 5 5 5 5 5 5 5
5 5 5 5 5 5 5 5 5 5 5 5 5 5 5 5 5 5 5 5
5 5 5 5 5 5 5 5 5 5 5 5 5 5 5 5 5 5 5 5
5 5 5 5 5 5 5 5 5 5 5 5 5 5 5 5 5 5 5 5
5 5 5 5 5 5 5 5 5 5 5 5 5 5 5 5 5 5 5 5
5 5 5 5 5 5 5 5 5 5 5 5 5 5 5 5 5 5 5 5
5 5 5 5 5 5 5 5 5 5 5 5 5 5 5 5 5 5 5 5
5 5 5 5 5 5 5 5 5 5 5 5 5 5 5 5 5 5 5 5
5 5 5 5 5 5 5 5 5 5 5 5 5 5 5 5 5 5 5 5
5 5 5 5 5 5 5 5 5 5 5 5 5 5 5 5 5 5 5 5
5 5 5 5 5 5 5 5 5 5 5 5 5 5 5 5 5 5 5 5
5 5 5 5 5 5 5 5 5 5 5 5 5 5 5 5 5 5 5 5
5 5 5 5 5 5 5 5 5 5 5 5 5 5 5 5 5 5 5 5
5 5 5 5 5 5 5 5 5 5 5 5 5 5 5 5 5 5 5 5
5 5 5 5 5 5 5 5 5 5 5 5 5 5 5 5 5 5 5 5
5 5 5 5 5 5 5 5 5 5 5 5 5 5 5 5 5 5 5 5
5 5 5 5 5 5 5 5 5 5 5 5 5 5 5 5 5 5 5 5
5 5 5 5 5 5 5 5 5 5 5 5 5 5 5 5 5 5 5 5
5 5 5 5 5 5 5 5 5 5 5 5 5 5 5 5 5 5 5 5
5 5 5 5 5 5 5 5 5 5 5 5 5 5 5 5 5 5 5 5
5 5 5 5 5 5 5 5 5 5 5 5 5 5 5 5 5 5 5 5
5 5 5 5 5 5 5 5 5 5 5 5 5 5 5 5 5 5 5 5
5 5 5 5 5 5 5 5 5 5 5 5 5 5 5 5 5 5 5 5
5 5 5 5 5 5 5 5 5 5 5 5 5 5 5 5 5 5 5 5
5 5 5 5 5 5 5 5 5 5 5 5 5 5 5 5 5 5 5 5
5 5 5 5 5 5 5 5 5 5 5 5 5 5 5 5 5 5 5 5
5 5 5 5 5 5 5 5 5 5 5 5 5 5 5 5 5 5 5 5
5 5 5 5 5 5 5 5 5 5 5 5 5 5 5 5 5 5 5 5
5 5 5 5 5 5 5 5 5 5 5 5 5 5 5 5 5 5 5 5
5 5 5 5 5 5 5 5 5 5 5 5 5 5 5 5 5 5 5 5
5 5 5 5 5 5 5 5 5 5 5 5 5 5 5 5 5 5 5 5
5 5 5 5 5 5 5 5 5 5 5 5 5 5 5 5 5 5 5 5
5 5 5 5 5 5 5 5 5 5 5 5 5 5 5 5 5 5 5 5
5 5 5 5 5 5 5 5 5 5 5 5 5 5 5 5 5 5 5 5
5 5 5 5 5 5 5 5 5 5 5 5 5 5 5 5 5 5 5 5
5 5 5 5 5 5 5 5 5 5 5 5 5 5 5 5 5 5 5 5
5 5 5 5 5 5 5 5 5 5 5 5 5 5 5 5 5 5 5 5
5 5 5 5 5 5 5 5 5 5 5 5 5 5 5 5 5 5 5 5
5 5 5 5 5 5 5 5 5 5 5 5 5 5 5 5 5 5 5 5
5 5 5 5 5 5 5 5 5 5 5 5 5 5 5 5 5 5 5 5
5 5 5 5 5 5 5 5 5 5 5 5 5 5 5 5 5 5 5 5
5 5 5 5 5 5 5 5 5 5 5 5 5 5 5 5 5 5 5 5
5 5 5 5 5 5 5 5 5 5 5 5 5 5 5 5 5 5 5 5
5 5 5 5 5 5 5 5 5 5 5 5 5 5 5 5 5 5 5 5
5 5 5 5 5 5 5 5 5 5 5 5 5 5 5 5 5 5 5 5
5 5 5 5 5 5 5 5 5 5 5 5 5 5 5 5 5 5 5 5
5 5 5 5 5 5 5 5 5 5 5 5 5 5 5 5 5 5 5 5
5 5 5 5 5 5 5 5 5 5 5 5 5 5 5 5 5 5 5 5
5 5 5 5 5 5 5 5 5 5 5 5 5 5 5 5 5 5 5 5
5 5 5 5 5 5 5 5 5 5 5 5 5 5 5 5 5 5 5 5
5 5 5 5 5 5 5 5 5 5 5 5 5 5 5 5 5 5 5 5
5 5 5 5 5 5 5 5 5 5 5 5 5 5 5 5 5 5 5 5
5 5 5 5 5 5 5 5 5 5 5 5 5 5 5 5 5 5 5 5
5 5 5 5 5 5 5 5 5 5 5 5 5 5 5 5 5 5 5 5
5 5 5 5 5 5 5 5 5 5 5 5 5 5 5 5 5 5 5 5
5 5 5 5 5 5 5 5 5 5 5 5 5 5 5 5 5 5 5 5
5 5 5 5 5 5 5 5 5 5 5 5 5 5 5 5 5 5 5 5
5 5 5 5 5 5 5 5 5 5 5 5 5 5 5 5 5 5 5 5
5 5 5 5 5 5 5 5 5 5 5 5 5 5 5 5 5 5 5 5
5 5 5 5 5 5 5 5 5 5 5 5 5 5 5 5 5 5 5 5
5 5 5 5 5 5 5 5 5 5 5 5 5 5 5 5 5 5 5 5
5 5 5 5 5 5 5 5 5 5 5 5 5 5 5 5 5 5 5 5
5 5 5 5 5 5 5 5 5 5 5 5 5 5 5 5 5 5 5 5
5 5 5 5 5 5 5 5 5 5 5 5 5 5 5 5 5 5 5 5
5 5 5 5 5 5 5 5 5 5 5 5 5 5 5 5 5 5 5 5
5 5 5 5 5 5 5 5 5 5 5 5 5 5 5 5 5 5 5 5
5 5 5 5 5 5 5 5 5 5 5 5 5 5 5 5 5 5 5 5
5 5 5 5 5 5 5 5 5 5 5 5 5 5 5 5 5 5 5 5
5 5 5 5 5 5 5 5 5 5 5 5 5 5 5 5 5 5 5 5
5 5 5 5 5 5 5 5 5 5 5 5 5 5 5 5 5 5 5 5
5 5 5 5 5 5 5 5 5 5 5 5 5 5 5 5 5 5 5 5
5 5 5 5 5 5 5 5 5 5 5 5 5 5 5 5 5 5 5 5
5 5 5 5 5 5 5 5 5 5 5 5 5 5 5 5 5 5 5 5
5 5 5 5 5 5 5 5 5 5 5 5 5 5 5 5 5 5 5 5
5 5 5 5 5 5 5 5 5 5 5 5 5 5 5 5 5 5 5 5
5 5 5 5 5 5 5 5 5 5 5 5 5 5 5 5 5 5 5 5
5 5 5 5 5 5 5 5 5 5 5 5 5 5 5 5 5 5 5 5
5 5 5 5 5 5 5 5 5 5 5 5 5 5 5 5 5 5 5 5
5 5 5 5 5 5 5 5 5 5 5 5 5 5 5 5 5 5 5 5
5 5 5 5 5 5 5 5 5 5 5 5 5 5 5 5 5 5 5 5
5 5 5 5 5 5 5 5 5 5 5 5 5 5 5 5 5 5 5 5
5 5 5 5 5 5 5 5 5 5 5 5 5 5 5 5 5 5 5 5
5 5 5 5 5 5 5 5 5 5 5 5 5 5 5 5 5 5 5 5
5 5 5 5 5 5 5 5 5 5 5 5 5 5 5 5 5 5 5 5
5 5 5 5 5 5 5 5 5 5 5 5 5 5 5 5 5 5 5 5
5 5 5 5 5 5 5 5 5 5 5 5 5 5 5 5 5 5 5 5
5 5 5 5 5 5 5 5 5 5 5 5 5 5 5 5 5 5 5 5
5 5 5 5 5 5 5 5 5 5 5 5 5 5 5 5 5 5 5 5
5 5 5 5 5 5 5 5 5 5

CELL_DATA 2170
FIELD FieldData 1
PATCH_IDS 1 2170 int
1 1 1 1 1 1 1 1 1 1 1 1 1 1 1 1 1 1 1 1
1 1 1 1 1 1 1 1 1 1 1 1 1 1 1 1 1 1 1 1
1 1 1 1 1 1 1 1 1 1 1 1 1 1 1 1 1 1 1 1
1 1 1 1 1 1 1 1 1 1 1 1 1 1 1 1 1 1 1 1
1 1 1 1 1 1 1 1 1 1 1 1 1 1 1 1 1 1 1 1
1 1 1 1 1 1 1 1 1 1 1 1 1 1 1 1 1 1 1 1
1 1 1 1 1 1 1 1 1 1 1 1 1 1 1 1 1 1 1 1
1 1 1 1 1 1 1 1 1 1 1 1 1 1 1 1 1 1 1 1
1 1 1 1 1 1 1 1 1 1 1 1 1 1 1 1 1 1 1 1
1 1 1 1 1 1 1 1 1 1 1 1 1 1 1 1 1 1 1 1
1 1 1 1 1 1 1 1 1 1 1 1 1 1 1 1 1 1 1 1
1 1 1 1 1 1 1 1 1 1 1 1 1 1 1 1 1 1 1 1
1 1 1 1 1 1 1 1 1 1 1 1 1 1 1 1 1 1 1 1
1 1 1 1 1 1 1 1 1 1 1 1 1 1 1 1 1 1 1 1
1 1 1 1 1 1 1 1 1 1 1 1 1 1 1 1 1 1 1 1
1 1 1 1 1 1 1 1 1 1 1 1 1 1 1 1 1 1 1 1
1 1 1 1 1 1 1 1 1 1 1 1 1 1 1 1 1 1 1 1
1 1 1 1 1 1 1 1 1 1 1 1 1 1 1 1 1 1 1 1
1 1 1 1 1 1 1 1 1 1 1 1 1 1 1 1 1 1 1 1
1 1 1 1 1 1 1 1 1 1 1 1 1 1 1 1 1 1 1 1
1 1 1 1 1 1 1 1 1 1 1 1 1 1 1 1 1 1 1 1
1 1 1 1 1 1 1 1 1 1 1 1 1 1 1 1 1 1 1 1
1 1 1 1 1 1 1 1 1 1 1 1 1 1 1 1 1 1 1 1
1 1 1 1 1 1 1 1 1 1 1 1 1 1 1 1 1 1 1 1
1 1 1 1 1 1 1 1 1 1 1 1 1 1 1 1 1 1 1 1
1 1 1 1 1 1 1 1 1 1 1 1 1 1 1 1 1 1 1 1
1 1 1 1 1 1 1 1 1 1 1 1 1 1 1 1 1 1 1 1
1 1 1 1 1 1 1 1 1 1 1 1 1 1 1 1 1 1 1 1
1 1 1 1 1 1 1 1 1 1 1 1 1 1 1 1 1 1 1 1
1 1 1 1 1 1 1 1 1 1 1 1 1 1 1 1 1 1 1 1
1 1 1 1 1 1 1 1 1 1 1 1 1 1 1 1 1 1 1 1
1 1 1 1 1 1 1 1 1 1 1 1 1 1 1 1 1 1 1 1
1 1 1 1 1 1 1 1 1 1 1 1 1 1 1 1 1 1 1 1
1 1 1 1 1 1 1 1 1 1 1 1 1 1 1 1 1 1 1 1
1 1 1 1 1 1 1 1 1 1 1 1 1 1 1 1 1 1 1 1
1 1 1 1 1 1 1 1 1 1 1 1 1 1 1 1 1 1 1 1
1 1 1 1 1 1 1 1 1 1 1 1 1 1 1 1 1 1 1 1
1 1 1 1 1 1 1 1 1 1 1 1 1 1 1 1 1 1 1 1
1 1 1 1 1 1 1 1 1 1 1 1 2 2 2 2 2 2 2 2
2 2 2 2 2 2 2 2 2 2 2 2 2 2 2 2 2 2 2 2
2 2 2 2 2 2 2 2 2 2 2 2 2 2 2 2 2 2 2 2
2 2 2 2 2 2 2 2 2 2 2 2 2 2 2 2 2 2 2 2
2 2 2 2 2 2 2 2 2 2 2 2 2 2 2 2 2 2 2 2
2 2 2 2 2 2 2 2 2 2 2 2 2 2 2 2 2 2 2 2
2 2 2 2 2 2 2 2 2 2 2 2 2 2 2 2 2 2 2 2
2 2 2 2 2 2 2 2 2 2 2 2 2 2 2 2 2 2 2 2
2 2 2 2 2 2 2 2 2 2 2 2 2 2 2 2 2 2 2 2
2 2 2 2 2 2 2 2 2 2 2 2 2 2 2 2 2 2 2 2
2 2 2 2 2 2 2 2 3 3 3 3 3 3 3 3 3 3 3 3
3 3 3 3 3 3 3 3 3 3 3 3 3 3 3 3 3 3 3 3
3 3 3 3 3 3 3 3 3 3 3 3 3 3 3 3 3 3 3 3
3 3 3 3 3 3 4 4 4 4 4 4 4 4 4 4 4 4 4 4
4 4 4 4 4 4 4 4 4 4 4 4 4 4 4 4 4 4 4 4
4 4 4 4 4 4 4 4 4 4 4 4 4 4 4 4 4 4 4 4
4 4 4 4 4 4 4 4 4 4 4 4 4 4 4 4 4 4 4 4
4 4 4 4 4 4 4 4 4 4 4 4 4 4 4 4 4 4 4 4
4 4 4 4 4 4 4 4 4 4 4 4 4 4 4 4 4 4 4 4
4 4 4 4 4 4 4 4 4 4 4 4 4 4 4 4 4 4 4 4
4 4 4 4 4 4 4 4 4 4 4 4 4 4 4 4 4 4 4 4
4 4 4 4 4 4 4 4 4 4 4 4 4 4 4 4 4 4 4 4
4 4 4 4 4 4 4 4 4 4 4 4 4 4 4 4 4 4 4 4
4 4 4 4 4 4 4 4 4 4 4 4 4 4 4 4 4 4 4 4
4 4 4 4 4 4 4 4 4 4 4 4 4 4 4 4 4 4 4 4
4 4 4 4 4 4 4 4 4 4 4 4 4 4 4 4 4 4 4 4
4 4 4 4 4 4 4 4 4 4 4 4 4 4 4 4 4 4 4 4
4 4 4 4 4 4 4 4 4 4 4 4 4 4 4 4 4 4 4 4
4 4 4 4 4 4 4 4 4 4 4 4 4 4 4 4 4 4 4 4
4 4 4 4 4 4 4 4 4 4 4 4 4 4 4 4 4 4 4 4
4 4 4 4 4 4 4 4 4 4 4 4 4 4 4 4 4 4 4 4
4 4 4 4 4 4 4 4 4 4 4 4 4 4 4 4 4 4 4 4
4 4 4 4 4 4 4 4 4 4 4 4 4 4 4 4 4 4 5 5
5 5 5 5 5 5 5 5 5 5 5 5 5 5 5 5 5 5 5 5
5 5 5 5 5 5 5 5 5 5 5 5 5 5 5 5 5 5 5 5
5 5 5 5 5 5 5 5 5 5 5 5 5 5 5 5 5 5 5 5
5 5 5 5 5 5 5 5 5 5 5 5 5 5 5 5 5 5 5 5
5 5 5 5 5 5 5 5 5 5 5 5 5 5 5 5 5 5 5 5
5 5 5 5 5 5 5 5 5 6 6 6 6 6 6 6 6 6 6 6
6 6 6 6 6 6 6 6 6 6 6 6 6 6 6 6 6 6 6 6
6 6 6 6 6 6 6 6 6 6 6 6 6 6 6 6 6 6 6 6
6 6 6 6 6 6 6 6 6 6 6 6 6 6 6 6 6 6 6 6
6 6 6 6 6 6 6 6 6 6 6 6 6 6 6 6 6 6 6 6
6 6 6 6 6 6 6 6 6 6 6 6 6 6 6 6 6 6 6 6
6 6 6 6 6 6 6 6 6 6 6 6 6 6 6 6 6 6 6 6
6 6 6 6 6 6 6 6 6 6 6 6 6 6 6 6 6 6 6 6
6 6 6 6 6 6 6 6 6 6 7 7 7 7 7 7 7 7 7 7
7 7 7 7 7 7 7 7 7 7 7 7 7 7 7 7 7 7 7 7
7 7 7 7 7 7 7 7 7 7 7 7 7 7 7 7 7 7 7 7
7 7 7 7 7 7 7 7 7 7 7 7 7 7 7 7 7 7 7 7
7 7 7 7 7 7 7 7 7 7 7 7 7 7 7 7 7 7 7 7
7 7 7 7 7 7 7 7 7 7 7 7 7 7 7 7 7 7 7 7
7 7 7 7 7 7 7 7 7 7 7 7 7 7 7 7 7 7 7 7
7 7 7 7 7 7 7 7 7 7 7 7 7 7 7 7 7 7 7 7
7 7 7 7 7 7 7 7 7 7 7 7 7 7 7 7 7 7 7 7
7 7 7 7 7 7 7 7 7 7 7 7 7 7 7 7 7 7 7 7
7 7 7 7 7 7 7 7 7 7 7 7 7 7 7 7 7 7 7 7
7 7 7 7 7 7 7 7 7 7 7 7 7 7 7 7 7 7 7 7
7 7 7 7 7 7 7 7 7 7 7 7 7 7 7 7 7 7 7 7
7 7 7 7 7 7 7 7 7 7 7 7 7 7 7 7 7 7 7 7
7 7 7 7 7 7 7 7 7 7 7 7 7 7 7 7 7 7 7 7
7 7 7 7 7 7 7 7 7 7 7 7 7 7 7 7 7 7 7 7
7 7 7 7 7 7 7 7 7 7 7 7 7 7 7 7 7 7 7 7
7 7 7 7 7 7 7 7 7 7 7 7 7 7 7 7 7 7 7 7
7 7 7 7 7 7 7 7 7 7 7 7 7 7 7 7 7 7 7 7
7 7 7 7 7 7 7 7 7 7 7 7 7 7 7 7 7 7 7 7
7 7 7 7 7 7 7 7 7 7 7 7 7 7 7 7 7 7 7 7
7 7 7 7 7 7 7 7 7 7 7 7 7 7 7 7 7 7 7 7
7 7 7 7 7 7 7 7 7 7 7 7 7 7 7 7 7 7 7 7
7 7 7 7 7 7 7 7 7 7 7 7 7 7 7 7 7 7 7 7
7 7 7 7 7 7 7 7 7 7 

