# vtk DataFile Version 3.0
Generated by FvKompasPlugin. Date/time (GMT): Sat Jun 20 04:52:43 2026
ASCII
DATASET UNSTRUCTURED_GRID
POINTS 66 double
17.023 7.16 3.76699999999999
17.023 7.08506201171875 4.288205200195312
17.023 6.866319091796875 4.767185485839843
17.023 6.521492309570313 5.16513671875
17.023 6.078517761230469 5.449819213867188
17.023 5.573282440185547 5.598169677734375
17.023 5.046717559814454 5.598169677734375
17.023 4.541482238769531 5.449819213867188
17.023 4.098507690429687 5.16513671875
17.023 3.753680908203125 4.767185485839843
17.023 3.53493798828125 4.288205200195312
17.023 3.46 3.766999999999991
17.023 3.53493798828125 3.245794799804687
17.023 3.753680908203125 2.766814514160156
17.023 4.098507690429687 2.36886328125
17.023 4.541482238769531 2.084180786132813
17.023 5.046717559814454 1.935830322265625
17.023 5.573282440185547 1.935830322265625
17.023 6.078517761230469 2.084180786132813
17.023 6.521492309570313 2.36886328125
17.023 6.866319091796875 2.766814514160156
17.023 7.08506201171875 3.245794799804687
-38.677 7.16 3.767
-38.677 7.08506201171875 4.288205200195312
-38.677 6.866319091796875 4.767185485839843
-38.677 6.521492309570313 5.16513671875
-38.677 6.078517761230469 5.449819213867188
-38.677 5.573282440185547 5.598169677734375
-38.677 5.046717559814454 5.598169677734375
-38.677 4.541482238769531 5.449819213867188
-38.677 4.098507690429687 5.16513671875
-38.677 3.753680908203125 4.767185485839843
-38.677 3.53493798828125 4.288205200195312
-38.677 3.46 3.767000000000001
-38.677 3.53493798828125 3.245794799804687
-38.677 3.753680908203125 2.766814514160156
-38.677 4.098507690429687 2.36886328125
-38.677 4.541482238769531 2.084180786132813
-38.677 5.046717559814454 1.935830322265625
-38.677 5.573282440185547 1.935830322265625
-38.677 6.078517761230469 2.084180786132813
-38.677 6.521492309570313 2.36886328125
-38.677 6.866319091796875 2.766814514160156
-38.677 7.08506201171875 3.245794799804687
-10.826443359375 7.16 3.766999999999995
-10.826443359375 7.08506201171875 4.288205200195312
-10.826443359375 6.866319091796875 4.767185485839843
-10.826443359375 6.521492309570313 5.16513671875
-10.826443359375 6.078517761230469 5.449819213867188
-10.826443359375 5.573282440185547 5.598169677734375
-10.826443359375 5.046717559814454 5.598169677734375
-10.826443359375 4.541482238769531 5.449819213867188
-10.826443359375 4.098507690429687 5.16513671875
-10.826443359375 3.753680908203125 4.767185485839843
-10.826443359375 3.53493798828125 4.288205200195312
-10.826443359375 3.46 3.766999999999996
-10.826443359375 3.53493798828125 3.245794799804687
-10.826443359375 3.753680908203125 2.766814514160156
-10.826443359375 4.098507690429687 2.36886328125
-10.826443359375 4.541482238769531 2.084180786132813
-10.826443359375 5.046717559814454 1.935830322265625
-10.826443359375 5.573282440185547 1.935830322265625
-10.826443359375 6.078517761230469 2.084180786132813
-10.826443359375 6.521492309570313 2.36886328125
-10.826443359375 6.866319091796875 2.766814514160156
-10.826443359375 7.08506201171875 3.245794799804687

CELLS 128 512
3 21 0 20
3 0 1 20
3 20 1 19
3 1 2 19
3 19 2 18
3 2 3 18
3 18 3 17
3 3 4 17
3 17 4 16
3 4 5 16
3 16 5 15
3 5 6 15
3 15 6 14
3 6 7 14
3 14 7 13
3 7 8 13
3 13 8 12
3 8 9 12
3 12 9 11
3 9 10 11
3 22 23 45
3 22 45 44
3 23 24 46
3 23 46 45
3 24 25 47
3 24 47 46
3 25 26 48
3 25 48 47
3 26 27 49
3 26 49 48
3 27 28 50
3 27 50 49
3 28 29 51
3 28 51 50
3 29 30 52
3 29 52 51
3 30 31 53
3 30 53 52
3 31 32 54
3 31 54 53
3 32 33 55
3 32 55 54
3 33 34 56
3 33 56 55
3 34 35 57
3 34 57 56
3 35 36 58
3 35 58 57
3 36 37 59
3 36 59 58
3 37 38 60
3 37 60 59
3 38 39 61
3 38 61 60
3 39 40 62
3 39 62 61
3 40 41 63
3 40 63 62
3 41 42 64
3 41 64 63
3 42 43 65
3 42 65 64
3 43 22 44
3 43 44 65
3 44 45 1
3 44 1 0
3 45 46 2
3 45 2 1
3 46 47 3
3 46 3 2
3 47 48 4
3 47 4 3
3 48 49 5
3 48 5 4
3 49 50 6
3 49 6 5
3 50 51 7
3 50 7 6
3 51 52 8
3 51 8 7
3 52 53 9
3 52 9 8
3 53 54 10
3 53 10 9
3 54 55 11
3 54 11 10
3 55 56 12
3 55 12 11
3 56 57 13
3 56 13 12
3 57 58 14
3 57 14 13
3 58 59 15
3 58 15 14
3 59 60 16
3 59 16 15
3 60 61 17
3 60 17 16
3 61 62 18
3 61 18 17
3 62 63 19
3 62 19 18
3 63 64 20
3 63 20 19
3 64 65 21
3 64 21 20
3 65 44 0
3 65 0 21
3 23 22 24
3 22 43 24
3 24 43 25
3 43 42 25
3 25 42 26
3 42 41 26
3 26 41 27
3 41 40 27
3 27 40 28
3 40 39 28
3 28 39 29
3 39 38 29
3 29 38 30
3 38 37 30
3 30 37 31
3 37 36 31
3 31 36 32
3 36 35 32
3 32 35 33
3 35 34 33

CELL_TYPES 128
5 5 5 5 5 5 5 5 5 5 5 5 5 5 5 5 5 5 5 5
5 5 5 5 5 5 5 5 5 5 5 5 5 5 5 5 5 5 5 5
5 5 5 5 5 5 5 5 5 5 5 5 5 5 5 5 5 5 5 5
5 5 5 5 5 5 5 5 5 5 5 5 5 5 5 5 5 5 5 5
5 5 5 5 5 5 5 5 5 5 5 5 5 5 5 5 5 5 5 5
5 5 5 5 5 5 5 5 5 5 5 5 5 5 5 5 5 5 5 5
5 5 5 5 5 5 5 5

CELL_DATA 128
FIELD FieldData 1
PATCH_IDS 1 128 int
1 1 1 1 1 1 1 1 1 1 1 1 1 1 1 1 1 1 1 1
2 2 2 2 2 2 2 2 2 2 2 2 2 2 2 2 2 2 2 2
2 2 2 2 2 2 2 2 2 2 2 2 2 2 2 2 2 2 2 2
2 2 2 2 2 2 2 2 2 2 2 2 2 2 2 2 2 2 2 2
2 2 2 2 2 2 2 2 2 2 2 2 2 2 2 2 2 2 2 2
2 2 2 2 2 2 2 2 3 3 3 3 3 3 3 3 3 3 3 3
3 3 3 3 3 3 3 3 

